<svg width="38" height="38" viewBox="0 0 38 38" fill="none" xmlns="http://www.w3.org/2000/svg">
<g clip-path="url(#clip0_48_1667)">
<path d="M30.8614 30.865C37.6563 24.0702 37.6563 13.0537 30.8614 6.25885C24.0666 -0.535961 13.0501 -0.535959 6.25525 6.25885C-0.539567 13.0537 -0.539567 24.0702 6.25525 30.865C13.0501 37.6599 24.0666 37.6599 30.8614 30.865Z" fill="#FF405C"/>
<path fill-rule="evenodd" clip-rule="evenodd" d="M19.8255 35.9176C20.0464 35.9017 20.266 35.8815 20.4845 35.857C23.3956 35.5358 26.1774 34.4806 28.5691 32.7904H28.5687C29.6883 32.0007 30.7115 31.0824 31.6173 30.0544C31.9394 29.6889 32.2464 29.3103 32.5381 28.9186C32.6237 28.8033 32.7078 28.6868 32.7904 28.5692C34.6096 25.9938 35.6909 22.9705 35.9176 19.8256L28.2663 10.7896L28.3325 10.8752L28.3939 10.9634L28.4504 11.0538L28.5019 11.1463L28.5485 11.2405L28.5902 11.3367L28.6271 11.4345L28.659 11.5336L28.6859 11.6339L28.708 11.7351L28.7252 11.8371L28.7375 11.9397L28.7447 12.0426L28.7471 12.1458L28.7447 12.249L28.7375 12.3519L28.7252 12.4545L28.708 12.5565L28.6859 12.658L28.659 12.7582L28.6271 12.8573L28.5902 12.9551L28.5485 13.0514L28.5019 13.1456L28.4504 13.2382L28.3939 13.3287L28.3325 13.4167L28.2663 13.5024L28.1951 13.5854L28.1191 13.6655L23.2219 18.5619L28.5954 24.1819L28.6038 24.2027L28.6219 24.2518L28.6388 24.3012L28.6545 24.3511L28.669 24.4014L28.6824 24.4522L28.6944 24.5029L28.7052 24.5544L28.7149 24.6063L28.7231 24.6585L28.7304 24.711L28.7362 24.7638L28.7407 24.817L28.7439 24.8702L28.7459 24.9239L28.7465 24.9777L28.7458 25.0316L28.7439 25.0852L28.7407 25.1385L28.7361 25.1916L28.7303 25.2445L28.7231 25.297L28.7147 25.3492L28.7051 25.4009L28.6943 25.4525L28.6822 25.5032L28.669 25.554L28.6545 25.6043L28.6387 25.6542L28.6218 25.7036L28.6036 25.7527L28.5843 25.8012L28.5638 25.8492L28.542 25.8967L28.5191 25.9436L28.4951 25.99L28.4699 26.0358L28.4436 26.081L28.4161 26.1256L28.3875 26.1696L28.3578 26.2131L28.327 26.2557L28.2951 26.2977L28.2621 26.3389L28.2279 26.3795L28.1927 26.4193L28.1564 26.4585L28.1191 26.4967L26.4974 28.1182L26.4172 28.1944L26.3344 28.2656L26.2487 28.3318L26.1606 28.3932L26.0701 28.4496L25.9776 28.5011L25.8833 28.5478L25.7871 28.5895L25.6893 28.6263L25.5902 28.6583L25.4899 28.6853L25.3884 28.7071L25.2864 28.7242L25.1839 28.7366L25.0809 28.7438L24.9777 28.7463L24.8746 28.7438L24.7717 28.7366L24.6691 28.7242L24.5671 28.7071L24.4656 28.6853L24.3654 28.6583L24.2663 28.6263L24.1812 28.5943L18.562 23.2218L13.6655 28.1189L13.6259 28.1575L13.5856 28.195L13.5444 28.2313L13.5025 28.2662L13.4601 28.3001L13.4169 28.3325L13.3734 28.3637L13.329 28.3938L13.2841 28.4228L13.2385 28.4505L13.1926 28.4769L13.1459 28.502L13.099 28.5259L13.0515 28.5486L13.0035 28.5704L12.9552 28.5907L12.9065 28.6097L12.8574 28.6274L12.8079 28.644L12.7582 28.6593L12.7083 28.6734L12.658 28.6863L12.6072 28.6979L12.5565 28.7084L12.5057 28.7175L12.4546 28.7255L12.4034 28.7322L12.3521 28.7377L12.3006 28.742L12.2491 28.7451L12.1975 28.7469L12.146 28.7476L12.0944 28.7469L12.0429 28.7451L11.9913 28.742L11.9399 28.7377L11.8886 28.7322L11.8374 28.7255L11.7866 28.7175L11.7359 28.7084L11.6851 28.6979L11.6344 28.6863L11.5841 28.6734L11.5341 28.6593L11.4844 28.644L11.4351 28.6274L11.386 28.6097L11.3373 28.5907L11.289 28.5704L11.2411 28.5486L11.1937 28.5259L11.1466 28.502L11.1001 28.4769L11.0541 28.4505L11.0086 28.4228L10.9637 28.3938L10.9193 28.3637L10.8758 28.3325L10.8323 28.3001L10.7898 28.2662L10.748 28.2313L19.8255 35.9176Z" fill="#D01273"/>
<path fill-rule="evenodd" clip-rule="evenodd" d="M28.1193 10.6265L26.4976 9.00497C26.094 8.60319 25.5476 8.37763 24.9781 8.37763C24.4086 8.37763 23.8622 8.60319 23.4586 9.00497L18.5622 13.902L13.6658 9.00497C13.2625 8.60257 12.716 8.37659 12.1463 8.37659C11.5766 8.37659 11.0301 8.60257 10.6268 9.00497L9.00524 10.6265C8.6029 11.0299 8.37695 11.5763 8.37695 12.146C8.37695 12.7157 8.6029 13.2622 9.00524 13.6655L13.9023 18.5619L9.00524 23.4583C8.60349 23.8619 8.37794 24.4083 8.37794 24.9778C8.37794 25.5473 8.60349 26.0936 9.00524 26.4973L10.6269 28.1189C11.0303 28.5211 11.5767 28.7469 12.1464 28.7469C12.716 28.7469 13.2625 28.5211 13.6659 28.1189L18.5622 23.2218L23.4586 28.1189C23.862 28.5213 24.4084 28.7472 24.9781 28.7472C25.5478 28.7472 26.0942 28.5213 26.4976 28.1189L28.1193 26.4973C28.521 26.0936 28.7465 25.5473 28.7465 24.9778C28.7465 24.4083 28.521 23.862 28.1193 23.4583L23.2221 18.5619L28.1193 13.6655C28.5216 13.2622 28.7475 12.7157 28.7475 12.146C28.7475 11.5763 28.5216 11.0299 28.1193 10.6265Z" fill="white"/>
</g>
<defs>
<clipPath id="clip0_48_1667">
<rect width="37.1239" height="37.1239" fill="white"/>
</clipPath>
</defs>
</svg>
