<svg width="401" height="215" viewBox="0 0 401 215" fill="none" xmlns="http://www.w3.org/2000/svg">
<path d="M0.453606 163.612L169.538 175.11L175.658 175.093L400.591 189.43L395.87 142.374L248.268 153.979L385.846 114.011L342.097 61.0842L235.983 137.575L311.509 29.6155L220.666 1.00689L204.621 137.66L175.66 1.0075L97.3784 20.0212L175.568 142.968L62.0917 48.3908L29.3102 88.0759L169.48 154.191L9.52837 126.232L0.453606 163.612Z" fill="url(#paint0_radial_132_25420)"/>
<g filter="url(#filter0_d_132_25420)">
<path d="M43.1619 132.516H99.2339C102.686 132.516 105.485 135.315 105.485 138.767V203.9C105.485 207.352 102.686 210.151 99.2339 210.151H43.1619C37.5303 210.151 34.7703 203.288 38.8335 199.389L63.3691 175.844C65.933 173.383 65.933 169.283 63.3691 166.823L38.8335 143.277C34.7703 139.378 37.5303 132.516 43.1619 132.516Z" fill="#8E4A85"/>
<path d="M43.1619 129.351H99.2339C102.686 129.351 105.485 132.15 105.485 135.602V200.735C105.485 204.187 102.686 206.986 99.2339 206.986H43.1619C37.5303 206.986 34.7703 200.124 38.8335 196.224L63.3691 172.679C65.933 170.218 65.933 166.119 63.3691 163.658L38.8335 140.113C34.7703 136.213 37.5303 129.351 43.1619 129.351Z" fill="url(#paint1_linear_132_25420)"/>
<path d="M349.5 132.512H293.428C289.975 132.512 287.176 135.311 287.176 138.763V203.896C287.176 207.348 289.975 210.147 293.428 210.147H349.5C355.131 210.147 357.891 203.285 353.828 199.385L329.292 175.84C326.729 173.38 326.729 169.28 329.292 166.819L353.828 143.274C357.891 139.375 355.131 132.512 349.5 132.512Z" fill="#8E4A85"/>
<path d="M349.5 129.349H293.428C289.976 129.349 287.177 132.148 287.177 135.6V200.733C287.177 204.185 289.976 206.984 293.428 206.984H349.5C355.132 206.984 357.892 200.122 353.828 196.222L329.293 172.677C326.729 170.217 326.729 166.117 329.293 163.656L353.828 140.111C357.892 136.211 355.132 129.349 349.5 129.349Z" fill="url(#paint2_linear_132_25420)"/>
<path d="M105.489 201.44V186.389V181.635H86.0227V182.428L105.489 201.44Z" fill="#B20D78"/>
<path d="M287.174 201.439V186.387V181.634L306.64 179.258C306.64 179.258 307.451 176.881 307.451 179.257L287.174 201.439Z" fill="#B20D78"/>
<rect x="79.5349" y="105.578" width="231.975" height="80.8036" rx="18.7537" fill="#A35699"/>
<rect x="79.5349" y="102.415" width="231.975" height="80.8036" rx="18.7537" fill="url(#paint3_linear_132_25420)"/>
</g>
<mask id="path-10-outside-1_132_25420" maskUnits="userSpaceOnUse" x="155.172" y="29.9143" width="78" height="78" fill="black">
<rect fill="white" x="155.172" y="29.9143" width="78" height="78"/>
<path fill-rule="evenodd" clip-rule="evenodd" d="M200.005 37.3462C197.693 32.7703 191.158 32.7703 188.846 37.3462L182.715 49.4794C181.793 51.3037 180.038 52.5621 178.014 52.8493L164.552 54.7598C160.447 55.3424 158.313 59.4797 159.497 62.9635C158.784 65.1143 159.209 67.6412 161.12 69.4602L170.671 78.5532C171.457 79.3012 172.021 80.2272 172.333 81.2328L170.237 93.164C170.053 94.2152 170.133 95.2164 170.417 96.1225L170.237 97.1476C169.344 102.235 174.655 106.149 179.25 103.79L191.57 97.4637C193.362 96.5434 195.488 96.5434 197.281 97.4637L209.601 103.79C214.196 106.149 219.507 102.235 218.613 97.1476L218.433 96.1225C218.718 95.2164 218.798 94.2152 218.613 93.164L216.518 81.2328C216.829 80.2272 217.394 79.3012 218.18 78.5532L227.731 69.4602C229.642 67.6412 230.067 65.1143 229.354 62.9635C230.538 59.4797 228.404 55.3424 224.299 54.7598L210.837 52.8493C208.813 52.5621 207.058 51.3037 206.136 49.4794L200.005 37.3462Z"/>
</mask>
<path fill-rule="evenodd" clip-rule="evenodd" d="M200.005 37.3462C197.693 32.7703 191.158 32.7703 188.846 37.3462L182.715 49.4794C181.793 51.3037 180.038 52.5621 178.014 52.8493L164.552 54.7598C160.447 55.3424 158.313 59.4797 159.497 62.9635C158.784 65.1143 159.209 67.6412 161.12 69.4602L170.671 78.5532C171.457 79.3012 172.021 80.2272 172.333 81.2328L170.237 93.164C170.053 94.2152 170.133 95.2164 170.417 96.1225L170.237 97.1476C169.344 102.235 174.655 106.149 179.25 103.79L191.57 97.4637C193.362 96.5434 195.488 96.5434 197.281 97.4637L209.601 103.79C214.196 106.149 219.507 102.235 218.613 97.1476L218.433 96.1225C218.718 95.2164 218.798 94.2152 218.613 93.164L216.518 81.2328C216.829 80.2272 217.394 79.3012 218.18 78.5532L227.731 69.4602C229.642 67.6412 230.067 65.1143 229.354 62.9635C230.538 59.4797 228.404 55.3424 224.299 54.7598L210.837 52.8493C208.813 52.5621 207.058 51.3037 206.136 49.4794L200.005 37.3462Z" fill="url(#paint4_linear_132_25420)"/>
<path d="M188.846 37.3462L186.056 35.9366V35.9366L188.846 37.3462ZM200.005 37.3462L202.795 35.9366V35.9366L200.005 37.3462ZM182.715 49.4794L179.925 48.0697L179.925 48.0697L182.715 49.4794ZM178.014 52.8493L177.575 49.7547L178.014 52.8493ZM164.552 54.7598L164.991 57.8544L164.991 57.8544L164.552 54.7598ZM159.497 62.9635L162.464 63.9473L162.794 62.9511L162.457 61.9575L159.497 62.9635ZM161.12 69.4602L163.275 67.1964H163.275L161.12 69.4602ZM170.671 78.5532L168.516 80.817L170.671 78.5532ZM172.333 81.2328L175.411 81.7734L175.542 81.0299L175.319 80.3088L172.333 81.2328ZM170.237 93.164L167.159 92.6233L170.237 93.164ZM170.417 96.1225L173.496 96.6631L173.628 95.9133L173.4 95.1869L170.417 96.1225ZM170.237 97.1476L167.159 96.607L170.237 97.1476ZM179.25 103.79L177.822 101.009H177.822L179.25 103.79ZM191.57 97.4637L192.998 100.244L191.57 97.4637ZM197.281 97.4637L195.853 100.244L197.281 97.4637ZM209.601 103.79L211.029 101.009L209.601 103.79ZM218.613 97.1476L215.535 97.6882V97.6882L218.613 97.1476ZM218.433 96.1225L215.451 95.1869L215.223 95.9133L215.355 96.6631L218.433 96.1225ZM218.613 93.164L221.692 92.6234H221.692L218.613 93.164ZM216.518 81.2328L213.532 80.3088L213.309 81.0299L213.44 81.7734L216.518 81.2328ZM218.18 78.5532L220.335 80.817L220.335 80.817L218.18 78.5532ZM227.731 69.4602L225.576 67.1964L227.731 69.4602ZM229.354 62.9635L226.394 61.9575L226.056 62.9511L226.387 63.9473L229.354 62.9635ZM224.299 54.7598L223.86 57.8544V57.8544L224.299 54.7598ZM210.837 52.8493L211.276 49.7547L210.837 52.8493ZM206.136 49.4794L208.926 48.0697V48.0697L206.136 49.4794ZM191.636 38.7559C192.792 36.4679 196.059 36.4679 197.215 38.7559L202.795 35.9366C199.326 29.0727 189.525 29.0727 186.056 35.9366L191.636 38.7559ZM185.505 50.889L191.636 38.7559L186.056 35.9366L179.925 48.0697L185.505 50.889ZM178.453 55.9439C181.489 55.5131 184.122 53.6255 185.505 50.889L179.925 48.0697C179.464 48.9819 178.587 49.6111 177.575 49.7547L178.453 55.9439ZM164.991 57.8544L178.453 55.9439L177.575 49.7547L164.113 51.6652L164.991 57.8544ZM162.457 61.9575C161.853 60.1809 162.977 58.1403 164.991 57.8544L164.113 51.6652C157.917 52.5445 154.773 58.7785 156.538 63.9695L162.457 61.9575ZM163.275 67.1964C162.317 66.2843 162.097 65.0533 162.464 63.9473L156.531 61.9798C155.471 65.1754 156.102 68.9981 158.965 71.724L163.275 67.1964ZM172.826 76.2895L163.275 67.1964L158.965 71.724L168.516 80.817L172.826 76.2895ZM175.319 80.3088C174.852 78.8009 174.005 77.4114 172.826 76.2895L168.516 80.817C168.909 81.191 169.191 81.6535 169.347 82.1569L175.319 80.3088ZM173.316 93.7046L175.411 81.7734L169.254 80.6922L167.159 92.6233L173.316 93.7046ZM173.4 95.1869C173.265 94.7557 173.218 94.2607 173.316 93.7046L167.159 92.6233C166.887 94.1697 167.002 95.6771 167.435 97.0581L173.4 95.1869ZM173.316 97.6882L173.496 96.6631L167.339 95.5819L167.159 96.607L173.316 97.6882ZM177.822 101.009C175.525 102.189 172.869 100.232 173.316 97.6882L167.159 96.607C165.819 104.237 173.786 110.109 180.678 106.57L177.822 101.009ZM190.142 94.6832L177.822 101.009L180.678 106.57L192.998 100.244L190.142 94.6832ZM198.709 94.6832C196.02 93.3027 192.831 93.3027 190.142 94.6832L192.998 100.244C193.894 99.784 194.957 99.784 195.853 100.244L198.709 94.6832ZM211.029 101.009L198.709 94.6832L195.853 100.244L208.173 106.57L211.029 101.009ZM215.535 97.6882C215.982 100.232 213.326 102.189 211.029 101.009L208.173 106.57C215.065 110.109 223.032 104.238 221.692 96.607L215.535 97.6882ZM215.355 96.6631L215.535 97.6882L221.692 96.607L221.512 95.5819L215.355 96.6631ZM215.535 93.7046C215.633 94.2607 215.586 94.7557 215.451 95.1869L221.416 97.0581C221.849 95.6771 221.964 94.1698 221.692 92.6234L215.535 93.7046ZM213.44 81.7734L215.535 93.7046L221.692 92.6234L219.597 80.6922L213.44 81.7734ZM216.025 76.2895C214.846 77.4114 213.999 78.8009 213.532 80.3088L219.504 82.1569C219.66 81.6536 219.942 81.191 220.335 80.817L216.025 76.2895ZM225.576 67.1964L216.025 76.2895L220.335 80.817L229.886 71.724L225.576 67.1964ZM226.387 63.9473C226.753 65.0533 226.534 66.2843 225.576 67.1964L229.886 71.724C232.749 68.9981 233.38 65.1754 232.32 61.9798L226.387 63.9473ZM223.86 57.8544C225.874 58.1403 226.998 60.1809 226.394 61.9575L232.313 63.9695C234.078 58.7785 230.933 52.5445 224.738 51.6652L223.86 57.8544ZM210.398 55.9439L223.86 57.8544L224.738 51.6652L211.276 49.7547L210.398 55.9439ZM203.346 50.889C204.729 53.6255 207.362 55.5131 210.398 55.9439L211.276 49.7547C210.264 49.6111 209.386 48.9819 208.926 48.0697L203.346 50.889ZM197.215 38.7559L203.346 50.889L208.926 48.0697L202.795 35.9366L197.215 38.7559Z" fill="white" mask="url(#path-10-outside-1_132_25420)"/>
<g filter="url(#filter1_d_132_25420)">
<path d="M189.129 37.3987C191.441 32.8228 197.975 32.8228 200.288 37.3987L206.419 49.5318C207.341 51.3561 209.096 52.6145 211.12 52.9017L224.582 54.8123C229.755 55.5465 231.798 61.9263 228.014 65.529L218.463 74.6221C216.947 76.0648 216.254 78.17 216.616 80.2308L218.896 93.2164C219.79 98.3034 214.478 102.218 209.884 99.8586L197.564 93.5325C195.771 92.6122 193.645 92.6122 191.853 93.5325L179.533 99.8586C174.938 102.218 169.627 98.3034 170.52 93.2164L172.801 80.2308C173.163 78.17 172.469 76.0648 170.954 74.6221L161.403 65.529C157.619 61.9263 159.662 55.5465 164.835 54.8123L178.297 52.9017C180.321 52.6145 182.076 51.3561 182.998 49.5318L189.129 37.3987Z" fill="url(#paint5_linear_132_25420)"/>
</g>
<mask id="path-13-outside-2_132_25420" maskUnits="userSpaceOnUse" x="97.5118" y="56.8571" width="64" height="64" fill="black">
<rect fill="white" x="97.5118" y="56.8571" width="64" height="64"/>
<path fill-rule="evenodd" clip-rule="evenodd" d="M135.235 64.289C132.923 59.7131 126.388 59.7131 124.076 64.289L120.142 72.0744C119.22 73.8987 117.465 75.1571 115.441 75.4443L106.892 76.6577C102.915 77.2221 100.788 81.1227 101.736 84.5333C101.172 86.6072 101.648 88.969 103.46 90.6942L109.456 96.403C110.307 97.2131 110.899 98.2321 111.19 99.3348L109.861 106.899C109.694 107.854 109.745 108.768 109.969 109.607L109.861 110.219C108.968 115.306 114.279 119.22 118.874 116.861L126.8 112.791C128.593 111.871 130.719 111.871 132.511 112.791L140.437 116.861C145.032 119.22 150.343 115.306 149.45 110.219L149.342 109.607C149.566 108.768 149.617 107.854 149.45 106.899L148.121 99.3348C148.413 98.2321 149.004 97.2131 149.855 96.403L155.852 90.6942C157.664 88.969 158.14 86.6072 157.576 84.5333C158.523 81.1227 156.396 77.2221 152.42 76.6577L143.87 75.4443C141.846 75.1571 140.091 73.8987 139.169 72.0744L135.235 64.289Z"/>
</mask>
<path fill-rule="evenodd" clip-rule="evenodd" d="M135.235 64.289C132.923 59.7131 126.388 59.7131 124.076 64.289L120.142 72.0744C119.22 73.8987 117.465 75.1571 115.441 75.4443L106.892 76.6577C102.915 77.2221 100.788 81.1227 101.736 84.5333C101.172 86.6072 101.648 88.969 103.46 90.6942L109.456 96.403C110.307 97.2131 110.899 98.2321 111.19 99.3348L109.861 106.899C109.694 107.854 109.745 108.768 109.969 109.607L109.861 110.219C108.968 115.306 114.279 119.22 118.874 116.861L126.8 112.791C128.593 111.871 130.719 111.871 132.511 112.791L140.437 116.861C145.032 119.22 150.343 115.306 149.45 110.219L149.342 109.607C149.566 108.768 149.617 107.854 149.45 106.899L148.121 99.3348C148.413 98.2321 149.004 97.2131 149.855 96.403L155.852 90.6942C157.664 88.969 158.14 86.6072 157.576 84.5333C158.523 81.1227 156.396 77.2221 152.42 76.6577L143.87 75.4443C141.846 75.1571 140.091 73.8987 139.169 72.0744L135.235 64.289Z" fill="url(#paint6_linear_132_25420)"/>
<path d="M124.076 64.289L126.866 65.6986V65.6986L124.076 64.289ZM135.235 64.289L138.025 62.8793V62.8793L135.235 64.289ZM120.142 72.0744L122.932 73.4841L120.142 72.0744ZM115.441 75.4443L115.88 78.5389H115.88L115.441 75.4443ZM106.892 76.6577L106.452 73.5631L106.892 76.6577ZM101.736 84.5333L104.752 85.3536L104.977 84.5244L104.747 83.6964L101.736 84.5333ZM103.46 90.6942L105.615 88.4304L103.46 90.6942ZM109.456 96.403L111.611 94.1392L109.456 96.403ZM111.19 99.3348L114.268 99.8754L114.387 99.1999L114.212 98.5368L111.19 99.3348ZM109.861 106.899L106.783 106.358L109.861 106.899ZM109.969 109.607L113.047 110.148L113.167 109.468L112.989 108.801L109.969 109.607ZM109.861 110.219L112.94 110.759H112.94L109.861 110.219ZM118.874 116.861L117.446 114.08H117.446L118.874 116.861ZM126.8 112.791L128.228 115.571H128.228L126.8 112.791ZM132.511 112.791L133.939 110.011V110.011L132.511 112.791ZM140.437 116.861L139.01 119.641H139.01L140.437 116.861ZM149.45 110.219L152.528 109.678V109.678L149.45 110.219ZM149.342 109.607L146.323 108.801L146.144 109.468L146.264 110.148L149.342 109.607ZM149.45 106.899L146.371 107.44V107.44L149.45 106.899ZM148.121 99.3348L145.099 98.5368L144.924 99.1999L145.043 99.8754L148.121 99.3348ZM149.855 96.403L147.7 94.1392L147.7 94.1392L149.855 96.403ZM155.852 90.6942L158.007 92.9579H158.007L155.852 90.6942ZM157.576 84.5333L154.564 83.6964L154.334 84.5244L154.559 85.3536L157.576 84.5333ZM152.42 76.6577L152.859 73.5631L152.42 76.6577ZM143.87 75.4443L144.309 72.3497L143.87 75.4443ZM139.169 72.0744L136.379 73.4841L136.379 73.4841L139.169 72.0744ZM126.866 65.6986C128.022 63.4107 131.289 63.4107 132.445 65.6986L138.025 62.8793C134.556 56.0155 124.755 56.0155 121.287 62.8793L126.866 65.6986ZM122.932 73.4841L126.866 65.6986L121.287 62.8793L117.352 70.6648L122.932 73.4841ZM115.88 78.5389C118.916 78.1081 121.549 76.2205 122.932 73.4841L117.352 70.6648C116.892 71.5769 116.014 72.2061 115.002 72.3497L115.88 78.5389ZM107.331 79.7523L115.88 78.5389L115.002 72.3497L106.452 73.5631L107.331 79.7523ZM104.747 83.6964C104.261 81.9471 105.38 80.0291 107.331 79.7523L106.452 73.5631C100.449 74.415 97.3146 80.2982 98.7242 85.3703L104.747 83.6964ZM105.615 88.4304C104.702 87.5616 104.464 86.4127 104.752 85.3536L98.7196 83.713C97.8796 86.8017 98.5929 90.3765 101.304 92.9579L105.615 88.4304ZM111.611 94.1392L105.615 88.4304L101.304 92.9579L107.301 98.6668L111.611 94.1392ZM114.212 98.5368C113.775 96.8834 112.888 95.3544 111.611 94.1392L107.301 98.6668C107.726 99.0718 108.022 99.5808 108.168 100.133L114.212 98.5368ZM112.94 107.44L114.268 99.8754L108.111 98.7942L106.783 106.358L112.94 107.44ZM112.989 108.801C112.882 108.401 112.851 107.946 112.94 107.44L106.783 106.358C106.536 107.762 106.608 109.136 106.949 110.414L112.989 108.801ZM112.94 110.759L113.047 110.148L106.89 109.067L106.783 109.678L112.94 110.759ZM117.446 114.08C115.149 115.26 112.493 113.303 112.94 110.759L106.783 109.678C105.443 117.309 113.41 123.18 120.302 119.641L117.446 114.08ZM125.372 110.011L117.446 114.08L120.302 119.641L128.228 115.571L125.372 110.011ZM133.939 110.011C131.25 108.63 128.061 108.63 125.372 110.011L128.228 115.571C129.124 115.111 130.187 115.111 131.083 115.571L133.939 110.011ZM141.865 114.08L133.939 110.011L131.083 115.571L139.01 119.641L141.865 114.08ZM146.371 110.759C146.818 113.303 144.162 115.26 141.865 114.08L139.01 119.641C145.901 123.18 153.868 117.309 152.528 109.678L146.371 110.759ZM146.264 110.148L146.371 110.759L152.528 109.678L152.421 109.067L146.264 110.148ZM146.371 107.44C146.46 107.946 146.429 108.401 146.323 108.801L152.362 110.414C152.703 109.136 152.775 107.762 152.528 106.358L146.371 107.44ZM145.043 99.8754L146.371 107.44L152.528 106.358L151.2 98.7942L145.043 99.8754ZM147.7 94.1392C146.424 95.3544 145.536 96.8834 145.099 98.5368L151.143 100.133C151.289 99.5808 151.585 99.0717 152.01 98.6668L147.7 94.1392ZM153.696 88.4304L147.7 94.1392L152.01 98.6668L158.007 92.9579L153.696 88.4304ZM154.559 85.3536C154.848 86.4127 154.609 87.5616 153.696 88.4304L158.007 92.9579C160.718 90.3765 161.432 86.8017 160.592 83.713L154.559 85.3536ZM151.98 79.7523C153.931 80.0291 155.05 81.9471 154.564 83.6964L160.587 85.3703C161.997 80.2982 158.862 74.415 152.859 73.5631L151.98 79.7523ZM143.431 78.5389L151.98 79.7523L152.859 73.5631L144.309 72.3497L143.431 78.5389ZM136.379 73.4841C137.762 76.2205 140.395 78.1081 143.431 78.5389L144.309 72.3497C143.297 72.2061 142.42 71.5769 141.959 70.6648L136.379 73.4841ZM132.445 65.6986L136.379 73.4841L141.959 70.6648L138.025 62.8793L132.445 65.6986Z" fill="white" mask="url(#path-13-outside-2_132_25420)"/>
<g filter="url(#filter2_d_132_25420)">
<path d="M124.306 64.3336C126.619 59.7577 133.153 59.7577 135.465 64.3336L139.399 72.1191C140.321 73.9433 142.077 75.2017 144.1 75.489L152.65 76.7023C157.823 77.4365 159.866 83.8163 156.082 87.4191L150.085 93.1279C148.57 94.5706 147.877 96.6759 148.239 98.7367L149.68 106.944C150.573 112.031 145.262 115.945 140.668 113.586L132.741 109.516C130.949 108.596 128.823 108.596 127.03 109.516L119.104 113.586C114.51 115.945 109.198 112.031 110.092 106.944L111.533 98.7367C111.895 96.6759 111.202 94.5706 109.686 93.1279L103.69 87.4191C99.9056 83.8163 101.949 77.4365 107.122 76.7023L115.671 75.489C117.695 75.2017 119.451 73.9433 120.372 72.119L124.306 64.3336Z" fill="url(#paint7_linear_132_25420)"/>
</g>
<mask id="path-16-outside-3_132_25420" maskUnits="userSpaceOnUse" x="225.668" y="56.8569" width="64" height="64" fill="black">
<rect fill="white" x="225.668" y="56.8569" width="64" height="64"/>
<path fill-rule="evenodd" clip-rule="evenodd" d="M263.391 64.2889C261.078 59.713 254.544 59.713 252.232 64.2889L248.298 72.0743C247.376 73.8986 245.621 75.157 243.597 75.4442L235.047 76.6576C231.071 77.2219 228.944 81.1226 229.891 84.5332C229.327 86.6071 229.803 88.969 231.615 90.6941L237.612 96.4029C238.463 97.213 239.054 98.232 239.346 99.3347L238.017 106.899C237.849 107.854 237.901 108.768 238.125 109.607L238.017 110.219C237.124 115.306 242.435 119.22 247.03 116.861L254.956 112.791C256.748 111.871 258.874 111.871 260.667 112.791L268.593 116.861C273.188 119.22 278.499 115.306 277.605 110.219L277.498 109.607C277.722 108.768 277.773 107.854 277.605 106.899L276.277 99.3347C276.568 98.232 277.16 97.213 278.011 96.4029L284.007 90.6941C285.819 88.9689 286.295 86.6071 285.731 84.5332C286.679 81.1226 284.552 77.2219 280.575 76.6576L272.026 75.4442C270.002 75.157 268.247 73.8986 267.325 72.0743L263.391 64.2889Z"/>
</mask>
<path fill-rule="evenodd" clip-rule="evenodd" d="M263.391 64.2889C261.078 59.713 254.544 59.713 252.232 64.2889L248.298 72.0743C247.376 73.8986 245.621 75.157 243.597 75.4442L235.047 76.6576C231.071 77.2219 228.944 81.1226 229.891 84.5332C229.327 86.6071 229.803 88.969 231.615 90.6941L237.612 96.4029C238.463 97.213 239.054 98.232 239.346 99.3347L238.017 106.899C237.849 107.854 237.901 108.768 238.125 109.607L238.017 110.219C237.124 115.306 242.435 119.22 247.03 116.861L254.956 112.791C256.748 111.871 258.874 111.871 260.667 112.791L268.593 116.861C273.188 119.22 278.499 115.306 277.605 110.219L277.498 109.607C277.722 108.768 277.773 107.854 277.605 106.899L276.277 99.3347C276.568 98.232 277.16 97.213 278.011 96.4029L284.007 90.6941C285.819 88.9689 286.295 86.6071 285.731 84.5332C286.679 81.1226 284.552 77.2219 280.575 76.6576L272.026 75.4442C270.002 75.157 268.247 73.8986 267.325 72.0743L263.391 64.2889Z" fill="url(#paint8_linear_132_25420)"/>
<path d="M252.232 64.2889L255.022 65.6985V65.6985L252.232 64.2889ZM263.391 64.2889L260.601 65.6985L260.601 65.6985L263.391 64.2889ZM248.298 72.0743L251.088 73.484V73.484L248.298 72.0743ZM243.597 75.4442L244.036 78.5388L243.597 75.4442ZM235.047 76.6576L234.608 73.563L235.047 76.6576ZM229.891 84.5332L232.908 85.3535L233.133 84.5243L232.903 83.6963L229.891 84.5332ZM231.615 90.6941L229.46 92.9578H229.46L231.615 90.6941ZM237.612 96.4029L235.457 98.6667L235.457 98.6667L237.612 96.4029ZM239.346 99.3347L242.424 99.8753L242.543 99.1998L242.368 98.5367L239.346 99.3347ZM238.017 106.899L241.096 107.44L238.017 106.899ZM238.125 109.607L241.203 110.148L241.323 109.468L241.144 108.801L238.125 109.607ZM238.017 110.219L234.939 109.678L234.939 109.678L238.017 110.219ZM247.03 116.861L245.602 114.08H245.602L247.03 116.861ZM254.956 112.791L256.384 115.571L256.384 115.571L254.956 112.791ZM260.667 112.791L262.095 110.01L262.095 110.01L260.667 112.791ZM268.593 116.861L267.165 119.641L268.593 116.861ZM277.605 110.219L274.527 110.759V110.759L277.605 110.219ZM277.498 109.607L274.478 108.801L274.3 109.468L274.42 110.148L277.498 109.607ZM277.605 106.899L274.527 107.44L274.527 107.44L277.605 106.899ZM276.277 99.3347L273.255 98.5367L273.08 99.1998L273.199 99.8753L276.277 99.3347ZM278.011 96.4029L275.856 94.1391L278.011 96.4029ZM284.007 90.6941L286.163 92.9578L284.007 90.6941ZM285.731 84.5332L282.72 83.6963L282.49 84.5243L282.715 85.3535L285.731 84.5332ZM280.575 76.6576L280.136 79.7522H280.136L280.575 76.6576ZM272.026 75.4442L272.465 72.3496L272.026 75.4442ZM267.325 72.0743L270.114 70.6646L270.114 70.6646L267.325 72.0743ZM255.022 65.6985C256.178 63.4106 259.445 63.4106 260.601 65.6985L266.18 62.8792C262.712 56.0154 252.911 56.0153 249.442 62.8792L255.022 65.6985ZM251.088 73.484L255.022 65.6985L249.442 62.8792L245.508 70.6646L251.088 73.484ZM244.036 78.5388C247.072 78.108 249.705 76.2204 251.088 73.484L245.508 70.6646C245.047 71.5768 244.17 72.206 243.158 72.3496L244.036 78.5388ZM235.487 79.7522L244.036 78.5388L243.158 72.3496L234.608 73.563L235.487 79.7522ZM232.903 83.6963C232.417 81.947 233.536 80.029 235.487 79.7522L234.608 73.563C228.605 74.4149 225.47 80.2981 226.88 85.3702L232.903 83.6963ZM233.771 88.4303C232.858 87.5615 232.619 86.4126 232.908 85.3535L226.875 83.7129C226.035 86.8016 226.749 90.3764 229.46 92.9578L233.771 88.4303ZM239.767 94.1391L233.771 88.4303L229.46 92.9578L235.457 98.6667L239.767 94.1391ZM242.368 98.5367C241.931 96.8833 241.043 95.3543 239.767 94.1391L235.457 98.6667C235.882 99.0717 236.178 99.5807 236.324 100.133L242.368 98.5367ZM241.096 107.44L242.424 99.8753L236.267 98.7941L234.939 106.358L241.096 107.44ZM241.144 108.801C241.038 108.401 241.007 107.946 241.096 107.44L234.939 106.358C234.692 107.762 234.764 109.136 235.105 110.414L241.144 108.801ZM241.096 110.759L241.203 110.148L235.046 109.067L234.939 109.678L241.096 110.759ZM245.602 114.08C243.305 115.26 240.649 113.303 241.096 110.759L234.939 109.678C233.599 117.309 241.566 123.18 248.457 119.641L245.602 114.08ZM253.528 110.01L245.602 114.08L248.457 119.641L256.384 115.571L253.528 110.01ZM262.095 110.01C259.406 108.63 256.217 108.63 253.528 110.01L256.384 115.571C257.28 115.111 258.343 115.111 259.239 115.571L262.095 110.01ZM270.021 114.08L262.095 110.01L259.239 115.571L267.165 119.641L270.021 114.08ZM274.527 110.759C274.974 113.303 272.318 115.26 270.021 114.08L267.165 119.641C274.057 123.18 282.024 117.309 280.684 109.678L274.527 110.759ZM274.42 110.148L274.527 110.759L280.684 109.678L280.577 109.067L274.42 110.148ZM274.527 107.44C274.616 107.946 274.585 108.401 274.478 108.801L280.518 110.414C280.859 109.136 280.931 107.762 280.684 106.358L274.527 107.44ZM273.199 99.8753L274.527 107.44L280.684 106.358L279.356 98.7941L273.199 99.8753ZM275.856 94.1391C274.579 95.3543 273.692 96.8833 273.255 98.5367L279.299 100.133C279.445 99.5807 279.741 99.0716 280.166 98.6667L275.856 94.1391ZM281.852 88.4303L275.856 94.1391L280.166 98.6667L286.163 92.9578L281.852 88.4303ZM282.715 85.3535C283.003 86.4126 282.765 87.5615 281.852 88.4303L286.163 92.9578C288.874 90.3764 289.587 86.8016 288.747 83.7129L282.715 85.3535ZM280.136 79.7522C282.087 80.029 283.206 81.947 282.72 83.6963L288.743 85.3702C290.152 80.2981 287.018 74.4149 281.015 73.563L280.136 79.7522ZM271.587 78.5388L280.136 79.7522L281.015 73.563L272.465 72.3496L271.587 78.5388ZM264.535 73.484C265.918 76.2204 268.551 78.108 271.587 78.5388L272.465 72.3496C271.453 72.206 270.575 71.5768 270.114 70.6646L264.535 73.484ZM260.601 65.6985L264.535 73.484L270.114 70.6646L266.18 62.8792L260.601 65.6985Z" fill="white" mask="url(#path-16-outside-3_132_25420)"/>
<g filter="url(#filter3_d_132_25420)">
<path d="M252.464 64.3325C254.776 59.7566 261.311 59.7566 263.623 64.3325L267.557 72.118C268.479 73.9422 270.234 75.2007 272.258 75.4879L280.808 76.7012C285.981 77.4354 288.024 83.8152 284.24 87.418L278.243 93.1268C276.728 94.5695 276.035 96.6748 276.396 98.7356L277.838 106.943C278.731 112.03 273.42 115.944 268.825 113.585L260.899 109.515C259.107 108.594 256.981 108.594 255.188 109.515L247.262 113.585C242.667 115.944 237.356 112.03 238.249 106.943L239.691 98.7356C240.053 96.6748 239.359 94.5695 237.844 93.1268L231.848 87.418C228.063 83.8152 230.106 77.4354 235.28 76.7012L243.829 75.4879C245.853 75.2007 247.608 73.9422 248.53 72.118L252.464 64.3325Z" fill="url(#paint9_linear_132_25420)"/>
</g>
<g filter="url(#filter4_d_132_25420)">
<mask id="path-19-outside-4_132_25420" maskUnits="userSpaceOnUse" x="151.488" y="127.126" width="90" height="35" fill="black">
<rect fill="white" x="151.488" y="127.126" width="90" height="35"/>
<path d="M162.654 153.126C161.764 153.126 160.953 153.087 160.221 153.008C159.508 152.909 158.846 152.76 158.232 152.562C157.619 152.365 157.055 152.117 156.541 151.821C156.047 151.504 155.572 151.128 155.117 150.693C154.385 150.001 153.87 149.11 153.574 148.022C153.277 146.915 153.129 145.757 153.129 144.551V138.942H157.283V144.046C157.283 144.936 157.372 145.698 157.55 146.331C157.748 146.944 158.074 147.449 158.529 147.844C159.044 148.28 159.686 148.576 160.458 148.735C161.23 148.893 162.06 148.972 162.951 148.972H171.259V129.061H175.413V153.126H162.654ZM161.289 140.604C161.289 139.259 161.615 138.309 162.268 137.755C162.941 137.201 163.861 136.924 165.028 136.924H166.808V138.26H165.265C164.672 138.26 164.256 138.388 164.019 138.646C163.781 138.903 163.663 139.269 163.663 139.743V140.545H167.758V142.77H161.289V140.604ZM194.805 151.999C194.805 153.126 194.676 154.155 194.419 155.085C194.181 156.034 193.766 156.845 193.172 157.518C192.599 158.191 191.817 158.715 190.828 159.091C189.859 159.466 188.642 159.654 187.178 159.654C186.783 159.654 186.417 159.635 186.08 159.595C185.744 159.575 185.408 159.536 185.072 159.476C184.755 159.417 184.419 159.348 184.063 159.269L182.846 158.942L182.549 154.758C183.36 155.015 184.112 155.203 184.804 155.322C185.497 155.441 186.189 155.5 186.882 155.5C187.455 155.5 187.96 155.47 188.395 155.411C188.83 155.372 189.196 155.263 189.493 155.085C189.809 154.926 190.057 154.689 190.235 154.373C190.433 154.056 190.561 153.641 190.621 153.126H190.146C188.721 153.126 187.386 152.968 186.14 152.651C184.913 152.335 183.835 151.84 182.905 151.168C181.995 150.495 181.273 149.635 180.739 148.586C180.225 147.518 179.968 146.242 179.968 144.758C179.968 143.453 180.215 142.285 180.71 141.257C181.224 140.228 181.926 139.358 182.816 138.646C183.726 137.933 184.804 137.389 186.051 137.013C187.297 136.618 188.662 136.42 190.146 136.42H194.834L194.805 151.999ZM184.122 144.758C184.122 145.451 184.241 146.064 184.478 146.598C184.735 147.112 185.081 147.548 185.517 147.904C185.952 148.26 186.456 148.527 187.03 148.705C187.623 148.883 188.257 148.972 188.929 148.972H190.68V140.574H188.929C188.316 140.574 187.713 140.673 187.119 140.871C186.545 141.069 186.031 141.356 185.576 141.732C185.141 142.088 184.785 142.523 184.508 143.037C184.251 143.552 184.122 144.125 184.122 144.758ZM199.915 159.654C199.519 159.654 199.133 159.625 198.757 159.565C198.381 159.526 198.065 159.466 197.808 159.387L197.511 155.233C197.907 155.332 198.253 155.401 198.55 155.441C198.846 155.48 199.153 155.5 199.47 155.5C200.3 155.5 200.874 155.273 201.191 154.818C201.527 154.363 201.695 153.621 201.695 152.592V136.42H205.849V148.972H209.054V153.126H205.82C205.701 155.421 205.177 157.083 204.247 158.111C203.317 159.14 201.873 159.654 199.915 159.654ZM208.473 148.972H212.152V136.42H216.307V148.972H219.482V153.126H208.473V148.972ZM215.921 158.883C215.446 159.259 214.882 159.447 214.23 159.447C213.577 159.447 213.003 159.259 212.509 158.883C212.034 158.507 211.796 157.953 211.796 157.221C211.796 156.568 212.024 156.034 212.479 155.619C212.954 155.223 213.537 155.025 214.23 155.025C214.922 155.025 215.496 155.223 215.951 155.619C216.425 156.034 216.663 156.568 216.663 157.221C216.663 157.953 216.416 158.507 215.921 158.883ZM218.905 148.972H221.783C221.704 148.675 221.645 148.369 221.605 148.052C221.586 147.736 221.576 147.409 221.576 147.073C221.576 145.807 221.803 144.63 222.258 143.542C222.733 142.434 223.366 141.474 224.157 140.663C224.968 139.832 225.908 139.18 226.976 138.705C228.064 138.23 229.222 137.993 230.448 137.993C231.694 137.993 232.862 138.23 233.95 138.705C235.057 139.16 236.017 139.793 236.828 140.604C237.659 141.415 238.302 142.374 238.757 143.482C239.231 144.59 239.469 145.787 239.469 147.073C239.469 148.339 239.222 149.516 238.727 150.604C238.252 151.672 237.599 152.602 236.769 153.393C235.938 154.185 234.978 154.808 233.89 155.263C232.802 155.718 231.655 155.945 230.448 155.945C229.182 155.945 227.995 155.688 226.887 155.174C225.779 154.679 224.81 153.997 223.979 153.126H218.905V148.972ZM228.579 151.435C229.152 151.672 229.775 151.791 230.448 151.791C231.121 151.791 231.754 151.672 232.347 151.435C232.941 151.197 233.455 150.871 233.89 150.456C234.345 150.02 234.691 149.516 234.929 148.942C235.186 148.349 235.315 147.706 235.315 147.013C235.315 146.321 235.196 145.678 234.958 145.085C234.721 144.491 234.385 143.977 233.95 143.542C233.514 143.106 233 142.77 232.407 142.533C231.813 142.276 231.16 142.147 230.448 142.147C229.756 142.147 229.123 142.276 228.549 142.533C227.975 142.79 227.481 143.136 227.065 143.571C226.65 144.007 226.323 144.521 226.086 145.114C225.849 145.708 225.73 146.341 225.73 147.013C225.73 147.686 225.849 148.319 226.086 148.913C226.323 149.486 226.65 149.991 227.065 150.426C227.5 150.841 228.005 151.178 228.579 151.435Z"/>
</mask>
<path d="M162.654 153.126C161.764 153.126 160.953 153.087 160.221 153.008C159.508 152.909 158.846 152.76 158.232 152.562C157.619 152.365 157.055 152.117 156.541 151.821C156.047 151.504 155.572 151.128 155.117 150.693C154.385 150.001 153.87 149.11 153.574 148.022C153.277 146.915 153.129 145.757 153.129 144.551V138.942H157.283V144.046C157.283 144.936 157.372 145.698 157.55 146.331C157.748 146.944 158.074 147.449 158.529 147.844C159.044 148.28 159.686 148.576 160.458 148.735C161.23 148.893 162.06 148.972 162.951 148.972H171.259V129.061H175.413V153.126H162.654ZM161.289 140.604C161.289 139.259 161.615 138.309 162.268 137.755C162.941 137.201 163.861 136.924 165.028 136.924H166.808V138.26H165.265C164.672 138.26 164.256 138.388 164.019 138.646C163.781 138.903 163.663 139.269 163.663 139.743V140.545H167.758V142.77H161.289V140.604ZM194.805 151.999C194.805 153.126 194.676 154.155 194.419 155.085C194.181 156.034 193.766 156.845 193.172 157.518C192.599 158.191 191.817 158.715 190.828 159.091C189.859 159.466 188.642 159.654 187.178 159.654C186.783 159.654 186.417 159.635 186.08 159.595C185.744 159.575 185.408 159.536 185.072 159.476C184.755 159.417 184.419 159.348 184.063 159.269L182.846 158.942L182.549 154.758C183.36 155.015 184.112 155.203 184.804 155.322C185.497 155.441 186.189 155.5 186.882 155.5C187.455 155.5 187.96 155.47 188.395 155.411C188.83 155.372 189.196 155.263 189.493 155.085C189.809 154.926 190.057 154.689 190.235 154.373C190.433 154.056 190.561 153.641 190.621 153.126H190.146C188.721 153.126 187.386 152.968 186.14 152.651C184.913 152.335 183.835 151.84 182.905 151.168C181.995 150.495 181.273 149.635 180.739 148.586C180.225 147.518 179.968 146.242 179.968 144.758C179.968 143.453 180.215 142.285 180.71 141.257C181.224 140.228 181.926 139.358 182.816 138.646C183.726 137.933 184.804 137.389 186.051 137.013C187.297 136.618 188.662 136.42 190.146 136.42H194.834L194.805 151.999ZM184.122 144.758C184.122 145.451 184.241 146.064 184.478 146.598C184.735 147.112 185.081 147.548 185.517 147.904C185.952 148.26 186.456 148.527 187.03 148.705C187.623 148.883 188.257 148.972 188.929 148.972H190.68V140.574H188.929C188.316 140.574 187.713 140.673 187.119 140.871C186.545 141.069 186.031 141.356 185.576 141.732C185.141 142.088 184.785 142.523 184.508 143.037C184.251 143.552 184.122 144.125 184.122 144.758ZM199.915 159.654C199.519 159.654 199.133 159.625 198.757 159.565C198.381 159.526 198.065 159.466 197.808 159.387L197.511 155.233C197.907 155.332 198.253 155.401 198.55 155.441C198.846 155.48 199.153 155.5 199.47 155.5C200.3 155.5 200.874 155.273 201.191 154.818C201.527 154.363 201.695 153.621 201.695 152.592V136.42H205.849V148.972H209.054V153.126H205.82C205.701 155.421 205.177 157.083 204.247 158.111C203.317 159.14 201.873 159.654 199.915 159.654ZM208.473 148.972H212.152V136.42H216.307V148.972H219.482V153.126H208.473V148.972ZM215.921 158.883C215.446 159.259 214.882 159.447 214.23 159.447C213.577 159.447 213.003 159.259 212.509 158.883C212.034 158.507 211.796 157.953 211.796 157.221C211.796 156.568 212.024 156.034 212.479 155.619C212.954 155.223 213.537 155.025 214.23 155.025C214.922 155.025 215.496 155.223 215.951 155.619C216.425 156.034 216.663 156.568 216.663 157.221C216.663 157.953 216.416 158.507 215.921 158.883ZM218.905 148.972H221.783C221.704 148.675 221.645 148.369 221.605 148.052C221.586 147.736 221.576 147.409 221.576 147.073C221.576 145.807 221.803 144.63 222.258 143.542C222.733 142.434 223.366 141.474 224.157 140.663C224.968 139.832 225.908 139.18 226.976 138.705C228.064 138.23 229.222 137.993 230.448 137.993C231.694 137.993 232.862 138.23 233.95 138.705C235.057 139.16 236.017 139.793 236.828 140.604C237.659 141.415 238.302 142.374 238.757 143.482C239.231 144.59 239.469 145.787 239.469 147.073C239.469 148.339 239.222 149.516 238.727 150.604C238.252 151.672 237.599 152.602 236.769 153.393C235.938 154.185 234.978 154.808 233.89 155.263C232.802 155.718 231.655 155.945 230.448 155.945C229.182 155.945 227.995 155.688 226.887 155.174C225.779 154.679 224.81 153.997 223.979 153.126H218.905V148.972ZM228.579 151.435C229.152 151.672 229.775 151.791 230.448 151.791C231.121 151.791 231.754 151.672 232.347 151.435C232.941 151.197 233.455 150.871 233.89 150.456C234.345 150.02 234.691 149.516 234.929 148.942C235.186 148.349 235.315 147.706 235.315 147.013C235.315 146.321 235.196 145.678 234.958 145.085C234.721 144.491 234.385 143.977 233.95 143.542C233.514 143.106 233 142.77 232.407 142.533C231.813 142.276 231.16 142.147 230.448 142.147C229.756 142.147 229.123 142.276 228.549 142.533C227.975 142.79 227.481 143.136 227.065 143.571C226.65 144.007 226.323 144.521 226.086 145.114C225.849 145.708 225.73 146.341 225.73 147.013C225.73 147.686 225.849 148.319 226.086 148.913C226.323 149.486 226.65 149.991 227.065 150.426C227.5 150.841 228.005 151.178 228.579 151.435Z" fill="white"/>
<path d="M160.221 153.008L160.006 154.555L160.029 154.559L160.053 154.561L160.221 153.008ZM158.232 152.562L157.753 154.05L158.232 152.562ZM156.541 151.821L155.699 153.137L155.729 153.156L155.76 153.174L156.541 151.821ZM155.117 150.693L156.197 149.564L156.191 149.558L155.117 150.693ZM153.574 148.022L152.064 148.427L152.066 148.434L153.574 148.022ZM153.129 138.942V137.379H151.566V138.942H153.129ZM157.283 138.942H158.846V137.379H157.283V138.942ZM157.55 146.331L156.046 146.754L156.054 146.783L156.063 146.811L157.55 146.331ZM158.529 147.844L157.504 149.024L157.512 149.031L157.52 149.037L158.529 147.844ZM171.259 148.972V150.535H172.822V148.972H171.259ZM171.259 129.061V127.498H169.696V129.061H171.259ZM175.413 129.061H176.976V127.498H175.413V129.061ZM175.413 153.126V154.689H176.976V153.126H175.413ZM162.268 137.755L161.275 136.549L161.266 136.556L161.257 136.564L162.268 137.755ZM166.808 136.924H168.371V135.362H166.808V136.924ZM166.808 138.26V139.823H168.371V138.26H166.808ZM163.663 140.545H162.1V142.107H163.663V140.545ZM167.758 140.545H169.321V138.982H167.758V140.545ZM167.758 142.77V144.333H169.321V142.77H167.758ZM161.289 142.77H159.726V144.333H161.289V142.77ZM162.654 151.563C161.809 151.563 161.055 151.526 160.389 151.454L160.053 154.561C160.85 154.648 161.719 154.689 162.654 154.689V151.563ZM160.436 151.46C159.803 151.372 159.23 151.242 158.712 151.075L157.753 154.05C158.462 154.278 159.214 154.445 160.006 154.555L160.436 151.46ZM158.712 151.075C158.195 150.908 157.733 150.704 157.322 150.467L155.76 153.174C156.378 153.53 157.043 153.821 157.753 154.05L158.712 151.075ZM157.384 150.504C156.98 150.246 156.584 149.934 156.197 149.564L154.037 151.822C154.559 152.322 155.113 152.762 155.699 153.137L157.384 150.504ZM156.191 149.558C155.691 149.085 155.312 148.456 155.081 147.611L152.066 148.434C152.429 149.764 153.078 150.916 154.043 151.828L156.191 149.558ZM155.083 147.618C154.824 146.649 154.691 145.628 154.691 144.551H151.566C151.566 145.887 151.73 147.18 152.064 148.427L155.083 147.618ZM154.691 144.551V138.942H151.566V144.551H154.691ZM153.129 140.505H157.283V137.379H153.129V140.505ZM155.72 138.942V144.046H158.846V138.942H155.72ZM155.72 144.046C155.72 145.032 155.818 145.945 156.046 146.754L159.054 145.908C158.926 145.451 158.846 144.84 158.846 144.046H155.72ZM156.063 146.811C156.342 147.676 156.819 148.428 157.504 149.024L159.555 146.665C159.329 146.469 159.154 146.213 159.037 145.851L156.063 146.811ZM157.52 149.037C158.265 149.668 159.16 150.064 160.144 150.265L160.772 147.204C160.213 147.089 159.822 146.891 159.539 146.651L157.52 149.037ZM160.144 150.265C161.031 150.447 161.968 150.535 162.951 150.535V147.409C162.152 147.409 161.428 147.338 160.772 147.204L160.144 150.265ZM162.951 150.535H171.259V147.409H162.951V150.535ZM172.822 148.972V129.061H169.696V148.972H172.822ZM171.259 130.624H175.413V127.498H171.259V130.624ZM173.851 129.061V153.126H176.976V129.061H173.851ZM175.413 151.563H162.654V154.689H175.413V151.563ZM162.852 140.604C162.852 139.457 163.136 139.069 163.279 138.947L161.257 136.564C160.095 137.55 159.726 139.061 159.726 140.604H162.852ZM163.262 138.962C163.572 138.706 164.1 138.487 165.028 138.487V135.362C163.622 135.362 162.309 135.697 161.275 136.549L163.262 138.962ZM165.028 138.487H166.808V135.362H165.028V138.487ZM165.245 136.924V138.26H168.371V136.924H165.245ZM166.808 136.697H165.265V139.823H166.808V136.697ZM165.265 136.697C164.524 136.697 163.555 136.844 162.87 137.585L165.167 139.706C165.059 139.823 164.963 139.852 164.971 139.849C164.975 139.848 165 139.841 165.051 139.834C165.102 139.828 165.172 139.823 165.265 139.823V136.697ZM162.87 137.585C162.284 138.221 162.1 139.018 162.1 139.743H165.226C165.226 139.633 165.24 139.591 165.238 139.595C165.237 139.598 165.232 139.613 165.22 139.634C165.207 139.656 165.19 139.681 165.167 139.706L162.87 137.585ZM162.1 139.743V140.545H165.226V139.743H162.1ZM163.663 142.107H167.758V138.982H163.663V142.107ZM166.195 140.545V142.77H169.321V140.545H166.195ZM167.758 141.207H161.289V144.333H167.758V141.207ZM162.852 142.77V140.604H159.726V142.77H162.852ZM194.805 151.999L193.242 151.996V151.999H194.805ZM194.419 155.085L192.912 154.668L192.907 154.687L192.903 154.706L194.419 155.085ZM193.172 157.518L192.001 156.484L191.992 156.494L191.983 156.504L193.172 157.518ZM190.828 159.091L190.273 157.63L190.263 157.634L190.828 159.091ZM186.08 159.595L186.263 158.043L186.218 158.038L186.172 158.035L186.08 159.595ZM185.072 159.476L184.784 161.012L184.792 161.014L184.8 161.015L185.072 159.476ZM184.063 159.269L183.658 160.778L183.69 160.787L183.724 160.794L184.063 159.269ZM182.846 158.942L181.287 159.053L181.366 160.163L182.441 160.452L182.846 158.942ZM182.549 154.758L183.022 153.269L180.828 152.573L180.99 154.869L182.549 154.758ZM184.804 155.322L185.069 153.782L184.804 155.322ZM188.395 155.411L188.254 153.855L188.219 153.858L188.184 153.863L188.395 155.411ZM189.493 155.085L188.794 153.687L188.74 153.714L188.689 153.745L189.493 155.085ZM190.235 154.373L188.91 153.544L188.89 153.575L188.873 153.606L190.235 154.373ZM190.621 153.126L192.173 153.305L192.374 151.563H190.621V153.126ZM186.14 152.651L185.749 154.165L185.755 154.166L186.14 152.651ZM182.905 151.168L181.976 152.425L181.983 152.429L181.989 152.434L182.905 151.168ZM180.739 148.586L179.331 149.264L179.339 149.28L179.347 149.296L180.739 148.586ZM180.71 141.257L179.312 140.558L179.306 140.569L179.301 140.58L180.71 141.257ZM182.816 138.646L181.853 137.415L181.847 137.42L181.84 137.425L182.816 138.646ZM186.051 137.013L186.502 138.51L186.513 138.506L186.524 138.503L186.051 137.013ZM194.834 136.42L196.397 136.423L196.4 134.857H194.834V136.42ZM184.478 146.598L183.05 147.233L183.064 147.265L183.08 147.297L184.478 146.598ZM185.517 147.904L186.506 146.694L185.517 147.904ZM187.03 148.705L186.567 150.197L186.574 150.2L186.581 150.202L187.03 148.705ZM190.68 148.972V150.535H192.243V148.972H190.68ZM190.68 140.574H192.243V139.011H190.68V140.574ZM187.119 140.871L186.625 139.388L186.617 139.391L186.61 139.394L187.119 140.871ZM185.576 141.732L186.566 142.941L186.571 142.936L185.576 141.732ZM184.508 143.037L183.132 142.296L183.121 142.317L183.11 142.338L184.508 143.037ZM193.242 151.999C193.242 153.009 193.126 153.895 192.912 154.668L195.925 155.501C196.225 154.415 196.367 153.244 196.367 151.999H193.242ZM192.903 154.706C192.72 155.435 192.414 156.016 192.001 156.484L194.344 158.552C195.118 157.675 195.642 156.633 195.935 155.464L192.903 154.706ZM191.983 156.504C191.611 156.941 191.065 157.329 190.273 157.63L191.383 160.552C192.57 160.101 193.587 159.44 194.361 158.532L191.983 156.504ZM190.263 157.634C189.531 157.917 188.522 158.092 187.178 158.092V161.217C188.763 161.217 190.186 161.016 191.393 160.548L190.263 157.634ZM187.178 158.092C186.834 158.092 186.53 158.074 186.263 158.043L185.898 161.147C186.304 161.195 186.732 161.217 187.178 161.217V158.092ZM186.172 158.035C185.897 158.019 185.621 157.986 185.343 157.937L184.8 161.015C185.195 161.085 185.591 161.132 185.989 161.155L186.172 158.035ZM185.36 157.94C185.062 157.885 184.743 157.819 184.402 157.743L183.724 160.794C184.094 160.877 184.448 160.949 184.784 161.012L185.36 157.94ZM184.468 157.759L183.251 157.433L182.441 160.452L183.658 160.778L184.468 157.759ZM184.405 158.832L184.108 154.648L180.99 154.869L181.287 159.053L184.405 158.832ZM182.077 156.248C182.943 156.522 183.765 156.729 184.54 156.862L185.069 153.782C184.46 153.677 183.778 153.508 183.022 153.269L182.077 156.248ZM184.54 156.862C185.319 156.996 186.099 157.063 186.882 157.063V153.937C186.279 153.937 185.675 153.886 185.069 153.782L184.54 156.862ZM186.882 157.063C187.506 157.063 188.084 157.031 188.606 156.96L188.184 153.863C187.836 153.91 187.405 153.937 186.882 153.937V157.063ZM188.536 156.967C189.146 156.912 189.753 156.751 190.297 156.425L188.689 153.745C188.64 153.774 188.514 153.831 188.254 153.855L188.536 156.967ZM190.192 156.482C190.795 156.181 191.27 155.72 191.597 155.139L188.873 153.606C188.843 153.658 188.824 153.672 188.794 153.687L190.192 156.482ZM191.56 155.201C191.919 154.627 192.097 153.966 192.173 153.305L189.068 152.947C189.026 153.315 188.946 153.485 188.91 153.544L191.56 155.201ZM190.621 151.563H190.146V154.689H190.621V151.563ZM190.146 151.563C188.837 151.563 187.632 151.418 186.525 151.137L185.755 154.166C187.14 154.518 188.605 154.689 190.146 154.689V151.563ZM186.53 151.138C185.473 150.865 184.577 150.448 183.821 149.902L181.989 152.434C183.093 153.232 184.353 153.804 185.749 154.165L186.53 151.138ZM183.834 149.911C183.127 149.388 182.56 148.718 182.132 147.877L179.347 149.296C179.986 150.551 180.864 151.602 181.976 152.425L183.834 149.911ZM182.147 147.908C181.757 147.098 181.531 146.065 181.531 144.758H178.405C178.405 146.419 178.693 147.938 179.331 149.264L182.147 147.908ZM181.531 144.758C181.531 143.653 181.739 142.723 182.118 141.934L179.301 140.58C178.691 141.848 178.405 143.252 178.405 144.758H181.531ZM182.107 141.956C182.521 141.127 183.081 140.435 183.793 139.866L181.84 137.425C180.772 138.28 179.926 139.329 179.312 140.558L182.107 141.956ZM183.78 139.876C184.519 139.298 185.418 138.837 186.502 138.51L185.6 135.517C184.191 135.942 182.934 136.569 181.853 137.415L183.78 139.876ZM186.524 138.503C187.598 138.162 188.801 137.983 190.146 137.983V134.857C188.523 134.857 186.996 135.074 185.578 135.524L186.524 138.503ZM190.146 137.983H194.834V134.857H190.146V137.983ZM193.271 136.417L193.242 151.996L196.367 152.002L196.397 136.423L193.271 136.417ZM182.559 144.758C182.559 145.63 182.709 146.465 183.05 147.233L185.906 145.963C185.772 145.662 185.685 145.272 185.685 144.758H182.559ZM183.08 147.297C183.434 148.004 183.917 148.614 184.527 149.113L186.506 146.694C186.246 146.481 186.037 146.221 185.876 145.899L183.08 147.297ZM184.527 149.113C185.128 149.605 185.814 149.964 186.567 150.197L187.493 147.212C187.098 147.09 186.775 146.914 186.506 146.694L184.527 149.113ZM186.581 150.202C187.332 150.427 188.117 150.535 188.929 150.535V147.409C188.396 147.409 187.915 147.339 187.479 147.208L186.581 150.202ZM188.929 150.535H190.68V147.409H188.929V150.535ZM192.243 148.972V140.574H189.117V148.972H192.243ZM190.68 139.011H188.929V142.137H190.68V139.011ZM188.929 139.011C188.145 139.011 187.374 139.139 186.625 139.388L187.613 142.354C188.051 142.208 188.487 142.137 188.929 142.137V139.011ZM186.61 139.394C185.864 139.651 185.184 140.028 184.581 140.527L186.571 142.936C186.878 142.683 187.227 142.487 187.628 142.348L186.61 139.394ZM184.586 140.522C183.987 141.013 183.502 141.609 183.132 142.296L185.884 143.778C186.068 143.437 186.295 143.163 186.566 142.941L184.586 140.522ZM183.11 142.338C182.734 143.091 182.559 143.907 182.559 144.758H185.685C185.685 144.343 185.767 144.012 185.906 143.736L183.11 142.338ZM198.757 159.565L199.001 158.022L198.961 158.015L198.921 158.011L198.757 159.565ZM197.808 159.387L196.249 159.499L196.325 160.566L197.348 160.881L197.808 159.387ZM197.511 155.233L197.89 153.717L195.799 153.194L195.952 155.344L197.511 155.233ZM198.55 155.441L198.756 153.892L198.55 155.441ZM201.191 154.818L199.934 153.889L199.92 153.907L199.908 153.925L201.191 154.818ZM201.695 136.42V134.857H200.132V136.42H201.695ZM205.849 136.42H207.412V134.857H205.849V136.42ZM205.849 148.972H204.287V150.535H205.849V148.972ZM209.054 148.972H210.617V147.409H209.054V148.972ZM209.054 153.126V154.689H210.617V153.126H209.054ZM205.82 153.126V151.563H204.336L204.259 153.045L205.82 153.126ZM204.247 158.111L203.088 157.063V157.063L204.247 158.111ZM199.915 158.092C199.597 158.092 199.293 158.068 199.001 158.022L198.514 161.109C198.973 161.182 199.441 161.217 199.915 161.217V158.092ZM198.921 158.011C198.609 157.978 198.398 157.934 198.267 157.894L197.348 160.881C197.732 160.999 198.154 161.073 198.594 161.12L198.921 158.011ZM199.367 159.276L199.07 155.122L195.952 155.344L196.249 159.499L199.367 159.276ZM197.132 156.749C197.566 156.858 197.972 156.94 198.343 156.99L198.756 153.892C198.534 153.862 198.248 153.806 197.89 153.717L197.132 156.749ZM198.343 156.99C198.712 157.039 199.088 157.063 199.47 157.063V153.937C199.218 153.937 198.981 153.922 198.756 153.892L198.343 156.99ZM199.47 157.063C200.544 157.063 201.739 156.765 202.474 155.71L199.908 153.925C199.922 153.905 199.939 153.888 199.954 153.876C199.968 153.865 199.969 153.868 199.947 153.877C199.895 153.897 199.752 153.937 199.47 153.937V157.063ZM202.447 155.747C203.089 154.879 203.258 153.716 203.258 152.592H200.132C200.132 153.526 199.965 153.846 199.934 153.889L202.447 155.747ZM203.258 152.592V136.42H200.132V152.592H203.258ZM201.695 137.983H205.849V134.857H201.695V137.983ZM204.287 136.42V148.972H207.412V136.42H204.287ZM205.849 150.535H209.054V147.409H205.849V150.535ZM207.491 148.972V153.126H210.617V148.972H207.491ZM209.054 151.563H205.82V154.689H209.054V151.563ZM204.259 153.045C204.148 155.199 203.662 156.427 203.088 157.063L205.406 159.159C206.691 157.738 207.254 155.643 207.38 153.207L204.259 153.045ZM203.088 157.063C202.56 157.647 201.619 158.092 199.915 158.092V161.217C202.128 161.217 204.074 160.633 205.406 159.159L203.088 157.063ZM208.473 148.972V147.409H206.91V148.972H208.473ZM212.152 148.972V150.535H213.715V148.972H212.152ZM212.152 136.42V134.857H210.59V136.42H212.152ZM216.307 136.42H217.87V134.857H216.307V136.42ZM216.307 148.972H214.744V150.535H216.307V148.972ZM219.482 148.972H221.045V147.409H219.482V148.972ZM219.482 153.126V154.689H221.045V153.126H219.482ZM208.473 153.126H206.91V154.689H208.473V153.126ZM215.921 158.883L214.975 157.639L214.963 157.648L214.951 157.658L215.921 158.883ZM212.509 158.883L211.538 160.108L211.551 160.118L211.563 160.127L212.509 158.883ZM212.479 155.619L211.478 154.418L211.451 154.441L211.425 154.465L212.479 155.619ZM215.951 155.619L216.98 154.443L216.976 154.439L215.951 155.619ZM208.473 150.535H212.152V147.409H208.473V150.535ZM213.715 148.972V136.42H210.59V148.972H213.715ZM212.152 137.983H216.307V134.857H212.152V137.983ZM214.744 136.42V148.972H217.87V136.42H214.744ZM216.307 150.535H219.482V147.409H216.307V150.535ZM217.919 148.972V153.126H221.045V148.972H217.919ZM219.482 151.563H208.473V154.689H219.482V151.563ZM210.036 153.126V148.972H206.91V153.126H210.036ZM214.951 157.658C214.774 157.797 214.56 157.884 214.23 157.884V161.01C215.205 161.01 216.118 160.72 216.891 160.108L214.951 157.658ZM214.23 157.884C213.9 157.884 213.662 157.797 213.454 157.639L211.563 160.127C212.344 160.721 213.254 161.01 214.23 161.01V157.884ZM213.479 157.658C213.457 157.641 213.359 157.586 213.359 157.221H210.234C210.234 158.32 210.61 159.373 211.538 160.108L213.479 157.658ZM213.359 157.221C213.359 156.978 213.423 156.873 213.533 156.773L211.425 154.465C210.625 155.196 210.234 156.159 210.234 157.221H213.359ZM213.479 156.819C213.639 156.686 213.856 156.588 214.23 156.588V153.463C213.218 153.463 212.268 153.76 211.478 154.418L213.479 156.819ZM214.23 156.588C214.604 156.588 214.796 156.686 214.925 156.798L216.976 154.439C216.195 153.76 215.239 153.463 214.23 153.463V156.588ZM214.922 156.795C215.044 156.902 215.1 157.001 215.1 157.221H218.226C218.226 156.136 217.807 155.166 216.98 154.443L214.922 156.795ZM215.1 157.221C215.1 157.563 215.009 157.613 214.975 157.639L216.867 160.127C217.822 159.401 218.226 158.343 218.226 157.221H215.1ZM218.905 148.972V147.409H217.342V148.972H218.905ZM221.783 148.972V150.535H223.818L223.293 148.569L221.783 148.972ZM221.605 148.052L220.046 148.15L220.049 148.198L220.055 148.246L221.605 148.052ZM222.258 143.542L220.822 142.926L220.816 142.939L222.258 143.542ZM224.157 140.663L223.039 139.572L223.039 139.572L224.157 140.663ZM226.976 138.705L226.351 137.272L226.342 137.277L226.976 138.705ZM233.95 138.705L233.325 140.137L233.34 140.144L233.356 140.15L233.95 138.705ZM236.828 140.604L235.723 141.709L235.729 141.716L235.736 141.722L236.828 140.604ZM238.757 143.482L237.311 144.076L237.316 144.087L237.32 144.098L238.757 143.482ZM238.727 150.604L237.304 149.957L237.299 149.969L238.727 150.604ZM236.769 153.393L237.846 154.525V154.525L236.769 153.393ZM233.89 155.263L233.287 153.821L233.89 155.263ZM226.887 155.174L227.545 153.756L227.535 153.751L227.524 153.747L226.887 155.174ZM223.979 153.126L225.11 152.047L224.648 151.563H223.979V153.126ZM218.905 153.126H217.342V154.689H218.905V153.126ZM228.579 151.435L227.939 152.861L227.96 152.87L227.981 152.879L228.579 151.435ZM233.89 150.456L234.969 151.586L234.97 151.585L233.89 150.456ZM234.929 148.942L233.495 148.321L233.49 148.333L233.485 148.345L234.929 148.942ZM234.958 145.085L233.507 145.665V145.665L234.958 145.085ZM233.95 143.542L232.844 144.647L233.95 143.542ZM232.407 142.533L231.785 143.967L231.805 143.976L231.826 143.984L232.407 142.533ZM228.549 142.533L227.91 141.107L228.549 142.533ZM227.065 143.571L225.935 142.492H225.935L227.065 143.571ZM226.086 145.114L227.537 145.695L226.086 145.114ZM226.086 148.913L224.635 149.493L224.638 149.502L224.642 149.51L226.086 148.913ZM227.065 150.426L225.935 151.505L225.96 151.531L225.986 151.556L227.065 150.426ZM218.905 150.535H221.783V147.409H218.905V150.535ZM223.293 148.569C223.233 148.344 223.187 148.107 223.156 147.858L220.055 148.246C220.103 148.63 220.175 149.007 220.273 149.375L223.293 148.569ZM223.165 147.955C223.147 147.672 223.138 147.379 223.138 147.073H220.013C220.013 147.44 220.024 147.799 220.046 148.15L223.165 147.955ZM223.138 147.073C223.138 145.998 223.331 145.028 223.7 144.145L220.816 142.939C220.276 144.231 220.013 145.615 220.013 147.073H223.138ZM223.695 144.157C224.098 143.215 224.627 142.419 225.276 141.755L223.039 139.572C222.105 140.529 221.367 141.653 220.822 142.926L223.695 144.157ZM225.276 141.755C225.947 141.067 226.723 140.528 227.611 140.133L226.342 137.277C225.093 137.831 223.989 138.598 223.039 139.572L225.276 141.755ZM227.601 140.137C228.486 139.751 229.429 139.555 230.448 139.555V136.43C229.014 136.43 227.643 136.709 226.351 137.272L227.601 140.137ZM230.448 139.555C231.49 139.555 232.443 139.753 233.325 140.137L234.575 137.272C233.28 136.707 231.899 136.43 230.448 136.43V139.555ZM233.356 140.15C234.281 140.53 235.064 141.051 235.723 141.709L237.933 139.499C236.969 138.535 235.834 137.789 234.543 137.259L233.356 140.15ZM235.736 141.722C236.41 142.38 236.934 143.159 237.311 144.076L240.202 142.889C239.669 141.59 238.908 140.45 237.92 139.486L235.736 141.722ZM237.32 144.098C237.706 144.998 237.906 145.984 237.906 147.073H241.032C241.032 145.59 240.757 144.182 240.193 142.867L237.32 144.098ZM237.906 147.073C237.906 148.129 237.701 149.084 237.304 149.957L240.15 151.251C240.742 149.948 241.032 148.548 241.032 147.073H237.906ZM237.299 149.969C236.906 150.854 236.371 151.614 235.691 152.262L237.846 154.525C238.828 153.59 239.599 152.49 240.155 151.239L237.299 149.969ZM235.691 152.262C235.002 152.918 234.204 153.437 233.287 153.821L234.493 156.705C235.752 156.178 236.874 155.451 237.846 154.525L235.691 152.262ZM233.287 153.821C232.395 154.194 231.453 154.382 230.448 154.382V157.508C231.857 157.508 233.21 157.241 234.493 156.705L233.287 153.821ZM230.448 154.382C229.401 154.382 228.439 154.171 227.545 153.756L226.229 156.591C227.551 157.205 228.963 157.508 230.448 157.508V154.382ZM227.524 153.747C226.6 153.334 225.799 152.769 225.11 152.047L222.849 154.205C223.821 155.224 224.958 156.024 226.25 156.601L227.524 153.747ZM223.979 151.563H218.905V154.689H223.979V151.563ZM220.468 153.126V148.972H217.342V153.126H220.468ZM227.981 152.879C228.76 153.201 229.588 153.354 230.448 153.354V150.228C229.963 150.228 229.545 150.143 229.176 149.991L227.981 152.879ZM230.448 153.354C231.309 153.354 232.14 153.201 232.928 152.886L231.767 149.984C231.367 150.144 230.932 150.228 230.448 150.228V153.354ZM232.928 152.886C233.695 152.579 234.381 152.148 234.969 151.586L232.811 149.325C232.529 149.594 232.187 149.816 231.767 149.984L232.928 152.886ZM234.97 151.585C235.58 151.002 236.051 150.317 236.373 149.54L233.485 148.345C233.332 148.715 233.11 149.039 232.81 149.326L234.97 151.585ZM236.363 149.564C236.711 148.76 236.877 147.904 236.877 147.013H233.752C233.752 147.507 233.661 147.937 233.495 148.321L236.363 149.564ZM236.877 147.013C236.877 146.139 236.727 145.297 236.409 144.504L233.507 145.665C233.665 146.059 233.752 146.503 233.752 147.013H236.877ZM236.409 144.504C236.097 143.722 235.645 143.027 235.055 142.437L232.844 144.647C233.124 144.926 233.346 145.26 233.507 145.665L236.409 144.504ZM235.055 142.437C234.464 141.846 233.769 141.395 232.987 141.082L231.826 143.984C232.231 144.146 232.565 144.367 232.844 144.647L235.055 142.437ZM233.028 141.099C232.219 140.748 231.352 140.584 230.448 140.584V143.71C230.968 143.71 231.407 143.803 231.785 143.967L233.028 141.099ZM230.448 140.584C229.558 140.584 228.704 140.751 227.91 141.107L229.188 143.959C229.541 143.801 229.954 143.71 230.448 143.71V140.584ZM227.91 141.107C227.16 141.443 226.496 141.904 225.935 142.492L228.196 144.65C228.465 144.368 228.791 144.137 229.188 143.959L227.91 141.107ZM225.935 142.492C225.373 143.081 224.942 143.767 224.635 144.534L227.537 145.695C227.705 145.275 227.926 144.933 228.196 144.65L225.935 142.492ZM224.635 144.534C224.32 145.322 224.167 146.153 224.167 147.013H227.293C227.293 146.529 227.377 146.094 227.537 145.695L224.635 144.534ZM224.167 147.013C224.167 147.874 224.32 148.705 224.635 149.493L227.537 148.332C227.377 147.933 227.293 147.498 227.293 147.013H224.167ZM224.642 149.51C224.951 150.257 225.382 150.926 225.935 151.505L228.196 149.347C227.918 149.056 227.696 148.716 227.53 148.315L224.642 149.51ZM225.986 151.556C226.556 152.1 227.211 152.534 227.939 152.861L229.218 150.009C228.799 149.821 228.445 149.583 228.144 149.295L225.986 151.556Z" fill="#B20D78" mask="url(#path-19-outside-4_132_25420)"/>
</g>
<defs>
<filter id="filter0_d_132_25420" x="36.8981" y="102.415" width="318.866" height="112.424" filterUnits="userSpaceOnUse" color-interpolation-filters="sRGB">
<feFlood flood-opacity="0" result="BackgroundImageFix"/>
<feColorMatrix in="SourceAlpha" type="matrix" values="0 0 0 0 0 0 0 0 0 0 0 0 0 0 0 0 0 0 127 0" result="hardAlpha"/>
<feOffset dy="4.68843"/>
<feComposite in2="hardAlpha" operator="out"/>
<feColorMatrix type="matrix" values="0 0 0 0 0.827451 0 0 0 0 0.847059 0 0 0 0 1 0 0 0 1 0"/>
<feBlend mode="normal" in2="BackgroundImageFix" result="effect1_dropShadow_132_25420"/>
<feBlend mode="normal" in="SourceGraphic" in2="effect1_dropShadow_132_25420" result="shape"/>
</filter>
<filter id="filter1_d_132_25420" x="159.455" y="33.9668" width="70.5065" height="71.2841" filterUnits="userSpaceOnUse" color-interpolation-filters="sRGB">
<feFlood flood-opacity="0" result="BackgroundImageFix"/>
<feColorMatrix in="SourceAlpha" type="matrix" values="0 0 0 0 0 0 0 0 0 0 0 0 0 0 0 0 0 0 127 0" result="hardAlpha"/>
<feOffset dy="4.68843"/>
<feComposite in2="hardAlpha" operator="out"/>
<feColorMatrix type="matrix" values="0 0 0 0 1 0 0 0 0 0.392 0 0 0 0 0.2 0 0 0 1 0"/>
<feBlend mode="normal" in2="BackgroundImageFix" result="effect1_dropShadow_132_25420"/>
<feBlend mode="normal" in="SourceGraphic" in2="effect1_dropShadow_132_25420" result="shape"/>
</filter>
<filter id="filter2_d_132_25420" x="101.742" y="60.9017" width="56.2876" height="58.0765" filterUnits="userSpaceOnUse" color-interpolation-filters="sRGB">
<feFlood flood-opacity="0" result="BackgroundImageFix"/>
<feColorMatrix in="SourceAlpha" type="matrix" values="0 0 0 0 0 0 0 0 0 0 0 0 0 0 0 0 0 0 127 0" result="hardAlpha"/>
<feOffset dy="4.68843"/>
<feComposite in2="hardAlpha" operator="out"/>
<feColorMatrix type="matrix" values="0 0 0 0 1 0 0 0 0 0.392 0 0 0 0 0.2 0 0 0 1 0"/>
<feBlend mode="normal" in2="BackgroundImageFix" result="effect1_dropShadow_132_25420"/>
<feBlend mode="normal" in="SourceGraphic" in2="effect1_dropShadow_132_25420" result="shape"/>
</filter>
<filter id="filter3_d_132_25420" x="229.9" y="60.9006" width="56.2876" height="58.0765" filterUnits="userSpaceOnUse" color-interpolation-filters="sRGB">
<feFlood flood-opacity="0" result="BackgroundImageFix"/>
<feColorMatrix in="SourceAlpha" type="matrix" values="0 0 0 0 0 0 0 0 0 0 0 0 0 0 0 0 0 0 127 0" result="hardAlpha"/>
<feOffset dy="4.68843"/>
<feComposite in2="hardAlpha" operator="out"/>
<feColorMatrix type="matrix" values="0 0 0 0 1 0 0 0 0 0.392 0 0 0 0 0.2 0 0 0 1 0"/>
<feBlend mode="normal" in2="BackgroundImageFix" result="effect1_dropShadow_132_25420"/>
<feBlend mode="normal" in="SourceGraphic" in2="effect1_dropShadow_132_25420" result="shape"/>
</filter>
<filter id="filter4_d_132_25420" x="151.566" y="127.498" width="89.4658" height="36.8449" filterUnits="userSpaceOnUse" color-interpolation-filters="sRGB">
<feFlood flood-opacity="0" result="BackgroundImageFix"/>
<feColorMatrix in="SourceAlpha" type="matrix" values="0 0 0 0 0 0 0 0 0 0 0 0 0 0 0 0 0 0 127 0" result="hardAlpha"/>
<feOffset dy="3.12562"/>
<feComposite in2="hardAlpha" operator="out"/>
<feColorMatrix type="matrix" values="0 0 0 0 0.698039 0 0 0 0 0.0509804 0 0 0 0 0.470588 0 0 0 1 0"/>
<feBlend mode="normal" in2="BackgroundImageFix" result="effect1_dropShadow_132_25420"/>
<feBlend mode="normal" in="SourceGraphic" in2="effect1_dropShadow_132_25420" result="shape"/>
</filter>
<radialGradient id="paint0_radial_132_25420" cx="0" cy="0" r="1" gradientUnits="userSpaceOnUse" gradientTransform="translate(200.318 103.678) rotate(89.8397) scale(86.2909 200.032)">
<stop stop-color="#FFEE37" stop-opacity="0.56"/>
<stop offset="1" stop-color="#FFF8AC" stop-opacity="0"/>
</radialGradient>
<linearGradient id="paint1_linear_132_25420" x1="66.5523" y1="129.351" x2="66.5523" y2="206.986" gradientUnits="userSpaceOnUse">
<stop stop-color="#A0539C"/>
<stop offset="1" stop-color="#EE81B1"/>
</linearGradient>
<linearGradient id="paint2_linear_132_25420" x1="326.11" y1="129.349" x2="326.11" y2="206.984" gradientUnits="userSpaceOnUse">
<stop stop-color="#A0539C"/>
<stop offset="1" stop-color="#EE81B1"/>
</linearGradient>
<linearGradient id="paint3_linear_132_25420" x1="195.522" y1="102.415" x2="195.522" y2="183.219" gradientUnits="userSpaceOnUse">
<stop stop-color="#A0539C"/>
<stop offset="1" stop-color="#EE81B1"/>
</linearGradient>
<linearGradient id="paint4_linear_132_25420" x1="194.425" y1="27.3724" x2="194.425" y2="113.071" gradientUnits="userSpaceOnUse">
<stop offset="0.25" stop-color="#FFEE37"/>
<stop offset="1" stop-color="#F78A3B"/>
</linearGradient>
<linearGradient id="paint5_linear_132_25420" x1="194.708" y1="26.3572" x2="194.708" y2="113.969" gradientUnits="userSpaceOnUse">
<stop offset="0.25" stop-color="#FFEE37"/>
<stop offset="1" stop-color="#F78A3B"/>
</linearGradient>
<linearGradient id="paint6_linear_132_25420" x1="129.656" y1="55.6009" x2="129.656" y2="124.456" gradientUnits="userSpaceOnUse">
<stop offset="0.25" stop-color="#FFEE37"/>
<stop offset="1" stop-color="#F78A3B"/>
</linearGradient>
<linearGradient id="paint7_linear_132_25420" x1="129.886" y1="53.2921" x2="129.886" y2="126.302" gradientUnits="userSpaceOnUse">
<stop offset="0.25" stop-color="#FFEE37"/>
<stop offset="1" stop-color="#F78A3B"/>
</linearGradient>
<linearGradient id="paint8_linear_132_25420" x1="257.811" y1="55.6008" x2="257.811" y2="124.456" gradientUnits="userSpaceOnUse">
<stop offset="0.25" stop-color="#FFEE37"/>
<stop offset="1" stop-color="#F78A3B"/>
</linearGradient>
<linearGradient id="paint9_linear_132_25420" x1="258.044" y1="53.291" x2="258.044" y2="126.301" gradientUnits="userSpaceOnUse">
<stop offset="0.25" stop-color="#FFEE37"/>
<stop offset="1" stop-color="#F78A3B"/>
</linearGradient>
</defs>
</svg>
