<svg width="139" height="38" viewBox="0 0 139 38" fill="none" xmlns="http://www.w3.org/2000/svg">
<g filter="url(#filter0_d_178_9464)">
<mask id="path-1-outside-1_178_9464" maskUnits="userSpaceOnUse" x="3" y="-0.5" width="136" height="36" fill="black">
<rect fill="white" x="3" y="-0.5" width="136" height="36"/>
<path d="M8.4963 27.9716C8.4963 28.7472 8.61159 29.5228 8.84217 30.2984C9.07275 31.074 9.45006 31.9125 9.97411 32.8138L6.54686 34.4174C5.77127 33.3064 5.1529 32.0906 4.69174 30.77C4.25154 29.4704 4.03144 27.9716 4.03144 26.2737C4.03144 25.0999 4.12577 24.0413 4.31443 23.098H15.9482C16.1159 22.4063 16.2417 21.6517 16.3255 20.8342C16.4303 20.0166 16.4827 19.2725 16.4827 18.6017C16.4827 17.9519 16.357 17.2811 16.1054 16.5894C15.8748 15.8767 15.4871 15.2793 14.942 14.7972C14.0407 14.0006 12.8039 13.6023 11.2318 13.6023C10.3933 13.6023 9.62824 13.7072 8.9365 13.9168C8.24476 14.1054 7.49014 14.4618 6.67263 14.9858L4.84895 11.1498C5.87608 10.5629 6.95561 10.0912 8.08755 9.7349C9.21948 9.37855 10.4457 9.20037 11.7663 9.20037C13.066 9.20037 14.2398 9.40999 15.2879 9.82922C16.357 10.2485 17.2688 10.8459 18.0234 11.6215C18.8619 12.4599 19.5432 13.4975 20.0672 14.7343C20.5912 15.9501 20.8533 17.3545 20.8533 18.9476C20.8533 19.6603 20.8113 20.3625 20.7275 21.0543C20.6646 21.746 20.5703 22.4273 20.4445 23.098H23.5573V27.5H8.4963V27.9716ZM12.7096 6.15043C12.2065 6.54871 11.6091 6.74784 10.9174 6.74784C10.2256 6.74784 9.61776 6.54871 9.09371 6.15043C8.59063 5.75216 8.33909 5.16523 8.33909 4.38964C8.33909 3.69791 8.58015 3.14242 9.06227 2.72318C9.56535 2.28298 10.1837 2.06289 10.9174 2.06289C11.651 2.06289 12.2589 2.28298 12.7411 2.72318C13.2441 3.14242 13.4957 3.69791 13.4957 4.38964C13.4957 5.16523 13.2337 5.75216 12.7096 6.15043ZM22.9147 23.098H27.128C26.6669 22.4901 26.3001 21.8194 26.0275 21.0857C25.755 20.352 25.6188 19.5345 25.6188 18.6332C25.6188 17.2497 25.8703 16.0129 26.3734 14.9229C26.8975 13.8329 27.6206 12.9106 28.543 12.156C29.4653 11.3804 30.5763 10.7935 31.8759 10.3952C33.1755 9.99692 34.6114 9.79778 36.1835 9.79778H41.3716V23.098H44.2957V27.5H22.9147V23.098ZM30.0208 18.6332C30.0208 19.5974 30.2304 20.4568 30.6496 21.2115C31.0898 21.9661 31.6767 22.5949 32.4104 23.098H36.9696V14.1998H35.1145C34.4856 14.1998 33.8568 14.2941 33.2279 14.4827C32.62 14.6714 32.075 14.9544 31.5929 15.3317C31.1317 15.709 30.7544 16.1806 30.461 16.7466C30.1675 17.2916 30.0208 17.9205 30.0208 18.6332ZM36.6237 6.52774C36.1206 6.92602 35.5232 7.12516 34.8315 7.12516C34.1398 7.12516 33.5319 6.92602 33.0078 6.52774C32.5047 6.12947 32.2532 5.54254 32.2532 4.76695C32.2532 4.07522 32.4943 3.51973 32.9764 3.10049C33.4795 2.6603 34.0978 2.4402 34.8315 2.4402C35.5652 2.4402 36.173 2.6603 36.6552 3.10049C37.1583 3.51973 37.4098 4.07522 37.4098 4.76695C37.4098 5.54254 37.1478 6.12947 36.6237 6.52774ZM43.6718 23.098H46.7532V2H53.1989V6.40197H51.1551V27.5H43.6718V23.098ZM58.5371 2H62.939V27.5H58.5371V2ZM95.1216 23.098V27.5H87.198C85.6259 27.5 84.1795 27.3218 82.8589 26.9655C81.5593 26.6091 80.4274 26.0641 79.4631 25.3305C78.5198 24.5968 77.7757 23.6745 77.2307 22.5635C76.7067 21.4525 76.4446 20.1529 76.4446 18.6646C76.4446 17.3859 76.6857 16.2121 77.1678 15.143C77.6499 14.053 78.3522 13.1202 79.2745 12.3446C80.1968 11.5481 81.3182 10.9297 82.6388 10.4895C83.9804 10.0284 85.5001 9.79778 87.198 9.79778H87.8269V8.22565H92.2288V23.098H95.1216ZM87.8269 23.098V14.1998H86.129C85.4792 14.1998 84.8398 14.3046 84.211 14.5142C83.5821 14.7028 83.0161 14.9858 82.5131 15.3631C82.01 15.7404 81.6012 16.2121 81.2868 16.7781C80.9933 17.3231 80.8466 17.9519 80.8466 18.6646C80.8466 19.3983 80.9829 20.0376 81.2554 20.5826C81.5488 21.1276 81.9261 21.5888 82.3873 21.9661C82.8694 22.3434 83.4144 22.6264 84.0223 22.815C84.6302 23.0037 85.2591 23.098 85.9089 23.098H87.8269ZM91.317 5.33292C90.8349 5.71023 90.2584 5.89889 89.5877 5.89889C88.9169 5.89889 88.3404 5.71023 87.8583 5.33292C87.3762 4.93465 87.1351 4.36868 87.1351 3.63502C87.1351 2.96424 87.3657 2.42972 87.8269 2.03144C88.309 1.61221 88.8959 1.40259 89.5877 1.40259C90.3004 1.40259 90.8873 1.61221 91.3485 2.03144C91.8096 2.42972 92.0402 2.96424 92.0402 3.63502C92.0402 4.36868 91.7991 4.93465 91.317 5.33292ZM84.494 5.33292C84.0118 5.71023 83.4354 5.89889 82.7646 5.89889C82.0938 5.89889 81.5174 5.71023 81.0353 5.33292C80.5531 4.93465 80.3121 4.36868 80.3121 3.63502C80.3121 2.96424 80.5427 2.42972 81.0038 2.03144C81.4859 1.61221 82.0729 1.40259 82.7646 1.40259C83.4563 1.40259 84.0328 1.61221 84.494 2.03144C84.9761 2.42972 85.2171 2.96424 85.2171 3.63502C85.2171 4.36868 84.9761 4.93465 84.494 5.33292ZM94.5205 23.098H98.4194V9.79778H102.821V23.098H106.186V27.5H94.5205V23.098ZM102.413 33.5999C101.91 33.9982 101.312 34.1973 100.62 34.1973C99.9286 34.1973 99.3207 33.9982 98.7967 33.5999C98.2936 33.2016 98.0421 32.6147 98.0421 31.8391C98.0421 31.1473 98.2831 30.5814 98.7652 30.1412C99.2683 29.7219 99.8867 29.5123 100.62 29.5123C101.354 29.5123 101.962 29.7219 102.444 30.1412C102.947 30.5814 103.199 31.1473 103.199 31.8391C103.199 32.6147 102.937 33.2016 102.413 33.5999ZM105.575 23.098H110.888L106.989 13.0993C107.744 12.4494 108.499 11.852 109.253 11.307C110.029 10.762 110.804 10.2904 111.58 9.89211C112.377 9.49383 113.194 9.18989 114.033 8.98027C114.871 8.74969 115.741 8.6344 116.642 8.6344C118.466 8.6344 120.174 9.05364 121.768 9.89211C123.361 10.7306 124.88 11.8101 126.327 13.1307L122.554 23.098H128.339V27.5H105.575V23.098ZM116.642 13.2879C115.762 13.2879 114.955 13.4242 114.221 13.6967C113.488 13.9692 112.722 14.3989 111.926 14.9858L114.787 23.098H118.56L121.422 14.9544C120.541 14.3465 119.745 13.9168 119.032 13.6652C118.34 13.4137 117.544 13.2879 116.642 13.2879ZM127.713 23.098H130.795V2H137.24V6.40197H135.197V27.5H127.713V23.098Z"/>
</mask>
<path d="M8.4963 27.9716C8.4963 28.7472 8.61159 29.5228 8.84217 30.2984C9.07275 31.074 9.45006 31.9125 9.97411 32.8138L6.54686 34.4174C5.77127 33.3064 5.1529 32.0906 4.69174 30.77C4.25154 29.4704 4.03144 27.9716 4.03144 26.2737C4.03144 25.0999 4.12577 24.0413 4.31443 23.098H15.9482C16.1159 22.4063 16.2417 21.6517 16.3255 20.8342C16.4303 20.0166 16.4827 19.2725 16.4827 18.6017C16.4827 17.9519 16.357 17.2811 16.1054 16.5894C15.8748 15.8767 15.4871 15.2793 14.942 14.7972C14.0407 14.0006 12.8039 13.6023 11.2318 13.6023C10.3933 13.6023 9.62824 13.7072 8.9365 13.9168C8.24476 14.1054 7.49014 14.4618 6.67263 14.9858L4.84895 11.1498C5.87608 10.5629 6.95561 10.0912 8.08755 9.7349C9.21948 9.37855 10.4457 9.20037 11.7663 9.20037C13.066 9.20037 14.2398 9.40999 15.2879 9.82922C16.357 10.2485 17.2688 10.8459 18.0234 11.6215C18.8619 12.4599 19.5432 13.4975 20.0672 14.7343C20.5912 15.9501 20.8533 17.3545 20.8533 18.9476C20.8533 19.6603 20.8113 20.3625 20.7275 21.0543C20.6646 21.746 20.5703 22.4273 20.4445 23.098H23.5573V27.5H8.4963V27.9716ZM12.7096 6.15043C12.2065 6.54871 11.6091 6.74784 10.9174 6.74784C10.2256 6.74784 9.61776 6.54871 9.09371 6.15043C8.59063 5.75216 8.33909 5.16523 8.33909 4.38964C8.33909 3.69791 8.58015 3.14242 9.06227 2.72318C9.56535 2.28298 10.1837 2.06289 10.9174 2.06289C11.651 2.06289 12.2589 2.28298 12.7411 2.72318C13.2441 3.14242 13.4957 3.69791 13.4957 4.38964C13.4957 5.16523 13.2337 5.75216 12.7096 6.15043ZM22.9147 23.098H27.128C26.6669 22.4901 26.3001 21.8194 26.0275 21.0857C25.755 20.352 25.6188 19.5345 25.6188 18.6332C25.6188 17.2497 25.8703 16.0129 26.3734 14.9229C26.8975 13.8329 27.6206 12.9106 28.543 12.156C29.4653 11.3804 30.5763 10.7935 31.8759 10.3952C33.1755 9.99692 34.6114 9.79778 36.1835 9.79778H41.3716V23.098H44.2957V27.5H22.9147V23.098ZM30.0208 18.6332C30.0208 19.5974 30.2304 20.4568 30.6496 21.2115C31.0898 21.9661 31.6767 22.5949 32.4104 23.098H36.9696V14.1998H35.1145C34.4856 14.1998 33.8568 14.2941 33.2279 14.4827C32.62 14.6714 32.075 14.9544 31.5929 15.3317C31.1317 15.709 30.7544 16.1806 30.461 16.7466C30.1675 17.2916 30.0208 17.9205 30.0208 18.6332ZM36.6237 6.52774C36.1206 6.92602 35.5232 7.12516 34.8315 7.12516C34.1398 7.12516 33.5319 6.92602 33.0078 6.52774C32.5047 6.12947 32.2532 5.54254 32.2532 4.76695C32.2532 4.07522 32.4943 3.51973 32.9764 3.10049C33.4795 2.6603 34.0978 2.4402 34.8315 2.4402C35.5652 2.4402 36.173 2.6603 36.6552 3.10049C37.1583 3.51973 37.4098 4.07522 37.4098 4.76695C37.4098 5.54254 37.1478 6.12947 36.6237 6.52774ZM43.6718 23.098H46.7532V2H53.1989V6.40197H51.1551V27.5H43.6718V23.098ZM58.5371 2H62.939V27.5H58.5371V2ZM95.1216 23.098V27.5H87.198C85.6259 27.5 84.1795 27.3218 82.8589 26.9655C81.5593 26.6091 80.4274 26.0641 79.4631 25.3305C78.5198 24.5968 77.7757 23.6745 77.2307 22.5635C76.7067 21.4525 76.4446 20.1529 76.4446 18.6646C76.4446 17.3859 76.6857 16.2121 77.1678 15.143C77.6499 14.053 78.3522 13.1202 79.2745 12.3446C80.1968 11.5481 81.3182 10.9297 82.6388 10.4895C83.9804 10.0284 85.5001 9.79778 87.198 9.79778H87.8269V8.22565H92.2288V23.098H95.1216ZM87.8269 23.098V14.1998H86.129C85.4792 14.1998 84.8398 14.3046 84.211 14.5142C83.5821 14.7028 83.0161 14.9858 82.5131 15.3631C82.01 15.7404 81.6012 16.2121 81.2868 16.7781C80.9933 17.3231 80.8466 17.9519 80.8466 18.6646C80.8466 19.3983 80.9829 20.0376 81.2554 20.5826C81.5488 21.1276 81.9261 21.5888 82.3873 21.9661C82.8694 22.3434 83.4144 22.6264 84.0223 22.815C84.6302 23.0037 85.2591 23.098 85.9089 23.098H87.8269ZM91.317 5.33292C90.8349 5.71023 90.2584 5.89889 89.5877 5.89889C88.9169 5.89889 88.3404 5.71023 87.8583 5.33292C87.3762 4.93465 87.1351 4.36868 87.1351 3.63502C87.1351 2.96424 87.3657 2.42972 87.8269 2.03144C88.309 1.61221 88.8959 1.40259 89.5877 1.40259C90.3004 1.40259 90.8873 1.61221 91.3485 2.03144C91.8096 2.42972 92.0402 2.96424 92.0402 3.63502C92.0402 4.36868 91.7991 4.93465 91.317 5.33292ZM84.494 5.33292C84.0118 5.71023 83.4354 5.89889 82.7646 5.89889C82.0938 5.89889 81.5174 5.71023 81.0353 5.33292C80.5531 4.93465 80.3121 4.36868 80.3121 3.63502C80.3121 2.96424 80.5427 2.42972 81.0038 2.03144C81.4859 1.61221 82.0729 1.40259 82.7646 1.40259C83.4563 1.40259 84.0328 1.61221 84.494 2.03144C84.9761 2.42972 85.2171 2.96424 85.2171 3.63502C85.2171 4.36868 84.9761 4.93465 84.494 5.33292ZM94.5205 23.098H98.4194V9.79778H102.821V23.098H106.186V27.5H94.5205V23.098ZM102.413 33.5999C101.91 33.9982 101.312 34.1973 100.62 34.1973C99.9286 34.1973 99.3207 33.9982 98.7967 33.5999C98.2936 33.2016 98.0421 32.6147 98.0421 31.8391C98.0421 31.1473 98.2831 30.5814 98.7652 30.1412C99.2683 29.7219 99.8867 29.5123 100.62 29.5123C101.354 29.5123 101.962 29.7219 102.444 30.1412C102.947 30.5814 103.199 31.1473 103.199 31.8391C103.199 32.6147 102.937 33.2016 102.413 33.5999ZM105.575 23.098H110.888L106.989 13.0993C107.744 12.4494 108.499 11.852 109.253 11.307C110.029 10.762 110.804 10.2904 111.58 9.89211C112.377 9.49383 113.194 9.18989 114.033 8.98027C114.871 8.74969 115.741 8.6344 116.642 8.6344C118.466 8.6344 120.174 9.05364 121.768 9.89211C123.361 10.7306 124.88 11.8101 126.327 13.1307L122.554 23.098H128.339V27.5H105.575V23.098ZM116.642 13.2879C115.762 13.2879 114.955 13.4242 114.221 13.6967C113.488 13.9692 112.722 14.3989 111.926 14.9858L114.787 23.098H118.56L121.422 14.9544C120.541 14.3465 119.745 13.9168 119.032 13.6652C118.34 13.4137 117.544 13.2879 116.642 13.2879ZM127.713 23.098H130.795V2H137.24V6.40197H135.197V27.5H127.713V23.098Z" fill="white"/>
<path d="M8.84217 30.2984L9.78401 30.0184L8.84217 30.2984ZM9.97411 32.8138L10.3905 33.7038L10.8236 32.3199L9.97411 32.8138ZM6.54686 34.4174L5.74118 34.9798L6.96327 35.3074L6.54686 34.4174ZM4.69174 30.77L3.76105 31.0853L3.76409 31.094L4.69174 30.77ZM4.31443 23.098V22.1154L3.35092 22.9053L4.31443 23.098ZM15.9482 23.098V24.0806L16.9031 23.3295L15.9482 23.098ZM16.3255 20.8342L15.3509 20.7092L15.3493 20.7215L15.3481 20.7339L16.3255 20.8342ZM16.1054 16.5894L15.1706 16.8919L15.176 16.9086L15.182 16.9252L16.1054 16.5894ZM14.942 14.7972L15.5931 14.0612L15.5927 14.0609L14.942 14.7972ZM8.9365 13.9168L9.19503 14.8647L9.2083 14.8611L9.22145 14.8571L8.9365 13.9168ZM6.67263 14.9858L5.78522 15.4077L7.20289 15.813L6.67263 14.9858ZM4.84895 11.1498L4.36145 10.2967L3.96155 11.5717L4.84895 11.1498ZM8.08755 9.7349L8.3826 10.6721H8.3826L8.08755 9.7349ZM15.2879 9.82922L14.923 10.7415L14.9292 10.744L15.2879 9.82922ZM18.0234 11.6215L17.3191 12.3067L17.3286 12.3162L18.0234 11.6215ZM20.0672 14.7343L19.1625 15.1176L19.1649 15.1232L20.0672 14.7343ZM20.7275 21.0543L19.7521 20.936L19.7503 20.9506L19.7489 20.9653L20.7275 21.0543ZM20.4445 23.098L19.4788 22.9169L20.4445 24.0806V23.098ZM23.5573 23.098H24.5399L23.5573 22.1154V23.098ZM23.5573 27.5V28.4826L24.5399 27.5H23.5573ZM8.4963 27.5V26.5174L7.51372 27.5H8.4963ZM12.7096 6.15043L12.1151 5.36814L12.1073 5.37401L12.0997 5.38004L12.7096 6.15043ZM9.09371 6.15043L8.48382 6.92082L8.49143 6.92685L8.49917 6.93273L9.09371 6.15043ZM9.06227 2.72318L9.70702 3.46465L9.7093 3.46265L9.06227 2.72318ZM12.7411 2.72318L12.0785 3.44881L12.0949 3.46379L12.112 3.47802L12.7411 2.72318ZM7.51372 27.9716C7.51372 28.8461 7.6439 29.7159 7.90033 30.5784L9.78401 30.0184C9.57928 29.3297 9.47888 28.6484 9.47888 27.9716H7.51372ZM7.90033 30.5784C8.15842 31.4465 8.57205 32.3572 9.12466 33.3077L10.8236 32.3199C10.3281 31.4677 9.98708 30.7014 9.78401 30.0184L7.90033 30.5784ZM9.55769 31.9238L6.13044 33.5274L6.96327 35.3074L10.3905 33.7038L9.55769 31.9238ZM7.35253 33.8549C6.62995 32.8199 6.05193 31.6847 5.61939 30.4461L3.76409 31.094C4.25386 32.4965 4.91259 33.7929 5.74118 34.9798L7.35253 33.8549ZM5.62239 30.4548C5.22363 29.2775 5.01403 27.8889 5.01403 26.2737H3.04886C3.04886 28.0544 3.27945 29.6633 3.76109 31.0853L5.62239 30.4548ZM5.01403 26.2737C5.01403 25.151 5.10437 24.1585 5.27793 23.2907L3.35092 22.9053C3.14717 23.9241 3.04886 25.0487 3.04886 26.2737H5.01403ZM4.31443 24.0806H15.9482V22.1154H4.31443V24.0806ZM16.9031 23.3295C17.0828 22.5886 17.2153 21.7895 17.303 20.9344L15.3481 20.7339C15.2681 21.5138 15.1491 22.224 14.9933 22.8665L16.9031 23.3295ZM17.3001 20.9591C17.4091 20.1091 17.4653 19.3224 17.4653 18.6017H15.5002C15.5002 19.2226 15.4516 19.9242 15.3509 20.7092L17.3001 20.9591ZM17.4653 18.6017C17.4653 17.8233 17.3144 17.0388 17.0289 16.2536L15.182 16.9252C15.3995 17.5234 15.5002 18.0806 15.5002 18.6017H17.4653ZM17.0403 16.2869C16.7573 15.4121 16.2738 14.6634 15.5931 14.0612L14.291 15.5331C14.7003 15.8952 14.9924 16.3413 15.1706 16.8919L17.0403 16.2869ZM15.5927 14.0609C14.4625 13.0621 12.9685 12.6198 11.2318 12.6198V14.5849C12.6394 14.5849 13.6189 14.9392 14.2914 15.5334L15.5927 14.0609ZM11.2318 12.6198C10.3119 12.6198 9.44907 12.7347 8.65154 12.9764L9.22145 14.8571C9.8074 14.6796 10.4748 14.5849 11.2318 14.5849V12.6198ZM8.67796 12.9688C7.86281 13.1911 7.01617 13.5985 6.14236 14.1586L7.20289 15.813C7.96411 15.3251 8.62671 15.0197 9.19503 14.8647L8.67796 12.9688ZM7.56003 14.5639L5.73636 10.7279L3.96155 11.5717L5.78522 15.4077L7.56003 14.5639ZM5.33645 12.0029C6.30243 11.4509 7.31742 11.0075 8.3826 10.6721L7.79249 8.79766C6.5938 9.17502 5.44973 9.67482 4.36145 10.2967L5.33645 12.0029ZM8.3826 10.6721C9.40897 10.349 10.5347 10.183 11.7663 10.183V8.21779C10.3568 8.21779 9.02999 8.40808 7.79249 8.79766L8.3826 10.6721ZM11.7663 10.183C12.9597 10.183 14.0072 10.3752 14.923 10.7415L15.6528 8.91692C14.4725 8.44478 13.1723 8.21779 11.7663 8.21779V10.183ZM14.9292 10.744C15.8762 11.1153 16.668 11.6374 17.3192 12.3067L18.7277 10.9362C17.8696 10.0544 16.8378 9.38157 15.6466 8.91446L14.9292 10.744ZM17.3286 12.3162C18.0667 13.0543 18.6812 13.9819 19.1625 15.1176L20.9719 14.3509C20.4051 13.0132 19.6571 11.8656 18.7182 10.9267L17.3286 12.3162ZM19.1649 15.1232C19.6264 16.1939 19.8707 17.4616 19.8707 18.9476H21.8358C21.8358 17.2474 21.5561 15.7063 20.9695 14.3453L19.1649 15.1232ZM19.8707 18.9476C19.8707 19.6217 19.831 20.2844 19.7521 20.936L21.7029 21.1725C21.7916 20.4406 21.8358 19.6989 21.8358 18.9476H19.8707ZM19.7489 20.9653C19.6888 21.6267 19.5987 22.2772 19.4788 22.9169L21.4103 23.2791C21.5419 22.5773 21.6404 21.8653 21.706 21.1432L19.7489 20.9653ZM20.4445 24.0806H23.5573V22.1154H20.4445V24.0806ZM22.5748 23.098V27.5H24.5399V23.098H22.5748ZM23.5573 26.5174H8.4963V28.4826H23.5573V26.5174ZM7.51372 27.5V27.9716H9.47888V27.5H7.51372ZM12.0997 5.38004C11.7842 5.62985 11.4062 5.76526 10.9174 5.76526V7.73043C11.8121 7.73043 12.6289 7.46756 13.3195 6.92082L12.0997 5.38004ZM10.9174 5.76526C10.4287 5.76526 10.0322 5.62956 9.68826 5.36814L8.49917 6.93273C9.20328 7.46785 10.0226 7.73043 10.9174 7.73043V5.76526ZM9.7036 5.38004C9.48558 5.20744 9.32167 4.93459 9.32167 4.38964H7.3565C7.3565 5.39587 7.69567 6.29687 8.48382 6.92082L9.7036 5.38004ZM9.32167 4.38964C9.32167 3.95575 9.45877 3.68052 9.70702 3.46464L8.41752 1.98172C7.70153 2.60432 7.3565 3.44006 7.3565 4.38964H9.32167ZM9.7093 3.46265C10.0153 3.1949 10.3967 3.04547 10.9174 3.04547V1.0803C9.97073 1.0803 9.1154 1.37107 8.41523 1.98371L9.7093 3.46265ZM10.9174 3.04547C11.4386 3.04547 11.8002 3.19471 12.0785 3.44881L13.4036 1.99756C12.7176 1.37126 11.8635 1.0803 10.9174 1.0803V3.04547ZM12.112 3.47802C12.377 3.69886 12.5131 3.97071 12.5131 4.38964H14.4783C14.4783 3.4251 14.1113 2.58598 13.3701 1.96834L12.112 3.47802ZM12.5131 4.38964C12.5131 4.91992 12.3493 5.1901 12.1151 5.36814L13.3042 6.93273C14.118 6.31422 14.4783 5.41054 14.4783 4.38964H12.5131ZM22.9147 23.098V22.1154L21.9321 23.098H22.9147ZM27.128 23.098V24.0806L27.9109 22.5042L27.128 23.098ZM26.0275 21.0857L26.9486 20.7436L26.0275 21.0857ZM26.3734 14.9229L25.4879 14.4972L25.4845 14.5042L25.4813 14.5112L26.3734 14.9229ZM28.543 12.156L29.1652 12.9165L29.1754 12.908L28.543 12.156ZM31.8759 10.3952L32.1638 11.3347L31.8759 10.3952ZM41.3716 9.79778H42.3542L41.3716 8.8152V9.79778ZM41.3716 23.098H40.389L41.3716 24.0806V23.098ZM44.2957 23.098H45.2783L44.2957 22.1154V23.098ZM44.2957 27.5V28.4826L45.2783 27.5H44.2957ZM22.9147 27.5H21.9321L22.9147 28.4826V27.5ZM30.6496 21.2115L29.7907 21.6887L29.7957 21.6977L29.8009 21.7066L30.6496 21.2115ZM32.4104 23.098L31.8547 23.9084L32.4104 24.0806V23.098ZM36.9696 23.098V24.0806L37.9522 23.098H36.9696ZM36.9696 14.1998H37.9522L36.9696 13.2172V14.1998ZM33.2279 14.4827L32.9456 13.5416L32.9367 13.5443L33.2279 14.4827ZM31.5929 15.3317L30.9873 14.5579L30.9789 14.5645L30.9707 14.5712L31.5929 15.3317ZM30.461 16.7466L31.3261 17.2125L31.3297 17.2057L31.3333 17.1989L30.461 16.7466ZM36.6237 6.52774L36.0292 5.74545L36.0215 5.75132L36.0138 5.75735L36.6237 6.52774ZM33.0078 6.52774L32.3979 7.29813L32.4055 7.30416L32.4133 7.31004L33.0078 6.52774ZM32.9764 3.10049L33.6211 3.84196L33.6234 3.83996L32.9764 3.10049ZM36.6552 3.10049L35.9926 3.82612L36.0091 3.8411L36.0261 3.85534L36.6552 3.10049ZM22.9147 24.0806H27.128V22.1154H22.9147V24.0806ZM27.9109 22.5042C27.5094 21.9749 27.1885 21.3893 26.9486 20.7436L25.1065 21.4278C25.4116 22.2494 25.8244 23.0053 26.3452 23.6919L27.9109 22.5042ZM26.9486 20.7436C26.7225 20.1346 26.6014 19.4352 26.6014 18.6332H24.6362C24.6362 19.6339 24.7876 20.5694 25.1065 21.4278L26.9486 20.7436ZM26.6014 18.6332C26.6014 17.3703 26.8305 16.2773 27.2656 15.3347L25.4813 14.5112C24.9102 15.7485 24.6362 17.1291 24.6362 18.6332H26.6014ZM27.259 15.3487C27.7217 14.3862 28.3558 13.5787 29.1652 12.9165L27.9208 11.3955C26.8855 12.2425 26.0732 13.2797 25.4879 14.4972L27.259 15.3487ZM29.1754 12.908C29.9844 12.2276 30.9743 11.6992 32.1638 11.3347L31.588 9.45573C30.1782 9.88776 28.9461 10.5332 27.9106 11.4039L29.1754 12.908ZM32.1638 11.3347C33.3568 10.969 34.694 10.7804 36.1835 10.7804V8.8152C34.5288 8.8152 32.9942 9.0248 31.588 9.45573L32.1638 11.3347ZM36.1835 10.7804H41.3716V8.8152H36.1835V10.7804ZM40.389 9.79778V23.098H42.3542V9.79778H40.389ZM41.3716 24.0806H44.2957V22.1154H41.3716V24.0806ZM43.3132 23.098V27.5H45.2783V23.098H43.3132ZM44.2957 26.5174H22.9147V28.4826H44.2957V26.5174ZM23.8973 27.5V23.098H21.9321V27.5H23.8973ZM29.0382 18.6332C29.0382 19.7445 29.2812 20.7716 29.7907 21.6887L31.5086 20.7343C31.1796 20.1421 31.0034 19.4503 31.0034 18.6332H29.0382ZM29.8009 21.7066C30.3156 22.589 31.0035 23.3247 31.8547 23.9084L32.9661 22.2877C32.35 21.8652 31.864 21.3432 31.4984 20.7164L29.8009 21.7066ZM32.4104 24.0806H36.9696V22.1154H32.4104V24.0806ZM37.9522 23.098V14.1998H35.987V23.098H37.9522ZM36.9696 13.2172H35.1145V15.1823H36.9696V13.2172ZM35.1145 13.2172C34.3859 13.2172 33.662 13.3267 32.9456 13.5416L33.5103 15.4239C34.0516 15.2615 34.5854 15.1823 35.1145 15.1823V13.2172ZM32.9367 13.5443C32.2195 13.7669 31.5671 14.1042 30.9873 14.5579L32.1985 16.1055C32.583 15.8046 33.0206 15.5759 33.5192 15.4212L32.9367 13.5443ZM30.9707 14.5712C30.399 15.039 29.9393 15.6181 29.5887 16.2943L31.3333 17.1989C31.5696 16.7432 31.8645 16.379 32.2151 16.0922L30.9707 14.5712ZM29.5958 16.2808C29.2143 16.9893 29.0382 17.7827 29.0382 18.6332H31.0034C31.0034 18.0583 31.1207 17.5939 31.3261 17.2125L29.5958 16.2808ZM36.0138 5.75735C35.6983 6.00717 35.3203 6.14257 34.8315 6.14257V8.10774C35.7262 8.10774 36.543 7.84487 37.2336 7.29813L36.0138 5.75735ZM34.8315 6.14257C34.3428 6.14257 33.9463 6.00687 33.6024 5.74545L32.4133 7.31004C33.1174 7.84516 33.9367 8.10774 34.8315 8.10774V6.14257ZM33.6177 5.75735C33.3997 5.58475 33.2358 5.3119 33.2358 4.76695H31.2706C31.2706 5.77318 31.6098 6.67418 32.3979 7.29813L33.6177 5.75735ZM33.2358 4.76695C33.2358 4.33306 33.3729 4.05783 33.6211 3.84196L32.3316 2.35903C31.6156 2.98163 31.2706 3.81738 31.2706 4.76695H33.2358ZM33.6234 3.83996C33.9294 3.57221 34.3108 3.42278 34.8315 3.42278V1.45761C33.8848 1.45761 33.0295 1.74838 32.3293 2.36103L33.6234 3.83996ZM34.8315 3.42278C35.3527 3.42278 35.7143 3.57202 35.9926 3.82612L37.3177 2.37487C36.6318 1.74858 35.7776 1.45761 34.8315 1.45761V3.42278ZM36.0261 3.85534C36.2911 4.07617 36.4272 4.34802 36.4272 4.76695H38.3924C38.3924 3.80241 38.0254 2.96329 37.2842 2.34565L36.0261 3.85534ZM36.4272 4.76695C36.4272 5.29723 36.2634 5.56741 36.0292 5.74545L37.2183 7.31004C38.0321 6.69153 38.3924 5.78785 38.3924 4.76695H36.4272ZM43.6718 23.098V22.1154L42.6892 23.098H43.6718ZM46.7532 23.098V24.0806L47.7358 23.098H46.7532ZM46.7532 2V1.01742L45.7706 2H46.7532ZM53.1989 2H54.1815L53.1989 1.01742V2ZM53.1989 6.40197V7.38456L54.1815 6.40197H53.1989ZM51.1551 6.40197V5.41939L50.1726 6.40197H51.1551ZM51.1551 27.5V28.4826L52.1377 27.5H51.1551ZM43.6718 27.5H42.6892L43.6718 28.4826V27.5ZM43.6718 24.0806H46.7532V22.1154H43.6718V24.0806ZM47.7358 23.098V2H45.7706V23.098H47.7358ZM46.7532 2.98258H53.1989V1.01742H46.7532V2.98258ZM52.2163 2V6.40197H54.1815V2H52.2163ZM53.1989 5.41939H51.1551V7.38456H53.1989V5.41939ZM50.1726 6.40197V27.5H52.1377V6.40197H50.1726ZM51.1551 26.5174H43.6718V28.4826H51.1551V26.5174ZM44.6544 27.5V23.098H42.6892V27.5H44.6544ZM58.5371 2V1.01742L57.5545 2H58.5371ZM62.939 2H63.9216L62.939 1.01742V2ZM62.939 27.5V28.4826L63.9216 27.5H62.939ZM58.5371 27.5H57.5545L58.5371 28.4826V27.5ZM58.5371 2.98258H62.939V1.01742H58.5371V2.98258ZM61.9564 2V27.5H63.9216V2H61.9564ZM62.939 26.5174H58.5371V28.4826H62.939V26.5174ZM59.5196 27.5V2H57.5545V27.5H59.5196ZM95.1216 23.098H96.1042L95.1216 22.1154V23.098ZM95.1216 27.5V28.4826L96.1042 27.5H95.1216ZM82.8589 26.9655L82.5991 27.9131L82.603 27.9141L82.8589 26.9655ZM79.4631 25.3305L78.8598 26.1061L78.8682 26.1124L79.4631 25.3305ZM77.2307 22.5635L76.342 22.9827L76.3452 22.9895L76.3485 22.9963L77.2307 22.5635ZM77.1678 15.143L78.0635 15.547L78.0664 15.5405L77.1678 15.143ZM79.2745 12.3446L79.9069 13.0967L79.9167 13.0883L79.2745 12.3446ZM82.6388 10.4895L82.9496 11.4217L82.9583 11.4187L82.6388 10.4895ZM87.8269 9.79778V10.7804L88.8095 9.79778H87.8269ZM87.8269 8.22565V7.24306L86.8443 8.22565H87.8269ZM92.2289 8.22565H93.2114L92.2289 7.24306V8.22565ZM92.2289 23.098H91.2463L92.2289 24.0806V23.098ZM87.8269 23.098V24.0806L88.8095 23.098H87.8269ZM87.8269 14.1998H88.8095L87.8269 13.2172V14.1998ZM84.211 14.5142L84.4933 15.4553L84.5076 15.451L84.5217 15.4463L84.211 14.5142ZM82.5131 15.3631L83.1026 16.1492L82.5131 15.3631ZM81.2868 16.7781L80.4278 16.3008L80.4217 16.3122L81.2868 16.7781ZM81.2554 20.5826L80.3765 21.022L80.3832 21.0354L80.3902 21.0485L81.2554 20.5826ZM82.3873 21.9661L81.7651 22.7266L81.7733 22.7333L81.7817 22.7399L82.3873 21.9661ZM84.0223 22.815L83.7311 23.7535L84.0223 22.815ZM91.317 5.33292L91.9226 6.10671L91.9328 6.09872L91.9428 6.09046L91.317 5.33292ZM87.8583 5.33292L87.2325 6.09046L87.2425 6.09872L87.2527 6.10671L87.8583 5.33292ZM87.8269 2.03144L88.4691 2.77509L88.4716 2.77291L87.8269 2.03144ZM91.3485 2.03144L90.6875 2.7585L90.6968 2.76691L90.7062 2.77508L91.3485 2.03144ZM84.494 5.33292L85.0995 6.10671L85.1097 6.09872L85.1197 6.09046L84.494 5.33292ZM81.0353 5.33292L80.4095 6.09046L80.4195 6.09872L80.4297 6.10671L81.0353 5.33292ZM81.0038 2.03144L81.6461 2.77509L81.6486 2.77291L81.0038 2.03144ZM84.494 2.03144L83.833 2.7585L83.8502 2.77415L83.8682 2.78898L84.494 2.03144ZM94.139 23.098V27.5H96.1042V23.098H94.139ZM95.1216 26.5174H87.198V28.4826H95.1216V26.5174ZM87.198 26.5174C85.6997 26.5174 84.3407 26.3476 83.1149 26.0168L82.603 27.9141C84.0183 28.2961 85.552 28.4826 87.198 28.4826V26.5174ZM83.1188 26.0179C81.9268 25.691 80.9116 25.1979 80.0581 24.5485L78.8682 26.1124C79.9431 26.9303 81.1918 27.5272 82.5991 27.9131L83.1188 26.0179ZM80.0664 24.5549C79.2451 23.9161 78.5945 23.1126 78.1129 22.1307L76.3485 22.9963C76.9569 24.2363 77.7946 25.2775 78.8599 26.1061L80.0664 24.5549ZM78.1194 22.1443C77.6689 21.1892 77.4272 20.0381 77.4272 18.6646H75.4621C75.4621 20.2677 75.7445 21.7158 76.342 22.9827L78.1194 22.1443ZM77.4272 18.6646C77.4272 17.5125 77.6437 16.478 78.0635 15.547L76.2721 14.7391C75.7277 15.9462 75.4621 17.2594 75.4621 18.6646H77.4272ZM78.0664 15.5405C78.4873 14.589 79.0978 13.777 79.9069 13.0967L78.6421 11.5926C77.6065 12.4634 76.8126 13.5171 76.2692 14.7456L78.0664 15.5405ZM79.9167 13.0883C80.7291 12.3867 81.7335 11.827 82.9496 11.4217L82.3281 9.55736C80.903 10.0324 79.6645 10.7095 78.6322 11.601L79.9167 13.0883ZM82.9583 11.4187C84.1791 10.9991 85.588 10.7804 87.198 10.7804V8.8152C85.4122 8.8152 83.7817 9.05764 82.3194 9.5603L82.9583 11.4187ZM87.198 10.7804H87.8269V8.8152H87.198V10.7804ZM88.8095 9.79778V8.22565H86.8443V9.79778H88.8095ZM87.8269 9.20823H92.2289V7.24306H87.8269V9.20823ZM91.2463 8.22565V23.098H93.2114V8.22565H91.2463ZM92.2289 24.0806H95.1216V22.1154H92.2289V24.0806ZM88.8095 23.098V14.1998H86.8443V23.098H88.8095ZM87.8269 13.2172H86.129V15.1823H87.8269V13.2172ZM86.129 13.2172C85.3714 13.2172 84.6273 13.3397 83.9003 13.582L84.5217 15.4463C85.0524 15.2694 85.5869 15.1823 86.129 15.1823V13.2172ZM83.9286 13.573C83.194 13.7934 82.5231 14.1274 81.9235 14.5771L83.1026 16.1492C83.5092 15.8443 83.9703 15.6122 84.4933 15.4553L83.9286 13.573ZM81.9235 14.5771C81.3066 15.0397 80.8073 15.6178 80.4279 16.3009L82.1457 17.2552C82.3951 16.8064 82.7133 16.4412 83.1026 16.1492L81.9235 14.5771ZM80.4217 16.3122C80.0401 17.0207 79.864 17.8141 79.864 18.6646H81.8292C81.8292 18.0897 81.9465 17.6254 82.1519 17.2439L80.4217 16.3122ZM79.864 18.6646C79.864 19.52 80.0232 20.3155 80.3765 21.022L82.1342 20.1432C81.9425 19.7597 81.8292 19.2765 81.8292 18.6646H79.864ZM80.3902 21.0485C80.7422 21.7021 81.2006 22.2647 81.7651 22.7266L83.0095 21.2056C82.6517 20.9128 82.3554 20.5531 82.1205 20.1168L80.3902 21.0485ZM81.7817 22.7399C82.3615 23.1936 83.0139 23.5309 83.7311 23.7535L84.3136 21.8766C83.815 21.7219 83.3774 21.4932 82.9929 21.1923L81.7817 22.7399ZM83.7311 23.7535C84.4353 23.972 85.1624 24.0806 85.9089 24.0806V22.1154C85.3557 22.1154 84.8252 22.0354 84.3136 21.8766L83.7311 23.7535ZM85.9089 24.0806H87.8269V22.1154H85.9089V24.0806ZM90.7114 4.55913C90.419 4.78802 90.0612 4.91631 89.5877 4.91631V6.88147C90.4557 6.88147 91.2508 6.63245 91.9226 6.10671L90.7114 4.55913ZM89.5877 4.91631C89.1141 4.91631 88.7564 4.78802 88.4639 4.55913L87.2527 6.10671C87.9245 6.63245 88.7197 6.88147 89.5877 6.88147V4.91631ZM88.4841 4.57539C88.2682 4.397 88.1177 4.13208 88.1177 3.63502H86.1526C86.1526 4.60528 86.4842 5.4723 87.2325 6.09046L88.4841 4.57539ZM88.1177 3.63502C88.1177 3.2174 88.2474 2.96653 88.4691 2.77508L87.1846 1.2878C86.484 1.89291 86.1526 2.71108 86.1526 3.63502H88.1177ZM88.4716 2.77291C88.7596 2.52251 89.1117 2.38517 89.5877 2.38517V0.420007C88.6801 0.420007 87.8584 0.7019 87.1821 1.28998L88.4716 2.77291ZM89.5877 2.38517C90.0935 2.38517 90.4332 2.52732 90.6875 2.7585L92.0094 1.30439C91.3414 0.697096 90.5072 0.420007 89.5877 0.420007V2.38517ZM90.7062 2.77508C90.9279 2.96652 91.0576 3.2174 91.0576 3.63502H93.0228C93.0228 2.71108 92.6913 1.89291 91.9907 1.2878L90.7062 2.77508ZM91.0576 3.63502C91.0576 4.13208 90.9072 4.397 90.6912 4.57539L91.9428 6.09046C92.6911 5.4723 93.0228 4.60528 93.0228 3.63502H91.0576ZM83.8884 4.55913C83.5959 4.78802 83.2382 4.91631 82.7646 4.91631V6.88147C83.6326 6.88147 84.4278 6.63245 85.0995 6.10671L83.8884 4.55913ZM82.7646 4.91631C82.291 4.91631 81.9333 4.78802 81.6408 4.55913L80.4297 6.10671C81.1015 6.63245 81.8966 6.88147 82.7646 6.88147V4.91631ZM81.661 4.57539C81.4451 4.397 81.2947 4.13208 81.2947 3.63502H79.3295C79.3295 4.60528 79.6612 5.4723 80.4095 6.09046L81.661 4.57539ZM81.2947 3.63502C81.2947 3.2174 81.4244 2.96652 81.6461 2.77508L80.3616 1.2878C79.6609 1.89291 79.3295 2.71108 79.3295 3.63502H81.2947ZM81.6486 2.77291C81.9365 2.52252 82.2887 2.38517 82.7646 2.38517V0.420007C81.8571 0.420007 81.0354 0.7019 80.3591 1.28998L81.6486 2.77291ZM82.7646 2.38517C83.2409 2.38517 83.5731 2.52221 83.833 2.7585L85.1549 1.30439C84.4925 0.702202 83.6718 0.420007 82.7646 0.420007V2.38517ZM83.8682 2.78898C84.1062 2.98563 84.2346 3.23301 84.2346 3.63502H86.1997C86.1997 2.69548 85.8459 1.8738 85.1197 1.27391L83.8682 2.78898ZM84.2346 3.63502C84.2346 4.13208 84.0841 4.397 83.8682 4.57539L85.1197 6.09046C85.868 5.4723 86.1997 4.60528 86.1997 3.63502H84.2346ZM94.5205 23.098V22.1154L93.5379 23.098H94.5205ZM98.4194 23.098V24.0806L99.4019 23.098H98.4194ZM98.4194 9.79778V8.8152L97.4368 9.79778H98.4194ZM102.821 9.79778H103.804L102.821 8.8152V9.79778ZM102.821 23.098H101.839L102.821 24.0806V23.098ZM106.186 23.098H107.168L106.186 22.1154V23.098ZM106.186 27.5V28.4826L107.168 27.5H106.186ZM94.5205 27.5H93.5379L94.5205 28.4826V27.5ZM102.413 33.5999L101.818 32.8176L101.81 32.8235L101.803 32.8295L102.413 33.5999ZM98.7967 33.5999L98.1868 34.3703L98.1944 34.3763L98.2021 34.3822L98.7967 33.5999ZM98.7652 30.1412L98.1362 29.3863L98.1191 29.4006L98.1027 29.4156L98.7652 30.1412ZM102.444 30.1412L103.091 29.4017L103.089 29.3997L102.444 30.1412ZM94.5205 24.0806H98.4194V22.1154H94.5205V24.0806ZM99.4019 23.098V9.79778H97.4368V23.098H99.4019ZM98.4194 10.7804H102.821V8.8152H98.4194V10.7804ZM101.839 9.79778V23.098H103.804V9.79778H101.839ZM102.821 24.0806H106.186V22.1154H102.821V24.0806ZM105.203 23.098V27.5H107.168V23.098H105.203ZM106.186 26.5174H94.5205V28.4826H106.186V26.5174ZM95.5031 27.5V23.098H93.5379V27.5H95.5031ZM101.803 32.8295C101.487 33.0793 101.109 33.2147 100.62 33.2147V35.1799C101.515 35.1799 102.332 34.917 103.022 34.3703L101.803 32.8295ZM100.62 33.2147C100.132 33.2147 99.7352 33.079 99.3912 32.8176L98.2021 34.3822C98.9062 34.9173 99.7256 35.1799 100.62 35.1799V33.2147ZM99.4066 32.8295C99.1886 32.6569 99.0246 32.384 99.0246 31.8391H97.0595C97.0595 32.8453 97.3986 33.7463 98.1868 34.3703L99.4066 32.8295ZM99.0246 31.8391C99.0246 31.4049 99.1628 31.1087 99.4278 30.8668L98.1027 29.4156C97.4034 30.0541 97.0595 30.8898 97.0595 31.8391H99.0246ZM99.3943 30.896C99.6994 30.6417 100.087 30.4949 100.62 30.4949V28.5297C99.6863 28.5297 98.8372 28.8022 98.1362 29.3863L99.3943 30.896ZM100.62 30.4949C101.154 30.4949 101.522 30.6418 101.799 30.8826L103.089 29.3997C102.402 28.8021 101.554 28.5297 100.62 28.5297V30.4949ZM101.797 30.8807C102.079 31.127 102.216 31.4194 102.216 31.8391H104.181C104.181 30.8753 103.816 30.0358 103.091 29.4017L101.797 30.8807ZM102.216 31.8391C102.216 32.3694 102.052 32.6395 101.818 32.8176L103.007 34.3822C103.821 33.7637 104.181 32.86 104.181 31.8391H102.216ZM105.575 23.098V22.1154L104.592 23.098H105.575ZM110.888 23.098V24.0806L111.804 22.7411L110.888 23.098ZM106.989 13.0993L106.348 12.3547L106.074 13.4562L106.989 13.0993ZM109.253 11.307L108.688 10.503L108.678 10.5105L109.253 11.307ZM111.58 9.89211L111.141 9.01321L111.131 9.01804L111.58 9.89211ZM114.033 8.98027L114.271 9.93352L114.282 9.93073L114.293 9.92768L114.033 8.98027ZM121.768 9.89211L121.31 10.7616L121.768 9.89211ZM126.327 13.1307L127.246 13.4786L126.989 12.4051L126.327 13.1307ZM122.554 23.098L121.635 22.7502L122.554 24.0806V23.098ZM128.339 23.098H129.322L128.339 22.1154V23.098ZM128.339 27.5V28.4826L129.322 27.5H128.339ZM105.575 27.5H104.592L105.575 28.4826V27.5ZM114.221 13.6967L114.563 14.6178L114.221 13.6967ZM111.926 14.9858L111.343 14.1948L110.999 15.3127L111.926 14.9858ZM114.787 23.098L113.861 23.4249L114.787 24.0806V23.098ZM118.56 23.098V24.0806L119.487 23.4237L118.56 23.098ZM121.422 14.9544L122.349 15.2801L121.98 14.1458L121.422 14.9544ZM119.032 13.6652L118.696 14.5887L118.705 14.5918L119.032 13.6652ZM105.575 24.0806H110.888V22.1154H105.575V24.0806ZM111.804 22.7411L107.905 12.7423L106.074 13.4562L109.973 23.455L111.804 22.7411ZM107.631 13.8438C108.365 13.211 109.098 12.6311 109.829 12.1036L108.678 10.5105C107.899 11.0729 107.123 11.6879 106.348 12.3547L107.631 13.8438ZM109.818 12.111C110.56 11.5898 111.297 11.1421 112.029 10.7662L111.131 9.01804C110.312 9.43868 109.498 9.93429 108.688 10.5031L109.818 12.111ZM112.02 10.771C112.754 10.4038 113.504 10.1252 114.271 9.93352L113.794 8.02703C112.884 8.25455 111.999 8.5839 111.141 9.01326L112.02 10.771ZM114.293 9.92768C115.044 9.72129 115.826 9.61699 116.642 9.61699V7.65182C115.656 7.65182 114.698 7.7781 113.772 8.03286L114.293 9.92768ZM116.642 9.61699C118.309 9.61699 119.86 9.99841 121.31 10.7616L122.225 9.0226C120.489 8.10886 118.623 7.65182 116.642 7.65182V9.61699ZM121.31 10.7616C122.823 11.5578 124.274 12.5873 125.664 13.8563L126.989 12.4051C125.486 11.0329 123.899 9.90336 122.225 9.0226L121.31 10.7616ZM125.408 12.7828L121.635 22.7502L123.473 23.4459L127.246 13.4786L125.408 12.7828ZM122.554 24.0806H128.339V22.1154H122.554V24.0806ZM127.356 23.098V27.5H129.322V23.098H127.356ZM128.339 26.5174H105.575V28.4826H128.339V26.5174ZM106.557 27.5V23.098H104.592V27.5H106.557ZM116.642 12.3053C115.66 12.3053 114.735 12.4577 113.879 12.7756L114.563 14.6178C115.175 14.3907 115.864 14.2705 116.642 14.2705V12.3053ZM113.879 12.7756C113.04 13.0871 112.195 13.5671 111.343 14.1948L112.509 15.7769C113.25 15.2307 113.935 14.8512 114.563 14.6178L113.879 12.7756ZM110.999 15.3127L113.861 23.4249L115.714 22.7712L112.853 14.659L110.999 15.3127ZM114.787 24.0806H118.56V22.1154H114.787V24.0806ZM119.487 23.4237L122.349 15.2801L120.495 14.6287L117.633 22.7723L119.487 23.4237ZM121.98 14.1458C121.055 13.5072 120.18 13.0284 119.359 12.7387L118.705 14.5918C119.31 14.8052 120.027 15.1857 120.863 15.7629L121.98 14.1458ZM119.368 12.7418C118.547 12.4434 117.633 12.3053 116.642 12.3053V14.2705C117.454 14.2705 118.133 14.3839 118.696 14.5887L119.368 12.7418ZM127.713 23.098V22.1154L126.731 23.098H127.713ZM130.795 23.098V24.0806L131.777 23.098H130.795ZM130.795 2V1.01742L129.812 2H130.795ZM137.24 2H138.223L137.24 1.01742V2ZM137.24 6.40197V7.38456L138.223 6.40197H137.24ZM135.197 6.40197V5.41939L134.214 6.40197H135.197ZM135.197 27.5V28.4826L136.179 27.5H135.197ZM127.713 27.5H126.731L127.713 28.4826V27.5ZM127.713 24.0806H130.795V22.1154H127.713V24.0806ZM131.777 23.098V2H129.812V23.098H131.777ZM130.795 2.98258H137.24V1.01742H130.795V2.98258ZM136.258 2V6.40197H138.223V2H136.258ZM137.24 5.41939H135.197V7.38456H137.24V5.41939ZM134.214 6.40197V27.5H136.179V6.40197H134.214ZM135.197 26.5174H127.713V28.4826H135.197V26.5174ZM128.696 27.5V23.098H126.731V27.5H128.696Z" fill="url(#paint0_linear_178_9464)" mask="url(#path-1-outside-1_178_9464)"/>
<path d="M8.84217 30.2984L9.78401 30.0184L8.84217 30.2984ZM9.97411 32.8138L10.3905 33.7038L10.8236 32.3199L9.97411 32.8138ZM6.54686 34.4174L5.74118 34.9798L6.96327 35.3074L6.54686 34.4174ZM4.69174 30.77L3.76105 31.0853L3.76409 31.094L4.69174 30.77ZM4.31443 23.098V22.1154L3.35092 22.9053L4.31443 23.098ZM15.9482 23.098V24.0806L16.9031 23.3295L15.9482 23.098ZM16.3255 20.8342L15.3509 20.7092L15.3493 20.7215L15.3481 20.7339L16.3255 20.8342ZM16.1054 16.5894L15.1706 16.8919L15.176 16.9086L15.182 16.9252L16.1054 16.5894ZM14.942 14.7972L15.5931 14.0612L15.5927 14.0609L14.942 14.7972ZM8.9365 13.9168L9.19503 14.8647L9.2083 14.8611L9.22145 14.8571L8.9365 13.9168ZM6.67263 14.9858L5.78522 15.4077L7.20289 15.813L6.67263 14.9858ZM4.84895 11.1498L4.36145 10.2967L3.96155 11.5717L4.84895 11.1498ZM8.08755 9.7349L8.3826 10.6721H8.3826L8.08755 9.7349ZM15.2879 9.82922L14.923 10.7415L14.9292 10.744L15.2879 9.82922ZM18.0234 11.6215L17.3191 12.3067L17.3286 12.3162L18.0234 11.6215ZM20.0672 14.7343L19.1625 15.1176L19.1649 15.1232L20.0672 14.7343ZM20.7275 21.0543L19.7521 20.936L19.7503 20.9506L19.7489 20.9653L20.7275 21.0543ZM20.4445 23.098L19.4788 22.9169L20.4445 24.0806V23.098ZM23.5573 23.098H24.5399L23.5573 22.1154V23.098ZM23.5573 27.5V28.4826L24.5399 27.5H23.5573ZM8.4963 27.5V26.5174L7.51372 27.5H8.4963ZM12.7096 6.15043L12.1151 5.36814L12.1073 5.37401L12.0997 5.38004L12.7096 6.15043ZM9.09371 6.15043L8.48382 6.92082L8.49143 6.92685L8.49917 6.93273L9.09371 6.15043ZM9.06227 2.72318L9.70702 3.46465L9.7093 3.46265L9.06227 2.72318ZM12.7411 2.72318L12.0785 3.44881L12.0949 3.46379L12.112 3.47802L12.7411 2.72318ZM7.51372 27.9716C7.51372 28.8461 7.6439 29.7159 7.90033 30.5784L9.78401 30.0184C9.57928 29.3297 9.47888 28.6484 9.47888 27.9716H7.51372ZM7.90033 30.5784C8.15842 31.4465 8.57205 32.3572 9.12466 33.3077L10.8236 32.3199C10.3281 31.4677 9.98708 30.7014 9.78401 30.0184L7.90033 30.5784ZM9.55769 31.9238L6.13044 33.5274L6.96327 35.3074L10.3905 33.7038L9.55769 31.9238ZM7.35253 33.8549C6.62995 32.8199 6.05193 31.6847 5.61939 30.4461L3.76409 31.094C4.25386 32.4965 4.91259 33.7929 5.74118 34.9798L7.35253 33.8549ZM5.62239 30.4548C5.22363 29.2775 5.01403 27.8889 5.01403 26.2737H3.04886C3.04886 28.0544 3.27945 29.6633 3.76109 31.0853L5.62239 30.4548ZM5.01403 26.2737C5.01403 25.151 5.10437 24.1585 5.27793 23.2907L3.35092 22.9053C3.14717 23.9241 3.04886 25.0487 3.04886 26.2737H5.01403ZM4.31443 24.0806H15.9482V22.1154H4.31443V24.0806ZM16.9031 23.3295C17.0828 22.5886 17.2153 21.7895 17.303 20.9344L15.3481 20.7339C15.2681 21.5138 15.1491 22.224 14.9933 22.8665L16.9031 23.3295ZM17.3001 20.9591C17.4091 20.1091 17.4653 19.3224 17.4653 18.6017H15.5002C15.5002 19.2226 15.4516 19.9242 15.3509 20.7092L17.3001 20.9591ZM17.4653 18.6017C17.4653 17.8233 17.3144 17.0388 17.0289 16.2536L15.182 16.9252C15.3995 17.5234 15.5002 18.0806 15.5002 18.6017H17.4653ZM17.0403 16.2869C16.7573 15.4121 16.2738 14.6634 15.5931 14.0612L14.291 15.5331C14.7003 15.8952 14.9924 16.3413 15.1706 16.8919L17.0403 16.2869ZM15.5927 14.0609C14.4625 13.0621 12.9685 12.6198 11.2318 12.6198V14.5849C12.6394 14.5849 13.6189 14.9392 14.2914 15.5334L15.5927 14.0609ZM11.2318 12.6198C10.3119 12.6198 9.44907 12.7347 8.65154 12.9764L9.22145 14.8571C9.8074 14.6796 10.4748 14.5849 11.2318 14.5849V12.6198ZM8.67796 12.9688C7.86281 13.1911 7.01617 13.5985 6.14236 14.1586L7.20289 15.813C7.96411 15.3251 8.62671 15.0197 9.19503 14.8647L8.67796 12.9688ZM7.56003 14.5639L5.73636 10.7279L3.96155 11.5717L5.78522 15.4077L7.56003 14.5639ZM5.33645 12.0029C6.30243 11.4509 7.31742 11.0075 8.3826 10.6721L7.79249 8.79766C6.5938 9.17502 5.44973 9.67482 4.36145 10.2967L5.33645 12.0029ZM8.3826 10.6721C9.40897 10.349 10.5347 10.183 11.7663 10.183V8.21779C10.3568 8.21779 9.02999 8.40808 7.79249 8.79766L8.3826 10.6721ZM11.7663 10.183C12.9597 10.183 14.0072 10.3752 14.923 10.7415L15.6528 8.91692C14.4725 8.44478 13.1723 8.21779 11.7663 8.21779V10.183ZM14.9292 10.744C15.8762 11.1153 16.668 11.6374 17.3192 12.3067L18.7277 10.9362C17.8696 10.0544 16.8378 9.38157 15.6466 8.91446L14.9292 10.744ZM17.3286 12.3162C18.0667 13.0543 18.6812 13.9819 19.1625 15.1176L20.9719 14.3509C20.4051 13.0132 19.6571 11.8656 18.7182 10.9267L17.3286 12.3162ZM19.1649 15.1232C19.6264 16.1939 19.8707 17.4616 19.8707 18.9476H21.8358C21.8358 17.2474 21.5561 15.7063 20.9695 14.3453L19.1649 15.1232ZM19.8707 18.9476C19.8707 19.6217 19.831 20.2844 19.7521 20.936L21.7029 21.1725C21.7916 20.4406 21.8358 19.6989 21.8358 18.9476H19.8707ZM19.7489 20.9653C19.6888 21.6267 19.5987 22.2772 19.4788 22.9169L21.4103 23.2791C21.5419 22.5773 21.6404 21.8653 21.706 21.1432L19.7489 20.9653ZM20.4445 24.0806H23.5573V22.1154H20.4445V24.0806ZM22.5748 23.098V27.5H24.5399V23.098H22.5748ZM23.5573 26.5174H8.4963V28.4826H23.5573V26.5174ZM7.51372 27.5V27.9716H9.47888V27.5H7.51372ZM12.0997 5.38004C11.7842 5.62985 11.4062 5.76526 10.9174 5.76526V7.73043C11.8121 7.73043 12.6289 7.46756 13.3195 6.92082L12.0997 5.38004ZM10.9174 5.76526C10.4287 5.76526 10.0322 5.62956 9.68826 5.36814L8.49917 6.93273C9.20328 7.46785 10.0226 7.73043 10.9174 7.73043V5.76526ZM9.7036 5.38004C9.48558 5.20744 9.32167 4.93459 9.32167 4.38964H7.3565C7.3565 5.39587 7.69567 6.29687 8.48382 6.92082L9.7036 5.38004ZM9.32167 4.38964C9.32167 3.95575 9.45877 3.68052 9.70702 3.46464L8.41752 1.98172C7.70153 2.60432 7.3565 3.44006 7.3565 4.38964H9.32167ZM9.7093 3.46265C10.0153 3.1949 10.3967 3.04547 10.9174 3.04547V1.0803C9.97073 1.0803 9.1154 1.37107 8.41523 1.98371L9.7093 3.46265ZM10.9174 3.04547C11.4386 3.04547 11.8002 3.19471 12.0785 3.44881L13.4036 1.99756C12.7176 1.37126 11.8635 1.0803 10.9174 1.0803V3.04547ZM12.112 3.47802C12.377 3.69886 12.5131 3.97071 12.5131 4.38964H14.4783C14.4783 3.4251 14.1113 2.58598 13.3701 1.96834L12.112 3.47802ZM12.5131 4.38964C12.5131 4.91992 12.3493 5.1901 12.1151 5.36814L13.3042 6.93273C14.118 6.31422 14.4783 5.41054 14.4783 4.38964H12.5131ZM22.9147 23.098V22.1154L21.9321 23.098H22.9147ZM27.128 23.098V24.0806L27.9109 22.5042L27.128 23.098ZM26.0275 21.0857L26.9486 20.7436L26.0275 21.0857ZM26.3734 14.9229L25.4879 14.4972L25.4845 14.5042L25.4813 14.5112L26.3734 14.9229ZM28.543 12.156L29.1652 12.9165L29.1754 12.908L28.543 12.156ZM31.8759 10.3952L32.1638 11.3347L31.8759 10.3952ZM41.3716 9.79778H42.3542L41.3716 8.8152V9.79778ZM41.3716 23.098H40.389L41.3716 24.0806V23.098ZM44.2957 23.098H45.2783L44.2957 22.1154V23.098ZM44.2957 27.5V28.4826L45.2783 27.5H44.2957ZM22.9147 27.5H21.9321L22.9147 28.4826V27.5ZM30.6496 21.2115L29.7907 21.6887L29.7957 21.6977L29.8009 21.7066L30.6496 21.2115ZM32.4104 23.098L31.8547 23.9084L32.4104 24.0806V23.098ZM36.9696 23.098V24.0806L37.9522 23.098H36.9696ZM36.9696 14.1998H37.9522L36.9696 13.2172V14.1998ZM33.2279 14.4827L32.9456 13.5416L32.9367 13.5443L33.2279 14.4827ZM31.5929 15.3317L30.9873 14.5579L30.9789 14.5645L30.9707 14.5712L31.5929 15.3317ZM30.461 16.7466L31.3261 17.2125L31.3297 17.2057L31.3333 17.1989L30.461 16.7466ZM36.6237 6.52774L36.0292 5.74545L36.0215 5.75132L36.0138 5.75735L36.6237 6.52774ZM33.0078 6.52774L32.3979 7.29813L32.4055 7.30416L32.4133 7.31004L33.0078 6.52774ZM32.9764 3.10049L33.6211 3.84196L33.6234 3.83996L32.9764 3.10049ZM36.6552 3.10049L35.9926 3.82612L36.0091 3.8411L36.0261 3.85534L36.6552 3.10049ZM22.9147 24.0806H27.128V22.1154H22.9147V24.0806ZM27.9109 22.5042C27.5094 21.9749 27.1885 21.3893 26.9486 20.7436L25.1065 21.4278C25.4116 22.2494 25.8244 23.0053 26.3452 23.6919L27.9109 22.5042ZM26.9486 20.7436C26.7225 20.1346 26.6014 19.4352 26.6014 18.6332H24.6362C24.6362 19.6339 24.7876 20.5694 25.1065 21.4278L26.9486 20.7436ZM26.6014 18.6332C26.6014 17.3703 26.8305 16.2773 27.2656 15.3347L25.4813 14.5112C24.9102 15.7485 24.6362 17.1291 24.6362 18.6332H26.6014ZM27.259 15.3487C27.7217 14.3862 28.3558 13.5787 29.1652 12.9165L27.9208 11.3955C26.8855 12.2425 26.0732 13.2797 25.4879 14.4972L27.259 15.3487ZM29.1754 12.908C29.9844 12.2276 30.9743 11.6992 32.1638 11.3347L31.588 9.45573C30.1782 9.88776 28.9461 10.5332 27.9106 11.4039L29.1754 12.908ZM32.1638 11.3347C33.3568 10.969 34.694 10.7804 36.1835 10.7804V8.8152C34.5288 8.8152 32.9942 9.0248 31.588 9.45573L32.1638 11.3347ZM36.1835 10.7804H41.3716V8.8152H36.1835V10.7804ZM40.389 9.79778V23.098H42.3542V9.79778H40.389ZM41.3716 24.0806H44.2957V22.1154H41.3716V24.0806ZM43.3132 23.098V27.5H45.2783V23.098H43.3132ZM44.2957 26.5174H22.9147V28.4826H44.2957V26.5174ZM23.8973 27.5V23.098H21.9321V27.5H23.8973ZM29.0382 18.6332C29.0382 19.7445 29.2812 20.7716 29.7907 21.6887L31.5086 20.7343C31.1796 20.1421 31.0034 19.4503 31.0034 18.6332H29.0382ZM29.8009 21.7066C30.3156 22.589 31.0035 23.3247 31.8547 23.9084L32.9661 22.2877C32.35 21.8652 31.864 21.3432 31.4984 20.7164L29.8009 21.7066ZM32.4104 24.0806H36.9696V22.1154H32.4104V24.0806ZM37.9522 23.098V14.1998H35.987V23.098H37.9522ZM36.9696 13.2172H35.1145V15.1823H36.9696V13.2172ZM35.1145 13.2172C34.3859 13.2172 33.662 13.3267 32.9456 13.5416L33.5103 15.4239C34.0516 15.2615 34.5854 15.1823 35.1145 15.1823V13.2172ZM32.9367 13.5443C32.2195 13.7669 31.5671 14.1042 30.9873 14.5579L32.1985 16.1055C32.583 15.8046 33.0206 15.5759 33.5192 15.4212L32.9367 13.5443ZM30.9707 14.5712C30.399 15.039 29.9393 15.6181 29.5887 16.2943L31.3333 17.1989C31.5696 16.7432 31.8645 16.379 32.2151 16.0922L30.9707 14.5712ZM29.5958 16.2808C29.2143 16.9893 29.0382 17.7827 29.0382 18.6332H31.0034C31.0034 18.0583 31.1207 17.5939 31.3261 17.2125L29.5958 16.2808ZM36.0138 5.75735C35.6983 6.00717 35.3203 6.14257 34.8315 6.14257V8.10774C35.7262 8.10774 36.543 7.84487 37.2336 7.29813L36.0138 5.75735ZM34.8315 6.14257C34.3428 6.14257 33.9463 6.00687 33.6024 5.74545L32.4133 7.31004C33.1174 7.84516 33.9367 8.10774 34.8315 8.10774V6.14257ZM33.6177 5.75735C33.3997 5.58475 33.2358 5.3119 33.2358 4.76695H31.2706C31.2706 5.77318 31.6098 6.67418 32.3979 7.29813L33.6177 5.75735ZM33.2358 4.76695C33.2358 4.33306 33.3729 4.05783 33.6211 3.84196L32.3316 2.35903C31.6156 2.98163 31.2706 3.81738 31.2706 4.76695H33.2358ZM33.6234 3.83996C33.9294 3.57221 34.3108 3.42278 34.8315 3.42278V1.45761C33.8848 1.45761 33.0295 1.74838 32.3293 2.36103L33.6234 3.83996ZM34.8315 3.42278C35.3527 3.42278 35.7143 3.57202 35.9926 3.82612L37.3177 2.37487C36.6318 1.74858 35.7776 1.45761 34.8315 1.45761V3.42278ZM36.0261 3.85534C36.2911 4.07617 36.4272 4.34802 36.4272 4.76695H38.3924C38.3924 3.80241 38.0254 2.96329 37.2842 2.34565L36.0261 3.85534ZM36.4272 4.76695C36.4272 5.29723 36.2634 5.56741 36.0292 5.74545L37.2183 7.31004C38.0321 6.69153 38.3924 5.78785 38.3924 4.76695H36.4272ZM43.6718 23.098V22.1154L42.6892 23.098H43.6718ZM46.7532 23.098V24.0806L47.7358 23.098H46.7532ZM46.7532 2V1.01742L45.7706 2H46.7532ZM53.1989 2H54.1815L53.1989 1.01742V2ZM53.1989 6.40197V7.38456L54.1815 6.40197H53.1989ZM51.1551 6.40197V5.41939L50.1726 6.40197H51.1551ZM51.1551 27.5V28.4826L52.1377 27.5H51.1551ZM43.6718 27.5H42.6892L43.6718 28.4826V27.5ZM43.6718 24.0806H46.7532V22.1154H43.6718V24.0806ZM47.7358 23.098V2H45.7706V23.098H47.7358ZM46.7532 2.98258H53.1989V1.01742H46.7532V2.98258ZM52.2163 2V6.40197H54.1815V2H52.2163ZM53.1989 5.41939H51.1551V7.38456H53.1989V5.41939ZM50.1726 6.40197V27.5H52.1377V6.40197H50.1726ZM51.1551 26.5174H43.6718V28.4826H51.1551V26.5174ZM44.6544 27.5V23.098H42.6892V27.5H44.6544ZM58.5371 2V1.01742L57.5545 2H58.5371ZM62.939 2H63.9216L62.939 1.01742V2ZM62.939 27.5V28.4826L63.9216 27.5H62.939ZM58.5371 27.5H57.5545L58.5371 28.4826V27.5ZM58.5371 2.98258H62.939V1.01742H58.5371V2.98258ZM61.9564 2V27.5H63.9216V2H61.9564ZM62.939 26.5174H58.5371V28.4826H62.939V26.5174ZM59.5196 27.5V2H57.5545V27.5H59.5196ZM95.1216 23.098H96.1042L95.1216 22.1154V23.098ZM95.1216 27.5V28.4826L96.1042 27.5H95.1216ZM82.8589 26.9655L82.5991 27.9131L82.603 27.9141L82.8589 26.9655ZM79.4631 25.3305L78.8598 26.1061L78.8682 26.1124L79.4631 25.3305ZM77.2307 22.5635L76.342 22.9827L76.3452 22.9895L76.3485 22.9963L77.2307 22.5635ZM77.1678 15.143L78.0635 15.547L78.0664 15.5405L77.1678 15.143ZM79.2745 12.3446L79.9069 13.0967L79.9167 13.0883L79.2745 12.3446ZM82.6388 10.4895L82.9496 11.4217L82.9583 11.4187L82.6388 10.4895ZM87.8269 9.79778V10.7804L88.8095 9.79778H87.8269ZM87.8269 8.22565V7.24306L86.8443 8.22565H87.8269ZM92.2289 8.22565H93.2114L92.2289 7.24306V8.22565ZM92.2289 23.098H91.2463L92.2289 24.0806V23.098ZM87.8269 23.098V24.0806L88.8095 23.098H87.8269ZM87.8269 14.1998H88.8095L87.8269 13.2172V14.1998ZM84.211 14.5142L84.4933 15.4553L84.5076 15.451L84.5217 15.4463L84.211 14.5142ZM82.5131 15.3631L83.1026 16.1492L82.5131 15.3631ZM81.2868 16.7781L80.4278 16.3008L80.4217 16.3122L81.2868 16.7781ZM81.2554 20.5826L80.3765 21.022L80.3832 21.0354L80.3902 21.0485L81.2554 20.5826ZM82.3873 21.9661L81.7651 22.7266L81.7733 22.7333L81.7817 22.7399L82.3873 21.9661ZM84.0223 22.815L83.7311 23.7535L84.0223 22.815ZM91.317 5.33292L91.9226 6.10671L91.9328 6.09872L91.9428 6.09046L91.317 5.33292ZM87.8583 5.33292L87.2325 6.09046L87.2425 6.09872L87.2527 6.10671L87.8583 5.33292ZM87.8269 2.03144L88.4691 2.77509L88.4716 2.77291L87.8269 2.03144ZM91.3485 2.03144L90.6875 2.7585L90.6968 2.76691L90.7062 2.77508L91.3485 2.03144ZM84.494 5.33292L85.0995 6.10671L85.1097 6.09872L85.1197 6.09046L84.494 5.33292ZM81.0353 5.33292L80.4095 6.09046L80.4195 6.09872L80.4297 6.10671L81.0353 5.33292ZM81.0038 2.03144L81.6461 2.77509L81.6486 2.77291L81.0038 2.03144ZM84.494 2.03144L83.833 2.7585L83.8502 2.77415L83.8682 2.78898L84.494 2.03144ZM94.139 23.098V27.5H96.1042V23.098H94.139ZM95.1216 26.5174H87.198V28.4826H95.1216V26.5174ZM87.198 26.5174C85.6997 26.5174 84.3407 26.3476 83.1149 26.0168L82.603 27.9141C84.0183 28.2961 85.552 28.4826 87.198 28.4826V26.5174ZM83.1188 26.0179C81.9268 25.691 80.9116 25.1979 80.0581 24.5485L78.8682 26.1124C79.9431 26.9303 81.1918 27.5272 82.5991 27.9131L83.1188 26.0179ZM80.0664 24.5549C79.2451 23.9161 78.5945 23.1126 78.1129 22.1307L76.3485 22.9963C76.9569 24.2363 77.7946 25.2775 78.8599 26.1061L80.0664 24.5549ZM78.1194 22.1443C77.6689 21.1892 77.4272 20.0381 77.4272 18.6646H75.4621C75.4621 20.2677 75.7445 21.7158 76.342 22.9827L78.1194 22.1443ZM77.4272 18.6646C77.4272 17.5125 77.6437 16.478 78.0635 15.547L76.2721 14.7391C75.7277 15.9462 75.4621 17.2594 75.4621 18.6646H77.4272ZM78.0664 15.5405C78.4873 14.589 79.0978 13.777 79.9069 13.0967L78.6421 11.5926C77.6065 12.4634 76.8126 13.5171 76.2692 14.7456L78.0664 15.5405ZM79.9167 13.0883C80.7291 12.3867 81.7335 11.827 82.9496 11.4217L82.3281 9.55736C80.903 10.0324 79.6645 10.7095 78.6322 11.601L79.9167 13.0883ZM82.9583 11.4187C84.1791 10.9991 85.588 10.7804 87.198 10.7804V8.8152C85.4122 8.8152 83.7817 9.05764 82.3194 9.5603L82.9583 11.4187ZM87.198 10.7804H87.8269V8.8152H87.198V10.7804ZM88.8095 9.79778V8.22565H86.8443V9.79778H88.8095ZM87.8269 9.20823H92.2289V7.24306H87.8269V9.20823ZM91.2463 8.22565V23.098H93.2114V8.22565H91.2463ZM92.2289 24.0806H95.1216V22.1154H92.2289V24.0806ZM88.8095 23.098V14.1998H86.8443V23.098H88.8095ZM87.8269 13.2172H86.129V15.1823H87.8269V13.2172ZM86.129 13.2172C85.3714 13.2172 84.6273 13.3397 83.9003 13.582L84.5217 15.4463C85.0524 15.2694 85.5869 15.1823 86.129 15.1823V13.2172ZM83.9286 13.573C83.194 13.7934 82.5231 14.1274 81.9235 14.5771L83.1026 16.1492C83.5092 15.8443 83.9703 15.6122 84.4933 15.4553L83.9286 13.573ZM81.9235 14.5771C81.3066 15.0397 80.8073 15.6178 80.4279 16.3009L82.1457 17.2552C82.3951 16.8064 82.7133 16.4412 83.1026 16.1492L81.9235 14.5771ZM80.4217 16.3122C80.0401 17.0207 79.864 17.8141 79.864 18.6646H81.8292C81.8292 18.0897 81.9465 17.6254 82.1519 17.2439L80.4217 16.3122ZM79.864 18.6646C79.864 19.52 80.0232 20.3155 80.3765 21.022L82.1342 20.1432C81.9425 19.7597 81.8292 19.2765 81.8292 18.6646H79.864ZM80.3902 21.0485C80.7422 21.7021 81.2006 22.2647 81.7651 22.7266L83.0095 21.2056C82.6517 20.9128 82.3554 20.5531 82.1205 20.1168L80.3902 21.0485ZM81.7817 22.7399C82.3615 23.1936 83.0139 23.5309 83.7311 23.7535L84.3136 21.8766C83.815 21.7219 83.3774 21.4932 82.9929 21.1923L81.7817 22.7399ZM83.7311 23.7535C84.4353 23.972 85.1624 24.0806 85.9089 24.0806V22.1154C85.3557 22.1154 84.8252 22.0354 84.3136 21.8766L83.7311 23.7535ZM85.9089 24.0806H87.8269V22.1154H85.9089V24.0806ZM90.7114 4.55913C90.419 4.78802 90.0612 4.91631 89.5877 4.91631V6.88147C90.4557 6.88147 91.2508 6.63245 91.9226 6.10671L90.7114 4.55913ZM89.5877 4.91631C89.1141 4.91631 88.7564 4.78802 88.4639 4.55913L87.2527 6.10671C87.9245 6.63245 88.7197 6.88147 89.5877 6.88147V4.91631ZM88.4841 4.57539C88.2682 4.397 88.1177 4.13208 88.1177 3.63502H86.1526C86.1526 4.60528 86.4842 5.4723 87.2325 6.09046L88.4841 4.57539ZM88.1177 3.63502C88.1177 3.2174 88.2474 2.96653 88.4691 2.77508L87.1846 1.2878C86.484 1.89291 86.1526 2.71108 86.1526 3.63502H88.1177ZM88.4716 2.77291C88.7596 2.52251 89.1117 2.38517 89.5877 2.38517V0.420007C88.6801 0.420007 87.8584 0.7019 87.1821 1.28998L88.4716 2.77291ZM89.5877 2.38517C90.0935 2.38517 90.4332 2.52732 90.6875 2.7585L92.0094 1.30439C91.3414 0.697096 90.5072 0.420007 89.5877 0.420007V2.38517ZM90.7062 2.77508C90.9279 2.96652 91.0576 3.2174 91.0576 3.63502H93.0228C93.0228 2.71108 92.6913 1.89291 91.9907 1.2878L90.7062 2.77508ZM91.0576 3.63502C91.0576 4.13208 90.9072 4.397 90.6912 4.57539L91.9428 6.09046C92.6911 5.4723 93.0228 4.60528 93.0228 3.63502H91.0576ZM83.8884 4.55913C83.5959 4.78802 83.2382 4.91631 82.7646 4.91631V6.88147C83.6326 6.88147 84.4278 6.63245 85.0995 6.10671L83.8884 4.55913ZM82.7646 4.91631C82.291 4.91631 81.9333 4.78802 81.6408 4.55913L80.4297 6.10671C81.1015 6.63245 81.8966 6.88147 82.7646 6.88147V4.91631ZM81.661 4.57539C81.4451 4.397 81.2947 4.13208 81.2947 3.63502H79.3295C79.3295 4.60528 79.6612 5.4723 80.4095 6.09046L81.661 4.57539ZM81.2947 3.63502C81.2947 3.2174 81.4244 2.96652 81.6461 2.77508L80.3616 1.2878C79.6609 1.89291 79.3295 2.71108 79.3295 3.63502H81.2947ZM81.6486 2.77291C81.9365 2.52252 82.2887 2.38517 82.7646 2.38517V0.420007C81.8571 0.420007 81.0354 0.7019 80.3591 1.28998L81.6486 2.77291ZM82.7646 2.38517C83.2409 2.38517 83.5731 2.52221 83.833 2.7585L85.1549 1.30439C84.4925 0.702202 83.6718 0.420007 82.7646 0.420007V2.38517ZM83.8682 2.78898C84.1062 2.98563 84.2346 3.23301 84.2346 3.63502H86.1997C86.1997 2.69548 85.8459 1.8738 85.1197 1.27391L83.8682 2.78898ZM84.2346 3.63502C84.2346 4.13208 84.0841 4.397 83.8682 4.57539L85.1197 6.09046C85.868 5.4723 86.1997 4.60528 86.1997 3.63502H84.2346ZM94.5205 23.098V22.1154L93.5379 23.098H94.5205ZM98.4194 23.098V24.0806L99.4019 23.098H98.4194ZM98.4194 9.79778V8.8152L97.4368 9.79778H98.4194ZM102.821 9.79778H103.804L102.821 8.8152V9.79778ZM102.821 23.098H101.839L102.821 24.0806V23.098ZM106.186 23.098H107.168L106.186 22.1154V23.098ZM106.186 27.5V28.4826L107.168 27.5H106.186ZM94.5205 27.5H93.5379L94.5205 28.4826V27.5ZM102.413 33.5999L101.818 32.8176L101.81 32.8235L101.803 32.8295L102.413 33.5999ZM98.7967 33.5999L98.1868 34.3703L98.1944 34.3763L98.2021 34.3822L98.7967 33.5999ZM98.7652 30.1412L98.1362 29.3863L98.1191 29.4006L98.1027 29.4156L98.7652 30.1412ZM102.444 30.1412L103.091 29.4017L103.089 29.3997L102.444 30.1412ZM94.5205 24.0806H98.4194V22.1154H94.5205V24.0806ZM99.4019 23.098V9.79778H97.4368V23.098H99.4019ZM98.4194 10.7804H102.821V8.8152H98.4194V10.7804ZM101.839 9.79778V23.098H103.804V9.79778H101.839ZM102.821 24.0806H106.186V22.1154H102.821V24.0806ZM105.203 23.098V27.5H107.168V23.098H105.203ZM106.186 26.5174H94.5205V28.4826H106.186V26.5174ZM95.5031 27.5V23.098H93.5379V27.5H95.5031ZM101.803 32.8295C101.487 33.0793 101.109 33.2147 100.62 33.2147V35.1799C101.515 35.1799 102.332 34.917 103.022 34.3703L101.803 32.8295ZM100.62 33.2147C100.132 33.2147 99.7352 33.079 99.3912 32.8176L98.2021 34.3822C98.9062 34.9173 99.7256 35.1799 100.62 35.1799V33.2147ZM99.4066 32.8295C99.1886 32.6569 99.0246 32.384 99.0246 31.8391H97.0595C97.0595 32.8453 97.3986 33.7463 98.1868 34.3703L99.4066 32.8295ZM99.0246 31.8391C99.0246 31.4049 99.1628 31.1087 99.4278 30.8668L98.1027 29.4156C97.4034 30.0541 97.0595 30.8898 97.0595 31.8391H99.0246ZM99.3943 30.896C99.6994 30.6417 100.087 30.4949 100.62 30.4949V28.5297C99.6863 28.5297 98.8372 28.8022 98.1362 29.3863L99.3943 30.896ZM100.62 30.4949C101.154 30.4949 101.522 30.6418 101.799 30.8826L103.089 29.3997C102.402 28.8021 101.554 28.5297 100.62 28.5297V30.4949ZM101.797 30.8807C102.079 31.127 102.216 31.4194 102.216 31.8391H104.181C104.181 30.8753 103.816 30.0358 103.091 29.4017L101.797 30.8807ZM102.216 31.8391C102.216 32.3694 102.052 32.6395 101.818 32.8176L103.007 34.3822C103.821 33.7637 104.181 32.86 104.181 31.8391H102.216ZM105.575 23.098V22.1154L104.592 23.098H105.575ZM110.888 23.098V24.0806L111.804 22.7411L110.888 23.098ZM106.989 13.0993L106.348 12.3547L106.074 13.4562L106.989 13.0993ZM109.253 11.307L108.688 10.503L108.678 10.5105L109.253 11.307ZM111.58 9.89211L111.141 9.01321L111.131 9.01804L111.58 9.89211ZM114.033 8.98027L114.271 9.93352L114.282 9.93073L114.293 9.92768L114.033 8.98027ZM121.768 9.89211L121.31 10.7616L121.768 9.89211ZM126.327 13.1307L127.246 13.4786L126.989 12.4051L126.327 13.1307ZM122.554 23.098L121.635 22.7502L122.554 24.0806V23.098ZM128.339 23.098H129.322L128.339 22.1154V23.098ZM128.339 27.5V28.4826L129.322 27.5H128.339ZM105.575 27.5H104.592L105.575 28.4826V27.5ZM114.221 13.6967L114.563 14.6178L114.221 13.6967ZM111.926 14.9858L111.343 14.1948L110.999 15.3127L111.926 14.9858ZM114.787 23.098L113.861 23.4249L114.787 24.0806V23.098ZM118.56 23.098V24.0806L119.487 23.4237L118.56 23.098ZM121.422 14.9544L122.349 15.2801L121.98 14.1458L121.422 14.9544ZM119.032 13.6652L118.696 14.5887L118.705 14.5918L119.032 13.6652ZM105.575 24.0806H110.888V22.1154H105.575V24.0806ZM111.804 22.7411L107.905 12.7423L106.074 13.4562L109.973 23.455L111.804 22.7411ZM107.631 13.8438C108.365 13.211 109.098 12.6311 109.829 12.1036L108.678 10.5105C107.899 11.0729 107.123 11.6879 106.348 12.3547L107.631 13.8438ZM109.818 12.111C110.56 11.5898 111.297 11.1421 112.029 10.7662L111.131 9.01804C110.312 9.43868 109.498 9.93429 108.688 10.5031L109.818 12.111ZM112.02 10.771C112.754 10.4038 113.504 10.1252 114.271 9.93352L113.794 8.02703C112.884 8.25455 111.999 8.5839 111.141 9.01326L112.02 10.771ZM114.293 9.92768C115.044 9.72129 115.826 9.61699 116.642 9.61699V7.65182C115.656 7.65182 114.698 7.7781 113.772 8.03286L114.293 9.92768ZM116.642 9.61699C118.309 9.61699 119.86 9.99841 121.31 10.7616L122.225 9.0226C120.489 8.10886 118.623 7.65182 116.642 7.65182V9.61699ZM121.31 10.7616C122.823 11.5578 124.274 12.5873 125.664 13.8563L126.989 12.4051C125.486 11.0329 123.899 9.90336 122.225 9.0226L121.31 10.7616ZM125.408 12.7828L121.635 22.7502L123.473 23.4459L127.246 13.4786L125.408 12.7828ZM122.554 24.0806H128.339V22.1154H122.554V24.0806ZM127.356 23.098V27.5H129.322V23.098H127.356ZM128.339 26.5174H105.575V28.4826H128.339V26.5174ZM106.557 27.5V23.098H104.592V27.5H106.557ZM116.642 12.3053C115.66 12.3053 114.735 12.4577 113.879 12.7756L114.563 14.6178C115.175 14.3907 115.864 14.2705 116.642 14.2705V12.3053ZM113.879 12.7756C113.04 13.0871 112.195 13.5671 111.343 14.1948L112.509 15.7769C113.25 15.2307 113.935 14.8512 114.563 14.6178L113.879 12.7756ZM110.999 15.3127L113.861 23.4249L115.714 22.7712L112.853 14.659L110.999 15.3127ZM114.787 24.0806H118.56V22.1154H114.787V24.0806ZM119.487 23.4237L122.349 15.2801L120.495 14.6287L117.633 22.7723L119.487 23.4237ZM121.98 14.1458C121.055 13.5072 120.18 13.0284 119.359 12.7387L118.705 14.5918C119.31 14.8052 120.027 15.1857 120.863 15.7629L121.98 14.1458ZM119.368 12.7418C118.547 12.4434 117.633 12.3053 116.642 12.3053V14.2705C117.454 14.2705 118.133 14.3839 118.696 14.5887L119.368 12.7418ZM127.713 23.098V22.1154L126.731 23.098H127.713ZM130.795 23.098V24.0806L131.777 23.098H130.795ZM130.795 2V1.01742L129.812 2H130.795ZM137.24 2H138.223L137.24 1.01742V2ZM137.24 6.40197V7.38456L138.223 6.40197H137.24ZM135.197 6.40197V5.41939L134.214 6.40197H135.197ZM135.197 27.5V28.4826L136.179 27.5H135.197ZM127.713 27.5H126.731L127.713 28.4826V27.5ZM127.713 24.0806H130.795V22.1154H127.713V24.0806ZM131.777 23.098V2H129.812V23.098H131.777ZM130.795 2.98258H137.24V1.01742H130.795V2.98258ZM136.258 2V6.40197H138.223V2H136.258ZM137.24 5.41939H135.197V7.38456H137.24V5.41939ZM134.214 6.40197V27.5H136.179V6.40197H134.214ZM135.197 26.5174H127.713V28.4826H135.197V26.5174ZM128.696 27.5V23.098H126.731V27.5H128.696Z" fill="black" fill-opacity="0.2" mask="url(#path-1-outside-1_178_9464)"/>
</g>
<defs>
<filter id="filter0_d_178_9464" x="0.494112" y="0.419983" width="137.729" height="37.4421" filterUnits="userSpaceOnUse" color-interpolation-filters="sRGB">
<feFlood flood-opacity="0" result="BackgroundImageFix"/>
<feColorMatrix in="SourceAlpha" type="matrix" values="0 0 0 0 0 0 0 0 0 0 0 0 0 0 0 0 0 0 127 0" result="hardAlpha"/>
<feOffset dx="-1.96517" dy="1.96517"/>
<feGaussianBlur stdDeviation="0.294775"/>
<feComposite in2="hardAlpha" operator="out"/>
<feColorMatrix type="matrix" values="0 0 0 0 0.384314 0 0 0 0 0.0941176 0 0 0 0 0.462745 0 0 0 1 0"/>
<feBlend mode="normal" in2="BackgroundImageFix" result="effect1_dropShadow_178_9464"/>
<feBlend mode="normal" in="SourceGraphic" in2="effect1_dropShadow_178_9464" result="shape"/>
</filter>
<linearGradient id="paint0_linear_178_9464" x1="4" y1="17.5" x2="139" y2="17.5" gradientUnits="userSpaceOnUse">
<stop offset="0.179" stop-color="#D1F6FF"/>
<stop offset="1" stop-color="#888C99"/>
</linearGradient>
</defs>
</svg>
