<svg width="42" height="44" viewBox="0 0 42 44" fill="none" xmlns="http://www.w3.org/2000/svg">
<path d="M18.8168 29.6172C18.5285 28.2374 19.5302 26.821 20.9398 26.821C22.3495 26.821 23.3511 28.2374 23.0629 29.6172C22.7924 30.9118 22.6158 32.4212 22.8777 33.6035C23.6119 36.9183 26.7534 40.3861 26.7534 40.3861H15.1262C15.1262 40.3861 18.2678 36.9183 19.002 33.6035C19.2638 32.4212 19.0873 30.9118 18.8168 29.6172Z" fill="#F6B307"/>
<path fill-rule="evenodd" clip-rule="evenodd" d="M27.6367 40.783C27.4814 41.1333 27.1342 41.3591 26.7509 41.3591H15.1237C14.7405 41.3591 14.3933 41.1333 14.238 40.783C14.0827 40.4327 14.1483 40.0239 14.4055 39.7399L15.1237 40.3902H26.7509C26.7509 40.3902 26.4212 40.0262 25.9503 39.4213C24.968 38.1592 23.3715 35.8485 22.8752 33.6077C22.6133 32.4253 22.7899 30.916 23.0604 29.6214C23.3487 28.2415 22.347 26.8251 20.9373 26.8251C19.5277 26.8251 18.526 28.2415 18.8143 29.6214C19.0848 30.916 19.2614 32.4253 18.9995 33.6077C18.5032 35.8485 16.9067 38.1592 15.9244 39.4213C15.4535 40.0262 15.1237 40.3902 15.1237 40.3902M14.4055 39.7399L14.411 39.7338L14.4335 39.7084C14.4541 39.6851 14.4855 39.6494 14.5263 39.602C14.608 39.5072 14.7274 39.3662 14.8738 39.1859C15.1671 38.8246 15.5662 38.3089 15.9868 37.6946C16.8422 36.445 17.7269 34.8725 18.0535 33.3981C18.2686 32.427 18.1308 31.0878 17.8659 29.8195C17.4707 27.9281 18.8239 25.8562 20.9373 25.8562C23.0508 25.8562 24.404 27.9281 24.0088 29.8195C23.7439 31.0878 23.6061 32.427 23.8212 33.3981C24.1478 34.8725 25.0325 36.445 25.8879 37.6946C26.3085 38.3089 26.7076 38.8246 27.0008 39.1859C27.1472 39.3662 27.2666 39.5072 27.3484 39.602C27.3892 39.6494 27.4206 39.6851 27.4412 39.7084L27.4637 39.7338L27.469 39.7397C27.7262 40.0237 27.792 40.4327 27.6367 40.783" fill="#5B3303"/>
<path fill-rule="evenodd" clip-rule="evenodd" d="M24.8198 40.3872H26.7577C26.7577 40.3872 23.6162 36.9195 22.882 33.6047C22.6201 32.4223 22.7967 30.913 23.0671 29.6184C23.3554 28.2385 22.3537 26.8221 20.9441 26.8221C20.6254 26.8221 20.3276 26.8945 20.0608 27.0225C20.7711 27.3597 21.1293 28.1519 21.1293 29.6184C21.1293 31.4636 21.1667 34.118 21.4286 35.3003C22.1628 38.6151 24.8198 40.3872 24.8198 40.3872Z" fill="#C18B00"/>
<path fill-rule="evenodd" clip-rule="evenodd" d="M19.363 35.3123C19.6226 35.3772 19.7804 35.6402 19.7155 35.8998C19.4568 36.9347 18.9449 37.9543 18.4374 38.7156C18.289 38.9382 17.9882 38.9984 17.7656 38.85C17.543 38.7016 17.4828 38.4008 17.6312 38.1781C18.0926 37.486 18.5497 36.5678 18.7755 35.6648C18.8404 35.4052 19.1034 35.2474 19.363 35.3123Z" fill="#FFCB43"/>
<path fill-rule="evenodd" clip-rule="evenodd" d="M34.9871 19.0724C37.9303 19.0724 40.3162 16.6865 40.3162 13.7433C40.3162 10.8001 37.9303 8.41412 34.9871 8.41412C32.0439 8.41412 29.658 10.8001 29.658 13.7433C29.658 16.6865 32.0439 19.0724 34.9871 19.0724ZM34.9871 16.6501C36.5925 16.6501 37.8939 15.3486 37.8939 13.7433C37.8939 12.1379 36.5925 10.8365 34.9871 10.8365C33.3817 10.8365 32.0803 12.1379 32.0803 13.7433C32.0803 15.3486 33.3817 16.6501 34.9871 16.6501Z" fill="#F6B307"/>
<path fill-rule="evenodd" clip-rule="evenodd" d="M41.2863 13.7383C41.2863 17.2166 38.4666 20.0364 34.9883 20.0364C31.5099 20.0364 28.6902 17.2166 28.6902 13.7383C28.6902 10.26 31.5099 7.44025 34.9883 7.44025C38.4666 7.44025 41.2863 10.26 41.2863 13.7383ZM34.9883 15.6762C36.0585 15.6762 36.9261 14.8086 36.9261 13.7383C36.9261 12.6681 36.0585 11.8004 34.9883 11.8004C33.918 11.8004 33.0504 12.6681 33.0504 13.7383C33.0504 14.8086 33.918 15.6762 34.9883 15.6762ZM40.3174 13.7383C40.3174 16.6815 37.9315 19.0675 34.9883 19.0675C32.0451 19.0675 29.6591 16.6815 29.6591 13.7383C29.6591 10.7951 32.0451 8.40918 34.9883 8.40918C37.9315 8.40918 40.3174 10.7951 40.3174 13.7383ZM37.8951 13.7383C37.8951 15.3437 36.5936 16.6451 34.9883 16.6451C33.3829 16.6451 32.0815 15.3437 32.0815 13.7383C32.0815 12.1329 33.3829 10.8315 34.9883 10.8315C36.5936 10.8315 37.8951 12.1329 37.8951 13.7383Z" fill="#5B3303"/>
<path fill-rule="evenodd" clip-rule="evenodd" d="M39.8324 12.7728C39.8324 15.716 37.4464 18.1019 34.5032 18.1019C32.6093 18.1019 30.9461 17.1139 30.001 15.6253C30.762 17.6389 32.7076 19.0708 34.9877 19.0708C37.9309 19.0708 40.3168 16.6849 40.3168 13.7417C40.3168 12.6924 40.0136 11.714 39.4899 10.8892C39.7112 11.4748 39.8324 12.1097 39.8324 12.7728ZM32.1899 14.5332C32.1189 14.2816 32.0809 14.0161 32.0809 13.7417C32.0809 12.1363 33.3823 10.8349 34.9877 10.8349C35.9313 10.8349 36.7699 11.2845 37.301 11.9813C36.9563 10.7605 35.8342 9.86597 34.5032 9.86597C32.8978 9.86597 31.5964 11.1674 31.5964 12.7728C31.5964 13.4345 31.8175 14.0446 32.1899 14.5332Z" fill="#D29700"/>
<path fill-rule="evenodd" clip-rule="evenodd" d="M6.88822 19.0724C9.83142 19.0724 12.2174 16.6865 12.2174 13.7433C12.2174 10.8001 9.83142 8.41412 6.88822 8.41412C3.94502 8.41412 1.55908 10.8001 1.55908 13.7433C1.55908 16.6865 3.94502 19.0724 6.88822 19.0724ZM6.88822 16.6501C8.4936 16.6501 9.79502 15.3486 9.79502 13.7433C9.79502 12.1379 8.4936 10.8365 6.88822 10.8365C5.28284 10.8365 3.98142 12.1379 3.98142 13.7433C3.98142 15.3486 5.28284 16.6501 6.88822 16.6501Z" fill="#F6B307"/>
<path fill-rule="evenodd" clip-rule="evenodd" d="M13.1872 13.7395C13.1872 17.2179 10.3675 20.0376 6.88914 20.0376C3.41081 20.0376 0.591064 17.2179 0.591064 13.7395C0.591064 10.2612 3.41081 7.44147 6.88914 7.44147C10.3675 7.44147 13.1872 10.2612 13.1872 13.7395ZM6.88914 15.6774C7.95939 15.6774 8.827 14.8098 8.827 13.7395C8.827 12.6693 7.95939 11.8017 6.88914 11.8017C5.81888 11.8017 4.95127 12.6693 4.95127 13.7395C4.95127 14.8098 5.81888 15.6774 6.88914 15.6774ZM12.2183 13.7395C12.2183 16.6827 9.83234 19.0687 6.88914 19.0687C3.94593 19.0687 1.56 16.6827 1.56 13.7395C1.56 10.7963 3.94593 8.4104 6.88914 8.4104C9.83234 8.4104 12.2183 10.7963 12.2183 13.7395ZM9.79594 13.7395C9.79594 15.3449 8.49452 16.6463 6.88914 16.6463C5.28375 16.6463 3.98233 15.3449 3.98233 13.7395C3.98233 12.1342 5.28375 10.8327 6.88914 10.8327C8.49452 10.8327 9.79594 12.1342 9.79594 13.7395Z" fill="#5B3303"/>
<path fill-rule="evenodd" clip-rule="evenodd" d="M10.891 17.2599C9.95237 18.0855 8.72101 18.5863 7.37269 18.5863C4.42948 18.5863 2.04355 16.2003 2.04355 13.2571C2.04355 11.9088 2.54428 10.6774 3.36993 9.73883C2.25969 10.7155 1.55908 12.1467 1.55908 13.7416C1.55908 16.6848 3.94502 19.0707 6.88822 19.0707C8.4831 19.0707 9.91434 18.3701 10.891 17.2599ZM5.08927 11.4582C5.58414 11.0678 6.20897 10.8348 6.88822 10.8348C8.4936 10.8348 9.79502 12.1362 9.79502 13.7416C9.79502 14.4208 9.56204 15.0457 9.17163 15.5405C9.84637 15.0082 10.2795 14.1833 10.2795 13.2571C10.2795 11.6517 8.97807 10.3503 7.37269 10.3503C6.44655 10.3503 5.62158 10.7834 5.08927 11.4582Z" fill="#D29700"/>
<path d="M7.38208 11.315C7.38208 9.17453 9.11731 7.4393 11.2578 7.4393H30.6365C32.777 7.4393 34.5122 9.17453 34.5122 11.315V17.1286C34.5122 24.6204 28.4389 30.6937 20.9472 30.6937C13.4554 30.6937 7.38208 24.6204 7.38208 17.1286V11.315Z" fill="#FFCF23"/>
<path fill-rule="evenodd" clip-rule="evenodd" d="M11.2412 6.47534H30.6198C33.2955 6.47534 35.4645 8.64437 35.4645 11.32V17.1336C35.4645 25.1605 28.9574 31.6676 20.9305 31.6676C12.9036 31.6676 6.39648 25.1605 6.39648 17.1336V11.32C6.39648 8.64437 8.56552 6.47534 11.2412 6.47534ZM11.2412 7.44428C9.10064 7.44428 7.36542 9.1795 7.36542 11.32V17.1336C7.36542 24.6254 13.4387 30.6987 20.9305 30.6987C28.4223 30.6987 34.4956 24.6254 34.4956 17.1336V11.32C34.4956 9.1795 32.7603 7.44428 30.6198 7.44428H11.2412Z" fill="#5B3303"/>
<path fill-rule="evenodd" clip-rule="evenodd" d="M17.5447 30.2662C18.6286 30.5452 19.7649 30.6936 20.9359 30.6936C28.4277 30.6936 34.501 24.6203 34.501 17.1285V7.43918H27.7185V17.1285C27.7185 23.4493 23.3954 28.7604 17.5447 30.2662Z" fill="#FFC429"/>
<path d="M7.38208 7.4393V17.1286C7.38208 21.7533 9.6963 25.8374 13.2299 28.286C14.9106 29.4508 18.1019 25.4563 18.0493 23.4121C18.0432 23.1751 18.0404 22.9374 18.0404 22.7V7.4393H7.38208Z" fill="#FFDB5B"/>
<path fill-rule="evenodd" clip-rule="evenodd" d="M13.9304 28.7466C15.9758 29.9832 18.3741 30.6948 20.9386 30.6948C28.4304 30.6948 34.5037 24.6215 34.5037 17.1297V7.4404H32.5657V16.1608C32.5657 23.6526 26.4924 29.7259 19.0006 29.7259C17.2081 29.7259 15.4968 29.3782 13.9304 28.7466Z" fill="#F5B40C"/>
<path d="M34.5122 7.4393H7.38208V9.37717H34.5122V7.4393Z" fill="#D29803"/>
<path fill-rule="evenodd" clip-rule="evenodd" d="M9.31537 8.89822C9.8505 8.89822 10.2843 9.33203 10.2843 9.86716C10.2843 13.1611 10.2863 15.811 10.5781 17.9413C10.8688 20.0633 11.4293 21.5114 12.4228 22.5049C12.8012 22.8833 12.8012 23.4968 12.4228 23.8751C12.0444 24.2535 11.4309 24.2535 11.0525 23.8751C9.62371 22.4463 8.97308 20.5031 8.65818 18.2043C8.34641 15.9283 8.34642 13.1488 8.34644 9.92838L8.34644 9.86716C8.34644 9.33203 8.78024 8.89822 9.31537 8.89822Z" fill="#FFEBA6"/>
<path fill-rule="evenodd" clip-rule="evenodd" d="M9.30694 10.3479C9.57451 10.3479 9.79141 10.5648 9.79141 10.8324C9.79141 11.4693 9.78604 11.8481 9.78168 12.1558C9.77504 12.6242 9.77073 12.9279 9.79124 13.7268C9.79811 13.9942 9.58685 14.2166 9.31937 14.2235C9.0519 14.2304 8.8295 14.0191 8.82263 13.7516C8.80173 12.9378 8.80629 12.6082 8.81301 12.122C8.8173 11.8116 8.82248 11.4373 8.82248 10.8324C8.82248 10.5648 9.03938 10.3479 9.30694 10.3479Z" fill="white"/>
<path d="M11.2495 41.3566C11.2495 40.8214 11.6833 40.3876 12.2184 40.3876H29.6593C30.1944 40.3876 30.6282 40.8214 30.6282 41.3566C30.6282 41.8917 30.1944 42.3255 29.6593 42.3255H12.2184C11.6833 42.3255 11.2495 41.8917 11.2495 41.3566Z" fill="#FFD84F"/>
<path fill-rule="evenodd" clip-rule="evenodd" d="M12.2152 39.4158H29.656C30.7263 39.4158 31.5939 40.2834 31.5939 41.3537C31.5939 42.424 30.7263 43.2916 29.656 43.2916H12.2152C11.145 43.2916 10.2773 42.424 10.2773 41.3537C10.2773 40.2834 11.145 39.4158 12.2152 39.4158ZM12.2152 40.3848C11.6801 40.3848 11.2463 40.8186 11.2463 41.3537C11.2463 41.8888 11.6801 42.3226 12.2152 42.3226H29.656C30.1912 42.3226 30.625 41.8888 30.625 41.3537C30.625 40.8186 30.1912 40.3848 29.656 40.3848H12.2152Z" fill="#5B3303"/>
<path d="M3.50659 6.48032C3.50659 5.94519 3.9404 5.51138 4.47553 5.51138H37.4193C37.9544 5.51138 38.3882 5.94519 38.3882 6.48032C38.3882 7.01544 37.9544 7.44925 37.4193 7.44925H4.47553C3.9404 7.44925 3.50659 7.01544 3.50659 6.48032Z" fill="#FFD84F"/>
<path fill-rule="evenodd" clip-rule="evenodd" d="M4.45886 4.53656H37.4026C38.4729 4.53656 39.3405 5.40417 39.3405 6.47443C39.3405 7.54468 38.4729 8.4123 37.4026 8.4123H4.45886C3.38861 8.4123 2.521 7.54468 2.521 6.47443C2.521 5.40417 3.38861 4.53656 4.45886 4.53656ZM4.45886 5.50549C3.92374 5.50549 3.48993 5.9393 3.48993 6.47443C3.48993 7.00956 3.92374 7.44336 4.45886 7.44336H37.4026C37.9378 7.44336 38.3716 7.00956 38.3716 6.47443C38.3716 5.9393 37.9378 5.50549 37.4026 5.50549H4.45886Z" fill="#5B3303"/>
<path fill-rule="evenodd" clip-rule="evenodd" d="M4.46826 6.23221C4.46826 5.96464 4.68516 5.74774 4.95273 5.74774H29.6605C29.9281 5.74774 30.145 5.96464 30.145 6.23221C30.145 6.49977 29.9281 6.71668 29.6605 6.71668H4.95273C4.68516 6.71668 4.46826 6.49977 4.46826 6.23221Z" fill="#FFEBA6"/>
<path fill-rule="evenodd" clip-rule="evenodd" d="M11.7344 40.8721C11.7344 40.6045 11.9513 40.3876 12.2188 40.3876H26.2684C26.536 40.3876 26.7529 40.6045 26.7529 40.8721C26.7529 41.1397 26.536 41.3566 26.2684 41.3566H12.2188C11.9513 41.3566 11.7344 41.1397 11.7344 40.8721Z" fill="#FFEBA6"/>
<path fill-rule="evenodd" clip-rule="evenodd" d="M7.38208 6.23337C7.38208 5.9658 7.59898 5.7489 7.86655 5.7489H10.7733C11.0409 5.7489 11.2578 5.9658 11.2578 6.23337C11.2578 6.50093 11.0409 6.71784 10.7733 6.71784H7.86655C7.59898 6.71784 7.38208 6.50093 7.38208 6.23337Z" fill="white"/>
<path d="M25.774 27.0629C25.774 27.4643 25.4486 27.7896 25.0473 27.7896C24.6459 27.7896 24.3206 27.4643 24.3206 27.0629C24.3206 26.6616 24.6459 26.3362 25.0473 26.3362C25.4486 26.3362 25.774 26.6616 25.774 27.0629Z" fill="#E6A809"/>
<path d="M28.2011 25.3629C28.2011 25.6305 27.9842 25.8474 27.7166 25.8474C27.4491 25.8474 27.2322 25.6305 27.2322 25.3629C27.2322 25.0954 27.4491 24.8785 27.7166 24.8785C27.9842 24.8785 28.2011 25.0954 28.2011 25.3629Z" fill="#E6A809"/>
<path d="M24.3244 28.7593C24.3244 29.0269 24.1075 29.2438 23.8399 29.2438C23.5724 29.2438 23.3555 29.0269 23.3555 28.7593C23.3555 28.4918 23.5724 28.2749 23.8399 28.2749C24.1075 28.2749 24.3244 28.4918 24.3244 28.7593Z" fill="#E6A809"/>
<path d="M22.8637 27.3026C22.8637 27.5701 22.6468 27.787 22.3792 27.787C22.1117 27.787 21.8948 27.5701 21.8948 27.3026C21.8948 27.035 22.1117 26.8181 22.3792 26.8181C22.6468 26.8181 22.8637 27.035 22.8637 27.3026Z" fill="#E6A809"/>
<path d="M20.935 28.7583C20.935 29.0259 20.7181 29.2428 20.4505 29.2428C20.183 29.2428 19.9661 29.0259 19.9661 28.7583C19.9661 28.4907 20.183 28.2738 20.4505 28.2738C20.7181 28.2738 20.935 28.4907 20.935 28.7583Z" fill="#E6A809"/>
<path d="M32.5578 21.9723C32.5578 22.2399 32.3409 22.4568 32.0733 22.4568C31.8058 22.4568 31.5889 22.2399 31.5889 21.9723C31.5889 21.7047 31.8058 21.4878 32.0733 21.4878C32.3409 21.4878 32.5578 21.7047 32.5578 21.9723Z" fill="#E6A809"/>
<path d="M28.2011 23.4281C28.2011 23.6957 27.9842 23.9126 27.7166 23.9126C27.4491 23.9126 27.2322 23.6957 27.2322 23.4281C27.2322 23.1605 27.4491 22.9436 27.7166 22.9436C27.9842 22.9436 28.2011 23.1605 28.2011 23.4281Z" fill="#E6A809"/>
<path d="M33.0466 19.5515C33.0466 19.8191 32.8297 20.036 32.5621 20.036C32.2945 20.036 32.0776 19.8191 32.0776 19.5515C32.0776 19.284 32.2945 19.0671 32.5621 19.0671C32.8297 19.0671 33.0466 19.284 33.0466 19.5515Z" fill="#E6A809"/>
<path d="M25.7792 24.3949C25.7792 24.6624 25.5623 24.8793 25.2948 24.8793C25.0272 24.8793 24.8103 24.6624 24.8103 24.3949C24.8103 24.1273 25.0272 23.9104 25.2948 23.9104C25.5623 23.9104 25.7792 24.1273 25.7792 24.3949Z" fill="#E6A809"/>
<path d="M27.725 27.3026C27.725 27.5701 27.5081 27.787 27.2406 27.787C26.973 27.787 26.7561 27.5701 26.7561 27.3026C26.7561 27.035 26.973 26.8181 27.2406 26.8181C27.5081 26.8181 27.725 27.035 27.725 27.3026Z" fill="#E6A809"/>
<path d="M30.6188 25.3628C30.6188 25.6304 30.4019 25.8473 30.1344 25.8473C29.8668 25.8473 29.6499 25.6304 29.6499 25.3628C29.6499 25.0952 29.8668 24.8783 30.1344 24.8783C30.4019 24.8783 30.6188 25.0952 30.6188 25.3628Z" fill="#E6A809"/>
<path d="M29.6559 23.4291C29.6559 23.6966 29.439 23.9135 29.1715 23.9135C28.9039 23.9135 28.687 23.6966 28.687 23.4291C28.687 23.1615 28.9039 22.9446 29.1715 22.9446C29.439 22.9446 29.6559 23.1615 29.6559 23.4291Z" fill="#E6A809"/>
<path d="M31.5982 23.1868C31.5982 23.3206 31.4898 23.4291 31.356 23.4291C31.2222 23.4291 31.1138 23.3206 31.1138 23.1868C31.1138 23.0531 31.2222 22.9446 31.356 22.9446C31.4898 22.9446 31.5982 23.0531 31.5982 23.1868Z" fill="#E6A809"/>
<path d="M31.106 21.247C31.106 21.3807 30.9976 21.4892 30.8638 21.4892C30.73 21.4892 30.6216 21.3807 30.6216 21.247C30.6216 21.1132 30.73 21.0047 30.8638 21.0047C30.9976 21.0047 31.106 21.1132 31.106 21.247Z" fill="#E6A809"/>
<path d="M29.6507 21.732C29.6507 21.8658 29.5423 21.9743 29.4085 21.9743C29.2747 21.9743 29.1663 21.8658 29.1663 21.732C29.1663 21.5983 29.2747 21.4898 29.4085 21.4898C29.5423 21.4898 29.6507 21.5983 29.6507 21.732Z" fill="#E6A809"/>
<path d="M31.106 19.7911C31.106 19.9249 30.9976 20.0334 30.8638 20.0334C30.73 20.0334 30.6216 19.9249 30.6216 19.7911C30.6216 19.6573 30.73 19.5489 30.8638 19.5489C30.9976 19.5489 31.106 19.6573 31.106 19.7911Z" fill="#E6A809"/>
<path d="M28.2059 21.7311C28.2059 21.8649 28.0975 21.9733 27.9637 21.9733C27.8299 21.9733 27.7214 21.8649 27.7214 21.7311C27.7214 21.5973 27.8299 21.4889 27.9637 21.4889C28.0975 21.4889 28.2059 21.5973 28.2059 21.7311Z" fill="#E6A809"/>
<path d="M20.4505 27.0593C20.4505 27.1931 20.3421 27.3015 20.2083 27.3015C20.0745 27.3015 19.9661 27.1931 19.9661 27.0593C19.9661 26.9255 20.0745 26.817 20.2083 26.817C20.3421 26.817 20.4505 26.9255 20.4505 27.0593Z" fill="#E6A809"/>
<path d="M30.6126 23.6698C30.6126 23.8036 30.5042 23.912 30.3704 23.912C30.2366 23.912 30.1282 23.8036 30.1282 23.6698C30.1282 23.536 30.2366 23.4276 30.3704 23.4276C30.5042 23.4276 30.6126 23.536 30.6126 23.6698Z" fill="#E6A809"/>
<path d="M29.1715 26.5785C29.1715 26.7123 29.063 26.8207 28.9292 26.8207C28.7955 26.8207 28.687 26.7123 28.687 26.5785C28.687 26.4447 28.7955 26.3362 28.9292 26.3362C29.063 26.3362 29.1715 26.4447 29.1715 26.5785Z" fill="#E6A809"/>
<path d="M26.7547 25.6096C26.7547 25.7434 26.6463 25.8518 26.5125 25.8518C26.3787 25.8518 26.2703 25.7434 26.2703 25.6096C26.2703 25.4758 26.3787 25.3673 26.5125 25.3673C26.6463 25.3673 26.7547 25.4758 26.7547 25.6096Z" fill="#E6A809"/>
<path d="M24.326 25.6108C24.326 25.7445 24.2176 25.853 24.0838 25.853C23.95 25.853 23.8416 25.7445 23.8416 25.6108C23.8416 25.477 23.95 25.3685 24.0838 25.3685C24.2176 25.3685 24.326 25.477 24.326 25.6108Z" fill="#E6A809"/>
<path d="M22.3792 28.9971C22.3792 29.1309 22.2708 29.2393 22.137 29.2393C22.0032 29.2393 21.8948 29.1309 21.8948 28.9971C21.8948 28.8633 22.0032 28.7549 22.137 28.7549C22.2708 28.7549 22.3792 28.8633 22.3792 28.9971Z" fill="#E6A809"/>
<path fill-rule="evenodd" clip-rule="evenodd" d="M5.62834 9.40452C5.74799 9.64384 5.65098 9.93485 5.41166 10.0545C4.96884 10.2759 4.37229 10.6575 3.88688 11.3047C3.40648 11.9452 3.01483 12.8721 3.01483 14.2236C3.01483 14.4912 2.79793 14.7081 2.53037 14.7081C2.2628 14.7081 2.0459 14.4912 2.0459 14.2236C2.0459 12.6683 2.50206 11.5362 3.11174 10.7233C3.7164 9.91712 4.45218 9.45091 4.97837 9.18784C5.21769 9.06819 5.50869 9.1652 5.62834 9.40452Z" fill="#FFD953"/>
<path d="M16.0928 16.9346L19.1207 16.3209L20.0291 14.7868L20.9374 13.2527L22.7542 16.3209L25.7821 16.9346L23.3598 19.3892L23.9654 22.4575L20.9374 20.9234L17.9095 22.4575L18.5151 19.3892L16.0928 16.9346Z" fill="#FFEBA6"/>
<path fill-rule="evenodd" clip-rule="evenodd" d="M19.1231 16.3248L20.9398 13.2565L22.7566 16.3248L25.7845 16.9385L23.3622 19.3931L23.9678 22.4614L20.9398 20.9273L17.9119 22.4614L18.5175 19.3931L16.0952 16.9385L19.1231 16.3248ZM17.4676 19.7087L15.4055 17.6191C15.1556 17.3659 15.0646 16.9961 15.1684 16.6558C15.2722 16.3155 15.5541 16.0595 15.9027 15.9889L18.5087 15.4607L20.1061 12.7629C20.2805 12.4683 20.5975 12.2876 20.9398 12.2876C21.2822 12.2876 21.5992 12.4683 21.7736 12.7629L23.371 15.4607L25.977 15.9889C26.3256 16.0595 26.6075 16.3155 26.7113 16.6558C26.8151 16.9961 26.7241 17.3659 26.4742 17.6191L24.4121 19.7087L24.9184 22.2738C24.9901 22.6373 24.8482 23.01 24.5529 23.2337C24.2575 23.4575 23.8604 23.4932 23.5298 23.3257L20.9398 22.0135L18.3499 23.3257C18.0193 23.4932 17.6222 23.4575 17.3268 23.2337C17.0315 23.01 16.8896 22.6373 16.9613 22.2738L17.4676 19.7087Z" fill="#F5B40C"/>
<path fill-rule="evenodd" clip-rule="evenodd" d="M21.1546 14.7606C21.394 14.8802 21.491 15.1712 21.3713 15.4106L20.4024 17.3484C20.3289 17.4954 20.1859 17.5951 20.0226 17.6133L17.8425 17.8555C17.5765 17.885 17.337 17.6934 17.3074 17.4275C17.2779 17.1616 17.4695 16.922 17.7355 16.8925L19.6536 16.6794L20.5047 14.9772C20.6243 14.7379 20.9153 14.6409 21.1546 14.7606Z" fill="white"/>
<g filter="url(#filter0_d_65_2069)">
<mask id="path-53-outside-1_65_2069" maskUnits="userSpaceOnUse" x="19.457" y="0.238159" width="7" height="12" fill="black">
<rect fill="white" x="19.457" y="0.238159" width="7" height="12"/>
<path d="M23.0296 3.63687L20.7477 4.14556V2.28521L25.0643 1.32597V11.2382H23.0296V3.63687Z"/>
</mask>
<path d="M23.0296 3.63687L20.7477 4.14556V2.28521L25.0643 1.32597V11.2382H23.0296V3.63687Z" fill="white"/>
<path d="M23.0296 3.63687H23.795V2.68198L22.863 2.88976L23.0296 3.63687ZM20.7477 4.14556H19.9823V5.10046L20.9143 4.89268L20.7477 4.14556ZM20.7477 2.28521L20.5817 1.53798L19.9823 1.67118V2.28521H20.7477ZM25.0643 1.32597H25.8298V0.371735L24.8983 0.578737L25.0643 1.32597ZM25.0643 11.2382V12.0036H25.8298V11.2382H25.0643ZM23.0296 11.2382H22.2641V12.0036H23.0296V11.2382ZM22.863 2.88976L20.5812 3.39845L20.9143 4.89268L23.1961 4.38399L22.863 2.88976ZM21.5132 4.14556V2.28521H19.9823V4.14556H21.5132ZM20.9138 3.03244L25.2304 2.0732L24.8983 0.578737L20.5817 1.53798L20.9138 3.03244ZM24.2989 1.32597V11.2382H25.8298V1.32597H24.2989ZM25.0643 10.4727H23.0296V12.0036H25.0643V10.4727ZM23.795 11.2382V3.63687H22.2641V11.2382H23.795Z" fill="#3B3B3B" mask="url(#path-53-outside-1_65_2069)"/>
</g>
<g filter="url(#filter1_d_65_2069)">
<mask id="path-55-outside-2_65_2069" maskUnits="userSpaceOnUse" x="26.2454" y="2.11472" width="11" height="8" fill="black">
<rect fill="white" x="26.2454" y="2.11472" width="11" height="8"/>
<path d="M29.5398 8.14578C29.762 8.14578 29.9532 8.11994 30.1134 8.06827C30.2736 8.01659 30.3537 7.92874 30.3537 7.80472C30.3537 7.69103 30.302 7.60318 30.1987 7.54117C30.1005 7.47916 29.9119 7.41973 29.6328 7.36288L29.284 7.30087C28.7879 7.20785 28.4003 7.05282 28.1213 6.83578C27.8422 6.61874 27.7027 6.3216 27.7027 5.94436C27.7027 5.53095 27.8629 5.20281 28.1833 4.95993C28.5089 4.71705 28.9559 4.59561 29.5243 4.59561C29.8705 4.59561 30.2038 4.6292 30.5242 4.69638C30.8498 4.76356 31.134 4.86433 31.3769 4.99869L30.9816 6.00638C30.8834 5.9547 30.7723 5.90819 30.6483 5.86685C30.5242 5.82034 30.395 5.78158 30.2607 5.75058C30.1263 5.71957 29.9894 5.69632 29.8499 5.68081C29.7155 5.66531 29.5863 5.65756 29.4623 5.65756C29.0075 5.65756 28.7802 5.75316 28.7802 5.94436C28.7802 6.04255 28.8318 6.12523 28.9352 6.19241C29.0385 6.25442 29.2272 6.31127 29.501 6.36294L29.8421 6.42496C30.4364 6.53864 30.8601 6.70918 31.1133 6.93655C31.3717 7.16393 31.5009 7.47399 31.5009 7.86673C31.5009 8.05793 31.4596 8.23622 31.3769 8.40158C31.2942 8.56178 31.1702 8.70389 31.0048 8.82791C30.8395 8.94677 30.6302 9.03978 30.377 9.10696C30.1289 9.17414 29.8395 9.20773 29.5088 9.20773C29.3331 9.20773 29.1548 9.1974 28.9739 9.17673C28.7982 9.15606 28.6251 9.12763 28.4546 9.09146C28.2841 9.05012 28.1213 9.00361 27.9662 8.95193C27.8164 8.89509 27.6794 8.8305 27.5554 8.75815L27.9662 7.70395C28.1626 7.83314 28.4003 7.93908 28.6794 8.02176C28.9584 8.10444 29.2452 8.14578 29.5398 8.14578ZM32.0407 4.75064H32.8623V3.15384H33.9475V4.75064H35.6064V5.75833H33.9475V7.33963C33.9475 7.48949 33.9605 7.61351 33.9863 7.7117C34.0121 7.80988 34.0561 7.8874 34.1181 7.94424C34.1801 8.00109 34.2602 8.04243 34.3584 8.06827C34.4565 8.09411 34.578 8.10702 34.7227 8.10702H35.6374V9.11472H34.6064C34.3015 9.11472 34.0406 9.09146 33.8235 9.04495C33.6065 8.99844 33.4256 8.92093 33.2809 8.81241C33.1362 8.70389 33.0303 8.56178 32.9631 8.38608C32.8959 8.21038 32.8623 7.99075 32.8623 7.7272V5.75833H32.0407V4.75064Z"/>
</mask>
<path d="M29.5398 8.14578C29.762 8.14578 29.9532 8.11994 30.1134 8.06827C30.2736 8.01659 30.3537 7.92874 30.3537 7.80472C30.3537 7.69103 30.302 7.60318 30.1987 7.54117C30.1005 7.47916 29.9119 7.41973 29.6328 7.36288L29.284 7.30087C28.7879 7.20785 28.4003 7.05282 28.1213 6.83578C27.8422 6.61874 27.7027 6.3216 27.7027 5.94436C27.7027 5.53095 27.8629 5.20281 28.1833 4.95993C28.5089 4.71705 28.9559 4.59561 29.5243 4.59561C29.8705 4.59561 30.2038 4.6292 30.5242 4.69638C30.8498 4.76356 31.134 4.86433 31.3769 4.99869L30.9816 6.00638C30.8834 5.9547 30.7723 5.90819 30.6483 5.86685C30.5242 5.82034 30.395 5.78158 30.2607 5.75058C30.1263 5.71957 29.9894 5.69632 29.8499 5.68081C29.7155 5.66531 29.5863 5.65756 29.4623 5.65756C29.0075 5.65756 28.7802 5.75316 28.7802 5.94436C28.7802 6.04255 28.8318 6.12523 28.9352 6.19241C29.0385 6.25442 29.2272 6.31127 29.501 6.36294L29.8421 6.42496C30.4364 6.53864 30.8601 6.70918 31.1133 6.93655C31.3717 7.16393 31.5009 7.47399 31.5009 7.86673C31.5009 8.05793 31.4596 8.23622 31.3769 8.40158C31.2942 8.56178 31.1702 8.70389 31.0048 8.82791C30.8395 8.94677 30.6302 9.03978 30.377 9.10696C30.1289 9.17414 29.8395 9.20773 29.5088 9.20773C29.3331 9.20773 29.1548 9.1974 28.9739 9.17673C28.7982 9.15606 28.6251 9.12763 28.4546 9.09146C28.2841 9.05012 28.1213 9.00361 27.9662 8.95193C27.8164 8.89509 27.6794 8.8305 27.5554 8.75815L27.9662 7.70395C28.1626 7.83314 28.4003 7.93908 28.6794 8.02176C28.9584 8.10444 29.2452 8.14578 29.5398 8.14578ZM32.0407 4.75064H32.8623V3.15384H33.9475V4.75064H35.6064V5.75833H33.9475V7.33963C33.9475 7.48949 33.9605 7.61351 33.9863 7.7117C34.0121 7.80988 34.0561 7.8874 34.1181 7.94424C34.1801 8.00109 34.2602 8.04243 34.3584 8.06827C34.4565 8.09411 34.578 8.10702 34.7227 8.10702H35.6374V9.11472H34.6064C34.3015 9.11472 34.0406 9.09146 33.8235 9.04495C33.6065 8.99844 33.4256 8.92093 33.2809 8.81241C33.1362 8.70389 33.0303 8.56178 32.9631 8.38608C32.8959 8.21038 32.8623 7.99075 32.8623 7.7272V5.75833H32.0407V4.75064Z" fill="white"/>
<path d="M30.1134 8.06827L29.8784 7.33977H29.8784L30.1134 8.06827ZM30.1987 7.54117L29.7899 8.18835L29.7973 8.19303L29.8048 8.19754L30.1987 7.54117ZM29.6328 7.36288L29.7856 6.61283L29.7762 6.61092L29.7668 6.60924L29.6328 7.36288ZM29.284 7.30087L29.1429 8.05325L29.15 8.05451L29.284 7.30087ZM28.1213 6.83578L27.6513 7.44L27.6513 7.44L28.1213 6.83578ZM28.1833 4.95993L27.7256 4.34638L27.7209 4.34993L28.1833 4.95993ZM30.5242 4.69638L30.3671 5.44555L30.3695 5.44604L30.5242 4.69638ZM31.3769 4.99869L32.0895 5.27824L32.3345 4.65365L31.7474 4.32888L31.3769 4.99869ZM30.9816 6.00638L30.6251 6.68374L31.3818 7.08204L31.6942 6.28593L30.9816 6.00638ZM30.6483 5.86685L30.3795 6.58357L30.3928 6.58855L30.4062 6.59303L30.6483 5.86685ZM30.2607 5.75058L30.0886 6.49643H30.0886L30.2607 5.75058ZM29.8499 5.68081L29.7621 6.44123L29.7653 6.44159L29.8499 5.68081ZM28.9352 6.19241L28.518 6.8342L28.5296 6.84171L28.5414 6.84879L28.9352 6.19241ZM29.501 6.36294L29.3591 7.11515L29.3641 7.11605L29.501 6.36294ZM29.8421 6.42496L29.9859 5.6731L29.979 5.67184L29.8421 6.42496ZM31.1133 6.93655L30.6019 7.50612L30.6077 7.51119L31.1133 6.93655ZM31.3769 8.40158L32.0572 8.75268L32.0615 8.7439L31.3769 8.40158ZM31.0048 8.82791L31.4516 9.44947L31.4579 9.44494L31.4641 9.44028L31.0048 8.82791ZM30.377 9.10696L30.1807 8.36709L30.1769 8.36812L30.377 9.10696ZM28.9739 9.17673L28.8845 9.93695L28.887 9.93723L28.9739 9.17673ZM28.4546 9.09146L28.2742 9.83537L28.285 9.83797L28.2958 9.84026L28.4546 9.09146ZM27.9662 8.95193L27.6948 9.66764L27.7094 9.67317L27.7242 9.67811L27.9662 8.95193ZM27.5554 8.75815L26.8422 8.4802L26.6047 9.08972L27.1697 9.41933L27.5554 8.75815ZM27.9662 7.70395L28.387 7.06447L27.5966 6.54448L27.253 7.426L27.9662 7.70395ZM28.6794 8.02176L28.4619 8.75568H28.4619L28.6794 8.02176ZM29.5398 8.91124C29.8178 8.91124 30.0924 8.87934 30.3484 8.79676L29.8784 7.33977C29.814 7.36055 29.7062 7.38032 29.5398 7.38032V8.91124ZM30.3484 8.79676C30.5055 8.74609 30.6997 8.65437 30.8593 8.47935C31.0339 8.28787 31.1192 8.04847 31.1192 7.80472H29.5882C29.5882 7.68499 29.6335 7.55152 29.728 7.44789C29.7686 7.40337 29.8078 7.37609 29.8342 7.36077C29.8601 7.34572 29.877 7.34024 29.8784 7.33977L30.3484 8.79676ZM31.1192 7.80472C31.1192 7.40304 30.9095 7.07502 30.5925 6.88479L29.8048 8.19754C29.7669 8.17477 29.7051 8.1265 29.6552 8.04167C29.6041 7.95478 29.5882 7.8682 29.5882 7.80472H31.1192ZM30.6074 6.89398C30.3776 6.74883 30.061 6.66892 29.7856 6.61283L29.48 8.11294C29.6037 8.13814 29.693 8.16108 29.7535 8.18017C29.7834 8.18956 29.8012 8.19645 29.8096 8.20002C29.8192 8.20408 29.81 8.20107 29.7899 8.18835L30.6074 6.89398ZM29.7668 6.60924L29.418 6.54723L29.15 8.05451L29.4988 8.11652L29.7668 6.60924ZM29.4251 6.54852C29.0009 6.46899 28.7418 6.34865 28.5912 6.23157L27.6513 7.44C28.0589 7.757 28.5749 7.94671 29.1429 8.05322L29.4251 6.54852ZM28.5912 6.23157C28.5126 6.17044 28.4682 6.10371 28.4682 5.94436H26.9372C26.9372 6.53949 27.1718 7.06705 27.6513 7.44L28.5912 6.23157ZM28.4682 5.94436C28.4682 5.76256 28.5225 5.66336 28.6457 5.56992L27.7209 4.34993C27.2033 4.74226 26.9372 5.29935 26.9372 5.94436H28.4682ZM28.641 5.57346C28.7907 5.46175 29.0565 5.36107 29.5243 5.36107V3.83015C28.8552 3.83015 28.227 3.97235 27.7256 4.3464L28.641 5.57346ZM29.5243 5.36107C29.8208 5.36107 30.1013 5.3898 30.3672 5.44554L30.6813 3.94721C30.3064 3.8686 29.9203 3.83015 29.5243 3.83015V5.36107ZM30.3695 5.44604C30.634 5.50061 30.8428 5.578 31.0064 5.66849L31.7474 4.32888C31.4252 4.15065 31.0656 4.0265 30.6789 3.94671L30.3695 5.44604ZM30.6643 4.71913L30.269 5.72682L31.6942 6.28593L32.0895 5.27824L30.6643 4.71913ZM31.3381 5.32901C31.1973 5.25493 31.047 5.1929 30.8903 5.14067L30.4062 6.59303C30.4976 6.62348 30.5694 6.65447 30.6251 6.68374L31.3381 5.32901ZM30.917 5.15013C30.7602 5.09132 30.5986 5.04299 30.4328 5.00472L30.0886 6.49643C30.1914 6.52017 30.2883 6.54936 30.3795 6.58357L30.917 5.15013ZM30.4328 5.00472C30.269 4.96693 30.1028 4.93876 29.9344 4.92004L29.7653 6.44159C29.8759 6.45388 29.9836 6.47221 30.0886 6.49643L30.4328 5.00472ZM29.9376 4.9204C29.7767 4.90184 29.6181 4.8921 29.4623 4.8921V6.42302C29.5545 6.42302 29.6543 6.42879 29.7621 6.44123L29.9376 4.9204ZM29.4623 4.8921C29.2044 4.8921 28.9104 4.91581 28.654 5.02364C28.518 5.08082 28.3545 5.17746 28.223 5.34335C28.0822 5.52089 28.0147 5.73225 28.0147 5.94436H29.5456C29.5456 6.06088 29.5065 6.18858 29.4226 6.29442C29.3479 6.38862 29.2697 6.4255 29.2474 6.43489C29.2245 6.44448 29.2266 6.43963 29.2701 6.43353C29.3111 6.42779 29.3736 6.42302 29.4623 6.42302V4.8921ZM28.0147 5.94436C28.0147 6.36885 28.2605 6.66685 28.518 6.8342L29.3523 5.55062C29.3703 5.5623 29.4212 5.59943 29.468 5.67432C29.5188 5.75554 29.5456 5.85106 29.5456 5.94436H28.0147ZM28.5414 6.84879C28.7728 6.98763 29.0825 7.06294 29.3591 7.11513L29.643 5.61076C29.5227 5.58807 29.4352 5.56679 29.375 5.54865C29.3083 5.52853 29.3032 5.52054 29.329 5.53604L28.5414 6.84879ZM29.3641 7.11605L29.7052 7.17807L29.979 5.67184L29.638 5.60983L29.3641 7.11605ZM29.6983 7.17678C30.2478 7.28191 30.505 7.41908 30.6019 7.50609L31.6248 6.36701C31.2152 5.99927 30.6249 5.79538 29.9859 5.67313L29.6983 7.17678ZM30.6077 7.51119C30.6767 7.57194 30.7355 7.65951 30.7355 7.86673H32.2664C32.2664 7.28846 32.0668 6.75592 31.619 6.36191L30.6077 7.51119ZM30.7355 7.86673C30.7355 7.94329 30.7199 8.00387 30.6922 8.05926L32.0615 8.7439C32.1992 8.46856 32.2664 8.17257 32.2664 7.86673H30.7355ZM30.6967 8.05051C30.6743 8.09398 30.6321 8.15066 30.5455 8.21555L31.4641 9.44028C31.7083 9.25712 31.9142 9.02958 32.0571 8.75265L30.6967 8.05051ZM30.5581 8.20635C30.4865 8.25779 30.3685 8.31728 30.1807 8.3671L30.5732 9.84683C30.8919 9.76229 31.1924 9.63575 31.4516 9.44947L30.5581 8.20635ZM30.1769 8.36812C30.0096 8.41343 29.7902 8.44228 29.5088 8.44228V9.97319C29.8888 9.97319 30.2482 9.93486 30.5771 9.8458L30.1769 8.36812ZM29.5088 8.44228C29.3632 8.44228 29.2139 8.43371 29.0609 8.41622L28.887 9.93723C29.0957 9.96108 29.303 9.97319 29.5088 9.97319V8.44228ZM29.0634 8.41651C28.9106 8.39854 28.7607 8.3739 28.6134 8.34266L28.2958 9.84026C28.4896 9.88137 28.6859 9.91357 28.8845 9.93694L29.0634 8.41651ZM28.6349 8.34755C28.4837 8.31089 28.3416 8.27019 28.2083 8.22576L27.7242 9.67811C27.901 9.73703 28.0844 9.78935 28.2742 9.83537L28.6349 8.34755ZM28.2377 8.23623C28.1229 8.19268 28.0247 8.14573 27.9411 8.09696L27.1697 9.41933C27.3342 9.51526 27.5099 9.59751 27.6948 9.66764L28.2377 8.23623ZM28.2686 9.03609L28.6795 7.98189L27.253 7.426L26.8422 8.4802L28.2686 9.03609ZM27.5455 8.34342C27.8175 8.52235 28.1273 8.65652 28.4619 8.75568L28.8968 7.28784C28.6734 7.22163 28.5077 7.14393 28.387 7.06447L27.5455 8.34342ZM28.4619 8.75568C28.8124 8.85953 29.1725 8.91124 29.5398 8.91124V7.38032C29.318 7.38032 29.1044 7.34935 28.8968 7.28784L28.4619 8.75568ZM32.0407 4.75064V3.98518H31.2752V4.75064H32.0407ZM32.8623 4.75064V5.5161H33.6278V4.75064H32.8623ZM32.8623 3.15384V2.38838H32.0969V3.15384H32.8623ZM33.9475 3.15384H34.713V2.38838H33.9475V3.15384ZM33.9475 4.75064H33.1821V5.5161H33.9475V4.75064ZM35.6063 4.75064H36.3718V3.98518H35.6063V4.75064ZM35.6063 5.75833V6.52379H36.3718V5.75833H35.6063ZM33.9475 5.75833V4.99287H33.1821V5.75833H33.9475ZM33.9863 7.7117L34.7265 7.5169L34.7265 7.51689L33.9863 7.7117ZM34.1181 7.94424L34.6353 7.37998H34.6353L34.1181 7.94424ZM34.3584 8.06827L34.1636 8.80852L34.3584 8.06827ZM35.6374 8.10702H36.4028V7.34157H35.6374V8.10702ZM35.6374 9.11472V9.88017H36.4028V9.11472H35.6374ZM33.8235 9.04495L33.6631 9.79342L33.8235 9.04495ZM33.2809 8.81241L32.8216 9.42477L33.2809 8.81241ZM32.9631 8.38608L33.6781 8.1127H33.6781L32.9631 8.38608ZM32.8623 5.75833H33.6278V4.99287H32.8623V5.75833ZM32.0407 5.75833H31.2752V6.52379H32.0407V5.75833ZM32.0407 5.5161H32.8623V3.98518H32.0407V5.5161ZM33.6278 4.75064V3.15384H32.0969V4.75064H33.6278ZM32.8623 3.91929H33.9475V2.38838H32.8623V3.91929ZM33.1821 3.15384V4.75064H34.713V3.15384H33.1821ZM33.9475 5.5161H35.6063V3.98518H33.9475V5.5161ZM34.8409 4.75064V5.75833H36.3718V4.75064H34.8409ZM35.6063 4.99287H33.9475V6.52379H35.6063V4.99287ZM33.1821 5.75833V7.33963H34.713V5.75833H33.1821ZM33.1821 7.33963C33.1821 7.52719 33.1976 7.72237 33.246 7.9065L34.7265 7.51689C34.7233 7.50466 34.713 7.45179 34.713 7.33963H33.1821ZM33.246 7.9065C33.3014 8.11703 33.41 8.33358 33.6008 8.5085L34.6353 7.37998C34.7021 7.44122 34.7228 7.50274 34.7265 7.5169L33.246 7.9065ZM33.6008 8.5085C33.7716 8.665 33.9699 8.75755 34.1636 8.80852L34.5532 7.32801C34.5505 7.32731 34.5886 7.33717 34.6353 7.37998L33.6008 8.5085ZM34.1636 8.80852C34.3459 8.85651 34.5376 8.87248 34.7227 8.87248V7.34157C34.6184 7.34157 34.5672 7.3317 34.5532 7.32801L34.1636 8.80852ZM34.7227 8.87248H35.6374V7.34157H34.7227V8.87248ZM34.8719 8.10702V9.11472H36.4028V8.10702H34.8719ZM35.6374 8.34926H34.6064V9.88017H35.6374V8.34926ZM34.6064 8.34926C34.337 8.34926 34.1328 8.3284 33.9839 8.29649L33.6631 9.79342C33.9483 9.85453 34.2661 9.88017 34.6064 9.88017V8.34926ZM33.9839 8.29649C33.8511 8.26803 33.7785 8.22878 33.7402 8.20004L32.8216 9.42477C33.0727 9.61308 33.3618 9.72886 33.6631 9.79342L33.9839 8.29649ZM33.7402 8.20004C33.7158 8.18172 33.6959 8.15923 33.6781 8.1127L32.2481 8.65945C32.3647 8.96433 32.5567 9.22606 32.8216 9.42477L33.7402 8.20004ZM33.6781 8.1127C33.6547 8.05168 33.6278 7.93198 33.6278 7.7272H32.0969C32.0969 8.04952 32.1371 8.36908 32.2481 8.65945L33.6781 8.1127ZM33.6278 7.7272V5.75833H32.0969V7.7272H33.6278ZM32.8623 4.99287H32.0407V6.52379H32.8623V4.99287ZM32.8061 5.75833V4.75064H31.2752V5.75833H32.8061Z" fill="#3B3B3B" mask="url(#path-55-outside-2_65_2069)"/>
</g>
<defs>
<filter id="filter0_d_65_2069" x="19.9822" y="0.371735" width="5.84766" height="13.1628" filterUnits="userSpaceOnUse" color-interpolation-filters="sRGB">
<feFlood flood-opacity="0" result="BackgroundImageFix"/>
<feColorMatrix in="SourceAlpha" type="matrix" values="0 0 0 0 0 0 0 0 0 0 0 0 0 0 0 0 0 0 127 0" result="hardAlpha"/>
<feOffset dy="1.53092"/>
<feComposite in2="hardAlpha" operator="out"/>
<feColorMatrix type="matrix" values="0 0 0 0 0.233024 0 0 0 0 0.233024 0 0 0 0 0.233024 0 0 0 1 0"/>
<feBlend mode="normal" in2="BackgroundImageFix" result="effect1_dropShadow_65_2069"/>
<feBlend mode="normal" in="SourceGraphic" in2="effect1_dropShadow_65_2069" result="shape"/>
</filter>
<filter id="filter1_d_65_2069" x="26.6047" y="2.38837" width="9.7981" height="9.11575" filterUnits="userSpaceOnUse" color-interpolation-filters="sRGB">
<feFlood flood-opacity="0" result="BackgroundImageFix"/>
<feColorMatrix in="SourceAlpha" type="matrix" values="0 0 0 0 0 0 0 0 0 0 0 0 0 0 0 0 0 0 127 0" result="hardAlpha"/>
<feOffset dy="1.53092"/>
<feComposite in2="hardAlpha" operator="out"/>
<feColorMatrix type="matrix" values="0 0 0 0 0.233024 0 0 0 0 0.233024 0 0 0 0 0.233024 0 0 0 1 0"/>
<feBlend mode="normal" in2="BackgroundImageFix" result="effect1_dropShadow_65_2069"/>
<feBlend mode="normal" in="SourceGraphic" in2="effect1_dropShadow_65_2069" result="shape"/>
</filter>
</defs>
</svg>
