<svg width="68" height="49" viewBox="0 0 68 49" fill="none" xmlns="http://www.w3.org/2000/svg">
<path d="M37.2011 3.42291C37.2011 4.23917 36.8768 5.022 36.2997 5.59918C35.7225 6.17636 34.9397 6.50061 34.1234 6.50061C33.3072 6.50061 32.5244 6.17636 31.9472 5.59918C31.37 5.022 31.0458 4.23917 31.0458 3.42291C31.0458 2.60666 31.37 1.82383 31.9472 1.24665C32.5244 0.669471 33.3072 0.345215 34.1234 0.345215C34.9397 0.345215 35.7225 0.669471 36.2997 1.24665C36.8768 1.82383 37.2011 2.60666 37.2011 3.42291Z" fill="#F9AE40"/>
<path d="M31.6784 3.75808C31.6783 3.25833 31.8 2.76609 32.0331 2.32403C32.2661 1.88197 32.6035 1.50344 33.016 1.22127C33.4284 0.939104 33.9035 0.761813 34.4 0.704775C34.8964 0.647737 35.3993 0.712673 35.865 0.893953C35.5076 0.647957 35.1021 0.480396 34.6753 0.402284C34.2485 0.324173 33.81 0.33728 33.3886 0.440744C32.9672 0.544207 32.5725 0.735685 32.2304 1.00259C31.8883 1.2695 31.6065 1.60578 31.4036 1.98935C31.2008 2.37292 31.0814 2.79508 31.0533 3.22809C31.0252 3.66109 31.0891 4.09513 31.2408 4.50168C31.3924 4.90823 31.6284 5.27809 31.9332 5.58693C32.238 5.89577 32.6047 6.13661 33.0092 6.29362C32.5982 6.01081 32.2622 5.63215 32.0303 5.19037C31.7985 4.7486 31.6777 4.257 31.6784 3.75808Z" fill="#F9DB89"/>
<path d="M35.0977 0.504395C35.354 1.04879 35.4448 1.65647 35.3589 2.25201C35.2729 2.84755 35.0139 3.40474 34.6141 3.85442C34.2143 4.3041 33.6913 4.62647 33.1099 4.78153C32.5285 4.93659 31.9144 4.9175 31.3438 4.72665C31.5597 5.18775 31.8867 5.58803 32.2955 5.89153C32.7043 6.19504 33.1821 6.39228 33.686 6.46555C34.1898 6.53882 34.704 6.48583 35.1823 6.31132C35.6606 6.13682 36.0881 5.84628 36.4264 5.46576C36.7647 5.08525 37.0033 4.62669 37.1206 4.13123C37.2379 3.63577 37.2304 3.11893 37.0987 2.62711C36.967 2.13528 36.7152 1.68385 36.3659 1.31336C36.0167 0.942862 35.5809 0.66489 35.0977 0.504395Z" fill="#F97F40"/>
<path d="M44.2762 29.8653C48.4792 29.8653 51.7485 28.5838 53.991 26.0538C57.8627 21.6919 57.1399 15.2627 57.107 14.9888C57.0676 14.6643 56.9107 14.3654 56.6661 14.1485C56.4215 13.9316 56.1059 13.8117 55.779 13.8114H44.1885C44.0078 13.8032 43.8273 13.8318 43.6579 13.8953C43.4884 13.9588 43.3337 14.0561 43.2029 14.1811C43.0721 14.3061 42.968 14.4563 42.8969 14.6227C42.8257 14.789 42.7891 14.9681 42.7891 15.149C42.7891 15.33 42.8257 15.509 42.8969 15.6754C42.968 15.8417 43.0721 15.992 43.2029 16.117C43.3337 16.242 43.4884 16.3392 43.6579 16.4027C43.8273 16.4663 44.0078 16.4948 44.1885 16.4866H54.5031C54.5031 18.2965 54.1854 21.8151 51.9812 24.2904C50.2672 26.2071 47.6769 27.1901 44.2762 27.1901C43.9319 27.2057 43.6069 27.3534 43.3687 27.6026C43.1306 27.8517 42.9977 28.1831 42.9977 28.5277C42.9977 28.8723 43.1306 29.2037 43.3687 29.4528C43.6069 29.702 43.9319 29.8497 44.2762 29.8653Z" fill="#F97F40"/>
<path d="M53.5166 14.8566H47.4928L43.3308 14.1255C43.1137 14.2994 42.9564 14.537 42.881 14.8048C42.8056 15.0726 42.8158 15.3573 42.9103 15.619C43.0048 15.8807 43.1787 16.1063 43.4078 16.2642C43.6369 16.4221 43.9096 16.5043 44.1878 16.4995H54.5024C54.5024 14.9059 53.5166 14.8566 53.5166 14.8566Z" fill="#F9AE40"/>
<path d="M24.3657 29.8651C20.1627 29.8651 16.8934 28.5836 14.6508 26.0536C10.7791 21.7026 11.502 15.2625 11.5348 14.9914C11.5743 14.6668 11.7311 14.3679 11.9757 14.151C12.2204 13.9341 12.5359 13.8143 12.8628 13.814H24.4561C24.8003 13.8295 25.1254 13.9773 25.3635 14.2264C25.6016 14.4756 25.7345 14.8069 25.7345 15.1516C25.7345 15.4962 25.6016 15.8276 25.3635 16.0767C25.1254 16.3258 24.8003 16.4736 24.4561 16.4892H14.1388C14.1388 18.2991 14.4564 21.8176 16.6606 24.2929C18.3747 26.2096 20.965 27.1926 24.3657 27.1926C24.5464 27.1845 24.727 27.213 24.8964 27.2765C25.0658 27.3401 25.2206 27.4373 25.3514 27.5623C25.4822 27.6873 25.5863 27.8375 25.6574 28.0039C25.7285 28.1703 25.7652 28.3493 25.7652 28.5302C25.7652 28.7112 25.7285 28.8902 25.6574 29.0566C25.5863 29.223 25.4822 29.3732 25.3514 29.4982C25.2206 29.6232 25.0658 29.7204 24.8964 29.784C24.727 29.8475 24.5464 29.876 24.3657 29.8678V29.8651Z" fill="#F9AE40"/>
<path d="M24.367 27.18C20.969 27.18 18.376 26.2052 16.6619 24.2802C14.4714 21.8159 14.1401 18.2891 14.1401 16.4765H14.1675C14.1503 16.3797 14.1412 16.2817 14.1401 16.1835C14.1401 15.5427 14.4659 15.0252 14.8657 15.0252H18.376L19.0769 13.8013H12.8614C12.5345 13.8016 12.2189 13.9214 11.9743 14.1383C11.7297 14.3552 11.5728 14.6541 11.5334 14.9787C11.5005 15.2525 10.7804 21.679 14.6494 26.0436C16.8919 28.5709 20.1612 29.8551 24.3643 29.8551C24.545 29.8633 24.7255 29.8348 24.8949 29.7713C25.0643 29.7077 25.2191 29.6105 25.3499 29.4855C25.4807 29.3605 25.5848 29.2103 25.6559 29.0439C25.7271 28.8775 25.7637 28.6985 25.7637 28.5175C25.7637 28.3366 25.7271 28.1576 25.6559 27.9912C25.5848 27.8248 25.4807 27.6746 25.3499 27.5496C25.2191 27.4246 25.0643 27.3274 24.8949 27.2638C24.7255 27.2003 24.545 27.1718 24.3643 27.18H24.367Z" fill="#F9DB89"/>
<path d="M47.5213 11.5713C47.5213 16.6835 41.6124 20.8263 34.3208 20.8263C27.0292 20.8263 21.123 16.6917 21.123 11.5713C21.123 6.45096 27.0319 4.4165 34.3208 4.4165C41.6097 4.4165 47.5213 6.47013 47.5213 11.5713Z" fill="#F9AE40"/>
<path d="M26.1174 11.5713C26.1174 7.05884 30.7229 4.93949 36.818 4.50413C35.9966 4.44662 35.1751 4.4165 34.3208 4.4165C27.0319 4.4165 21.123 6.45918 21.123 11.5713C21.123 16.6835 27.0319 20.8263 34.3208 20.8263C35.156 20.8264 35.9903 20.7706 36.818 20.6593C30.7229 19.8488 26.1174 16.092 26.1174 11.5713Z" fill="#F9DB89"/>
<path d="M34.3207 4.42627C33.7311 4.42627 33.1516 4.43996 32.582 4.46734C39.0495 4.77949 44.0438 6.88514 44.0438 11.5729C44.0438 16.2606 39.0522 20.1461 32.5848 20.7457C33.1543 20.7978 33.7348 20.8279 34.3235 20.8279C41.6124 20.8279 47.524 16.685 47.524 11.5729C47.524 6.46073 41.6096 4.42627 34.3207 4.42627Z" fill="#F97F40"/>
<path d="M36.5957 42.3726C36.5957 43.2844 35.5771 44.0155 34.3203 44.0155C33.0635 44.0155 32.0449 43.2761 32.0449 42.3726V31.0448C32.0449 30.1329 33.0635 29.4019 34.3203 29.4019C35.5771 29.4019 36.5957 30.1412 36.5957 31.0448V42.3726Z" fill="#EF5A29"/>
<path d="M34.3201 45.678C38.2458 45.678 41.4283 43.9519 41.4283 41.8226C41.4283 39.6934 38.2458 37.9673 34.3201 37.9673C30.3944 37.9673 27.2119 39.6934 27.2119 41.8226C27.2119 43.9519 30.3944 45.678 34.3201 45.678Z" fill="#F9AE40"/>
<path d="M29.8045 41.8226C29.8045 39.9333 32.3099 38.3616 35.6176 38.033C35.1986 37.9919 34.766 37.9673 34.3252 37.9673C30.4014 37.9673 27.2061 39.6923 27.2061 41.8226C27.2061 43.9529 30.3878 45.678 34.3252 45.678C34.766 45.678 35.1986 45.6561 35.6176 45.6123C32.3072 45.2809 29.8045 43.7092 29.8045 41.8226Z" fill="#F9DB89"/>
<path d="M34.3209 37.9673C33.7541 37.9675 33.1879 38.005 32.626 38.0796C35.7337 38.493 38.0393 40.01 38.0393 41.8226C38.0393 43.6353 35.7337 45.155 32.626 45.5657C33.1879 45.6403 33.7541 45.6778 34.3209 45.678C38.2446 45.678 41.44 43.9529 41.44 41.8226C41.44 39.6923 38.2473 37.9673 34.3209 37.9673Z" fill="#F97F40"/>
<path d="M45.6858 44.1771C45.6858 44.9711 45.1875 45.6146 44.3934 45.6146H24.2436C23.4495 45.6146 22.9512 44.9711 22.9512 44.1771V42.3589C22.9512 41.5649 23.4495 40.9214 24.2436 40.9214H44.3989C45.193 40.9214 45.6913 41.5649 45.6913 42.3589L45.6858 44.1771Z" fill="#EF5A29"/>
<path d="M44.4015 43.6577C44.4187 44.0389 44.2844 44.4115 44.0279 44.6941C43.7714 44.9768 43.4136 45.1465 43.0325 45.1664H33.0219C32.6408 45.1465 32.2829 44.9768 32.0265 44.6941C31.77 44.4115 31.6357 44.0389 31.6528 43.6577C31.6364 43.2766 31.771 42.9044 32.0273 42.6219C32.2836 42.3394 32.641 42.1695 33.0219 42.1489H43.0243C43.4054 42.1688 43.7632 42.3385 44.0197 42.6212C44.2762 42.9038 44.4105 43.2764 44.3933 43.6577H44.4015Z" fill="#B83E29"/>
<path d="M27.9428 44.1771V42.3589C27.9428 41.5649 28.4411 40.9214 29.2352 40.9214H24.2436C23.4495 40.9214 22.9512 41.5649 22.9512 42.3589V44.1771C22.9512 44.9711 23.4495 45.6146 24.2436 45.6146H29.2379C28.4356 45.6119 27.9428 44.9766 27.9428 44.1771Z" fill="#EF9F45"/>
<path d="M44.3986 40.9224H41.0088C41.8028 40.9224 42.3012 41.5658 42.3012 42.3599V44.178C42.3012 44.9721 41.8028 45.6156 41.0088 45.6156H44.3986C45.1926 45.6156 45.691 44.9721 45.691 44.178V42.3599C45.6855 41.5631 45.1926 40.9224 44.3986 40.9224Z" fill="#B83E29"/>
<path d="M48.5356 46.3029C48.5356 47.253 48.0893 48.0252 47.0899 48.0252H21.3734C20.3767 48.0252 20.1084 47.253 20.1084 46.3029V45.172C20.1084 44.2191 20.3822 43.4497 21.3734 43.4497H47.0899C48.0866 43.4497 48.5356 44.2219 48.5356 45.172V46.3029Z" fill="#F9AE40"/>
<path d="M30.0228 45.7222C29.0261 45.7222 28.7578 46.4943 28.7578 47.4445V48.025H47.0896C48.0862 48.025 48.5353 47.2528 48.5353 46.3027V45.7222H30.0228Z" fill="#F97F40"/>
<path d="M25.1027 46.3029V45.172C25.1027 44.2191 25.3766 43.4497 26.3678 43.4497H21.3734C20.3767 43.4497 20.1084 44.2219 20.1084 45.172V46.3029C20.1084 47.253 20.3822 48.0252 21.3734 48.0252H26.3678C25.3711 48.0252 25.1027 47.253 25.1027 46.3029Z" fill="#F9DB89"/>
<path d="M47.0887 43.4478H42.6748C43.6715 43.4478 44.1205 44.2199 44.1205 45.1701V46.3009C44.1205 47.2511 43.6742 48.0232 42.6748 48.0232H47.0832C48.0799 48.0232 48.5289 47.2511 48.5289 46.3009V45.1701C48.5344 44.2199 48.0881 43.4478 47.0887 43.4478Z" fill="#F97F40"/>
<path d="M20.633 11.4722V23.4051C20.633 29.67 26.0217 34.7493 32.6808 34.7493H35.9802C42.6284 34.7493 48.028 29.67 48.028 23.4051V11.4722H20.633Z" fill="#F9AE40"/>
<path d="M20.633 11.4722V23.4051C20.633 29.67 26.0217 34.7493 32.6808 34.7493H35.9802C42.6284 34.7493 48.028 29.67 48.028 23.4051V11.4722H20.633Z" fill="#F9AE40"/>
<path d="M28.1178 28.5486C28.5212 29.2587 28.9393 29.9606 29.3719 30.6542H30.2125V16.8101H28.7503C28.492 17.2508 28.1116 17.6074 27.6551 17.8369C27.2947 18.0247 26.9078 18.1567 26.5078 18.2284V19.7864H28.1206L28.1178 28.5486Z" fill="#F97F40"/>
<path d="M25.6992 28.5309C25.7007 28.3546 25.6673 28.1797 25.601 28.0164C25.5347 27.853 25.4368 27.7044 25.3129 27.5789C25.189 27.4535 25.0415 27.3538 24.879 27.2855C24.7165 27.2172 24.542 27.1817 24.3658 27.181C22.7268 27.2165 21.0971 26.9261 19.5713 26.3267C20.0399 27.5186 20.6861 28.6329 21.488 29.6316C22.435 29.7838 23.3929 29.8589 24.3521 29.8562C24.7062 29.8583 25.0468 29.7201 25.2993 29.4717C25.5518 29.2234 25.6956 28.8851 25.6992 28.5309Z" fill="#EF5A29"/>
<path d="M24.4566 13.814H19.8018V16.5001H24.4566C24.8009 16.4845 25.1259 16.3368 25.364 16.0877C25.6022 15.8385 25.735 15.5071 25.735 15.1625C25.735 14.8179 25.6022 14.4865 25.364 14.2374C25.1259 13.9882 24.8009 13.8405 24.4566 13.8249V13.814Z" fill="#EF5A29"/>
<path d="M49.0699 26.3364C47.5433 26.932 45.9137 27.2187 44.2755 27.1798C43.9312 27.1954 43.6062 27.3431 43.3681 27.5922C43.13 27.8414 42.9971 28.1727 42.9971 28.5174C42.9971 28.862 43.13 29.1934 43.3681 29.4425C43.6062 29.6917 43.9312 29.8394 44.2755 29.855C45.2347 29.8578 46.1925 29.7827 47.1396 29.6304C47.9454 28.6361 48.5963 27.5255 49.0699 26.3364Z" fill="#B83E29"/>
<path d="M44.1887 16.5005H48.7696V13.8144H44.1887C44.008 13.8062 43.8275 13.8347 43.6581 13.8982C43.4887 13.9618 43.3339 14.059 43.2031 14.184C43.0723 14.309 42.9682 14.4592 42.8971 14.6256C42.8259 14.792 42.7893 14.971 42.7893 15.152C42.7893 15.3329 42.8259 15.5119 42.8971 15.6783C42.9682 15.8447 43.0723 15.9949 43.2031 16.1199C43.3339 16.2449 43.4887 16.3421 43.6581 16.4057C43.8275 16.4692 44.008 16.4977 44.1887 16.4895V16.5005Z" fill="#B83E29"/>
<path d="M39.7604 17.6693C39.7604 17.6693 41.3431 33.3535 34.2842 34.5254C34.2842 34.5254 39.8042 35.095 41.5074 27.6362C42.6437 22.6528 42.1755 17.6255 42.1755 17.6255L39.7604 17.6693Z" fill="#F97F40"/>
<path d="M37.0653 34.7C37.4185 34.6699 37.769 34.6234 38.114 34.5659C32.4872 33.613 28.2157 28.98 28.2157 23.4051V11.4722H26.121V23.4051C26.1183 29.3223 30.9292 34.1798 37.0653 34.7Z" fill="#F9DB89"/>
<path d="M20.6328 16.5445L48.0113 20.6573V11.9663H20.6328V16.5445Z" fill="#F97F40"/>
<path d="M33.2531 19.7857H30.8818V18.3317C31.5488 18.3076 32.2027 18.1395 32.7985 17.8388C33.2551 17.6095 33.6355 17.2529 33.8938 16.812H35.3559V30.6425H33.2613L33.2531 19.7857Z" fill="#F9DB89"/>
<path d="M26.1172 11.9663V17.3687L28.2119 17.6836V11.9663H26.1172Z" fill="#F9AE40"/>
<path d="M24.6444 23.4133V11.4722H20.633V23.4051C20.633 29.67 26.0217 34.7493 32.6808 34.7493H34.0143C28.6256 33.4788 24.6444 28.8787 24.6444 23.4133Z" fill="#F9DB89"/>
<path d="M43.5518 11.4702V23.4031C43.5518 29.4846 38.4726 34.4489 32.0928 34.7337C32.2844 34.7337 32.4788 34.7337 32.6733 34.7337H35.9727C42.6209 34.7337 48.0205 29.6544 48.0205 23.3895V11.4702H43.5518Z" fill="#F97F40"/>
<path d="M24.6442 11.9663H20.6328V16.5445L24.6442 17.1469V11.9663Z" fill="#F9AE40"/>
<path d="M49.472 12.1462C49.472 13.0991 49.0229 13.8685 48.0263 13.8685H20.4369C19.4402 13.8685 19.1719 13.0964 19.1719 12.1462V11.0236C19.1719 10.0707 19.4457 9.30127 20.4369 9.30127H48.0263C49.0257 9.30127 49.472 10.0734 49.472 11.0236V12.1462Z" fill="#EF5A29"/>
<path d="M30.558 11.6099C29.5613 11.6099 29.293 12.382 29.293 13.3322V13.8798H48.0245C49.0239 13.8798 49.4702 13.1076 49.4702 12.1575V11.6099H30.558Z" fill="#B83E29"/>
<path d="M24.1662 12.1462V11.0236C24.1662 10.0707 24.44 9.30127 25.4312 9.30127H20.4369C19.4402 9.30127 19.1719 10.0734 19.1719 11.0236V12.1462C19.1719 13.0991 19.4457 13.8685 20.4369 13.8685H25.4258C24.4346 13.8685 24.1662 13.0964 24.1662 12.1462Z" fill="#EF9F45"/>
<path d="M48.0258 9.29053H42.5879C43.5846 9.29053 44.0336 10.0627 44.0336 11.0128V12.1464C44.0336 13.0993 43.5873 13.8687 42.5879 13.8687H48.0285C49.028 13.8687 49.4743 13.0966 49.4743 12.1464V11.0238C49.4715 10.0627 49.0252 9.29053 48.0258 9.29053Z" fill="#B83E29"/>
<path d="M21.7471 18.8062V22.8641C21.7471 22.8641 21.925 24.507 23.3078 24.8712V19.2388L21.7471 18.8062Z" fill="#F9AE40"/>
<path d="M42.2598 15.8843V18.2364H43.4536C43.4536 18.2364 43.5987 15.8843 42.2598 15.8843Z" fill="#F9AE40"/>
<path d="M22.485 11.9401C22.485 12.0778 22.4579 12.2142 22.4051 12.3414C22.3524 12.4687 22.2752 12.5843 22.1778 12.6817C22.0804 12.779 21.9648 12.8563 21.8376 12.909C21.7104 12.9617 21.574 12.9888 21.4363 12.9888C21.1581 12.9888 20.8914 12.8783 20.6947 12.6817C20.4981 12.485 20.3876 12.2182 20.3876 11.9401V11.3158C20.3876 11.0377 20.4981 10.7709 20.6947 10.5743C20.8914 10.3776 21.1581 10.2671 21.4363 10.2671C21.574 10.2671 21.7104 10.2942 21.8376 10.3469C21.9648 10.3996 22.0804 10.4769 22.1778 10.5743C22.2752 10.6716 22.3524 10.7872 22.4051 10.9145C22.4579 11.0417 22.485 11.1781 22.485 11.3158V11.9401Z" fill="#EF5A29"/>
<path d="M47.9656 11.9401C47.9656 12.2182 47.8551 12.485 47.6584 12.6817C47.4617 12.8783 47.195 12.9888 46.9169 12.9888C46.6387 12.9888 46.372 12.8783 46.1753 12.6817C45.9787 12.485 45.8682 12.2182 45.8682 11.9401V11.3158C45.8682 11.0377 45.9787 10.7709 46.1753 10.5743C46.372 10.3776 46.6387 10.2671 46.9169 10.2671C47.195 10.2671 47.4617 10.3776 47.6584 10.5743C47.8551 10.7709 47.9656 11.0377 47.9656 11.3158V11.9401Z" fill="#EF5A29"/>
<path d="M47.4314 46.0505C47.4314 46.3286 47.3209 46.5953 47.1242 46.792C46.9276 46.9887 46.6608 47.0992 46.3827 47.0992C46.1046 47.0992 45.8378 46.9887 45.6411 46.792C45.4445 46.5953 45.334 46.3286 45.334 46.0505V45.4262C45.334 45.148 45.4445 44.8813 45.6411 44.6846C45.8378 44.4879 46.1046 44.3774 46.3827 44.3774C46.6608 44.3774 46.9276 44.4879 47.1242 44.6846C47.3209 44.8813 47.4314 45.148 47.4314 45.4262V46.0505Z" fill="#F9AE40"/>
<path d="M23.5525 46.1169C23.5525 46.2546 23.5254 46.391 23.4727 46.5182C23.42 46.6454 23.3427 46.761 23.2453 46.8584C23.1479 46.9558 23.0323 47.0331 22.9051 47.0858C22.7779 47.1385 22.6415 47.1656 22.5038 47.1656C22.3661 47.1656 22.2297 47.1385 22.1025 47.0858C21.9752 47.0331 21.8596 46.9558 21.7622 46.8584C21.6649 46.761 21.5876 46.6454 21.5349 46.5182C21.4822 46.391 21.4551 46.2546 21.4551 46.1169V45.4926C21.4551 45.3548 21.4822 45.2185 21.5349 45.0912C21.5876 44.964 21.6649 44.8484 21.7622 44.751C21.8596 44.6536 21.9752 44.5764 22.1025 44.5237C22.2297 44.471 22.3661 44.4438 22.5038 44.4438C22.7819 44.4438 23.0487 44.5543 23.2453 44.751C23.442 44.9477 23.5525 45.2144 23.5525 45.4926V46.1169Z" fill="#F9AE40"/>
<path d="M26.295 42.4577C26.2823 42.62 26.2063 42.7708 26.0833 42.8774C25.9603 42.984 25.8002 43.0379 25.6378 43.0273C25.4754 43.0379 25.3153 42.984 25.1923 42.8774C25.0693 42.7708 24.9933 42.62 24.9807 42.4577V42.1182C24.9933 41.9559 25.0693 41.8052 25.1923 41.6986C25.3153 41.5919 25.4754 41.5381 25.6378 41.5487C25.8002 41.5381 25.9603 41.5919 26.0833 41.6986C26.2063 41.8052 26.2823 41.9559 26.295 42.1182V42.4577Z" fill="#EF5A29"/>
<path d="M33.3934 2.50435C33.8923 2.03955 34.0676 1.41665 33.7848 1.11306C33.502 0.809478 32.8683 0.940174 32.3693 1.40498C31.8703 1.86978 31.6951 2.49269 31.9778 2.79627C32.2606 3.09985 32.8944 2.96916 33.3934 2.50435Z" fill="#F9DB89"/>
<path d="M35.8835 33.9731C35.5403 34.0991 35.1898 34.2105 34.832 34.3072C35.5627 34.5042 36.3095 34.6353 37.0636 34.6988C37.2334 34.6851 37.4004 34.6659 37.5674 34.644H37.6003C37.7719 34.6221 37.9416 34.5965 38.1096 34.5673C37.3509 34.4381 36.6057 34.2392 35.8835 33.9731Z" fill="#F9AE40"/>
<path d="M24.8686 31.2784L28.2612 31.6974L24.8632 32.0752L24.447 35.4678L24.0664 32.0725L20.6738 31.6536L24.0718 31.273L24.488 27.8804L24.8686 31.2784Z" fill="white"/>
<path d="M26.1892 5.07339L29.0369 5.42387L26.1865 5.7415L25.836 8.58919L25.5156 5.73876L22.668 5.38554L25.5184 5.06791L25.8716 2.22021L26.1892 5.07339Z" fill="white"/>
<path d="M48.4175 16.7775L51.2652 17.128L48.412 17.4456L48.0616 20.2933L47.7412 17.4429L44.8936 17.0924L47.7467 16.772L48.0972 13.9243L48.4175 16.7775Z" fill="white"/>
<path d="M18.2389 45.467C18.2001 45.4756 18.1599 45.4756 18.1211 45.467C9.96425 43.0629 7.22612 36.8363 6.26504 32.1349C5.63952 28.9544 5.63952 25.6825 6.26504 22.502C6.30063 22.3323 6.32801 22.1871 6.48956 22.2282C6.65111 22.2693 6.69218 22.4664 6.65933 22.6362C6.18026 25.7554 6.24604 28.9341 6.85373 32.0309C8.20363 38.6025 12.1328 42.7809 18.4415 44.6401C18.4898 44.6594 18.5338 44.688 18.571 44.7244C18.6081 44.7607 18.6378 44.8041 18.6581 44.8519C18.6785 44.8998 18.6892 44.9512 18.6896 45.0032C18.69 45.0552 18.6801 45.1067 18.6605 45.1549C18.6279 45.2421 18.5707 45.318 18.4959 45.3734C18.4211 45.4288 18.3318 45.4613 18.2389 45.467Z" fill="#56A9AB"/>
<path d="M6.15424 28.8677C6.15424 28.8677 3.95005 26.6087 4.20743 23.479C4.26878 22.5828 4.53495 21.7127 4.98544 20.9356C5.43593 20.1585 6.05874 19.4951 6.80591 18.9966C6.80591 18.9966 8.48164 20.6778 8.53093 23.939C8.56653 26.8442 6.15424 28.8677 6.15424 28.8677Z" fill="#81C5C2"/>
<path d="M8.37642 25.2498C8.47859 24.8211 8.52733 24.3815 8.52154 23.9409C8.47499 20.6798 6.79652 18.9985 6.79652 18.9985C5.82616 19.6415 5.07378 20.5638 4.63888 21.6436C5.03022 20.9758 5.52042 20.3711 6.09282 19.8501C6.09282 19.8501 4.75388 22.235 5.30698 24.6939C5.355 23.1242 5.78146 21.5893 6.55009 20.2198C6.55009 20.2198 7.05391 23.3769 6.64045 25.7919C6.64045 25.7919 7.68915 23.8341 7.08403 20.3868C7.71558 21.9477 8.14974 23.5813 8.37642 25.2498Z" fill="#56E3D3"/>
<path d="M6.80532 18.9966C6.05951 19.4954 5.43798 20.1586 4.98848 20.9352C4.53897 21.7118 4.27345 22.581 4.21231 23.4762C3.95493 26.6059 6.15912 28.8649 6.15912 28.8649C6.15912 28.8649 8.57141 26.8442 8.53034 23.9362C8.492 21.2939 7.38306 19.6893 6.96413 19.1746C7.52122 20.4172 7.78898 21.7701 7.74723 23.1312C7.73167 24.6353 7.23885 26.0955 6.33984 27.3014L6.39734 20.8832C5.72924 22.7698 5.90174 27.2905 5.90174 27.2905C5.90174 27.2905 4.84208 26.25 4.71065 23.8952C4.57922 21.5403 6.80532 18.9966 6.80532 18.9966Z" fill="#56A9AB"/>
<path d="M6.78429 19.006L6.74048 19.0334L6.67477 19.0772L6.58167 19.1429L6.46941 19.2278L6.33798 19.3346C6.24488 19.414 6.14083 19.5044 6.03131 19.6084C5.92178 19.7152 5.80952 19.833 5.69178 19.9671C5.57678 20.1013 5.45904 20.241 5.3413 20.4107C5.21831 20.587 5.10497 20.7698 5.00177 20.9584C4.94975 21.0542 4.89772 21.1528 4.84844 21.2541V21.2732C4.79915 21.3773 4.7526 21.4813 4.70605 21.5909C5.09739 20.9231 5.5876 20.3184 6.16 19.7974C6.16 19.7974 6.08881 19.9261 5.98476 20.1506C6.24921 19.7289 6.54291 19.3264 6.8637 18.9458L6.78429 19.006Z" fill="#81C5C2"/>
<path d="M8.50321 23.4189C8.50321 23.282 8.48131 23.145 8.46762 23.0191V22.9506C8.45393 22.8302 8.4375 22.7124 8.41833 22.5974V22.5509C8.39643 22.4276 8.37452 22.3072 8.34988 22.1922L8.33345 22.1155C8.30881 22.0005 8.28142 21.8882 8.2513 21.7787V21.7431C8.22392 21.6418 8.1938 21.5432 8.16368 21.4474L8.14452 21.3899C8.11166 21.2895 8.07789 21.1927 8.04321 21.0996L8.0213 21.0394C7.98662 20.9481 7.95194 20.8568 7.91725 20.7656V20.7519C7.87892 20.6643 7.84332 20.5794 7.80499 20.4972L7.78035 20.4452C7.74201 20.3658 7.70642 20.2919 7.66808 20.2207L7.64892 20.1823L7.54487 19.9934L7.52844 19.9633C7.49284 19.8976 7.45451 19.8373 7.41891 19.7798L7.39701 19.7415L7.29296 19.5772L7.19713 19.4376L7.1807 19.4157L7.09308 19.2952V19.2787L7.01367 19.1802C7.43651 20.1227 7.69134 21.1318 7.76666 22.162C8.08325 23.169 8.30689 24.2029 8.43476 25.2507C8.45849 25.1521 8.47948 25.0526 8.49774 24.9522V24.8947C8.51051 24.8162 8.52238 24.7368 8.53333 24.6565V24.5662C8.53333 24.4931 8.53972 24.4192 8.5525 24.3444C8.5525 24.3142 8.5525 24.2841 8.5525 24.254C8.5525 24.1499 8.5525 24.0486 8.5525 23.9418C8.5525 23.794 8.5525 23.6489 8.53607 23.5065L8.50321 23.4189Z" fill="#81C5C2"/>
<path d="M6.77397 33.5214C6.77397 33.5214 4.33703 34.132 2.39296 32.5411C1.81701 32.0628 1.35282 31.4641 1.03304 30.7872C0.713261 30.1102 0.54565 29.3714 0.541992 28.6228C0.541992 28.6228 2.36832 28.1409 4.54513 29.5675C6.47003 30.838 6.77397 33.5214 6.77397 33.5214Z" fill="#81C5C2"/>
<path d="M5.33568 30.2629C5.09948 29.9974 4.8298 29.7636 4.53341 29.5675C2.3566 28.1409 0.530273 28.6228 0.530273 28.6228C0.534786 29.6075 0.819717 30.5706 1.35171 31.3993C1.0734 30.8044 0.881617 30.1728 0.782181 29.5236C0.782181 29.5236 1.78707 31.58 3.649 32.2618C2.61272 31.5026 1.78026 30.499 1.22576 29.3402C1.22576 29.3402 3.52852 30.3834 4.94687 31.7717C4.94687 31.7717 4.10079 30.1288 1.56528 29.0335C2.87229 29.2694 4.14086 29.683 5.33568 30.2629Z" fill="#56E3D3"/>
<path d="M0.526367 28.6221C0.530025 29.3707 0.697636 30.1095 1.01742 30.7864C1.3372 31.4634 1.80139 32.0621 2.37734 32.5404C4.3351 34.1312 6.75834 33.5206 6.75834 33.5206C6.75834 33.5206 6.45441 30.8372 4.51582 29.5667C2.75246 28.4112 1.23007 28.507 0.698868 28.5865C1.76561 28.7356 2.77878 29.1467 3.64783 29.783C4.6536 30.5009 5.40761 31.5174 5.80274 32.6882L1.60245 29.7666C2.56353 31.1028 5.62476 33.0031 5.62476 33.0031C5.62476 33.0031 4.47748 33.3153 2.85925 32.3514C1.24102 31.3876 0.526367 28.6221 0.526367 28.6221Z" fill="#56A9AB"/>
<path d="M0.52696 28.6429C0.52696 28.6429 0.52696 28.6676 0.52696 28.6867C0.52696 28.7059 0.52696 28.7305 0.52696 28.7552C0.52696 28.7552 0.52696 28.8154 0.52696 28.8538C0.52696 28.8921 0.52696 28.9304 0.52696 28.977C0.52696 29.0208 0.526961 29.0701 0.540651 29.1221C0.540651 29.2261 0.568031 29.3439 0.592674 29.4698C0.617317 29.5958 0.6447 29.7437 0.685772 29.8806C0.724105 30.0257 0.773391 30.179 0.830892 30.3378C0.891886 30.5046 0.961343 30.6682 1.03899 30.828C1.07915 30.9101 1.12296 30.9923 1.17042 31.0744V31.0908C1.21697 31.173 1.26625 31.2551 1.32102 31.3373C1.05871 30.7607 0.877192 30.1508 0.781606 29.5246C0.781606 29.5246 0.836369 29.6341 0.940417 29.7984C0.77429 29.4131 0.634328 29.017 0.521484 28.6128V28.6292L0.52696 28.6429Z" fill="#81C5C2"/>
<path d="M4.17858 29.3517C4.08548 29.297 3.99421 29.2468 3.90476 29.2011L3.85548 29.1765L3.60083 29.056L3.56524 29.0396L3.29142 28.93L3.24761 28.9054L2.9738 28.8232H2.94642L2.71368 28.7548H2.66713L2.43165 28.6973H2.38236L2.16331 28.6562L1.947 28.6261H1.90319L1.70605 28.6069H1.67319H1.50342H1.27342H1.12009H0.988656H0.947584H0.829845H0.813416H0.714844C1.52136 28.7132 2.30016 28.9725 3.00939 29.3709C3.81306 29.59 4.59275 29.889 5.3368 30.2635C5.28204 30.2033 5.22454 30.143 5.16704 30.0855L5.13418 30.0527L4.9918 29.9213L4.93704 29.872L4.79739 29.7597L4.73989 29.7132C4.67417 29.6639 4.60572 29.6146 4.53727 29.568C4.46882 29.5215 4.34012 29.4421 4.24155 29.3873L4.17858 29.3517Z" fill="#81C5C2"/>
<path d="M6.82794 33.4177C6.82794 33.4177 8.9363 32.9385 9.85631 30.9533C10.124 30.3644 10.2602 29.7243 10.2554 29.0774C10.2507 28.4305 10.1052 27.7925 9.82893 27.2075C9.82893 27.2075 8.23807 27.5471 7.0908 29.4994C6.064 31.2299 6.82794 33.4177 6.82794 33.4177Z" fill="#81C5C2"/>
<path d="M6.72638 30.3423C6.81072 30.0453 6.93215 29.7601 7.08781 29.4935C8.23783 27.5439 9.82594 27.2017 9.82594 27.2017C10.1886 27.969 10.3253 28.8238 10.2202 29.666C10.2088 29.1 10.1166 28.5385 9.94642 27.9985C9.94642 27.9985 9.94642 29.9782 8.75533 31.2377C9.27303 30.2511 9.54363 29.1537 9.54391 28.0395C9.54391 28.0395 8.15568 29.7427 7.5752 31.3664C7.5752 31.3664 7.61627 29.7646 9.16331 27.9245C8.24668 28.618 7.42707 29.4312 6.72638 30.3423Z" fill="#56E3D3"/>
<path d="M9.81956 27.2017C10.0958 27.7866 10.2413 28.4247 10.2461 29.0715C10.2508 29.7184 10.1146 30.3586 9.84694 30.9475C8.92693 32.9409 6.81857 33.4118 6.81857 33.4118C6.81857 33.4118 6.05737 31.2213 7.09239 29.4853C8.02335 27.9054 9.24455 27.3796 9.67444 27.24C8.90459 27.7731 8.27593 28.4854 7.84263 29.3155C7.33332 30.2579 7.12951 31.3354 7.25941 32.3987L9.42527 28.4996C9.18158 29.907 7.50858 32.5657 7.50858 32.5657C7.50858 32.5657 8.51074 32.3576 9.40063 30.9858C10.2905 29.614 9.81956 27.2017 9.81956 27.2017Z" fill="#56A9AB"/>
<path d="M9.83324 27.2143L9.84967 27.2499L9.87431 27.3046L9.90717 27.3813L9.9455 27.4799L9.98931 27.5976C10.0194 27.6825 10.0495 27.7783 10.0797 27.8878C10.1098 27.9946 10.1372 28.1124 10.1618 28.2411C10.1865 28.3698 10.2056 28.5149 10.2193 28.6491C10.2344 28.8019 10.2417 28.9555 10.2412 29.1091C10.2412 29.1885 10.2412 29.2679 10.2412 29.35V29.3665C10.2412 29.4486 10.2412 29.5307 10.2166 29.6156C10.2051 29.0496 10.1129 28.4881 9.94276 27.9481C9.94276 27.9481 9.94276 28.0549 9.92633 28.2219C9.91118 27.8601 9.87185 27.4997 9.80859 27.1431L9.83324 27.2143Z" fill="#81C5C2"/>
<path d="M7.2793 29.1912C7.33133 29.1118 7.38335 29.0379 7.43811 28.9639L7.46823 28.9256C7.51752 28.8571 7.56954 28.7942 7.61883 28.7312L7.64073 28.7065C7.6955 28.6408 7.75026 28.5778 7.80502 28.5176L7.84062 28.4793L8.0049 28.3095L8.02407 28.2931L8.17741 28.148L8.20753 28.1206L8.36907 27.9864L8.40193 27.959L8.55527 27.8413L8.71134 27.7318L8.7442 27.7099L8.88932 27.6195L8.91396 27.6058L9.04265 27.5319H9.06182L9.19051 27.4634H9.21789L9.33837 27.4059L9.44516 27.3594H9.46159L9.55742 27.3238H9.57111L9.65052 27.2964C9.0683 27.6988 8.56676 28.2068 8.17193 28.7942C7.63268 29.2772 7.14204 29.8118 6.70703 30.3905C6.7262 30.3221 6.7481 30.2536 6.77275 30.1852L6.78644 30.1468C6.8056 30.0948 6.82477 30.0428 6.84668 29.9907L6.87132 29.9305C6.89049 29.884 6.91239 29.8374 6.93703 29.7881L6.96442 29.7306C6.99727 29.6649 7.03013 29.6019 7.06846 29.5389C7.1068 29.476 7.17525 29.3664 7.22728 29.2843L7.2793 29.1912Z" fill="#81C5C2"/>
<path d="M8.79794 38.2009C8.79794 38.2009 11.1363 37.6697 12.1576 35.4627C12.4557 34.8095 12.6074 34.0991 12.6022 33.3811C12.597 32.6631 12.435 31.955 12.1275 31.3062C12.1275 31.3062 10.3641 31.684 9.08818 33.8472C7.95186 35.7721 8.79794 38.2009 8.79794 38.2009Z" fill="#81C5C2"/>
<path d="M8.68555 34.7891C8.77953 34.4594 8.91477 34.143 9.08805 33.8472C10.364 31.684 12.1274 31.3062 12.1274 31.3062C12.531 32.1586 12.683 33.1085 12.5655 34.0443C12.557 33.4176 12.4593 32.7952 12.2752 32.1961C12.2752 32.1961 12.2752 34.3866 10.9555 35.7913C11.5302 34.6929 11.829 33.4713 11.8262 32.2317C11.8262 32.2317 10.2846 34.121 9.63567 35.9227C9.63567 35.9227 9.67949 34.1456 11.399 32.1057C10.3786 32.8748 9.46595 33.7773 8.68555 34.7891Z" fill="#56E3D3"/>
<path d="M12.1293 31.3032C12.4367 31.952 12.5987 32.6602 12.6039 33.3782C12.6091 34.0961 12.4574 34.8066 12.1594 35.4598C11.1381 37.6695 8.79969 38.1979 8.79969 38.1979C8.79969 38.1979 7.95635 35.7692 9.08993 33.8415C10.1222 32.0891 11.4776 31.5086 11.954 31.3498C11.1005 31.9406 10.4032 32.7299 9.92232 33.6498C9.35459 34.6962 9.12682 35.8935 9.27065 37.0753L11.672 32.7517C11.3982 34.3125 9.56089 37.2642 9.56089 37.2642C9.56089 37.2642 10.6698 37.0342 11.661 35.5118C12.6522 33.9894 12.1293 31.3032 12.1293 31.3032Z" fill="#56A9AB"/>
<path d="M12.1379 31.3189L12.1571 31.3572L12.1845 31.4175L12.22 31.5023L12.2639 31.6091L12.3131 31.7406C12.346 31.8337 12.3816 31.9432 12.4117 32.0609C12.4446 32.1814 12.4747 32.3101 12.5021 32.4525C12.5295 32.5949 12.5514 32.7455 12.5678 32.907C12.5839 33.0763 12.5912 33.2463 12.5897 33.4163C12.5897 33.5039 12.5897 33.5943 12.5897 33.6901V33.7504C12.5897 33.8417 12.5806 33.9329 12.5623 34.0242C12.5539 33.3974 12.4561 32.7751 12.2721 32.1759C12.2721 32.1759 12.2721 32.2937 12.2556 32.4908C12.2392 32.0887 12.1962 31.688 12.127 31.2915L12.1379 31.3189Z" fill="#81C5C2"/>
<path d="M9.30067 33.5058C9.35908 33.4182 9.4175 33.3342 9.47591 33.2539L9.50876 33.2101C9.56535 33.1352 9.62194 33.064 9.67853 32.9965L9.70317 32.9664C9.76341 32.8924 9.82639 32.824 9.88663 32.7555L9.9277 32.7117C9.98794 32.646 10.0509 32.583 10.1112 32.5228L10.1331 32.5036L10.3056 32.3448L10.3412 32.3147L10.5191 32.1641L10.5575 32.134L10.7272 32.0025L10.8997 31.882L10.9353 31.8574L11.0969 31.7561L11.1243 31.7397L11.2666 31.6575H11.2885L11.4309 31.5836L11.4583 31.5589L11.5897 31.496L11.7075 31.4467H11.7266L11.8307 31.4056H11.8471L11.9375 31.3755C11.2905 31.8216 10.7331 32.3854 10.2946 33.0376C9.69659 33.5734 9.15274 34.1668 8.6709 34.8091C8.6928 34.7325 8.71745 34.6586 8.74209 34.5819L8.75852 34.5408C8.78042 34.4833 8.80233 34.4231 8.82697 34.3656L8.85435 34.2999C8.87626 34.2478 8.9009 34.1958 8.92554 34.1438L8.95566 34.0808C8.99126 34.0096 9.02959 33.9384 9.07066 33.87C9.11174 33.8015 9.1884 33.6783 9.24864 33.5961L9.30067 33.5058Z" fill="#81C5C2"/>
<path d="M12.8556 42.749C12.8556 42.749 15.1146 41.536 15.5609 38.9594C15.6906 38.2032 15.6539 37.4278 15.4534 36.6873C15.2529 35.9468 14.8934 35.2588 14.3999 34.6714C14.3999 34.6714 12.6886 35.564 11.9685 38.1625C11.325 40.479 12.8556 42.749 12.8556 42.749Z" fill="#81C5C2"/>
<path d="M11.8125 39.25C11.8183 38.8798 11.8707 38.5118 11.9686 38.1547C12.6914 35.5562 14.4 34.6636 14.4 34.6636C15.0469 35.4315 15.461 36.3682 15.5939 37.3634C15.4145 36.7187 15.1444 36.1029 14.7916 35.5343C14.7916 35.5343 15.3748 37.807 14.411 39.6251C14.703 38.3325 14.6795 36.9885 14.3425 35.7068C14.3425 35.7068 13.2719 38.1 13.1022 40.1426C13.1022 40.1426 12.6641 38.2916 13.8743 35.6959C13.0327 36.7841 12.3394 37.9792 11.8125 39.25Z" fill="#56E3D3"/>
<path d="M14.4007 34.6733C14.894 35.2594 15.2538 35.9457 15.4553 36.6848C15.6567 37.4238 15.6949 38.1978 15.5672 38.9531C15.1209 41.527 12.8619 42.7427 12.8619 42.7427C12.8619 42.7427 11.334 40.4728 11.9775 38.159C12.5635 36.0534 13.7956 35.0676 14.2419 34.7692C13.524 35.6235 13.0216 36.6376 12.777 37.7264C12.4824 38.9644 12.5781 40.2633 13.0508 41.4448L14.3432 36.2916C14.4884 37.981 13.4013 41.5544 13.4013 41.5544C13.4013 41.5544 14.4801 41.0067 15.0825 39.1448C15.6849 37.2828 14.4007 34.6733 14.4007 34.6733Z" fill="#56A9AB"/>
<path d="M14.4153 34.6873L14.4454 34.7229L14.4892 34.7777L14.5495 34.8543L14.6234 34.9529L14.7083 35.0734C14.7685 35.161 14.8315 35.2623 14.8972 35.3773C14.9629 35.4923 15.0314 35.6183 15.0971 35.7552C15.1628 35.8949 15.2285 36.0427 15.286 36.2043C15.3485 36.3749 15.4025 36.5485 15.4476 36.7245C15.4722 36.8149 15.4914 36.908 15.5106 36.9983V37.0175C15.5288 37.1124 15.5452 37.2101 15.5598 37.3105C15.3805 36.6658 15.1104 36.0499 14.7576 35.4814C14.7576 35.4814 14.7877 35.6019 14.8233 35.81C14.6968 35.3995 14.5432 34.9979 14.3633 34.6079L14.4153 34.6873Z" fill="#81C5C2"/>
<path d="M12.0992 37.7536C12.1357 37.6477 12.1732 37.5446 12.2115 37.4442L12.2334 37.3922C12.269 37.2991 12.3073 37.2087 12.3484 37.1183L12.3648 37.0827C12.4086 36.9896 12.4525 36.8993 12.4963 36.8089L12.5264 36.7514C12.5729 36.6665 12.6167 36.5844 12.6633 36.505L12.6797 36.4776C12.7235 36.4046 12.7673 36.3334 12.8112 36.264L12.8385 36.223C12.886 36.1518 12.9335 36.0833 12.9809 36.0176L13.011 35.9765L13.1507 35.7931L13.2958 35.6206L13.3259 35.585L13.4628 35.4344L13.4875 35.4097L13.6107 35.2865L13.6298 35.2673L13.7585 35.1496L13.7859 35.1249L13.9064 35.0236L14.0132 34.9388H14.0296L14.1254 34.8676H14.1391L14.224 34.8101C13.6807 35.4577 13.262 36.2004 12.9891 37.0006C12.5199 37.7253 12.1219 38.4937 11.8008 39.2952C11.8008 39.2103 11.8008 39.1254 11.8008 39.0378V38.9912C11.8008 38.9255 11.8008 38.8571 11.8227 38.7914C11.8446 38.7256 11.8227 38.7393 11.8227 38.7147C11.8227 38.69 11.8419 38.5942 11.8555 38.5312L11.8692 38.4573C11.8857 38.3724 11.9076 38.2903 11.9295 38.2054C11.9514 38.1205 11.9979 37.9726 12.0335 37.8631L12.0992 37.7536Z" fill="#81C5C2"/>
<path d="M8.97679 38.0628C8.97679 38.0628 6.6795 39.9056 3.92221 39.1581C3.10247 38.9232 2.34666 38.5055 1.71163 37.9363C1.07659 37.3672 0.578859 36.6615 0.255859 35.8723C0.255859 35.8723 1.96719 34.4649 4.88329 34.9249C7.48177 35.3521 8.97679 38.0628 8.97679 38.0628Z" fill="#81C5C2"/>
<path d="M6.03351 35.2923C5.66751 35.1253 5.2807 35.0084 4.8835 34.9446C1.9674 34.4873 0.256065 35.892 0.256065 35.892C0.687975 36.9285 1.41313 37.8164 2.34252 38.4467C1.78865 37.9452 1.31166 37.3649 0.926906 36.7244C0.926906 36.7244 2.88467 38.4248 5.1491 38.255C3.72753 37.957 2.40707 37.2967 1.31572 36.3383C1.31572 36.3383 4.19623 36.3383 6.29911 37.1132C6.29911 37.1132 4.68635 35.7688 1.53203 35.8345C3.00011 35.4458 4.51513 35.2633 6.03351 35.2923Z" fill="#56E3D3"/>
<path d="M0.255859 35.892C0.578859 36.6812 1.07659 37.3869 1.71163 37.956C2.34666 38.5251 3.10247 38.9428 3.92221 39.1778C6.68224 39.9171 8.97679 38.0825 8.97679 38.0825C8.97679 38.0825 7.47904 35.3717 4.88329 34.9637C2.52029 34.5913 0.945866 35.4456 0.436575 35.7852C1.61348 35.4244 2.86265 35.3678 4.06733 35.6209C5.43997 35.8956 6.68408 36.6144 7.60773 37.6663L1.89326 36.6094C3.48959 37.565 7.54749 38.0935 7.54749 38.0935C7.54749 38.0935 6.47688 38.9532 4.34114 38.726C2.2054 38.4987 0.255859 35.892 0.255859 35.892Z" fill="#56A9AB"/>
<path d="M0.261391 35.9112L0.280558 35.9604L0.310678 36.0344L0.357225 36.1357L0.420203 36.2616L0.499609 36.4095C0.55711 36.5136 0.625563 36.6313 0.704969 36.7573C0.784374 36.8805 0.877471 37.0146 0.978781 37.1488C1.08283 37.2857 1.20057 37.4226 1.32926 37.565C1.46666 37.7125 1.612 37.8523 1.76462 37.984C1.84312 38.0515 1.92526 38.1181 2.01105 38.1838H2.02748C2.11237 38.2496 2.19999 38.3125 2.3013 38.3755C1.74743 37.874 1.27044 37.2937 0.885684 36.6532C0.885684 36.6532 0.989733 36.7436 1.17866 36.8805C0.833348 36.5499 0.511307 36.1958 0.214844 35.8208V35.8345L0.261391 35.9112Z" fill="#81C5C2"/>
<path d="M4.41822 34.8875C4.295 34.8875 4.17452 34.8683 4.05678 34.8628H3.99381H3.67071H3.6269C3.51463 34.8628 3.40511 34.8628 3.29832 34.8628H3.22713L2.91498 34.893H2.88213L2.60831 34.934H2.55355L2.27974 34.9888H2.22224L1.97307 35.0518L1.73211 35.1257L1.68283 35.1421L1.46652 35.2188H1.43092L1.24746 35.2927H1.22008L1.04211 35.3721L1.00651 35.3886L0.847698 35.468L0.710792 35.5419H0.688889L0.571149 35.6104H0.554719L0.456146 35.6733C1.34788 35.4042 2.28345 35.3112 3.2107 35.3995C4.14935 35.2415 5.10171 35.18 6.05288 35.2161C5.968 35.1777 5.88312 35.1421 5.79276 35.1093L5.74347 35.0929L5.53537 35.0217L5.45597 34.997L5.26156 34.945L5.18215 34.9258C5.0918 34.9039 4.9987 34.8875 4.90834 34.8711C4.81798 34.8546 4.63453 34.8355 4.51953 34.8218L4.41822 34.8875Z" fill="#81C5C2"/>
<path d="M12.7605 42.5852C12.7605 42.5852 10.6932 45.3234 7.44308 45.3453C4.19292 45.3672 2.51445 42.8015 2.51445 42.8015C2.51445 42.8015 4.0478 40.7123 7.39927 40.3372C10.392 40.0141 12.7605 42.5852 12.7605 42.5852Z" fill="#81C5C2"/>
<path d="M8.77341 40.3829C8.32111 40.3064 7.86043 40.2926 7.40435 40.3418C4.05015 40.7115 2.51953 42.8062 2.51953 42.8062C3.2654 43.8304 4.30404 44.6046 5.49861 45.0268C4.75362 44.6344 4.07307 44.1302 3.48061 43.5318C3.48061 43.5318 6.09552 44.8379 8.56258 43.9617C6.91808 44.0567 5.27781 43.7137 3.80919 42.9677C3.80919 42.9677 7.00185 42.0833 9.53461 42.3243C9.53461 42.3243 7.39613 41.3111 3.91598 42.3407C3.91871 42.3379 6.331 40.9141 8.77341 40.3829Z" fill="#56E3D3"/>
<path d="M2.52046 42.8042C2.52046 42.8042 4.18798 45.3562 7.44909 45.348C10.7102 45.3398 12.7665 42.5879 12.7665 42.5879C12.7665 42.5879 10.4008 40.014 7.4135 40.3454C4.69727 40.6466 3.17487 42.0759 2.6957 42.6071C3.89487 41.8536 5.26351 41.4121 6.67694 41.3229C8.258 41.2085 9.83095 41.6353 11.1373 42.5332L4.52477 43.0808C6.54551 43.6668 11.1812 43.026 11.1812 43.026C11.1812 43.026 10.2256 44.3458 7.80779 44.7264C5.39002 45.107 2.52046 42.8042 2.52046 42.8042Z" fill="#56A9AB"/>
<path d="M2.53253 42.8209L2.56539 42.8674L2.62015 42.9386L2.69682 43.0591L2.79813 43.1823L2.92408 43.3247C3.01718 43.4233 3.12123 43.5356 3.24444 43.6478C3.36492 43.7628 3.50183 43.8806 3.65242 44.001C3.80302 44.1215 3.97005 44.242 4.15076 44.3597C4.3416 44.4827 4.53904 44.5952 4.7422 44.6965C4.84625 44.7476 4.95395 44.7969 5.0653 44.8444H5.0872C5.19855 44.8919 5.31355 44.9357 5.43221 44.9758C4.68721 44.5834 4.00666 44.0792 3.41421 43.4808C3.41421 43.4808 3.55385 43.5492 3.79754 43.6451C3.32861 43.3801 2.87932 43.0818 2.45312 42.7524V42.7661L2.53253 42.8209Z" fill="#81C5C2"/>
<path d="M6.87425 40.4188C6.73552 40.4425 6.59953 40.469 6.46627 40.4982L6.39508 40.5146C6.27277 40.5438 6.15321 40.5749 6.03638 40.6077H5.9871C5.86388 40.6433 5.7434 40.6817 5.62566 40.7227L5.549 40.7501C5.434 40.7912 5.32173 40.8323 5.21221 40.8761L5.17661 40.8925L4.88911 41.0349L4.83161 41.0623L4.5578 41.2047L4.50029 41.2375L4.24017 41.3826H4.22648L3.97731 41.5387L3.92803 41.5716L3.70898 41.7222L3.67338 41.7495L3.48993 41.8865L3.46254 41.9084L3.28457 42.0535L3.24897 42.0836L3.0929 42.2205L2.96147 42.3437L2.93956 42.3629L2.8273 42.4752L2.81087 42.4916L2.71777 42.5902C3.62873 42.0185 4.64101 41.6272 5.69959 41.4374C6.69485 40.9773 7.73429 40.6195 8.80189 40.3695C8.69784 40.3531 8.59379 40.3394 8.48701 40.3284H8.42677L8.1776 40.312H7.75867C7.65188 40.312 7.54509 40.312 7.43557 40.3367C7.28223 40.3531 7.13437 40.375 6.98925 40.3996L6.87425 40.4188Z" fill="#81C5C2"/>
<path d="M49.9772 45.468C50.016 45.4766 50.0562 45.4766 50.0949 45.468C58.2518 43.0639 60.9899 36.8373 61.951 32.1359C62.577 28.9554 62.577 25.6835 61.951 22.503C61.9182 22.3332 61.888 22.1881 61.7265 22.2292C61.5649 22.2703 61.5239 22.4674 61.5567 22.6372C62.0361 25.7564 61.9703 28.9351 61.3623 32.0318C60.0124 38.6034 56.0832 42.7819 49.7746 44.6411C49.7263 44.6604 49.6823 44.689 49.6451 44.7254C49.6079 44.7617 49.5783 44.8051 49.5579 44.8529C49.5376 44.9007 49.5269 44.9521 49.5265 45.0041C49.5261 45.0561 49.5359 45.1077 49.5555 45.1559C49.5881 45.2431 49.6453 45.319 49.7202 45.3744C49.795 45.4298 49.8843 45.4623 49.9772 45.468Z" fill="#56A9AB"/>
<path d="M62.061 28.8669C62.061 28.8669 64.2652 26.6079 64.0078 23.4782C63.9469 22.5829 63.6815 21.7136 63.2319 20.937C62.7824 20.1604 62.1608 19.4973 61.4148 18.9985C61.4148 18.9985 59.7391 20.6798 59.6898 23.9409C59.6515 26.8434 62.061 28.8669 62.061 28.8669Z" fill="#81C5C2"/>
<path d="M59.8379 25.2498C59.736 24.8211 59.6872 24.3815 59.6928 23.9409C59.7394 20.6798 61.4178 18.9985 61.4178 18.9985C62.3892 19.6411 63.1426 20.5635 63.5782 21.6436C63.1846 20.9743 62.6916 20.3686 62.1161 19.8474C62.1161 19.8474 63.455 22.2323 62.9019 24.6912C62.854 23.1214 62.4275 21.5865 61.6588 20.217C61.6588 20.217 61.1577 23.3769 61.5684 25.7919C61.5684 25.7919 60.5197 23.8341 61.1249 20.3868C60.4953 21.948 60.063 23.5816 59.8379 25.2498Z" fill="#56E3D3"/>
<path d="M61.415 18.9956C62.1609 19.4943 62.7826 20.1575 63.2321 20.9341C63.6816 21.7107 63.9471 22.58 64.008 23.4752C64.2654 26.605 62.0612 28.864 62.0612 28.864C62.0612 28.864 59.6489 26.8432 59.69 23.9353C59.7283 21.2929 60.8372 19.6884 61.2562 19.1736C60.6983 20.4179 60.4305 21.7727 60.4731 23.1357C60.4888 24.6397 60.9816 26.0999 61.8805 27.3059L61.8175 20.8822C62.4856 22.7688 62.3131 27.2895 62.3131 27.2895C62.3131 27.2895 63.3727 26.2408 63.5042 23.8778C63.6356 21.5147 61.415 18.9956 61.415 18.9956Z" fill="#56A9AB"/>
<path d="M61.4328 19.0066L61.4767 19.0339L61.5451 19.0778L61.6382 19.1435L61.7532 19.2283L61.8846 19.3351C61.9777 19.4145 62.0818 19.5049 62.1913 19.609C62.3008 19.7157 62.4131 19.8335 62.5308 19.9677C62.6458 20.1018 62.7636 20.2415 62.8813 20.4112C63.0044 20.5875 63.1177 20.7703 63.2208 20.9589C63.2729 21.0547 63.3249 21.1533 63.3742 21.2546V21.2738C63.4235 21.376 63.4709 21.4819 63.5166 21.5914C63.1371 20.9445 62.6647 20.3569 62.1146 19.8472C62.1146 19.8472 62.1858 19.9759 62.2871 20.2004C62.023 19.7786 61.7293 19.3759 61.4082 18.9956L61.4328 19.0066Z" fill="#81C5C2"/>
<path d="M59.7137 23.4169C59.7137 23.28 59.7356 23.1431 59.7493 23.0171V22.9487C59.7639 22.8282 59.7804 22.7105 59.7986 22.5955V22.5489C59.8205 22.4257 59.8424 22.3052 59.8671 22.1902L59.8835 22.1135C59.9081 21.9985 59.9355 21.8863 59.9656 21.7767V21.7411C59.993 21.6398 60.0231 21.5413 60.0533 21.4454L60.0724 21.3879C60.1053 21.2893 60.1381 21.1908 60.1737 21.0977L60.1956 21.0374C60.2312 20.9471 60.2641 20.8567 60.2997 20.7636V20.7499C60.3353 20.6623 60.3736 20.5774 60.412 20.4953L60.4366 20.4433C60.4749 20.3638 60.5105 20.2899 60.5489 20.2187L60.568 20.1804C60.6036 20.1147 60.6365 20.0517 60.6721 19.9915L60.6885 19.9613L60.798 19.7779L60.8199 19.7395L60.9267 19.5753L61.0226 19.4356L61.039 19.4137L61.1266 19.2932V19.2768L61.206 19.1782C60.7833 20.1207 60.5285 21.1299 60.453 22.1601C60.1361 23.167 59.9125 24.2009 59.7849 25.2487C59.7612 25.1502 59.7411 25.0507 59.7247 24.9503C59.7247 24.9311 59.7247 24.9119 59.7247 24.8928C59.7247 24.8134 59.7 24.734 59.6891 24.6546V24.5642C59.6891 24.4912 59.6827 24.4172 59.6699 24.3424C59.6699 24.3123 59.6699 24.2822 59.6699 24.252C59.6699 24.148 59.6699 24.0467 59.6699 23.9399C59.6699 23.792 59.6699 23.6469 59.6863 23.5045C59.7083 23.4744 59.711 23.447 59.7137 23.4169Z" fill="#81C5C2"/>
<path d="M61.4424 33.5214C61.4424 33.5214 63.8793 34.132 65.8234 32.5411C66.3993 32.0628 66.8635 31.4641 67.1833 30.7872C67.5031 30.1102 67.6707 29.3714 67.6744 28.6228C67.6744 28.6228 65.848 28.1409 63.6712 29.5675C61.7463 30.838 61.4424 33.5214 61.4424 33.5214Z" fill="#81C5C2"/>
<path d="M62.8789 30.2629C63.1152 29.9975 63.3849 29.7637 63.6812 29.5675C65.858 28.1409 67.6843 28.6228 67.6843 28.6228C67.6797 29.6075 67.3947 30.5705 66.8629 31.3993C67.1393 30.8042 67.3293 30.1725 67.4269 29.5236C67.4269 29.5236 66.422 31.58 64.5601 32.2618C65.5963 31.5026 66.4288 30.4989 66.9834 29.3402C66.9834 29.3402 64.6806 30.3834 63.2622 31.7717C63.2622 31.7717 64.1083 30.1288 66.6438 29.0335C65.3387 29.2699 64.072 29.6835 62.8789 30.2629Z" fill="#56E3D3"/>
<path d="M67.689 28.6221C67.6854 29.3707 67.5177 30.1095 67.198 30.7864C66.8782 31.4634 66.414 32.0621 65.838 32.5404C63.8803 34.1312 61.457 33.5206 61.457 33.5206C61.457 33.5206 61.761 30.8372 63.6996 29.5667C65.4629 28.4112 66.9853 28.507 67.5165 28.5865C66.4498 28.7356 65.4366 29.1467 64.5675 29.783C63.5535 30.4974 62.7915 31.5143 62.3907 32.6882L66.602 29.7666C65.6409 31.1028 62.5797 33.0031 62.5797 33.0031C62.5797 33.0031 63.7269 33.3153 65.3452 32.3514C66.9634 31.3876 67.689 28.6221 67.689 28.6221Z" fill="#56A9AB"/>
<path d="M67.6887 28.6414C67.6887 28.6414 67.6887 28.6661 67.6887 28.6852C67.6887 28.7044 67.6887 28.7291 67.6887 28.7537C67.6887 28.7537 67.6887 28.8139 67.6887 28.8523C67.6887 28.8906 67.6887 28.9289 67.6887 28.9755C67.6887 29.0193 67.6887 29.0686 67.6887 29.1206C67.6887 29.2247 67.6613 29.3424 67.6367 29.4684C67.6147 29.5943 67.5846 29.7422 67.5463 29.8791C67.508 30.0242 67.4614 30.1775 67.4012 30.3364C67.3404 30.5033 67.271 30.6669 67.1931 30.8265C67.1529 30.9086 67.1091 30.9908 67.0616 31.0729V31.0894C67.0151 31.1715 66.9658 31.2536 66.911 31.3358C67.1875 30.7407 67.3774 30.1091 67.4751 29.4601C67.4751 29.4601 67.4203 29.5697 67.3163 29.734C67.4822 29.3485 67.6222 28.9525 67.7352 28.5483V28.5648L67.6887 28.6414Z" fill="#81C5C2"/>
<path d="M64.034 29.3494C64.1271 29.2946 64.2184 29.2444 64.3078 29.1988L64.3571 29.1741L64.6118 29.0537L64.6474 29.0372L64.9212 28.9277L64.9787 28.9058L65.2361 28.8154H65.2634L65.4962 28.747H65.5427L65.7782 28.6895H65.8275L66.0466 28.6484L66.2629 28.6183H66.3067L66.5038 28.5991H66.5367H66.7064H66.9364H67.0898H67.2239H67.2459H67.3636H67.38H67.4786C66.6717 28.7116 65.8938 28.9774 65.1868 29.3822C64.3831 29.6014 63.6034 29.9004 62.8594 30.2749C62.9141 30.2146 62.9716 30.1544 63.0319 30.0969L63.0647 30.064L63.2071 29.9326L63.2619 29.8833L63.4015 29.7711L63.459 29.7245C63.5247 29.6752 63.5932 29.6259 63.6644 29.5794C63.7356 29.5328 63.8615 29.4534 63.9601 29.3987L64.034 29.3494Z" fill="#81C5C2"/>
<path d="M61.3915 33.4177C61.3915 33.4177 59.2831 32.9385 58.3631 30.9533C58.0955 30.3644 57.9593 29.7243 57.964 29.0774C57.9687 28.4305 58.1143 27.7925 58.3905 27.2075C58.3905 27.2075 59.9814 27.5471 61.1286 29.4994C62.1527 31.2299 61.3915 33.4177 61.3915 33.4177Z" fill="#81C5C2"/>
<path d="M61.4891 30.3423C61.4046 30.0454 61.2832 29.7602 61.1276 29.4935C59.9776 27.5439 58.3895 27.2017 58.3895 27.2017C58.0269 27.969 57.8901 28.8238 57.9952 29.666C58.0068 29.1 58.099 28.5385 58.269 27.9985C58.269 27.9985 58.269 29.9782 59.4601 31.2377C58.9431 30.25 58.6735 29.1516 58.6743 28.0368C58.6743 28.0368 60.0625 29.7399 60.643 31.3637C60.643 31.3637 60.6019 29.7618 59.0521 27.9218C59.969 28.6161 60.7886 29.4302 61.4891 30.3423Z" fill="#56E3D3"/>
<path d="M58.3874 27.2017C58.1112 27.7866 57.9656 28.4247 57.9609 29.0715C57.9562 29.7184 58.0924 30.3586 58.36 30.9475C59.2801 32.9409 61.3884 33.4118 61.3884 33.4118C61.3884 33.4118 62.1496 31.2213 61.1146 29.4853C60.1836 27.9054 58.9624 27.3796 58.5326 27.24C59.3023 27.7732 59.931 28.4855 60.3644 29.3155C60.8737 30.2579 61.0775 31.3354 60.9476 32.3987L58.7817 28.4996C59.0254 29.907 60.6984 32.5657 60.6984 32.5657C60.6984 32.5657 59.6963 32.3576 58.8064 30.9858C57.9165 29.614 58.3874 27.2017 58.3874 27.2017Z" fill="#56A9AB"/>
<path d="M58.3836 27.2143L58.3672 27.2499L58.3426 27.3046L58.3097 27.3813L58.2714 27.4799L58.2276 27.5976C58.1975 27.6825 58.1673 27.7783 58.1372 27.8878C58.1071 27.9946 58.0797 28.1124 58.0551 28.2411C58.0304 28.3698 58.0113 28.5149 57.9976 28.6491C57.9821 28.8019 57.9747 28.9555 57.9757 29.1091C57.9757 29.1885 57.9757 29.2679 57.9757 29.35C57.9757 29.35 57.9757 29.35 57.9757 29.3665C57.9757 29.4486 57.9757 29.5307 58.0003 29.6156C58.0119 29.0496 58.104 28.4881 58.2741 27.9481C58.2741 27.9481 58.2741 28.0549 58.2905 28.2219C58.3048 27.8601 58.3432 27.4997 58.4056 27.1431L58.3836 27.2143Z" fill="#81C5C2"/>
<path d="M60.9362 29.1891C60.8842 29.1097 60.8295 29.0357 60.7774 28.9618L60.7473 28.9235C60.698 28.855 60.646 28.792 60.594 28.7291L60.5721 28.7044C60.5173 28.6387 60.4626 28.5757 60.4078 28.5155L60.3722 28.4771L60.2079 28.3074L60.1997 28.2745L60.0464 28.1294L60.0135 28.102L59.8547 27.9678L59.8218 27.9405L59.6685 27.8227L59.5124 27.7132L59.4796 27.6913L59.3344 27.6009L59.3098 27.5872L59.1811 27.5133H59.1619L59.0332 27.4449H59.0059L58.8854 27.3874L58.7786 27.3408H58.7622L58.6663 27.3052H58.6527L58.5732 27.2778C59.1553 27.6804 59.6568 28.1884 60.0518 28.7756C60.5909 29.2588 61.0816 29.7934 61.5167 30.372C61.4976 30.3035 61.4757 30.2351 61.451 30.1666V30.1283C61.4318 30.0762 61.4127 30.0242 61.3908 29.9722L61.3661 29.9119C61.3442 29.8654 61.3223 29.8189 61.3004 29.7696L61.273 29.7121C61.2402 29.6463 61.2073 29.5834 61.169 29.5204C61.1307 29.4574 61.0649 29.3479 61.0102 29.2657L60.9362 29.1891Z" fill="#81C5C2"/>
<path d="M59.4147 38.2009C59.4147 38.2009 57.0763 37.6697 56.055 35.4627C55.757 34.8095 55.6053 34.0991 55.6105 33.3811C55.6157 32.6631 55.7777 31.955 56.0851 31.3062C56.0851 31.3062 57.8485 31.684 59.1245 33.8472C60.2608 35.7721 59.4147 38.2009 59.4147 38.2009Z" fill="#81C5C2"/>
<path d="M59.5281 34.7871C59.4351 34.4576 59.3008 34.1411 59.1283 33.8452C57.8524 31.6821 56.089 31.3042 56.089 31.3042C55.6854 32.1566 55.5334 33.1066 55.6509 34.0424C55.6594 33.4156 55.7571 32.7933 55.9411 32.1941C55.9411 32.1941 55.9411 34.3846 57.2609 35.7893C56.6862 34.691 56.3873 33.4693 56.3902 32.2297C56.3902 32.2297 57.9318 34.119 58.5807 35.9207C58.5807 35.9207 58.5369 34.1437 56.8173 32.1037C57.8368 32.873 58.7485 33.7755 59.5281 34.7871Z" fill="#56E3D3"/>
<path d="M56.0939 31.3032C55.7865 31.952 55.6245 32.6602 55.6193 33.3782C55.6141 34.0961 55.7658 34.8066 56.0638 35.4598C57.0851 37.6695 59.4235 38.1979 59.4235 38.1979C59.4235 38.1979 60.2668 35.7692 59.1333 33.8415C58.101 32.0891 56.7456 31.5086 56.2692 31.3498C57.1226 31.9406 57.8199 32.7299 58.3009 33.6498C58.8656 34.6953 59.0914 35.8904 58.9471 37.0698L56.5457 32.7462C56.8195 34.307 58.6568 37.2587 58.6568 37.2587C58.6568 37.2587 57.5479 37.0287 56.5567 35.5063C55.5655 33.9839 56.0939 31.3032 56.0939 31.3032Z" fill="#56A9AB"/>
<path d="M56.0914 31.3189L56.0723 31.3572L56.0449 31.4175L56.0065 31.5023L55.9627 31.6091C55.9463 31.6502 55.9326 31.694 55.9135 31.7406C55.8806 31.8337 55.845 31.9432 55.8149 32.0609C55.782 32.1814 55.7519 32.3101 55.7245 32.4525C55.6971 32.5949 55.6752 32.7455 55.6588 32.907C55.6428 33.0763 55.6354 33.2463 55.6369 33.4163C55.6369 33.5039 55.6369 33.5943 55.6369 33.6901V33.7504C55.6369 33.8417 55.646 33.9329 55.6643 34.0242C55.6728 33.3975 55.7705 32.7751 55.9545 32.1759C55.9545 32.1759 55.9545 32.2937 55.971 32.4908C55.9872 32.0886 56.0302 31.688 56.0996 31.2915L56.0914 31.3189Z" fill="#81C5C2"/>
<path d="M58.9121 33.5065C58.8546 33.4189 58.7944 33.3368 58.7342 33.2546L58.7013 33.2108C58.6447 33.136 58.5881 33.0648 58.5316 32.9972L58.5096 32.9671C58.4494 32.8932 58.3864 32.8247 58.3262 32.7563L58.2851 32.7125L58.1017 32.5235L58.0798 32.5044L57.91 32.3456L57.8744 32.3154L57.6964 32.1648L57.6581 32.1347L57.4883 32.0033L57.3158 31.8828L57.2802 31.8582L57.1187 31.7569L57.0913 31.7404L56.9489 31.6583H56.927L56.7846 31.5844L56.7545 31.5707L56.6203 31.5077L56.5026 31.4584H56.4834L56.3794 31.4173H56.363L56.2726 31.3872C56.9194 31.8336 57.4766 32.3974 57.9155 33.0493C58.5135 33.5852 59.0573 34.1786 59.5392 34.8209C59.5173 34.7442 59.4926 34.6703 59.468 34.5936L59.4543 34.5525C59.4324 34.495 59.4105 34.4348 59.3858 34.3773L59.3585 34.3116C59.3366 34.2595 59.3119 34.2075 59.2873 34.1555L59.2572 34.0925C59.2216 34.0213 59.1832 33.9501 59.1422 33.8817C59.1011 33.8132 59.0244 33.69 58.9642 33.6079L58.9121 33.5065Z" fill="#81C5C2"/>
<path d="M55.3633 42.749C55.3633 42.749 53.1043 41.536 52.658 38.9594C52.5283 38.2032 52.565 37.4278 52.7655 36.6873C52.966 35.9468 53.3255 35.2588 53.819 34.6714C53.819 34.6714 55.5303 35.564 56.2504 38.1625C56.8911 40.479 55.3633 42.749 55.3633 42.749Z" fill="#81C5C2"/>
<path d="M56.4024 39.251C56.3967 38.8808 56.3443 38.5128 56.2464 38.1557C55.5235 35.5572 53.8149 34.6646 53.8149 34.6646C53.1679 35.4324 52.7538 36.3691 52.6211 37.3644C52.7999 36.7196 53.0701 36.1036 53.4234 35.5353C53.4234 35.5353 52.8401 37.808 53.804 39.6261C53.5119 38.3335 53.5353 36.9895 53.8724 35.7078C53.8724 35.7078 54.943 38.101 55.1128 40.1436C55.1128 40.1436 55.5509 38.2926 54.3379 35.6968C55.1804 36.7849 55.8747 37.9801 56.4024 39.251Z" fill="#56E3D3"/>
<path d="M53.8129 34.6733C53.3206 35.2598 52.9618 35.9464 52.7613 36.6854C52.5608 37.4244 52.5235 38.1982 52.6519 38.9531C53.0983 41.527 55.3572 42.7427 55.3572 42.7427C55.3572 42.7427 56.8851 40.4728 56.2444 38.159C55.6584 36.0534 54.4263 35.0676 53.9772 34.7692C54.6951 35.6235 55.1974 36.6377 55.4421 37.7264C55.7365 38.9644 55.6409 40.2633 55.1683 41.4448L53.8759 36.2916C53.7308 37.981 54.8178 41.5544 54.8178 41.5544C54.8178 41.5544 53.739 41.0067 53.1366 39.1448C52.5342 37.2828 53.8129 34.6733 53.8129 34.6733Z" fill="#56A9AB"/>
<path d="M53.7994 34.6873L53.7693 34.7229L53.7228 34.7777L53.6625 34.8543L53.5886 34.9529L53.5037 35.0734C53.4435 35.161 53.3805 35.2623 53.3148 35.3773C53.2491 35.4923 53.1806 35.6183 53.1149 35.7552C53.0492 35.8949 52.9835 36.0427 52.9232 36.2043C52.8605 36.3748 52.8066 36.5485 52.7617 36.7245C52.737 36.8149 52.7179 36.908 52.6987 36.9983V37.0175C52.6804 37.1124 52.664 37.2101 52.6494 37.3105C52.8283 36.6657 53.0984 36.0497 53.4517 35.4814C53.4517 35.4814 53.4216 35.6019 53.3832 35.81C53.5098 35.3996 53.6635 34.998 53.8432 34.6079L53.7994 34.6873Z" fill="#81C5C2"/>
<path d="M56.117 37.7544C56.0805 37.6485 56.043 37.5454 56.0047 37.445L55.9828 37.393C55.9445 37.2999 55.9061 37.2095 55.8678 37.1191L55.8514 37.0835C55.8076 36.9904 55.7638 36.9001 55.72 36.8097L55.6898 36.7522C55.646 36.6673 55.5995 36.5852 55.5529 36.5058L55.5447 36.4894C55.5009 36.4163 55.4571 36.3451 55.4133 36.2758L55.3859 36.2347C55.3394 36.1635 55.2928 36.0951 55.2435 36.0293L55.2134 35.9883L55.0738 35.8048L54.9286 35.6323L54.8985 35.5967L54.7616 35.4461L54.7233 35.3941L54.6001 35.2709L54.5809 35.2517L54.4522 35.134L54.4276 35.1093L54.3071 35.008L54.2003 34.9231H54.1839L54.088 34.8519H54.0743L53.9922 34.7944C54.5356 35.4421 54.9542 36.1848 55.2271 36.985C55.6963 37.7097 56.0943 38.4781 56.4154 39.2796C56.4154 39.1947 56.4154 39.1098 56.4154 39.0222V38.9537C56.4154 38.888 56.4154 38.8195 56.3935 38.7538C56.3716 38.6881 56.3935 38.7018 56.3935 38.6772C56.3935 38.6525 56.3744 38.5567 56.3634 38.4937C56.3525 38.4307 56.3634 38.4444 56.3497 38.4198C56.3333 38.3349 56.3114 38.2527 56.2895 38.1679C56.2676 38.083 56.221 37.9351 56.1854 37.8256L56.117 37.7544Z" fill="#81C5C2"/>
<path d="M59.2373 38.0628C59.2373 38.0628 61.5346 39.9056 64.2919 39.1581C65.1116 38.9232 65.8674 38.5055 66.5025 37.9363C67.1375 37.3672 67.6352 36.6615 67.9582 35.8723C67.9582 35.8723 66.2469 34.4649 63.3281 34.9249C60.746 35.3521 59.2373 38.0628 59.2373 38.0628Z" fill="#81C5C2"/>
<path d="M62.1828 35.2923C62.5488 35.1253 62.9356 35.0083 63.3328 34.9446C66.2489 34.4873 67.963 35.892 67.963 35.892C67.5311 36.9285 66.8059 37.8164 65.8765 38.4467C66.4303 37.9451 66.9073 37.3648 67.2921 36.7244C67.2921 36.7244 65.3344 38.4248 63.0699 38.255C64.4915 37.9569 65.8119 37.2966 66.9033 36.3383C66.9033 36.3383 64.0228 36.3383 61.9199 37.1132C61.9199 37.1132 63.5327 35.7688 66.6843 35.8345C65.2162 35.4457 63.7012 35.2633 62.1828 35.2923Z" fill="#56E3D3"/>
<path d="M67.9573 35.892C67.6343 36.6812 67.1365 37.3869 66.5015 37.956C65.8665 38.5251 65.1107 38.9428 64.2909 39.1778C61.5309 39.9171 59.2363 38.0825 59.2363 38.0825C59.2363 38.0825 60.7341 35.3717 63.3435 34.9637C65.7065 34.5913 67.2782 35.4456 67.7902 35.7852C66.6133 35.4244 65.3642 35.3678 64.1595 35.6209C62.7869 35.8958 61.5429 36.6145 60.6191 37.6663L66.3336 36.6094C64.7372 37.565 60.6793 38.0935 60.6793 38.0935C60.6793 38.0935 61.7499 38.9861 63.8747 38.7506C65.9995 38.5151 67.9573 35.892 67.9573 35.892Z" fill="#56A9AB"/>
<path d="M67.9528 35.9121L67.9336 35.9614L67.9008 36.0354L67.8542 36.1367L67.7913 36.2626L67.7118 36.4105C67.6543 36.5145 67.5859 36.6323 67.5065 36.7582C67.4271 36.8814 67.334 37.0156 67.2327 37.1498C67.1286 37.2867 67.0109 37.4236 66.8822 37.566C66.7447 37.7133 66.5993 37.8532 66.4468 37.9849C66.3683 38.0525 66.2862 38.1191 66.2004 38.1848H66.184C66.0991 38.2505 66.0115 38.3135 65.9102 38.3765C66.4639 37.8749 66.9409 37.2946 67.3258 36.6542C67.3258 36.6542 67.2217 36.7445 67.0328 36.8814C67.3779 36.5507 67.6999 36.1966 67.9966 35.8218V35.8355L67.9528 35.9121Z" fill="#81C5C2"/>
<path d="M63.7999 34.8885C63.9231 34.8885 64.0436 34.8693 64.1613 34.8638H64.2243H64.5474H64.5803C64.6925 34.8638 64.8021 34.8638 64.9089 34.8638H64.98L65.2922 34.8939H65.325L65.5989 34.935H65.6536L65.9274 34.9898H65.9849L66.2341 35.0528L66.4751 35.1267L66.5243 35.1431L66.7407 35.2198H66.7762L66.9597 35.2937H66.9871L67.1651 35.3731L67.2007 35.3896L67.3595 35.469L67.4964 35.5429H67.5183L67.636 35.6113H67.6525L67.751 35.6743C66.8593 35.4052 65.9237 35.3122 64.9965 35.4005C64.0578 35.2425 63.1055 35.181 62.1543 35.217C62.2392 35.1787 62.3241 35.1431 62.4117 35.1103L62.461 35.0938L62.6691 35.0226L62.7485 34.998L62.9429 34.946L63.0223 34.9268C63.1126 34.9049 63.2057 34.8885 63.2961 34.872C63.3864 34.8556 63.5699 34.8364 63.6849 34.8228L63.7999 34.8885Z" fill="#81C5C2"/>
<path d="M55.456 42.5852C55.456 42.5852 57.5205 45.3234 60.7734 45.3453C64.0263 45.3672 65.702 42.8015 65.702 42.8015C65.702 42.8015 64.1687 40.7123 60.8172 40.3372C57.8217 40.0141 55.456 42.5852 55.456 42.5852Z" fill="#81C5C2"/>
<path d="M59.4437 40.3819C59.896 40.3054 60.3566 40.2916 60.8127 40.3409C64.1669 40.7105 65.6975 42.8052 65.6975 42.8052C64.9517 43.8294 63.913 44.6036 62.7185 45.0259C63.4634 44.6334 64.144 44.1292 64.7365 43.5308C64.7365 43.5308 62.1161 44.8342 59.6518 43.958C61.2962 44.053 62.9365 43.7101 64.4051 42.964C64.4051 42.964 61.2125 42.0796 58.6797 42.3206C58.6797 42.3206 60.8182 41.3074 64.2984 42.337C64.3066 42.337 61.8833 40.9132 59.4437 40.3819Z" fill="#56E3D3"/>
<path d="M65.6943 42.8042C65.6943 42.8042 64.0268 45.3562 60.7657 45.348C57.5046 45.3398 55.4482 42.5879 55.4482 42.5879C55.4482 42.5879 57.814 40.014 60.8013 40.3454C63.5202 40.6466 65.0399 42.0759 65.5191 42.6071C64.3202 41.853 62.9514 41.4114 61.5378 41.3229C59.9568 41.2087 58.3839 41.6355 57.0774 42.5332L63.69 43.0808C61.6693 43.6668 57.0336 43.026 57.0336 43.026C57.0336 43.026 57.9892 44.3458 60.4043 44.7264C62.8193 45.107 65.6943 42.8042 65.6943 42.8042Z" fill="#56A9AB"/>
<path d="M65.6759 42.8215L65.643 42.8681L65.5882 42.9392L65.5088 43.0406L65.4075 43.1638L65.2816 43.3062C65.1885 43.4047 65.0844 43.517 64.9612 43.6293C64.8407 43.7443 64.7038 43.862 64.5532 43.9825C64.4026 44.103 64.2356 44.2234 64.0549 44.3412C63.8641 44.4643 63.6667 44.5768 63.4635 44.678C63.3594 44.7291 63.2517 44.7784 63.1403 44.8258H63.1184C63.0071 44.8733 62.8921 44.9171 62.7734 44.9573C63.5184 44.5648 64.199 44.0606 64.7914 43.4622C64.7914 43.4622 64.6518 43.5307 64.4081 43.6265C64.8771 43.3616 65.3264 43.0633 65.7525 42.7339V42.7476L65.6759 42.8215Z" fill="#81C5C2"/>
<path d="M61.3382 40.4198C61.4751 40.4444 61.612 40.4718 61.7434 40.4992L61.8146 40.5156C61.9369 40.5448 62.0565 40.5759 62.1733 40.6087H62.2226C62.3458 40.6443 62.4663 40.6827 62.584 40.7237L62.6607 40.7511C62.7757 40.7922 62.8907 40.8333 62.9975 40.8771L63.0331 40.8935L63.3288 41.0222L63.3863 41.0496L63.6601 41.192L63.7176 41.2248L63.9777 41.3699H63.9914L64.2406 41.526L64.2899 41.5589L64.5089 41.7095L64.5445 41.7369L64.728 41.8738L64.7554 41.8957L64.9333 42.0408L64.9689 42.0709L65.125 42.2078L65.2564 42.331L65.2783 42.3502L65.3906 42.4625L65.407 42.4789L65.5001 42.5775C64.5892 42.0058 63.5769 41.6144 62.5183 41.4247C61.523 40.9646 60.4836 40.6068 59.416 40.3568C59.5201 40.3404 59.6241 40.3267 59.7309 40.3157H59.7884L60.0376 40.2993H60.4702C60.577 40.2993 60.6838 40.2993 60.7906 40.324C60.9439 40.3404 61.0917 40.3623 61.2369 40.3869L61.3382 40.4198Z" fill="#81C5C2"/>
<path d="M33.5275 19.7857H31.1562V18.3317C31.8232 18.3075 32.4771 18.1394 33.0729 17.8388C33.5295 17.6095 33.9099 17.2529 34.1682 16.812H35.6303V30.6425H33.5357L33.5275 19.7857Z" fill="#4A4381"/>
<path d="M32.5984 18.0444C32.1334 18.2081 31.6476 18.305 31.1554 18.3319V19.7859H32.5984V18.0444Z" fill="#7E6DAC"/>
<path d="M33.5254 27.7759V30.64H35.3681C34.6118 29.7846 33.9904 28.8187 33.5254 27.7759Z" fill="#7E6DAC"/>
</svg>
