<svg width="46" height="58" viewBox="0 0 46 58" fill="none" xmlns="http://www.w3.org/2000/svg">
<path d="M22.2524 22.117C21.9982 20.9002 22.8814 19.6512 24.1244 19.6512C25.3675 19.6512 26.2507 20.9002 25.9965 22.117C25.758 23.2585 25.6023 24.5895 25.8332 25.632C26.4806 28.555 29.2508 31.6128 29.2508 31.6128H18.998C18.998 31.6128 21.7682 28.555 22.4156 25.632C22.6466 24.5895 22.4909 23.2585 22.2524 22.117Z" fill="#F6B307"/>
<path fill-rule="evenodd" clip-rule="evenodd" d="M30.0318 31.9591C29.8949 32.2681 29.5887 32.4672 29.2508 32.4672H18.998C18.6601 32.4672 18.3539 32.2681 18.2169 31.9591C18.08 31.6503 18.1379 31.2898 18.3646 31.0394L18.998 31.6128H29.2508C29.2508 31.6128 28.96 31.2918 28.5448 30.7584C27.6785 29.6455 26.2708 27.6079 25.8332 25.632C25.6022 24.5894 25.758 23.2585 25.9964 22.1169C26.2506 20.9002 25.3674 19.6512 24.1244 19.6512C22.8813 19.6512 21.9981 20.9002 22.2523 22.1169C22.4908 23.2585 22.6465 24.5894 22.4156 25.632C21.9779 27.6079 20.5702 29.6455 19.704 30.7584C19.2888 31.2918 18.998 31.6128 18.998 31.6128M18.3646 31.0394L18.3695 31.034L18.3894 31.0116C18.4075 30.9911 18.4352 30.9596 18.4712 30.9178C18.5432 30.8342 18.6485 30.7098 18.7776 30.5508C19.0362 30.2323 19.3881 29.7776 19.759 29.2359C20.5133 28.134 21.2934 26.7473 21.5814 25.4473C21.7711 24.5909 21.6496 23.41 21.416 22.2917C21.0675 20.6238 22.2608 18.7968 24.1244 18.7968C25.988 18.7968 27.1812 20.6238 26.8328 22.2917C26.5992 23.41 26.4777 24.5909 26.6674 25.4473C26.9553 26.7473 27.7354 28.134 28.4898 29.2359C28.8606 29.7776 29.2125 30.2323 29.4711 30.5508C29.6002 30.7098 29.7055 30.8342 29.7776 30.9178C29.8136 30.9596 29.8412 30.9911 29.8594 31.0116L29.8793 31.034L29.884 31.0392C30.1107 31.2896 30.1688 31.6503 30.0318 31.9591" fill="#5B3303"/>
<path fill-rule="evenodd" clip-rule="evenodd" d="M27.5422 31.6128H29.251C29.251 31.6128 26.4808 28.555 25.8334 25.632C25.6025 24.5895 25.7582 23.2585 25.9967 22.117C26.2509 20.9002 25.3676 19.6512 24.1246 19.6512C23.8436 19.6512 23.581 19.7151 23.3457 19.8279C23.972 20.1253 24.2879 20.8239 24.2879 22.117C24.2879 23.744 24.3209 26.0847 24.5518 27.1272C25.1992 30.0502 27.5422 31.6128 27.5422 31.6128Z" fill="#C18B00"/>
<path fill-rule="evenodd" clip-rule="evenodd" d="M22.7331 27.1401C22.962 27.1973 23.1012 27.4292 23.044 27.6581C22.8158 28.5706 22.3645 29.4698 21.917 30.1411C21.7861 30.3374 21.5209 30.3904 21.3246 30.2595C21.1282 30.1287 21.0752 29.8634 21.2061 29.6671C21.6129 29.0568 22.016 28.2471 22.2151 27.4509C22.2723 27.222 22.5042 27.0828 22.7331 27.1401Z" fill="#FFCB43"/>
<path fill-rule="evenodd" clip-rule="evenodd" d="M36.5127 12.8159C39.108 12.8159 41.2119 10.712 41.2119 8.11668C41.2119 5.52138 39.108 3.41748 36.5127 3.41748C33.9174 3.41748 31.8135 5.52138 31.8135 8.11668C31.8135 10.712 33.9174 12.8159 36.5127 12.8159ZM36.5127 10.6799C37.9283 10.6799 39.0759 9.53229 39.0759 8.11668C39.0759 6.70106 37.9283 5.55348 36.5127 5.55348C35.0971 5.55348 33.9495 6.70106 33.9495 8.11668C33.9495 9.53229 35.0971 10.6799 36.5127 10.6799Z" fill="#F6B307"/>
<path fill-rule="evenodd" clip-rule="evenodd" d="M42.0667 8.11683C42.0667 11.184 39.5802 13.6704 36.5131 13.6704C33.4459 13.6704 30.9595 11.184 30.9595 8.11683C30.9595 5.04966 33.4459 2.56323 36.5131 2.56323C39.5802 2.56323 42.0667 5.04966 42.0667 8.11683ZM36.5131 9.82563C37.4568 9.82563 38.2219 9.06058 38.2219 8.11683C38.2219 7.17309 37.4568 6.40803 36.5131 6.40803C35.5693 6.40803 34.8043 7.17309 34.8043 8.11683C34.8043 9.06058 35.5693 9.82563 36.5131 9.82563ZM41.2123 8.11683C41.2123 10.7121 39.1084 12.816 36.5131 12.816C33.9178 12.816 31.8139 10.7121 31.8139 8.11683C31.8139 5.52154 33.9178 3.41763 36.5131 3.41763C39.1084 3.41763 41.2123 5.52154 41.2123 8.11683ZM39.0763 8.11683C39.0763 9.53245 37.9287 10.68 36.5131 10.68C35.0975 10.68 33.9499 9.53245 33.9499 8.11683C33.9499 6.70122 35.0975 5.55363 36.5131 5.55363C37.9287 5.55363 39.0763 6.70122 39.0763 8.11683Z" fill="#5B3303"/>
<path fill-rule="evenodd" clip-rule="evenodd" d="M40.7855 7.2623C40.7855 9.85759 38.6816 11.9615 36.0863 11.9615C34.4162 11.9615 32.9496 11.0903 32.1162 9.77762C32.7872 11.5532 34.5029 12.8159 36.5135 12.8159C39.1088 12.8159 41.2127 10.712 41.2127 8.1167C41.2127 7.19144 40.9452 6.32864 40.4835 5.60137C40.6787 6.11777 40.7855 6.67756 40.7855 7.2623ZM34.0464 8.81465C33.9838 8.59275 33.9503 8.35864 33.9503 8.1167C33.9503 6.70108 35.0978 5.5535 36.5135 5.5535C37.3455 5.5535 38.085 5.94999 38.5533 6.56434C38.2494 5.48793 37.2599 4.6991 36.0863 4.6991C34.6706 4.6991 33.5231 5.84668 33.5231 7.2623C33.5231 7.84582 33.718 8.38381 34.0464 8.81465Z" fill="#D29700"/>
<path fill-rule="evenodd" clip-rule="evenodd" d="M11.7358 12.8159C14.3311 12.8159 16.435 10.712 16.435 8.11674C16.435 5.52144 14.3311 3.41754 11.7358 3.41754C9.14052 3.41754 7.03662 5.52144 7.03662 8.11674C7.03662 10.712 9.14052 12.8159 11.7358 12.8159ZM11.7358 10.6799C13.1514 10.6799 14.299 9.53235 14.299 8.11674C14.299 6.70112 13.1514 5.55354 11.7358 5.55354C10.3202 5.55354 9.17262 6.70112 9.17262 8.11674C9.17262 9.53235 10.3202 10.6799 11.7358 10.6799Z" fill="#F6B307"/>
<path fill-rule="evenodd" clip-rule="evenodd" d="M17.2893 8.11683C17.2893 11.184 14.8029 13.6704 11.7357 13.6704C8.66856 13.6704 6.18213 11.184 6.18213 8.11683C6.18213 5.04966 8.66856 2.56323 11.7357 2.56323C14.8029 2.56323 17.2893 5.04966 17.2893 8.11683ZM11.7357 9.82563C12.6795 9.82563 13.4445 9.06058 13.4445 8.11683C13.4445 7.17309 12.6795 6.40803 11.7357 6.40803C10.792 6.40803 10.0269 7.17309 10.0269 8.11683C10.0269 9.06058 10.792 9.82563 11.7357 9.82563ZM16.4349 8.11683C16.4349 10.7121 14.331 12.816 11.7357 12.816C9.14043 12.816 7.03653 10.7121 7.03653 8.11683C7.03653 5.52154 9.14043 3.41763 11.7357 3.41763C14.331 3.41763 16.4349 5.52154 16.4349 8.11683ZM14.2989 8.11683C14.2989 9.53245 13.1513 10.68 11.7357 10.68C10.3201 10.68 9.17253 9.53245 9.17253 8.11683C9.17253 6.70122 10.3201 5.55363 11.7357 5.55363C13.1513 5.55363 14.2989 6.70122 14.2989 8.11683Z" fill="#5B3303"/>
<path fill-rule="evenodd" clip-rule="evenodd" d="M15.2654 11.2193C14.4378 11.9473 13.352 12.3889 12.163 12.3889C9.56772 12.3889 7.46382 10.285 7.46382 7.68969C7.46382 6.50075 7.90536 5.41493 8.63341 4.58728C7.65441 5.44847 7.03662 6.71053 7.03662 8.11689C7.03662 10.7122 9.14052 12.8161 11.7358 12.8161C13.1422 12.8161 14.4042 12.1983 15.2654 11.2193ZM10.1495 6.10338C10.5859 5.75913 11.1369 5.55369 11.7358 5.55369C13.1514 5.55369 14.299 6.70127 14.299 8.11689C14.299 8.71584 14.0936 9.26682 13.7493 9.70319C14.3443 9.2338 14.7262 8.50634 14.7262 7.68969C14.7262 6.27407 13.5786 5.12649 12.163 5.12649C11.3464 5.12649 10.6189 5.50841 10.1495 6.10338Z" fill="#D29700"/>
<path d="M12.1631 5.98083C12.1631 4.09334 13.6932 2.56323 15.5807 2.56323H32.6687C34.5562 2.56323 36.0863 4.09334 36.0863 5.98083V11.1072C36.0863 17.7134 30.7309 23.0688 24.1247 23.0688C17.5185 23.0688 12.1631 17.7134 12.1631 11.1072V5.98083Z" fill="#FFCF23"/>
<path fill-rule="evenodd" clip-rule="evenodd" d="M15.5806 1.70892H32.6686C35.0279 1.70892 36.9406 3.62156 36.9406 5.98092V11.1073C36.9406 18.1854 31.2027 23.9233 24.1246 23.9233C17.0465 23.9233 11.3086 18.1854 11.3086 11.1073V5.98092C11.3086 3.62156 13.2212 1.70892 15.5806 1.70892ZM15.5806 2.56332C13.6931 2.56332 12.163 4.09344 12.163 5.98092V11.1073C12.163 17.7135 17.5184 23.0689 24.1246 23.0689C30.7308 23.0689 36.0862 17.7135 36.0862 11.1073V5.98092C36.0862 4.09344 34.5561 2.56332 32.6686 2.56332H15.5806Z" fill="#5B3303"/>
<path fill-rule="evenodd" clip-rule="evenodd" d="M21.1343 22.692C22.0901 22.938 23.0921 23.0688 24.1247 23.0688C30.7309 23.0688 36.0863 17.7134 36.0863 11.1072V2.56323H30.1055V11.1072C30.1055 16.6809 26.2934 21.3641 21.1343 22.692Z" fill="#FFC429"/>
<path d="M12.1631 2.56323V11.1072C12.1631 15.1852 14.2038 18.7865 17.3196 20.9458C18.8017 21.9728 21.6157 18.4505 21.5694 16.648C21.564 16.4389 21.5615 16.2294 21.5615 16.02V2.56323H12.1631Z" fill="#FFDB5B"/>
<path fill-rule="evenodd" clip-rule="evenodd" d="M17.9448 21.3509C19.7484 22.4413 21.8632 23.0688 24.1246 23.0688C30.7308 23.0688 36.0862 17.7134 36.0862 11.1072V2.56323H34.3773V10.2528C34.3773 16.859 29.0219 22.2144 22.4157 22.2144C20.8351 22.2144 19.326 21.9078 17.9448 21.3509Z" fill="#F5B40C"/>
<path d="M36.0863 2.56323H12.1631V4.27203H36.0863V2.56323Z" fill="#D29803"/>
<path fill-rule="evenodd" clip-rule="evenodd" d="M13.872 3.84479C14.3439 3.84479 14.7264 4.22732 14.7264 4.69919C14.7264 7.60374 14.7281 9.9404 14.9855 11.8189C15.2418 13.6901 15.736 14.967 16.6121 15.843C16.9457 16.1767 16.9457 16.7177 16.6121 17.0513C16.2784 17.385 15.7374 17.385 15.4038 17.0513C14.1439 15.7914 13.5701 14.0779 13.2925 12.0508C13.0176 10.0439 13.0176 7.59289 13.0176 4.75317L13.0176 4.69919C13.0176 4.22732 13.4001 3.84479 13.872 3.84479Z" fill="#FFEBA6"/>
<path fill-rule="evenodd" clip-rule="evenodd" d="M13.8717 5.12646C14.1076 5.12646 14.2989 5.31773 14.2989 5.55366C14.2989 6.1153 14.2941 6.44929 14.2903 6.72063C14.2844 7.13362 14.2806 7.40147 14.2987 8.1059C14.3048 8.34176 14.1185 8.53787 13.8826 8.54392C13.6468 8.54998 13.4507 8.36369 13.4446 8.12783C13.4262 7.41019 13.4302 7.1196 13.4361 6.6908C13.4399 6.41708 13.4445 6.08705 13.4445 5.55366C13.4445 5.31773 13.6357 5.12646 13.8717 5.12646Z" fill="white"/>
<path d="M15.5806 32.4673C15.5806 31.9954 15.9631 31.6129 16.435 31.6129H31.8142C32.286 31.6129 32.6686 31.9954 32.6686 32.4673C32.6686 32.9391 32.286 33.3217 31.8142 33.3217H16.435C15.9631 33.3217 15.5806 32.9391 15.5806 32.4673Z" fill="#FFD84F"/>
<path fill-rule="evenodd" clip-rule="evenodd" d="M16.4349 30.7584H31.8141C32.7578 30.7584 33.5229 31.5235 33.5229 32.4672C33.5229 33.411 32.7578 34.176 31.8141 34.176H16.4349C15.4911 34.176 14.7261 33.411 14.7261 32.4672C14.7261 31.5235 15.4911 30.7584 16.4349 30.7584ZM16.4349 31.6128C15.963 31.6128 15.5805 31.9954 15.5805 32.4672C15.5805 32.9391 15.963 33.3216 16.4349 33.3216H31.8141C32.2859 33.3216 32.6685 32.9391 32.6685 32.4672C32.6685 31.9954 32.2859 31.6128 31.8141 31.6128H16.4349Z" fill="#5B3303"/>
<path d="M8.74512 1.70877C8.74512 1.2369 9.12764 0.85437 9.59952 0.85437H38.6491C39.121 0.85437 39.5035 1.2369 39.5035 1.70877C39.5035 2.18064 39.121 2.56317 38.6491 2.56317H9.59952C9.12765 2.56317 8.74512 2.18064 8.74512 1.70877Z" fill="#FFD84F"/>
<path fill-rule="evenodd" clip-rule="evenodd" d="M9.59991 0H38.6495C39.5932 0 40.3583 0.765055 40.3583 1.7088C40.3583 2.65254 39.5932 3.4176 38.6495 3.4176H9.59991C8.65617 3.4176 7.89111 2.65254 7.89111 1.7088C7.89111 0.765056 8.65617 0 9.59991 0ZM9.59991 0.8544C9.12804 0.8544 8.74551 1.23693 8.74551 1.7088C8.74551 2.18067 9.12804 2.5632 9.59991 2.5632H38.6495C39.1214 2.5632 39.5039 2.18067 39.5039 1.7088C39.5039 1.23693 39.1214 0.8544 38.6495 0.8544H9.59991Z" fill="#5B3303"/>
<path fill-rule="evenodd" clip-rule="evenodd" d="M9.59961 1.49525C9.59961 1.25932 9.79087 1.06805 10.0268 1.06805H31.814C32.0499 1.06805 32.2412 1.25932 32.2412 1.49525C32.2412 1.73119 32.0499 1.92245 31.814 1.92245H10.0268C9.79087 1.92245 9.59961 1.73119 9.59961 1.49525Z" fill="#FFEBA6"/>
<path fill-rule="evenodd" clip-rule="evenodd" d="M16.0078 32.0401C16.0078 31.8041 16.1991 31.6129 16.435 31.6129H28.8238C29.0597 31.6129 29.251 31.8041 29.251 32.0401C29.251 32.276 29.0597 32.4673 28.8238 32.4673H16.435C16.1991 32.4673 16.0078 32.276 16.0078 32.0401Z" fill="#FFEBA6"/>
<path fill-rule="evenodd" clip-rule="evenodd" d="M12.1631 1.49525C12.1631 1.25932 12.3543 1.06805 12.5903 1.06805H15.1535C15.3894 1.06805 15.5807 1.25932 15.5807 1.49525C15.5807 1.73119 15.3894 1.92245 15.1535 1.92245H12.5903C12.3543 1.92245 12.1631 1.73119 12.1631 1.49525Z" fill="white"/>
<path d="M28.3963 19.865C28.3963 20.2189 28.1095 20.5058 27.7555 20.5058C27.4016 20.5058 27.1147 20.2189 27.1147 19.865C27.1147 19.5111 27.4016 19.2242 27.7555 19.2242C28.1095 19.2242 28.3963 19.5111 28.3963 19.865Z" fill="#E6A809"/>
<path d="M30.5321 18.3697C30.5321 18.6056 30.3409 18.7969 30.1049 18.7969C29.869 18.7969 29.6777 18.6056 29.6777 18.3697C29.6777 18.1338 29.869 17.9425 30.1049 17.9425C30.3409 17.9425 30.5321 18.1338 30.5321 18.3697Z" fill="#E6A809"/>
<path d="M27.1142 21.3601C27.1142 21.596 26.9229 21.7873 26.687 21.7873C26.451 21.7873 26.2598 21.596 26.2598 21.3601C26.2598 21.1241 26.451 20.9329 26.687 20.9329C26.9229 20.9329 27.1142 21.1241 27.1142 21.3601Z" fill="#E6A809"/>
<path d="M25.8329 20.0784C25.8329 20.3144 25.6417 20.5056 25.4057 20.5056C25.1698 20.5056 24.9785 20.3144 24.9785 20.0784C24.9785 19.8425 25.1698 19.6512 25.4057 19.6512C25.6417 19.6512 25.8329 19.8425 25.8329 20.0784Z" fill="#E6A809"/>
<path d="M24.1244 21.3601C24.1244 21.596 23.9332 21.7873 23.6972 21.7873C23.4613 21.7873 23.27 21.596 23.27 21.3601C23.27 21.1241 23.4613 20.9329 23.6972 20.9329C23.9332 20.9329 24.1244 21.1241 24.1244 21.3601Z" fill="#E6A809"/>
<path d="M34.3769 15.3793C34.3769 15.6152 34.1856 15.8065 33.9497 15.8065C33.7137 15.8065 33.5225 15.6152 33.5225 15.3793C33.5225 15.1434 33.7137 14.9521 33.9497 14.9521C34.1856 14.9521 34.3769 15.1434 34.3769 15.3793Z" fill="#E6A809"/>
<path d="M30.5321 16.6609C30.5321 16.8968 30.3409 17.0881 30.1049 17.0881C29.869 17.0881 29.6777 16.8968 29.6777 16.6609C29.6777 16.425 29.869 16.2337 30.1049 16.2337C30.3409 16.2337 30.5321 16.425 30.5321 16.6609Z" fill="#E6A809"/>
<path d="M34.8046 13.2431C34.8046 13.4791 34.6133 13.6703 34.3774 13.6703C34.1415 13.6703 33.9502 13.4791 33.9502 13.2431C33.9502 13.0072 34.1415 12.8159 34.3774 12.8159C34.6133 12.8159 34.8046 13.0072 34.8046 13.2431Z" fill="#E6A809"/>
<path d="M28.3959 17.5152C28.3959 17.7511 28.2046 17.9424 27.9687 17.9424C27.7328 17.9424 27.5415 17.7511 27.5415 17.5152C27.5415 17.2792 27.7328 17.088 27.9687 17.088C28.2046 17.088 28.3959 17.2792 28.3959 17.5152Z" fill="#E6A809"/>
<path d="M30.1049 20.0784C30.1049 20.3144 29.9136 20.5056 29.6777 20.5056C29.4418 20.5056 29.2505 20.3144 29.2505 20.0784C29.2505 19.8425 29.4418 19.6512 29.6777 19.6512C29.9136 19.6512 30.1049 19.8425 30.1049 20.0784Z" fill="#E6A809"/>
<path d="M32.6679 18.3697C32.6679 18.6056 32.4766 18.7969 32.2407 18.7969C32.0047 18.7969 31.8135 18.6056 31.8135 18.3697C31.8135 18.1338 32.0047 17.9425 32.2407 17.9425C32.4766 17.9425 32.6679 18.1338 32.6679 18.3697Z" fill="#E6A809"/>
<path d="M31.8144 16.6609C31.8144 16.8968 31.6231 17.0881 31.3872 17.0881C31.1512 17.0881 30.96 16.8968 30.96 16.6609C30.96 16.425 31.1512 16.2337 31.3872 16.2337C31.6231 16.2337 31.8144 16.425 31.8144 16.6609Z" fill="#E6A809"/>
<path d="M33.5224 16.4473C33.5224 16.5653 33.4268 16.6609 33.3088 16.6609C33.1908 16.6609 33.0952 16.5653 33.0952 16.4473C33.0952 16.3293 33.1908 16.2337 33.3088 16.2337C33.4268 16.2337 33.5224 16.3293 33.5224 16.4473Z" fill="#E6A809"/>
<path d="M33.0952 14.7385C33.0952 14.8565 32.9995 14.9521 32.8816 14.9521C32.7636 14.9521 32.668 14.8565 32.668 14.7385C32.668 14.6205 32.7636 14.5249 32.8816 14.5249C32.9995 14.5249 33.0952 14.6205 33.0952 14.7385Z" fill="#E6A809"/>
<path d="M31.8134 15.1657C31.8134 15.2837 31.7178 15.3793 31.5998 15.3793C31.4819 15.3793 31.3862 15.2837 31.3862 15.1657C31.3862 15.0477 31.4819 14.9521 31.5998 14.9521C31.7178 14.9521 31.8134 15.0477 31.8134 15.1657Z" fill="#E6A809"/>
<path d="M33.0952 13.4569C33.0952 13.5749 32.9995 13.6705 32.8816 13.6705C32.7636 13.6705 32.668 13.5749 32.668 13.4569C32.668 13.3389 32.7636 13.2433 32.8816 13.2433C32.9995 13.2433 33.0952 13.3389 33.0952 13.4569Z" fill="#E6A809"/>
<path d="M30.5322 15.1657C30.5322 15.2837 30.4365 15.3793 30.3186 15.3793C30.2006 15.3793 30.105 15.2837 30.105 15.1657C30.105 15.0477 30.2006 14.9521 30.3186 14.9521C30.4365 14.9521 30.5322 15.0477 30.5322 15.1657Z" fill="#E6A809"/>
<path d="M23.6972 19.8648C23.6972 19.9828 23.6016 20.0784 23.4836 20.0784C23.3657 20.0784 23.27 19.9828 23.27 19.8648C23.27 19.7469 23.3657 19.6512 23.4836 19.6512C23.6016 19.6512 23.6972 19.7469 23.6972 19.8648Z" fill="#E6A809"/>
<path d="M32.6684 16.8745C32.6684 16.9925 32.5728 17.0881 32.4548 17.0881C32.3368 17.0881 32.2412 16.9925 32.2412 16.8745C32.2412 16.7565 32.3368 16.6609 32.4548 16.6609C32.5728 16.6609 32.6684 16.7565 32.6684 16.8745Z" fill="#E6A809"/>
<path d="M31.3872 19.4378C31.3872 19.5558 31.2915 19.6514 31.1736 19.6514C31.0556 19.6514 30.96 19.5558 30.96 19.4378C30.96 19.3199 31.0556 19.2242 31.1736 19.2242C31.2915 19.2242 31.3872 19.3199 31.3872 19.4378Z" fill="#E6A809"/>
<path d="M29.2509 18.5832C29.2509 18.7012 29.1553 18.7968 29.0373 18.7968C28.9194 18.7968 28.8237 18.7012 28.8237 18.5832C28.8237 18.4653 28.9194 18.3696 29.0373 18.3696C29.1553 18.3696 29.2509 18.4653 29.2509 18.5832Z" fill="#E6A809"/>
<path d="M27.1147 18.5832C27.1147 18.7012 27.0191 18.7968 26.9011 18.7968C26.7831 18.7968 26.6875 18.7012 26.6875 18.5832C26.6875 18.4653 26.7831 18.3696 26.9011 18.3696C27.0191 18.3696 27.1147 18.4653 27.1147 18.5832Z" fill="#E6A809"/>
<path d="M25.4057 21.5737C25.4057 21.6917 25.3101 21.7873 25.1921 21.7873C25.0741 21.7873 24.9785 21.6917 24.9785 21.5737C24.9785 21.4557 25.0741 21.3601 25.1921 21.3601C25.3101 21.3601 25.4057 21.4557 25.4057 21.5737Z" fill="#E6A809"/>
<path fill-rule="evenodd" clip-rule="evenodd" d="M10.6224 4.29461C10.7279 4.50564 10.6423 4.76224 10.4313 4.86775C10.0408 5.06297 9.51477 5.39947 9.08675 5.97017C8.66313 6.53497 8.31778 7.35228 8.31778 8.54404C8.31778 8.77998 8.12651 8.97124 7.89058 8.97124C7.65464 8.97124 7.46338 8.77998 7.46338 8.54404C7.46338 7.1726 7.86562 6.17432 8.40323 5.45752C8.93642 4.74661 9.58522 4.33551 10.0492 4.10354C10.2602 3.99803 10.5168 4.08358 10.6224 4.29461Z" fill="#FFD953"/>
<path d="M19.8525 10.9364L22.5225 10.3952L23.3235 9.04244L24.1245 7.68964L25.7265 10.3952L28.3965 10.9364L26.2605 13.1008L26.7945 15.8064L24.1245 14.4536L21.4545 15.8064L21.9885 13.1008L19.8525 10.9364Z" fill="#FFEBA6"/>
<path fill-rule="evenodd" clip-rule="evenodd" d="M22.5225 10.3952L24.1245 7.6896L25.7265 10.3952L28.3965 10.9363L26.2605 13.1008L26.7945 15.8064L24.1245 14.4536L21.4545 15.8064L21.9885 13.1008L19.8525 10.9363L22.5225 10.3952ZM21.0627 13.379L19.2443 11.5365C19.024 11.3132 18.9437 10.9871 19.0352 10.6871C19.1267 10.387 19.3753 10.1613 19.6828 10.0989L21.9807 9.63323L23.3893 7.2543C23.5431 6.99452 23.8226 6.83521 24.1245 6.83521C24.4264 6.83521 24.7058 6.99452 24.8597 7.2543L26.2682 9.63323L28.5662 10.0989C28.8736 10.1613 29.1222 10.387 29.2137 10.6871C29.3052 10.9871 29.2249 11.3132 29.0046 11.5365L27.1863 13.379L27.6327 15.641C27.696 15.9615 27.5709 16.2901 27.3104 16.4874C27.05 16.6847 26.6998 16.7162 26.4083 16.5686L24.1245 15.4114L21.8406 16.5686C21.5492 16.7162 21.199 16.6847 20.9385 16.4874C20.6781 16.2901 20.553 15.9615 20.6162 15.641L21.0627 13.379Z" fill="#F5B40C"/>
<path fill-rule="evenodd" clip-rule="evenodd" d="M24.3155 9.01632C24.5265 9.12184 24.6121 9.37845 24.5065 9.58947L23.6521 11.2983C23.5873 11.4279 23.4612 11.5158 23.3172 11.5318L21.3948 11.7454C21.1603 11.7715 20.9491 11.6025 20.9231 11.368C20.897 11.1335 21.066 10.9223 21.3005 10.8962L22.9919 10.7083L23.7423 9.20737C23.8479 8.99635 24.1045 8.91081 24.3155 9.01632Z" fill="white"/>
<g filter="url(#filter0_dd_35_5118)">
<mask id="path-53-outside-1_35_5118" maskUnits="userSpaceOnUse" x="3" y="40.4672" width="41" height="15" fill="black">
<rect fill="white" x="3" y="40.4672" width="41" height="15"/>
<path d="M7.76346 51.4672C7.40346 51.4672 7.07546 51.4512 6.77946 51.4192C6.49146 51.3792 6.22346 51.3192 5.97546 51.2392C5.72746 51.1592 5.49946 51.0592 5.29146 50.9392C5.09146 50.8112 4.89946 50.6592 4.71546 50.4832C4.41946 50.2032 4.21146 49.8432 4.09146 49.4032C3.97146 48.9552 3.91146 48.4872 3.91146 47.9992V45.7312H5.59146V47.7952C5.59146 48.1552 5.62746 48.4632 5.69946 48.7192C5.77946 48.9672 5.91146 49.1712 6.09546 49.3312C6.30346 49.5072 6.56346 49.6272 6.87546 49.6912C7.18746 49.7552 7.52346 49.7872 7.88346 49.7872H11.2435V44.7112H12.9235V49.7872H14.2195V51.4672H7.76346ZM9.73146 53.7952C9.53946 53.9472 9.31146 54.0232 9.04746 54.0232C8.78346 54.0232 8.55146 53.9472 8.35146 53.7952C8.15946 53.6432 8.06346 53.4192 8.06346 53.1232C8.06346 52.8592 8.15546 52.6432 8.33946 52.4752C8.53146 52.3152 8.76746 52.2352 9.04746 52.2352C9.32746 52.2352 9.55946 52.3152 9.74346 52.4752C9.93546 52.6432 10.0315 52.8592 10.0315 53.1232C10.0315 53.4192 9.93146 53.6432 9.73146 53.7952ZM13.867 49.7872H16.375V44.7112H18.055V49.7872H20.263V51.4672H13.867V49.7872ZM19.087 53.8072C18.903 53.9512 18.683 54.0232 18.427 54.0232C18.171 54.0232 17.951 53.9512 17.767 53.8072C17.583 53.6632 17.491 53.4512 17.491 53.1712C17.491 52.9152 17.579 52.7072 17.755 52.5472C17.939 52.3872 18.163 52.3072 18.427 52.3072C18.699 52.3072 18.923 52.3872 19.099 52.5472C19.275 52.7072 19.363 52.9152 19.363 53.1712C19.363 53.4512 19.271 53.6632 19.087 53.8072ZM16.483 53.8072C16.299 53.9512 16.079 54.0232 15.823 54.0232C15.567 54.0232 15.347 53.9512 15.163 53.8072C14.979 53.6632 14.887 53.4512 14.887 53.1712C14.887 52.9152 14.975 52.7072 15.151 52.5472C15.335 52.3872 15.559 52.3072 15.823 52.3072C16.087 52.3072 16.307 52.3872 16.483 52.5472C16.667 52.7072 16.759 52.9152 16.759 53.1712C16.759 53.4512 16.667 53.6632 16.483 53.8072ZM19.8993 49.7872H22.4073V44.7112H24.0873V51.4672H19.8993V49.7872ZM22.5393 43.4752C22.3553 43.6192 22.1353 43.6912 21.8793 43.6912C21.6233 43.6912 21.4033 43.6192 21.2193 43.4752C21.0353 43.3232 20.9433 43.1072 20.9433 42.8272C20.9433 42.5712 21.0313 42.3672 21.2073 42.2152C21.3913 42.0552 21.6153 41.9752 21.8793 41.9752C22.1433 41.9752 22.3633 42.0552 22.5393 42.2152C22.7233 42.3672 22.8153 42.5712 22.8153 42.8272C22.8153 43.1072 22.7233 43.3232 22.5393 43.4752ZM25.1433 43.4752C24.9593 43.6192 24.7393 43.6912 24.4833 43.6912C24.2273 43.6912 24.0073 43.6192 23.8233 43.4752C23.6393 43.3232 23.5473 43.1072 23.5473 42.8272C23.5473 42.5712 23.6353 42.3672 23.8113 42.2152C23.9953 42.0552 24.2193 41.9752 24.4833 41.9752C24.7553 41.9752 24.9793 42.0552 25.1553 42.2152C25.3313 42.3672 25.4193 42.5712 25.4193 42.8272C25.4193 43.1072 25.3273 43.3232 25.1433 43.4752ZM26.1972 54.1072C26.0372 54.1072 25.8812 54.0952 25.7292 54.0712C25.5772 54.0552 25.4492 54.0312 25.3452 53.9992L25.2252 52.3192C25.3852 52.3592 25.5252 52.3872 25.6452 52.4032C25.7652 52.4192 25.8892 52.4272 26.0172 52.4272C26.3532 52.4272 26.5852 52.3352 26.7132 52.1512C26.8492 51.9672 26.9172 51.6672 26.9172 51.2512V44.7112H28.5972V49.7872H29.8932V51.4672H28.5852C28.5372 52.3952 28.3252 53.0672 27.9492 53.4832C27.5732 53.8992 26.9892 54.1072 26.1972 54.1072ZM29.5382 49.7872H32.0462V44.7112H33.7262V49.7872H35.9342V51.4672H29.5382V49.7872ZM34.7702 43.4752C34.5862 43.6192 34.3662 43.6912 34.1102 43.6912C33.8542 43.6912 33.6342 43.6192 33.4502 43.4752C33.2662 43.3232 33.1742 43.1072 33.1742 42.8272C33.1742 42.5712 33.2622 42.3672 33.4382 42.2152C33.6222 42.0552 33.8462 41.9752 34.1102 41.9752C34.3822 41.9752 34.6062 42.0552 34.7822 42.2152C34.9582 42.3672 35.0462 42.5712 35.0462 42.8272C35.0462 43.1072 34.9542 43.3232 34.7702 43.4752ZM32.1662 43.4752C31.9822 43.6192 31.7622 43.6912 31.5062 43.6912C31.2502 43.6912 31.0302 43.6192 30.8462 43.4752C30.6622 43.3232 30.5702 43.1072 30.5702 42.8272C30.5702 42.5712 30.6582 42.3672 30.8342 42.2152C31.0182 42.0552 31.2422 41.9752 31.5062 41.9752C31.7702 41.9752 31.9902 42.0552 32.1662 42.2152C32.3502 42.3672 32.4422 42.5712 32.4422 42.8272C32.4422 43.1072 32.3502 43.3232 32.1662 43.4752ZM35.5705 49.7872H36.7465V41.7352H39.2065V43.4152H38.4265V51.4672H35.5705V49.7872ZM41.1238 41.7352H42.8038V51.4672H41.1238V41.7352Z"/>
</mask>
<path d="M7.76346 51.4672C7.40346 51.4672 7.07546 51.4512 6.77946 51.4192C6.49146 51.3792 6.22346 51.3192 5.97546 51.2392C5.72746 51.1592 5.49946 51.0592 5.29146 50.9392C5.09146 50.8112 4.89946 50.6592 4.71546 50.4832C4.41946 50.2032 4.21146 49.8432 4.09146 49.4032C3.97146 48.9552 3.91146 48.4872 3.91146 47.9992V45.7312H5.59146V47.7952C5.59146 48.1552 5.62746 48.4632 5.69946 48.7192C5.77946 48.9672 5.91146 49.1712 6.09546 49.3312C6.30346 49.5072 6.56346 49.6272 6.87546 49.6912C7.18746 49.7552 7.52346 49.7872 7.88346 49.7872H11.2435V44.7112H12.9235V49.7872H14.2195V51.4672H7.76346ZM9.73146 53.7952C9.53946 53.9472 9.31146 54.0232 9.04746 54.0232C8.78346 54.0232 8.55146 53.9472 8.35146 53.7952C8.15946 53.6432 8.06346 53.4192 8.06346 53.1232C8.06346 52.8592 8.15546 52.6432 8.33946 52.4752C8.53146 52.3152 8.76746 52.2352 9.04746 52.2352C9.32746 52.2352 9.55946 52.3152 9.74346 52.4752C9.93546 52.6432 10.0315 52.8592 10.0315 53.1232C10.0315 53.4192 9.93146 53.6432 9.73146 53.7952ZM13.867 49.7872H16.375V44.7112H18.055V49.7872H20.263V51.4672H13.867V49.7872ZM19.087 53.8072C18.903 53.9512 18.683 54.0232 18.427 54.0232C18.171 54.0232 17.951 53.9512 17.767 53.8072C17.583 53.6632 17.491 53.4512 17.491 53.1712C17.491 52.9152 17.579 52.7072 17.755 52.5472C17.939 52.3872 18.163 52.3072 18.427 52.3072C18.699 52.3072 18.923 52.3872 19.099 52.5472C19.275 52.7072 19.363 52.9152 19.363 53.1712C19.363 53.4512 19.271 53.6632 19.087 53.8072ZM16.483 53.8072C16.299 53.9512 16.079 54.0232 15.823 54.0232C15.567 54.0232 15.347 53.9512 15.163 53.8072C14.979 53.6632 14.887 53.4512 14.887 53.1712C14.887 52.9152 14.975 52.7072 15.151 52.5472C15.335 52.3872 15.559 52.3072 15.823 52.3072C16.087 52.3072 16.307 52.3872 16.483 52.5472C16.667 52.7072 16.759 52.9152 16.759 53.1712C16.759 53.4512 16.667 53.6632 16.483 53.8072ZM19.8993 49.7872H22.4073V44.7112H24.0873V51.4672H19.8993V49.7872ZM22.5393 43.4752C22.3553 43.6192 22.1353 43.6912 21.8793 43.6912C21.6233 43.6912 21.4033 43.6192 21.2193 43.4752C21.0353 43.3232 20.9433 43.1072 20.9433 42.8272C20.9433 42.5712 21.0313 42.3672 21.2073 42.2152C21.3913 42.0552 21.6153 41.9752 21.8793 41.9752C22.1433 41.9752 22.3633 42.0552 22.5393 42.2152C22.7233 42.3672 22.8153 42.5712 22.8153 42.8272C22.8153 43.1072 22.7233 43.3232 22.5393 43.4752ZM25.1433 43.4752C24.9593 43.6192 24.7393 43.6912 24.4833 43.6912C24.2273 43.6912 24.0073 43.6192 23.8233 43.4752C23.6393 43.3232 23.5473 43.1072 23.5473 42.8272C23.5473 42.5712 23.6353 42.3672 23.8113 42.2152C23.9953 42.0552 24.2193 41.9752 24.4833 41.9752C24.7553 41.9752 24.9793 42.0552 25.1553 42.2152C25.3313 42.3672 25.4193 42.5712 25.4193 42.8272C25.4193 43.1072 25.3273 43.3232 25.1433 43.4752ZM26.1972 54.1072C26.0372 54.1072 25.8812 54.0952 25.7292 54.0712C25.5772 54.0552 25.4492 54.0312 25.3452 53.9992L25.2252 52.3192C25.3852 52.3592 25.5252 52.3872 25.6452 52.4032C25.7652 52.4192 25.8892 52.4272 26.0172 52.4272C26.3532 52.4272 26.5852 52.3352 26.7132 52.1512C26.8492 51.9672 26.9172 51.6672 26.9172 51.2512V44.7112H28.5972V49.7872H29.8932V51.4672H28.5852C28.5372 52.3952 28.3252 53.0672 27.9492 53.4832C27.5732 53.8992 26.9892 54.1072 26.1972 54.1072ZM29.5382 49.7872H32.0462V44.7112H33.7262V49.7872H35.9342V51.4672H29.5382V49.7872ZM34.7702 43.4752C34.5862 43.6192 34.3662 43.6912 34.1102 43.6912C33.8542 43.6912 33.6342 43.6192 33.4502 43.4752C33.2662 43.3232 33.1742 43.1072 33.1742 42.8272C33.1742 42.5712 33.2622 42.3672 33.4382 42.2152C33.6222 42.0552 33.8462 41.9752 34.1102 41.9752C34.3822 41.9752 34.6062 42.0552 34.7822 42.2152C34.9582 42.3672 35.0462 42.5712 35.0462 42.8272C35.0462 43.1072 34.9542 43.3232 34.7702 43.4752ZM32.1662 43.4752C31.9822 43.6192 31.7622 43.6912 31.5062 43.6912C31.2502 43.6912 31.0302 43.6192 30.8462 43.4752C30.6622 43.3232 30.5702 43.1072 30.5702 42.8272C30.5702 42.5712 30.6582 42.3672 30.8342 42.2152C31.0182 42.0552 31.2422 41.9752 31.5062 41.9752C31.7702 41.9752 31.9902 42.0552 32.1662 42.2152C32.3502 42.3672 32.4422 42.5712 32.4422 42.8272C32.4422 43.1072 32.3502 43.3232 32.1662 43.4752ZM35.5705 49.7872H36.7465V41.7352H39.2065V43.4152H38.4265V51.4672H35.5705V49.7872ZM41.1238 41.7352H42.8038V51.4672H41.1238V41.7352Z" fill="white"/>
<path d="M6.77946 51.4192L6.71067 51.9144L6.71818 51.9155L6.72571 51.9163L6.77946 51.4192ZM5.97546 51.2392L6.12896 50.7633L5.97546 51.2392ZM5.29146 50.9392L5.02193 51.3603L5.03162 51.3665L5.04159 51.3723L5.29146 50.9392ZM4.71546 50.4832L5.06107 50.1218L5.05906 50.1199L4.71546 50.4832ZM4.09146 49.4032L3.60848 49.5325L3.60907 49.5347L4.09146 49.4032ZM3.91146 45.7312V45.2312H3.41146V45.7312H3.91146ZM5.59146 45.7312H6.09146V45.2312H5.59146V45.7312ZM5.69946 48.7192L5.21813 48.8545L5.22069 48.8637L5.2236 48.8727L5.69946 48.7192ZM6.09546 49.3312L5.76734 49.7085L5.77248 49.7129L6.09546 49.3312ZM11.2435 49.7872V50.2872H11.7435V49.7872H11.2435ZM11.2435 44.7112V44.2112H10.7435V44.7112H11.2435ZM12.9235 44.7112H13.4235V44.2112H12.9235V44.7112ZM12.9235 49.7872H12.4235V50.2872H12.9235V49.7872ZM14.2195 49.7872H14.7195V49.2872H14.2195V49.7872ZM14.2195 51.4672V51.9672H14.7195V51.4672H14.2195ZM9.73146 53.7952L9.42885 53.397L9.4211 53.4031L9.73146 53.7952ZM8.35146 53.7952L8.04104 54.1873L8.04891 54.1932L8.35146 53.7952ZM8.33946 52.4752L8.01936 52.0911L8.01067 52.0983L8.00232 52.1059L8.33946 52.4752ZM9.74345 52.4752L10.0727 52.0989L10.0715 52.0979L9.74345 52.4752ZM7.76346 50.9672C7.41784 50.9672 7.10812 50.9518 6.8332 50.9221L6.72571 51.9163C7.04279 51.9505 7.38907 51.9672 7.76346 51.9672V50.9672ZM6.84824 50.9239C6.58574 50.8875 6.34638 50.8334 6.12896 50.7633L5.82195 51.715C6.10053 51.8049 6.39717 51.8709 6.71067 51.9144L6.84824 50.9239ZM6.12896 50.7633C5.91167 50.6932 5.71633 50.607 5.54132 50.5061L5.04159 51.3723C5.28258 51.5113 5.54324 51.6251 5.82195 51.715L6.12896 50.7633ZM5.56098 50.518C5.3901 50.4087 5.22337 50.2771 5.06107 50.1218L4.36984 50.8445C4.57554 51.0412 4.79281 51.2137 5.02193 51.3603L5.56098 50.518ZM5.05906 50.1199C4.83741 49.9103 4.67266 49.634 4.57384 49.2716L3.60907 49.5347C3.75025 50.0524 4.0015 50.4961 4.37186 50.8464L5.05906 50.1199ZM4.57443 49.2738C4.46631 48.8701 4.41146 48.4458 4.41146 47.9992H3.41146C3.41146 48.5286 3.4766 49.0402 3.60848 49.5325L4.57443 49.2738ZM4.41146 47.9992V45.7312H3.41146V47.9992H4.41146ZM3.91146 46.2312H5.59146V45.2312H3.91146V46.2312ZM5.09146 45.7312V47.7952H6.09146V45.7312H5.09146ZM5.09146 47.7952C5.09146 48.1859 5.13025 48.5421 5.21813 48.8545L6.18078 48.5838C6.12467 48.3843 6.09146 48.1244 6.09146 47.7952H5.09146ZM5.2236 48.8727C5.32956 49.2011 5.5099 49.4846 5.76737 49.7085L6.42354 48.9539C6.31301 48.8577 6.22935 48.7332 6.17531 48.5657L5.2236 48.8727ZM5.77248 49.7129C6.05446 49.9515 6.39485 50.103 6.77498 50.181L6.97593 49.2014C6.73206 49.1513 6.55245 49.0629 6.41843 48.9495L5.77248 49.7129ZM6.77498 50.181C7.124 50.2526 7.49399 50.2872 7.88346 50.2872V49.2872C7.55292 49.2872 7.25092 49.2578 6.97593 49.2014L6.77498 50.181ZM7.88346 50.2872H11.2435V49.2872H7.88346V50.2872ZM11.7435 49.7872V44.7112H10.7435V49.7872H11.7435ZM11.2435 45.2112H12.9235V44.2112H11.2435V45.2112ZM12.4235 44.7112V49.7872H13.4235V44.7112H12.4235ZM12.9235 50.2872H14.2195V49.2872H12.9235V50.2872ZM13.7195 49.7872V51.4672H14.7195V49.7872H13.7195ZM14.2195 50.9672H7.76346V51.9672H14.2195V50.9672ZM9.4211 53.4031C9.32453 53.4796 9.20819 53.5232 9.04746 53.5232V54.5232C9.41472 54.5232 9.75438 54.4147 10.0418 54.1872L9.4211 53.4031ZM9.04746 53.5232C8.88677 53.5232 8.76237 53.4794 8.654 53.3971L8.04891 54.1932C8.34054 54.4149 8.68014 54.5232 9.04746 54.5232V53.5232ZM8.66181 53.4031C8.61486 53.366 8.56346 53.3018 8.56346 53.1232H7.56346C7.56346 53.5365 7.70405 53.9203 8.0411 54.1872L8.66181 53.4031ZM8.56346 53.1232C8.56346 52.9902 8.60311 52.9115 8.67659 52.8444L8.00232 52.1059C7.7078 52.3748 7.56346 52.7281 7.56346 53.1232H8.56346ZM8.65955 52.8593C8.75082 52.7832 8.86945 52.7352 9.04746 52.7352V51.7352C8.66546 51.7352 8.31209 51.8471 8.01936 52.0911L8.65955 52.8593ZM9.04746 52.7352C9.22588 52.7352 9.33574 52.7832 9.41537 52.8525L10.0715 52.0979C9.78317 51.8471 9.42903 51.7352 9.04746 51.7352V52.7352ZM9.4142 52.8515C9.49346 52.9208 9.53146 52.9976 9.53146 53.1232H10.5315C10.5315 52.7207 10.3775 52.3655 10.0727 52.0989L9.4142 52.8515ZM9.53146 53.1232C9.53146 53.2943 9.48145 53.3572 9.42891 53.3971L10.034 54.1932C10.3815 53.9292 10.5315 53.544 10.5315 53.1232H9.53146ZM13.867 49.7872V49.2872H13.367V49.7872H13.867ZM16.375 49.7872V50.2872H16.875V49.7872H16.375ZM16.375 44.7112V44.2112H15.875V44.7112H16.375ZM18.055 44.7112H18.555V44.2112H18.055V44.7112ZM18.055 49.7872H17.555V50.2872H18.055V49.7872ZM20.263 49.7872H20.763V49.2872H20.263V49.7872ZM20.263 51.4672V51.9672H20.763V51.4672H20.263ZM13.867 51.4672H13.367V51.9672H13.867V51.4672ZM17.767 53.8072L17.4588 54.2009L17.767 53.8072ZM17.755 52.5472L17.4268 52.1698L17.4186 52.1772L17.755 52.5472ZM19.099 52.5472L18.7626 52.9171L19.099 52.5472ZM15.163 53.8072L14.8548 54.2009L15.163 53.8072ZM15.151 52.5472L14.8228 52.1698L14.8146 52.1772L15.151 52.5472ZM16.483 52.5472L16.1465 52.9172L16.1549 52.9245L16.483 52.5472ZM13.867 50.2872H16.375V49.2872H13.867V50.2872ZM16.875 49.7872V44.7112H15.875V49.7872H16.875ZM16.375 45.2112H18.055V44.2112H16.375V45.2112ZM17.555 44.7112V49.7872H18.555V44.7112H17.555ZM18.055 50.2872H20.263V49.2872H18.055V50.2872ZM19.763 49.7872V51.4672H20.763V49.7872H19.763ZM20.263 50.9672H13.867V51.9672H20.263V50.9672ZM14.367 51.4672V49.7872H13.367V51.4672H14.367ZM18.7788 53.4134C18.6913 53.4819 18.5826 53.5232 18.427 53.5232V54.5232C18.7833 54.5232 19.1146 54.4204 19.3951 54.2009L18.7788 53.4134ZM18.427 53.5232C18.2713 53.5232 18.1626 53.4819 18.0751 53.4134L17.4588 54.2009C17.7393 54.4204 18.0706 54.5232 18.427 54.5232V53.5232ZM18.0751 53.4134C18.0367 53.3833 17.991 53.3314 17.991 53.1712H16.991C16.991 53.5709 17.1292 53.943 17.4588 54.2009L18.0751 53.4134ZM17.991 53.1712C17.991 53.044 18.0281 52.9746 18.0913 52.9171L17.4186 52.1772C17.1298 52.4398 16.991 52.7864 16.991 53.1712H17.991ZM18.083 52.9245C18.1682 52.8504 18.2728 52.8072 18.427 52.8072V51.8072C18.0532 51.8072 17.7097 51.9239 17.4269 52.1699L18.083 52.9245ZM18.427 52.8072C18.5937 52.8072 18.6919 52.8528 18.7626 52.9171L19.4353 52.1772C19.154 51.9215 18.8042 51.8072 18.427 51.8072V52.8072ZM18.7626 52.9171C18.8258 52.9746 18.863 53.044 18.863 53.1712H19.863C19.863 52.7864 19.7241 52.4398 19.4353 52.1772L18.7626 52.9171ZM18.863 53.1712C18.863 53.3314 18.8172 53.3833 18.7788 53.4134L19.3951 54.2009C19.7247 53.943 19.863 53.5709 19.863 53.1712H18.863ZM16.1748 53.4134C16.0873 53.4819 15.9786 53.5232 15.823 53.5232V54.5232C16.1793 54.5232 16.5106 54.4204 16.7911 54.2009L16.1748 53.4134ZM15.823 53.5232C15.6673 53.5232 15.5586 53.4819 15.4711 53.4134L14.8548 54.2009C15.1353 54.4204 15.4666 54.5232 15.823 54.5232V53.5232ZM15.4711 53.4134C15.4327 53.3833 15.387 53.3314 15.387 53.1712H14.387C14.387 53.5709 14.5252 53.943 14.8548 54.2009L15.4711 53.4134ZM15.387 53.1712C15.387 53.044 15.4241 52.9746 15.4873 52.9171L14.8146 52.1772C14.5258 52.4398 14.387 52.7864 14.387 53.1712H15.387ZM15.479 52.9245C15.5642 52.8504 15.6688 52.8072 15.823 52.8072V51.8072C15.4492 51.8072 15.1057 51.9239 14.8229 52.1699L15.479 52.9245ZM15.823 52.8072C15.9773 52.8072 16.073 52.8502 16.1466 52.9171L16.8193 52.1772C16.5409 51.9241 16.1966 51.8072 15.823 51.8072V52.8072ZM16.1549 52.9245C16.2236 52.9842 16.259 53.0517 16.259 53.1712H17.259C17.259 52.7787 17.1103 52.4301 16.811 52.1699L16.1549 52.9245ZM16.259 53.1712C16.259 53.3314 16.2132 53.3833 16.1748 53.4134L16.7911 54.2009C17.1207 53.943 17.259 53.5709 17.259 53.1712H16.259ZM19.8993 49.7872V49.2872H19.3993V49.7872H19.8993ZM22.4073 49.7872V50.2872H22.9073V49.7872H22.4073ZM22.4073 44.7112V44.2112H21.9073V44.7112H22.4073ZM24.0873 44.7112H24.5873V44.2112H24.0873V44.7112ZM24.0873 51.4672V51.9672H24.5873V51.4672H24.0873ZM19.8993 51.4672H19.3993V51.9672H19.8993V51.4672ZM22.5393 43.4752L22.8476 43.8691L22.8577 43.8606L22.5393 43.4752ZM21.2193 43.4752L20.9007 43.8608L20.9111 43.8689L21.2193 43.4752ZM21.2073 42.2152L21.5341 42.5936L21.5354 42.5925L21.2073 42.2152ZM22.5393 42.2152L22.203 42.5851L22.2117 42.5931L22.2209 42.6006L22.5393 42.2152ZM25.1433 43.4752L25.4516 43.8691L25.4617 43.8606L25.1433 43.4752ZM23.8233 43.4752L23.5047 43.8608L23.5151 43.8689L23.8233 43.4752ZM23.8113 42.2152L24.1381 42.5936L24.1394 42.5925L23.8113 42.2152ZM25.1553 42.2152L24.8189 42.5853L24.8285 42.5936L25.1553 42.2152ZM19.8993 50.2872H22.4073V49.2872H19.8993V50.2872ZM22.9073 49.7872V44.7112H21.9073V49.7872H22.9073ZM22.4073 45.2112H24.0873V44.2112H22.4073V45.2112ZM23.5873 44.7112V51.4672H24.5873V44.7112H23.5873ZM24.0873 50.9672H19.8993V51.9672H24.0873V50.9672ZM20.3993 51.4672V49.7872H19.3993V51.4672H20.3993ZM22.2311 43.0814C22.1437 43.1499 22.0349 43.1912 21.8793 43.1912V44.1912C22.2356 44.1912 22.5669 44.0884 22.8475 43.8689L22.2311 43.0814ZM21.8793 43.1912C21.7236 43.1912 21.6149 43.1499 21.5275 43.0814L20.9111 43.8689C21.1916 44.0884 21.5229 44.1912 21.8793 44.1912V43.1912ZM21.5377 43.0897C21.4892 43.0496 21.4433 42.9868 21.4433 42.8272H20.4433C20.4433 43.2276 20.5814 43.5968 20.9009 43.8606L21.5377 43.0897ZM21.4433 42.8272C21.4433 42.7 21.48 42.6403 21.5341 42.5936L20.8805 41.8368C20.5826 42.094 20.4433 42.4423 20.4433 42.8272H21.4433ZM21.5354 42.5925C21.6206 42.5184 21.7251 42.4752 21.8793 42.4752V41.4752C21.5055 41.4752 21.162 41.5919 20.8792 41.8379L21.5354 42.5925ZM21.8793 42.4752C22.0337 42.4752 22.1294 42.5182 22.203 42.5851L22.8756 41.8452C22.5972 41.5921 22.2529 41.4752 21.8793 41.4752V42.4752ZM22.2209 42.6006C22.2807 42.65 22.3153 42.7079 22.3153 42.8272H23.3153C23.3153 42.4344 23.1659 42.0843 22.8577 41.8297L22.2209 42.6006ZM22.3153 42.8272C22.3153 42.9868 22.2694 43.0496 22.2209 43.0897L22.8577 43.8606C23.1772 43.5968 23.3153 43.2276 23.3153 42.8272H22.3153ZM24.8351 43.0814C24.7476 43.1499 24.6389 43.1912 24.4833 43.1912V44.1912C24.8396 44.1912 25.1709 44.0884 25.4515 43.8689L24.8351 43.0814ZM24.4833 43.1912C24.3277 43.1912 24.2189 43.1499 24.1315 43.0814L23.5151 43.8689C23.7956 44.0884 24.1269 44.1912 24.4833 44.1912V43.1912ZM24.1417 43.0897C24.0932 43.0496 24.0473 42.9868 24.0473 42.8272H23.0473C23.0473 43.2276 23.1854 43.5968 23.5049 43.8606L24.1417 43.0897ZM24.0473 42.8272C24.0473 42.7 24.084 42.6403 24.1381 42.5936L23.4845 41.8368C23.1866 42.094 23.0473 42.4423 23.0473 42.8272H24.0473ZM24.1394 42.5925C24.2246 42.5184 24.3291 42.4752 24.4833 42.4752V41.4752C24.1095 41.4752 23.766 41.5919 23.4832 41.8379L24.1394 42.5925ZM24.4833 42.4752C24.65 42.4752 24.7482 42.5208 24.819 42.5851L25.4916 41.8452C25.2104 41.5895 24.8606 41.4752 24.4833 41.4752V42.4752ZM24.8285 42.5936C24.8826 42.6403 24.9193 42.7 24.9193 42.8272H25.9193C25.9193 42.4423 25.78 42.094 25.4821 41.8368L24.8285 42.5936ZM24.9193 42.8272C24.9193 42.9868 24.8734 43.0496 24.8249 43.0897L25.4617 43.8606C25.7812 43.5968 25.9193 43.2276 25.9193 42.8272H24.9193ZM25.7292 54.0712L25.8072 53.5773L25.7944 53.5753L25.7816 53.5739L25.7292 54.0712ZM25.3452 53.9992L24.8465 54.0348L24.8709 54.3763L25.1982 54.4771L25.3452 53.9992ZM25.2252 52.3192L25.3465 51.8341L24.6774 51.6668L24.7265 52.3548L25.2252 52.3192ZM25.6452 52.4032L25.7113 51.9075H25.7113L25.6452 52.4032ZM26.7132 52.1512L26.3111 51.854L26.3069 51.8597L26.3028 51.8656L26.7132 52.1512ZM26.9172 44.7112V44.2112H26.4172V44.7112H26.9172ZM28.5972 44.7112H29.0972V44.2112H28.5972V44.7112ZM28.5972 49.7872H28.0972V50.2872H28.5972V49.7872ZM29.8932 49.7872H30.3932V49.2872H29.8932V49.7872ZM29.8932 51.4672V51.9672H30.3932V51.4672H29.8932ZM28.5852 51.4672V50.9672H28.1104L28.0859 51.4413L28.5852 51.4672ZM27.9492 53.4832L27.5783 53.1479L27.9492 53.4832ZM26.1972 53.6072C26.0623 53.6072 25.9324 53.5971 25.8072 53.5773L25.6513 54.565C25.83 54.5933 26.0122 54.6072 26.1972 54.6072V53.6072ZM25.7816 53.5739C25.6499 53.56 25.5558 53.5408 25.4923 53.5213L25.1982 54.4771C25.3426 54.5215 25.5046 54.5503 25.6769 54.5684L25.7816 53.5739ZM25.844 53.9635L25.724 52.2835L24.7265 52.3548L24.8465 54.0348L25.844 53.9635ZM25.104 52.8042C25.2761 52.8473 25.4353 52.8796 25.5792 52.8988L25.7113 51.9075C25.6152 51.8947 25.4943 51.8711 25.3465 51.8341L25.104 52.8042ZM25.5792 52.8988C25.7223 52.9179 25.8684 52.9272 26.0172 52.9272V51.9272C25.9101 51.9272 25.8082 51.9205 25.7113 51.9075L25.5792 52.8988ZM26.0172 52.9272C26.4311 52.9272 26.8621 52.8128 27.1237 52.4367L26.3028 51.8656C26.3012 51.868 26.2943 51.8793 26.2589 51.8934C26.2181 51.9096 26.1427 51.9272 26.0172 51.9272V52.9272ZM27.1153 52.4484C27.3489 52.1324 27.4172 51.6976 27.4172 51.2512H26.4172C26.4172 51.6367 26.3496 51.802 26.3111 51.854L27.1153 52.4484ZM27.4172 51.2512V44.7112H26.4172V51.2512H27.4172ZM26.9172 45.2112H28.5972V44.2112H26.9172V45.2112ZM28.0972 44.7112V49.7872H29.0972V44.7112H28.0972ZM28.5972 50.2872H29.8932V49.2872H28.5972V50.2872ZM29.3932 49.7872V51.4672H30.3932V49.7872H29.3932ZM29.8932 50.9672H28.5852V51.9672H29.8932V50.9672ZM28.0859 51.4413C28.0402 52.324 27.8408 52.8575 27.5783 53.1479L28.3202 53.8184C28.8097 53.2768 29.0342 52.4663 29.0846 51.493L28.0859 51.4413ZM27.5783 53.1479C27.331 53.4215 26.9078 53.6072 26.1972 53.6072V54.6072C27.0707 54.6072 27.8155 54.3768 28.3202 53.8184L27.5783 53.1479ZM29.5382 49.7872V49.2872H29.0382V49.7872H29.5382ZM32.0462 49.7872V50.2872H32.5462V49.7872H32.0462ZM32.0462 44.7112V44.2112H31.5462V44.7112H32.0462ZM33.7262 44.7112H34.2262V44.2112H33.7262V44.7112ZM33.7262 49.7872H33.2262V50.2872H33.7262V49.7872ZM35.9342 49.7872H36.4342V49.2872H35.9342V49.7872ZM35.9342 51.4672V51.9672H36.4342V51.4672H35.9342ZM29.5382 51.4672H29.0382V51.9672H29.5382V51.4672ZM34.7702 43.4752L35.0785 43.8691L35.0886 43.8606L34.7702 43.4752ZM33.4502 43.4752L33.1317 43.8608L33.142 43.8689L33.4502 43.4752ZM33.4382 42.2152L33.765 42.5936L33.7663 42.5925L33.4382 42.2152ZM34.7822 42.2152L34.4458 42.5853L34.4554 42.5936L34.7822 42.2152ZM32.1662 43.4752L32.4745 43.8691L32.4846 43.8606L32.1662 43.4752ZM30.8462 43.4752L30.5277 43.8608L30.538 43.8689L30.8462 43.4752ZM30.8342 42.2152L31.161 42.5936L31.1623 42.5925L30.8342 42.2152ZM32.1662 42.2152L31.8299 42.5851L31.8386 42.5931L31.8478 42.6006L32.1662 42.2152ZM29.5382 50.2872H32.0462V49.2872H29.5382V50.2872ZM32.5462 49.7872V44.7112H31.5462V49.7872H32.5462ZM32.0462 45.2112H33.7262V44.2112H32.0462V45.2112ZM33.2262 44.7112V49.7872H34.2262V44.7112H33.2262ZM33.7262 50.2872H35.9342V49.2872H33.7262V50.2872ZM35.4342 49.7872V51.4672H36.4342V49.7872H35.4342ZM35.9342 50.9672H29.5382V51.9672H35.9342V50.9672ZM30.0382 51.4672V49.7872H29.0382V51.4672H30.0382ZM34.462 43.0814C34.3746 43.1499 34.2659 43.1912 34.1102 43.1912V44.1912C34.4666 44.1912 34.7979 44.0884 35.0784 43.8689L34.462 43.0814ZM34.1102 43.1912C33.9546 43.1912 33.8459 43.1499 33.7584 43.0814L33.142 43.8689C33.4226 44.0884 33.7539 44.1912 34.1102 44.1912V43.1912ZM33.7686 43.0897C33.7201 43.0496 33.6742 42.9868 33.6742 42.8272H32.6742C32.6742 43.2276 32.8123 43.5968 33.1318 43.8606L33.7686 43.0897ZM33.6742 42.8272C33.6742 42.7 33.7109 42.6403 33.765 42.5936L33.1114 41.8368C32.8135 42.094 32.6742 42.4423 32.6742 42.8272H33.6742ZM33.7663 42.5925C33.8515 42.5184 33.956 42.4752 34.1102 42.4752V41.4752C33.7364 41.4752 33.3929 41.5919 33.1101 41.8379L33.7663 42.5925ZM34.1102 42.4752C34.2769 42.4752 34.3751 42.5208 34.4459 42.5851L35.1185 41.8452C34.8373 41.5895 34.4875 41.4752 34.1102 41.4752V42.4752ZM34.4554 42.5936C34.5095 42.6403 34.5462 42.7 34.5462 42.8272H35.5462C35.5462 42.4423 35.4069 42.094 35.109 41.8368L34.4554 42.5936ZM34.5462 42.8272C34.5462 42.9868 34.5003 43.0496 34.4518 43.0897L35.0886 43.8606C35.4081 43.5968 35.5462 43.2276 35.5462 42.8272H34.5462ZM31.858 43.0814C31.7706 43.1499 31.6619 43.1912 31.5062 43.1912V44.1912C31.8626 44.1912 32.1939 44.0884 32.4744 43.8689L31.858 43.0814ZM31.5062 43.1912C31.3506 43.1912 31.2419 43.1499 31.1544 43.0814L30.538 43.8689C30.8186 44.0884 31.1499 44.1912 31.5062 44.1912V43.1912ZM31.1646 43.0897C31.1161 43.0496 31.0702 42.9868 31.0702 42.8272H30.0702C30.0702 43.2276 30.2083 43.5968 30.5278 43.8606L31.1646 43.0897ZM31.0702 42.8272C31.0702 42.7 31.1069 42.6403 31.161 42.5936L30.5074 41.8368C30.2095 42.094 30.0702 42.4423 30.0702 42.8272H31.0702ZM31.1623 42.5925C31.2475 42.5184 31.352 42.4752 31.5062 42.4752V41.4752C31.1324 41.4752 30.7889 41.5919 30.5061 41.8379L31.1623 42.5925ZM31.5062 42.4752C31.6606 42.4752 31.7563 42.5182 31.8299 42.5851L32.5025 41.8452C32.2241 41.5921 31.8798 41.4752 31.5062 41.4752V42.4752ZM31.8478 42.6006C31.9076 42.65 31.9422 42.7079 31.9422 42.8272H32.9422C32.9422 42.4344 32.7928 42.0843 32.4846 41.8297L31.8478 42.6006ZM31.9422 42.8272C31.9422 42.9868 31.8963 43.0496 31.8478 43.0897L32.4846 43.8606C32.8041 43.5968 32.9422 43.2276 32.9422 42.8272H31.9422ZM35.5705 49.7872V49.2872H35.0705V49.7872H35.5705ZM36.7465 49.7872V50.2872H37.2465V49.7872H36.7465ZM36.7465 41.7352V41.2352H36.2465V41.7352H36.7465ZM39.2066 41.7352H39.7066V41.2352H39.2066V41.7352ZM39.2066 43.4152V43.9152H39.7066V43.4152H39.2066ZM38.4265 43.4152V42.9152H37.9265V43.4152H38.4265ZM38.4265 51.4672V51.9672H38.9265V51.4672H38.4265ZM35.5705 51.4672H35.0705V51.9672H35.5705V51.4672ZM35.5705 50.2872H36.7465V49.2872H35.5705V50.2872ZM37.2465 49.7872V41.7352H36.2465V49.7872H37.2465ZM36.7465 42.2352H39.2066V41.2352H36.7465V42.2352ZM38.7066 41.7352V43.4152H39.7066V41.7352H38.7066ZM39.2066 42.9152H38.4265V43.9152H39.2066V42.9152ZM37.9265 43.4152V51.4672H38.9265V43.4152H37.9265ZM38.4265 50.9672H35.5705V51.9672H38.4265V50.9672ZM36.0705 51.4672V49.7872H35.0705V51.4672H36.0705ZM41.1238 41.7352V41.2352H40.6238V41.7352H41.1238ZM42.8038 41.7352H43.3038V41.2352H42.8038V41.7352ZM42.8038 51.4672V51.9672H43.3038V51.4672H42.8038ZM41.1238 51.4672H40.6238V51.9672H41.1238V51.4672ZM41.1238 42.2352H42.8038V41.2352H41.1238V42.2352ZM42.3038 41.7352V51.4672H43.3038V41.7352H42.3038ZM42.8038 50.9672H41.1238V51.9672H42.8038V50.9672ZM41.6238 51.4672V41.7352H40.6238V51.4672H41.6238Z" fill="#3E3E3E" mask="url(#path-53-outside-1_35_5118)"/>
</g>
<defs>
<filter id="filter0_dd_35_5118" x="0.871621" y="39.1952" width="44.9721" height="18.452" filterUnits="userSpaceOnUse" color-interpolation-filters="sRGB">
<feFlood flood-opacity="0" result="BackgroundImageFix"/>
<feColorMatrix in="SourceAlpha" type="matrix" values="0 0 0 0 0 0 0 0 0 0 0 0 0 0 0 0 0 0 127 0" result="hardAlpha"/>
<feOffset dy="1"/>
<feComposite in2="hardAlpha" operator="out"/>
<feColorMatrix type="matrix" values="0 0 0 0 0 0 0 0 0 0 0 0 0 0 0 0 0 0 1 0"/>
<feBlend mode="normal" in2="BackgroundImageFix" result="effect1_dropShadow_35_5118"/>
<feColorMatrix in="SourceAlpha" type="matrix" values="0 0 0 0 0 0 0 0 0 0 0 0 0 0 0 0 0 0 127 0" result="hardAlpha"/>
<feOffset dy="0.5"/>
<feGaussianBlur stdDeviation="1.27"/>
<feComposite in2="hardAlpha" operator="out"/>
<feColorMatrix type="matrix" values="0 0 0 0 0 0 0 0 0 0 0 0 0 0 0 0 0 0 0.8 0"/>
<feBlend mode="normal" in2="effect1_dropShadow_35_5118" result="effect2_dropShadow_35_5118"/>
<feBlend mode="normal" in="SourceGraphic" in2="effect2_dropShadow_35_5118" result="shape"/>
</filter>
</defs>
</svg>
