<svg width="29" height="28" viewBox="0 0 29 28" fill="none" xmlns="http://www.w3.org/2000/svg">
<mask id="path-1-outside-1_635_4759" maskUnits="userSpaceOnUse" x="7.24011" y="2.45264" width="15" height="18" fill="black">
<rect fill="white" x="7.24011" y="2.45264" width="15" height="18"/>
<path fill-rule="evenodd" clip-rule="evenodd" d="M17.3831 18.3092H15.0146L15.6679 19.4525H20.8107L15.9133 10.8819L20.1584 3.45299H17.3828L14.5255 8.45331L11.668 3.45264H8.89364L13.1383 10.8809L8.24011 19.4528H13.3829L14.0363 18.3093H11.6691L14.5261 13.3095L17.3831 18.3092Z"/>
</mask>
<path fill-rule="evenodd" clip-rule="evenodd" d="M17.3831 18.3092H15.0146L15.6679 19.4525H20.8107L15.9133 10.8819L20.1584 3.45299H17.3828L14.5255 8.45331L11.668 3.45264H8.89364L13.1383 10.8809L8.24011 19.4528H13.3829L14.0363 18.3093H11.6691L14.5261 13.3095L17.3831 18.3092Z" fill="#500E53"/>
<path d="M15.0146 18.3092V17.7377C14.8109 17.7377 14.6226 17.8462 14.5204 18.0223C14.4182 18.1985 14.4174 18.4158 14.5185 18.5927L15.0146 18.3092ZM17.3831 18.3092V18.8806C17.5868 18.8806 17.775 18.7721 17.8773 18.596C17.9795 18.4198 17.9803 18.2025 17.8792 18.0257L17.3831 18.3092ZM15.6679 19.4525L15.1718 19.736C15.2736 19.914 15.4629 20.0239 15.6679 20.0239V19.4525ZM20.8107 19.4525V20.0239C21.0144 20.0239 21.2027 19.9154 21.305 19.7393C21.4072 19.5631 21.4079 19.3458 21.3069 19.169L20.8107 19.4525ZM15.9133 10.8819L15.4172 10.5984C15.3168 10.7741 15.3168 10.9898 15.4172 11.1654L15.9133 10.8819ZM20.1584 3.45299L20.6545 3.7365C20.7556 3.55964 20.7549 3.34236 20.6526 3.16618C20.5504 2.99 20.3621 2.88157 20.1584 2.88157V3.45299ZM17.3828 3.45299V2.88157C17.1778 2.88157 16.9885 2.99145 16.8867 3.16949L17.3828 3.45299ZM14.5255 8.45331L14.0294 8.73682C14.1311 8.91486 14.3205 9.02474 14.5255 9.02474C14.7306 9.02474 14.9199 8.91486 15.0217 8.73682L14.5255 8.45331ZM11.668 3.45264L12.1641 3.16913C12.0624 2.99109 11.8731 2.88122 11.668 2.88122V3.45264ZM8.89364 3.45264V2.88122C8.68995 2.88122 8.50165 2.98965 8.39941 3.16582C8.29717 3.342 8.29645 3.55928 8.39751 3.73614L8.89364 3.45264ZM13.1383 10.8809L13.6345 11.1644C13.7349 10.9887 13.7349 10.7731 13.6345 10.5974L13.1383 10.8809ZM8.24011 19.4528L7.74398 19.1693C7.64292 19.3462 7.64364 19.5634 7.74588 19.7396C7.84812 19.9158 8.03642 20.0242 8.24011 20.0242V19.4528ZM13.3829 19.4528V20.0242C13.588 20.0242 13.7773 19.9144 13.879 19.7363L13.3829 19.4528ZM14.0363 18.3093L14.5325 18.5928C14.6335 18.416 14.6328 18.1987 14.5306 18.0225C14.4283 17.8463 14.24 17.7379 14.0363 17.7379V18.3093ZM11.6691 18.3093L11.173 18.0258C11.0719 18.2027 11.0726 18.4199 11.1749 18.5961C11.2771 18.7723 11.4654 18.8807 11.6691 18.8807V18.3093ZM14.5261 13.3095L15.0223 13.026C14.9205 12.8479 14.7312 12.7381 14.5261 12.7381C14.3211 12.7381 14.1317 12.8479 14.03 13.026L14.5261 13.3095ZM15.0146 18.8806H17.3831V17.7377H15.0146V18.8806ZM16.1641 19.169L15.5108 18.0257L14.5185 18.5927L15.1718 19.736L16.1641 19.169ZM20.8107 18.881H15.6679V20.0239H20.8107V18.881ZM15.4172 11.1654L20.3146 19.736L21.3069 19.169L16.4094 10.5984L15.4172 11.1654ZM16.4094 11.1654L20.6545 3.7365L19.6623 3.16949L15.4172 10.5984L16.4094 11.1654ZM20.1584 2.88157H17.3828V4.02441H20.1584V2.88157ZM16.8867 3.16949L14.0294 8.16981L15.0217 8.73682L17.879 3.7365L16.8867 3.16949ZM11.1719 3.73614L14.0294 8.73682L15.0217 8.16981L12.1641 3.16913L11.1719 3.73614ZM8.89364 4.02406H11.668V2.88122H8.89364V4.02406ZM13.6345 10.5974L9.38977 3.16913L8.39751 3.73614L12.6422 11.1644L13.6345 10.5974ZM12.6422 10.5974L7.74398 19.1693L8.73625 19.7363L13.6345 11.1644L12.6422 10.5974ZM8.24011 20.0242H13.3829V18.8814H8.24011V20.0242ZM13.879 19.7363L14.5325 18.5928L13.5402 18.0258L12.8868 19.1693L13.879 19.7363ZM14.0363 17.7379H11.6691V18.8807H14.0363V17.7379ZM12.1652 18.5928L15.0223 13.593L14.03 13.026L11.173 18.0258L12.1652 18.5928ZM17.8792 18.0257L15.0223 13.026L14.03 13.593L16.8869 18.5927L17.8792 18.0257Z" fill="#500E53" mask="url(#path-1-outside-1_635_4759)"/>
<mask id="path-3-outside-2_635_4759" maskUnits="userSpaceOnUse" x="2.66907" y="1.3103" width="24" height="11" fill="black">
<rect fill="white" x="2.66907" y="1.3103" width="24" height="11"/>
<path fill-rule="evenodd" clip-rule="evenodd" d="M8.81185 2.3103H3.66907L8.61221 10.9608C9.69086 9.93292 11.0371 9.18334 12.5358 8.8273L8.81185 2.3103ZM16.5153 8.82785C18.0138 9.18429 19.3599 9.93422 20.4383 10.9624L25.3823 2.31042H20.2395L16.5153 8.82785Z"/>
</mask>
<path fill-rule="evenodd" clip-rule="evenodd" d="M8.81185 2.3103H3.66907L8.61221 10.9608C9.69086 9.93292 11.0371 9.18334 12.5358 8.8273L8.81185 2.3103ZM16.5153 8.82785C18.0138 9.18429 19.3599 9.93422 20.4383 10.9624L25.3823 2.31042H20.2395L16.5153 8.82785Z" fill="#B21FB9"/>
<path d="M3.66907 2.3103V1.73888C3.46537 1.73888 3.27708 1.84731 3.17484 2.02349C3.0726 2.19967 3.07187 2.41695 3.17293 2.59381L3.66907 2.3103ZM8.81185 2.3103L9.30799 2.0268C9.20625 1.84876 9.01691 1.73888 8.81185 1.73888V2.3103ZM8.61221 10.9608L8.11608 11.2443C8.20324 11.3969 8.35572 11.5008 8.52955 11.5262C8.70338 11.5516 8.87924 11.4957 9.00642 11.3745L8.61221 10.9608ZM12.5358 8.8273L12.6679 9.38325C12.8431 9.34163 12.9884 9.21987 13.0601 9.05466C13.1317 8.88946 13.1213 8.70015 13.032 8.5438L12.5358 8.8273ZM16.5153 8.82785L16.0191 8.54435C15.9298 8.70067 15.9194 8.88995 15.991 9.05513C16.0626 9.22032 16.2079 9.3421 16.383 9.38376L16.5153 8.82785ZM20.4383 10.9624L20.044 11.376C20.1711 11.4972 20.347 11.5532 20.5209 11.5279C20.6947 11.5025 20.8472 11.3985 20.9344 11.2459L20.4383 10.9624ZM25.3823 2.31042L25.8784 2.59392C25.9795 2.41707 25.9788 2.19979 25.8765 2.02361C25.7743 1.84743 25.586 1.739 25.3823 1.739V2.31042ZM20.2395 2.31042V1.739C20.0344 1.739 19.8451 1.84888 19.7434 2.02692L20.2395 2.31042ZM3.66907 2.88172H8.81185V1.73888H3.66907V2.88172ZM9.10835 10.6773L4.1652 2.0268L3.17293 2.59381L8.11608 11.2443L9.10835 10.6773ZM9.00642 11.3745C10.0137 10.4146 11.2702 9.7153 12.6679 9.38325L12.4038 8.27136C10.8041 8.65138 9.36799 9.45127 8.218 10.5472L9.00642 11.3745ZM8.31572 2.59381L12.0397 9.11081L13.032 8.5438L9.30799 2.0268L8.31572 2.59381ZM16.383 9.38376C17.7806 9.71619 19.0369 10.4158 20.044 11.376L20.8326 10.5489C19.6829 9.45267 18.247 8.6524 16.6475 8.27194L16.383 9.38376ZM24.8862 2.02692L19.9422 10.6789L20.9344 11.2459L25.8784 2.59392L24.8862 2.02692ZM20.2395 2.88184H25.3823V1.739H20.2395V2.88184ZM17.0114 9.11135L20.7356 2.59392L19.7434 2.02692L16.0191 8.54435L17.0114 9.11135Z" fill="#500E53" mask="url(#path-3-outside-2_635_4759)"/>
<path d="M4.52637 2.8811L8.66917 10.0239" stroke="#737FBA" stroke-width="0.571421" stroke-linecap="round" stroke-linejoin="round"/>
<path d="M20.5247 2.8811L17.239 8.59532" stroke="#737FBA" stroke-width="0.571421" stroke-linecap="round" stroke-linejoin="round"/>
<path d="M14.5248 25.4525C19.1008 25.4525 22.8104 21.7429 22.8104 17.1669C22.8104 12.5909 19.1008 8.88128 14.5248 8.88128C9.94878 8.88128 6.23919 12.5909 6.23919 17.1669C6.23919 21.7429 9.94878 25.4525 14.5248 25.4525Z" fill="#C27C3B" stroke="#672001" stroke-width="0.571421" stroke-linejoin="round"/>
<ellipse cx="14.5245" cy="17.1675" rx="6.57134" ry="6.57135" fill="#FCCA9B"/>
<ellipse cx="18.1494" cy="22.4362" rx="0.571421" ry="0.571422" transform="rotate(-8.26955 18.1494 22.4362)" fill="#F2B275"/>
<ellipse cx="17.9427" cy="20.7709" rx="0.536168" ry="0.536169" transform="rotate(-8.26955 17.9427 20.7709)" fill="#F2B275"/>
<ellipse cx="20.4396" cy="19.0802" rx="0.428566" ry="0.428567" transform="rotate(-8.26955 20.4396 19.0802)" fill="#F2B275"/>
<ellipse cx="15.0794" cy="23.172" rx="0.571421" ry="0.571422" transform="rotate(-8.26955 15.0794 23.172)" fill="#F2B275"/>
<ellipse cx="19.5098" cy="20.275" rx="0.515699" ry="0.5157" transform="rotate(-8.26955 19.5098 20.275)" fill="#F2B275"/>
<ellipse cx="19.4201" cy="18.3483" rx="0.28571" ry="0.285711" transform="rotate(-8.26955 19.4201 18.3483)" fill="#F2B275"/>
<ellipse cx="15.9919" cy="22.0622" rx="0.28571" ry="0.285711" transform="rotate(-8.26955 15.9919 22.0622)" fill="#F2B275"/>
<ellipse cx="19.7627" cy="21.623" rx="0.28571" ry="0.285711" transform="rotate(-8.26955 19.7627 21.623)" fill="#F2B275"/>
<ellipse cx="16.563" cy="22.9201" rx="0.28571" ry="0.285711" transform="rotate(-8.26955 16.563 22.9201)" fill="#F2B275"/>
<ellipse cx="13.4247" cy="23.7004" rx="0.28571" ry="0.285711" transform="rotate(-8.26955 13.4247 23.7004)" fill="#F2B275"/>
<ellipse cx="14.5253" cy="17.1666" rx="6.85705" ry="6.85706" stroke="#A55833" stroke-width="0.571421" stroke-linejoin="round"/>
<path d="M7.09705 17.168C7.09705 13.0653 10.4229 9.7395 14.5255 9.7395" stroke="#EC9F58" stroke-width="0.571421" stroke-linecap="round" stroke-linejoin="round"/>
<path d="M14.5243 22.3099C17.3646 22.3099 19.6671 20.0074 19.6671 17.1671C19.6671 14.3269 17.3646 12.0243 14.5243 12.0243C11.684 12.0243 9.38153 14.3269 9.38153 17.1671C9.38153 20.0074 11.684 22.3099 14.5243 22.3099Z" fill="#F6B981" stroke="#A55833" stroke-width="0.571421"/>
<path d="M9.95398 17.1668C9.95398 14.6421 12.0007 12.5955 14.5253 12.5955" stroke="#FFEFDF" stroke-width="0.571421" stroke-linecap="round" stroke-linejoin="round"/>
<path d="M11.6116 16.201C11.5088 16.2218 11.4257 16.2973 11.3951 16.3976C11.3645 16.498 11.3913 16.607 11.465 16.6817L12.7873 18.0216L12.4594 19.6828C12.4383 19.79 12.4801 19.8998 12.5672 19.9658C12.6543 20.0318 12.7714 20.0423 12.8689 19.9929L14.5254 19.1536L16.182 19.9929C16.2795 20.0423 16.3966 20.0318 16.4837 19.9658C16.5708 19.8998 16.6126 19.79 16.5914 19.6828L16.2636 18.0216L17.5859 16.6817C17.6596 16.607 17.6864 16.498 17.6558 16.3976C17.6252 16.2973 17.5421 16.2218 17.4393 16.201L15.778 15.8643L14.7713 14.164C14.7199 14.0771 14.6264 14.0239 14.5254 14.0239C14.4245 14.0239 14.331 14.0771 14.2796 14.164L13.7439 15.0688L13.2729 15.8643L11.6116 16.201Z" fill="#FFD2B1" stroke="#964F2E" stroke-width="0.571421" stroke-linecap="round" stroke-linejoin="round"/>
<ellipse cx="22.524" cy="3.45148" rx="0.28571" ry="0.285711" fill="#C638CC"/>
<ellipse cx="23.6677" cy="3.45148" rx="0.28571" ry="0.285711" fill="#C638CC"/>
<ellipse cx="22.239" cy="6.30817" rx="0.28571" ry="0.285711" fill="#C638CC"/>
<ellipse cx="21.096" cy="8.02277" rx="0.28571" ry="0.285711" fill="#C638CC"/>
<ellipse cx="21.3821" cy="4.3089" rx="0.28571" ry="0.285711" fill="#C638CC"/>
<ellipse cx="22.3814" cy="5.0228" rx="0.428566" ry="0.428567" fill="#C638CC"/>
<ellipse cx="21.2386" cy="6.45103" rx="0.428566" ry="0.428567" fill="#C638CC"/>
</svg>
