<svg width="78" height="60" viewBox="0 0 78 60" fill="none" xmlns="http://www.w3.org/2000/svg">
<g filter="url(#filter0_ddddd_49_1728)">
<rect x="3.45898" y="1.46475" width="70.5836" height="47.4415" rx="15.5189" fill="url(#paint0_linear_49_1728)"/>
<rect x="4.75222" y="2.75799" width="67.9971" height="44.855" rx="14.2256" stroke="url(#paint1_linear_49_1728)" stroke-width="2.58648"/>
<g clip-path="url(#clip0_49_1728)">
<path fill-rule="evenodd" clip-rule="evenodd" d="M8.63232 34.7265C8.63232 37.044 12.0791 45.0263 19.6249 45.0263V36.6497C15.1753 36.6497 12.2775 35.3415 10.5802 34.5754C9.22159 33.9621 8.63232 33.6961 8.63232 34.7265ZM68.4633 34.7266C68.4633 37.0441 65.0165 45.0264 57.4707 45.0264V36.6497C61.9203 36.6497 64.8181 35.3416 66.5153 34.5755C67.874 33.9622 68.4633 33.6962 68.4633 34.7266ZM57.4702 36.6204H19.626V45.0264H57.4702V36.6204Z" fill="url(#paint2_linear_49_1728)"/>
</g>
<ellipse cx="63.6005" cy="10.8312" rx="2.58648" ry="5.17296" transform="rotate(-45 63.6005 10.8312)" fill="#FFD98D"/>
<ellipse cx="11.8641" cy="11.8108" rx="2.58648" ry="3.2331" transform="rotate(30 11.8641 11.8108)" fill="#FFD98D"/>
<g filter="url(#filter1_di_49_1728)">
<path fill-rule="evenodd" clip-rule="evenodd" d="M25.7677 25.3333C25.7307 27.1243 27.1526 28.6062 28.9436 28.6432L34.6792 28.7616L34.7976 34.4971C34.8346 36.2881 36.3165 37.7101 38.1075 37.6731C39.8985 37.6361 41.3204 36.1542 41.2834 34.3632L41.1705 28.8957L46.9079 29.0142C48.6989 29.0512 50.1808 27.6292 50.2178 25.8382C50.2548 24.0472 48.8329 22.5654 47.0418 22.5284L41.0365 22.4044L40.9125 16.3989C40.8755 14.6079 39.3936 13.186 37.6026 13.223C35.8116 13.26 34.3897 14.7418 34.4267 16.5328L34.5451 22.2703L29.0776 22.1574C27.2866 22.1204 25.8047 23.5423 25.7677 25.3333Z" fill="white"/>
</g>
</g>
<defs>
<filter id="filter0_ddddd_49_1728" x="0.225888" y="0.818133" width="77.0497" height="59.0806" filterUnits="userSpaceOnUse" color-interpolation-filters="sRGB">
<feFlood flood-opacity="0" result="BackgroundImageFix"/>
<feColorMatrix in="SourceAlpha" type="matrix" values="0 0 0 0 0 0 0 0 0 0 0 0 0 0 0 0 0 0 127 0" result="hardAlpha"/>
<feOffset/>
<feColorMatrix type="matrix" values="0 0 0 0 0 0 0 0 0 0 0 0 0 0 0 0 0 0 0.24 0"/>
<feBlend mode="normal" in2="BackgroundImageFix" result="effect1_dropShadow_49_1728"/>
<feColorMatrix in="SourceAlpha" type="matrix" values="0 0 0 0 0 0 0 0 0 0 0 0 0 0 0 0 0 0 127 0" result="hardAlpha"/>
<feOffset dy="0.646619"/>
<feGaussianBlur stdDeviation="0.646619"/>
<feColorMatrix type="matrix" values="0 0 0 0 0 0 0 0 0 0 0 0 0 0 0 0 0 0 0.24 0"/>
<feBlend mode="normal" in2="effect1_dropShadow_49_1728" result="effect2_dropShadow_49_1728"/>
<feColorMatrix in="SourceAlpha" type="matrix" values="0 0 0 0 0 0 0 0 0 0 0 0 0 0 0 0 0 0 127 0" result="hardAlpha"/>
<feOffset dy="1.93986"/>
<feGaussianBlur stdDeviation="0.969929"/>
<feColorMatrix type="matrix" values="0 0 0 0 0 0 0 0 0 0 0 0 0 0 0 0 0 0 0.2 0"/>
<feBlend mode="normal" in2="effect2_dropShadow_49_1728" result="effect3_dropShadow_49_1728"/>
<feColorMatrix in="SourceAlpha" type="matrix" values="0 0 0 0 0 0 0 0 0 0 0 0 0 0 0 0 0 0 127 0" result="hardAlpha"/>
<feOffset dy="4.52634"/>
<feGaussianBlur stdDeviation="1.29324"/>
<feColorMatrix type="matrix" values="0 0 0 0 0 0 0 0 0 0 0 0 0 0 0 0 0 0 0.12 0"/>
<feBlend mode="normal" in2="effect3_dropShadow_49_1728" result="effect4_dropShadow_49_1728"/>
<feColorMatrix in="SourceAlpha" type="matrix" values="0 0 0 0 0 0 0 0 0 0 0 0 0 0 0 0 0 0 127 0" result="hardAlpha"/>
<feOffset dy="7.75943"/>
<feGaussianBlur stdDeviation="1.61655"/>
<feColorMatrix type="matrix" values="0 0 0 0 0 0 0 0 0 0 0 0 0 0 0 0 0 0 0.04 0"/>
<feBlend mode="normal" in2="effect4_dropShadow_49_1728" result="effect5_dropShadow_49_1728"/>
<feBlend mode="normal" in="SourceGraphic" in2="effect5_dropShadow_49_1728" result="shape"/>
</filter>
<filter id="filter1_di_49_1728" x="23.9851" y="13.2223" width="28.0151" height="28.9063" filterUnits="userSpaceOnUse" color-interpolation-filters="sRGB">
<feFlood flood-opacity="0" result="BackgroundImageFix"/>
<feColorMatrix in="SourceAlpha" type="matrix" values="0 0 0 0 0 0 0 0 0 0 0 0 0 0 0 0 0 0 127 0" result="hardAlpha"/>
<feOffset dy="2.67292"/>
<feGaussianBlur stdDeviation="0.890973"/>
<feColorMatrix type="matrix" values="0 0 0 0 0.571846 0 0 0 0 0.140146 0 0 0 0 0.775 0 0 0 1 0"/>
<feBlend mode="normal" in2="BackgroundImageFix" result="effect1_dropShadow_49_1728"/>
<feBlend mode="normal" in="SourceGraphic" in2="effect1_dropShadow_49_1728" result="shape"/>
<feColorMatrix in="SourceAlpha" type="matrix" values="0 0 0 0 0 0 0 0 0 0 0 0 0 0 0 0 0 0 127 0" result="hardAlpha"/>
<feOffset dx="0.890973"/>
<feGaussianBlur stdDeviation="0.445487"/>
<feComposite in2="hardAlpha" operator="arithmetic" k2="-1" k3="1"/>
<feColorMatrix type="matrix" values="0 0 0 0 0.941176 0 0 0 0 0.564706 0 0 0 0 0.564706 0 0 0 1 0"/>
<feBlend mode="normal" in2="shape" result="effect2_innerShadow_49_1728"/>
</filter>
<linearGradient id="paint0_linear_49_1728" x1="38.7508" y1="1.46475" x2="38.7508" y2="48.9062" gradientUnits="userSpaceOnUse">
<stop stop-color="#FFC227"/>
<stop offset="1" stop-color="#E59500"/>
</linearGradient>
<linearGradient id="paint1_linear_49_1728" x1="38.7508" y1="1.46475" x2="38.7508" y2="48.9062" gradientUnits="userSpaceOnUse">
<stop stop-color="#C58102"/>
<stop offset="1" stop-color="#8D7128"/>
</linearGradient>
<linearGradient id="paint2_linear_49_1728" x1="38.5478" y1="34.0338" x2="38.5478" y2="45.0264" gradientUnits="userSpaceOnUse">
<stop stop-color="#DDB044"/>
<stop offset="1" stop-color="#C07F01"/>
</linearGradient>
<clipPath id="clip0_49_1728">
<rect width="59.8293" height="13.579" fill="white" transform="translate(8.63135 31.4476)"/>
</clipPath>
</defs>
</svg>
