<svg width="235" height="78" viewBox="0 0 235 78" fill="none" xmlns="http://www.w3.org/2000/svg">
<path d="M141.823 21.4019H110.979H14.8994V65.7231H110.979H141.823H219.255V21.4019H141.823Z" fill="#437EF1"/>
<path d="M206.634 55.1942H27.6961L21.4877 21.4019H14.8994V65.7231H110.979H141.823H219.255V21.4019H214.821L206.634 55.1942Z" fill="#3D73DB"/>
<g style="mix-blend-mode:multiply" opacity="0.3">
<path d="M14.8992 22.8319V29.0687L53.1872 34.6819L60.0192 62.3791C60.0192 62.3791 70.9165 25.6328 70.3609 23.9658C69.9186 22.6788 31.2225 22.7525 14.8992 22.8319Z" fill="#66579C"/>
</g>
<g style="mix-blend-mode:multiply" opacity="0.3">
<path d="M219.256 22.8261C202.377 22.7411 165.296 22.707 164.866 23.9601C164.299 25.6213 174.504 62.1862 174.504 62.1862L182.039 34.6704L219.256 29.216V22.8261Z" fill="#66579C"/>
</g>
<path d="M220.028 18.0806H14.1304C13.7649 18.0784 13.4025 18.1484 13.0641 18.2868C12.7258 18.4251 12.4182 18.629 12.1589 18.8866C11.8996 19.1443 11.6939 19.4507 11.5535 19.7882C11.4131 20.1257 11.3408 20.4876 11.3408 20.8532V26.2055C11.3393 26.572 11.4105 26.9352 11.5502 27.274C11.69 27.6128 11.8955 27.9205 12.1549 28.1794C12.4143 28.4383 12.7224 28.6432 13.0615 28.7822C13.4006 28.9212 13.7639 28.9917 14.1304 28.9894H220.028C220.762 28.9894 221.466 28.6979 221.985 28.179C222.503 27.6601 222.795 26.9564 222.795 26.2225V20.8702C222.797 20.5051 222.727 20.1432 222.589 19.8053C222.451 19.4673 222.248 19.1599 221.991 18.9007C221.734 18.6415 221.428 18.4356 221.091 18.2949C220.754 18.1542 220.393 18.0814 220.028 18.0806Z" fill="#3D73DB"/>
<path d="M181.338 23.8015C180.974 23.8022 180.613 23.7312 180.277 23.5925C179.941 23.4537 179.635 23.2501 179.378 22.9931C179.12 22.7361 178.916 22.4308 178.776 22.0947C178.637 21.7587 178.565 21.3984 178.565 21.0346V18.0806H54.6636V20.2975C54.6643 20.6613 54.5933 21.0217 54.4546 21.3581C54.3159 21.6944 54.1122 22.0001 53.8552 22.2576C53.5982 22.5152 53.2929 22.7195 52.9569 22.8589C52.6208 22.9983 52.2605 23.07 51.8967 23.07H11.3408V26.2111C11.3401 26.5772 11.4118 26.9397 11.5519 27.2778C11.6919 27.616 11.8975 27.9231 12.1569 28.1813C12.4162 28.4396 12.7241 28.644 13.0628 28.7827C13.4015 28.9214 13.7644 28.9916 14.1304 28.9894H220.028C220.762 28.9894 221.466 28.6979 221.985 28.179C222.504 27.6601 222.795 26.9563 222.795 26.2225V23.8185L181.338 23.8015Z" fill="#7DA9FF"/>
<path d="M174.136 1.83057H60.0146V65.7242H174.136V1.83057Z" fill="#437EF1"/>
<g style="mix-blend-mode:screen" opacity="0.3">
<path d="M174.136 51.1186L72.7546 47.0703L67.7936 1.83057H60.0146V65.7242H174.136V51.1186Z" fill="#725FA9"/>
</g>
<path d="M60.0146 11.0611L174.136 23.7616V1.83057H60.0146V11.0611Z" fill="#3D73DB"/>
<path d="M158.44 1.83154L153.638 65.7251H174.134V1.83154H158.44Z" fill="#3D73DB"/>
<path d="M153.64 65.7267H174.136V51.1212L154.796 50.3501L153.64 65.7267Z" fill="#3D73DB"/>
<path d="M11.266 62.771H222.89C223.626 62.771 224.331 63.0631 224.851 63.5831C225.371 64.103 225.663 64.8082 225.663 65.5436V72.9144C225.663 73.6482 225.371 74.352 224.852 74.8709C224.333 75.3898 223.63 75.6813 222.896 75.6813H11.266C10.5351 75.6798 9.83453 75.3891 9.31719 74.8729C8.79986 74.3566 8.50781 73.6566 8.50481 72.9257V65.5549C8.50332 65.1908 8.57356 64.83 8.71151 64.493C8.84947 64.1561 9.05244 63.8496 9.30884 63.5911C9.56524 63.3326 9.87005 63.1271 10.2059 62.9864C10.5417 62.8457 10.9019 62.7725 11.266 62.771Z" fill="#F9AE40"/>
<path d="M110.612 64.9858C109.85 65.0139 109.13 65.343 108.611 65.901C108.091 66.4591 107.814 67.2004 107.84 67.9625V75.6962H222.891C223.652 75.6667 224.37 75.3369 224.888 74.7791C225.407 74.2212 225.683 73.4807 225.657 72.7195V64.9858H110.612Z" fill="#F97F40"/>
<path d="M62.4187 72.9253V65.5545C62.4187 65.1907 62.4905 64.8304 62.6299 64.4943C62.7693 64.1583 62.9736 63.853 63.2311 63.596C63.4886 63.339 63.7943 63.1353 64.1307 62.9966C64.467 62.8579 64.8274 62.7869 65.1912 62.7876H11.2661C10.5366 62.7906 9.83774 63.0809 9.32088 63.5956C8.80402 64.1104 8.51084 64.8081 8.50488 65.5375V72.9083C8.50488 73.6436 8.79699 74.3488 9.31693 74.8688C9.83688 75.3888 10.5421 75.6809 11.2774 75.6809H65.2026C64.4682 75.6839 63.7627 75.3954 63.2408 74.8788C62.7189 74.3622 62.4232 73.6597 62.4187 72.9253Z" fill="#F9DB89"/>
<path d="M222.891 62.771H169.334C169.698 62.7703 170.058 62.8413 170.395 62.98C170.731 63.1187 171.037 63.3224 171.294 63.5794C171.552 63.8364 171.756 64.1417 171.895 64.4777C172.035 64.8138 172.106 65.1741 172.106 65.5379V72.9087C172.106 73.644 171.814 74.3493 171.294 74.8692C170.775 75.3892 170.069 75.6813 169.334 75.6813H222.885C223.619 75.6798 224.323 75.387 224.842 74.8672C225.36 74.3474 225.652 73.6431 225.652 72.9087V65.5379C225.652 64.8051 225.361 64.1021 224.843 63.5834C224.326 63.0647 223.623 62.7725 222.891 62.771Z" fill="#F97F40"/>
<path d="M234.162 75.4832C234.162 76.8213 232.92 77.9042 231.389 77.9042H2.76685C1.24168 77.9156 0 76.827 0 75.4832V71.2875C0 69.9495 1.24168 68.8608 2.76685 68.8608H231.383C232.914 68.8608 234.156 69.9495 234.156 71.2875L234.162 75.4832Z" fill="#EF5A29"/>
<path d="M95.4717 72.7428C95.1095 72.7391 94.75 72.8071 94.4142 72.943C94.0783 73.0789 93.7727 73.2799 93.515 73.5345C93.2572 73.7891 93.0524 74.0922 92.9124 74.4264C92.7724 74.7605 92.6999 75.1191 92.6992 75.4814V77.9364H231.382C231.745 77.9409 232.105 77.8734 232.441 77.7379C232.778 77.6024 233.084 77.4014 233.342 77.1468C233.601 76.8921 233.806 76.5887 233.946 76.2542C234.087 75.9197 234.159 75.5606 234.16 75.1979V72.7428H95.4717Z" fill="#B83E29"/>
<path d="M47.6243 75.4823V71.2866C47.6243 69.9485 48.866 68.8599 50.3968 68.8599H2.77075C1.23992 68.8599 0.00390625 69.9485 0.00390625 71.2866V75.4823C0.00390625 76.8203 1.24559 77.9033 2.77075 77.9033H50.3968C48.883 77.9146 47.6243 76.826 47.6243 75.4823Z" fill="#F9AE40"/>
<path d="M231.383 68.8647H178.598C180.128 68.8647 181.365 69.9534 181.365 71.2914V75.4815C181.365 76.8196 180.123 77.9025 178.598 77.9025H231.383C232.914 77.9025 234.156 76.8196 234.156 75.4815V71.2858C234.161 69.9477 232.914 68.8647 231.383 68.8647Z" fill="#B83E29"/>
<path d="M60.8477 0.169434H173.308C174.041 0.169434 174.745 0.460946 175.264 0.979838C175.783 1.49873 176.074 2.2025 176.074 2.93633V8.28867C176.074 9.024 175.782 9.72921 175.262 10.2492C174.743 10.7691 174.037 11.0612 173.302 11.0612H60.8477C60.1124 11.0612 59.4072 10.7691 58.8872 10.2492C58.3673 9.72921 58.0752 9.024 58.0752 8.28867V2.93633C58.0767 2.20198 58.3695 1.49822 58.8892 0.979492C59.409 0.460762 60.1134 0.169432 60.8477 0.169434Z" fill="#5981CE"/>
<path d="M67.8624 8.29434V2.942C67.8616 2.57769 67.9328 2.21682 68.0719 1.8801C68.211 1.54338 68.4152 1.23744 68.6728 0.979835C68.9304 0.72223 69.2363 0.51804 69.573 0.37897C69.9097 0.239901 70.2706 0.168692 70.6349 0.169439H60.8489C60.1145 0.170941 59.4108 0.46371 58.8921 0.983504C58.3734 1.5033 58.082 2.20765 58.082 2.942V8.29434C58.082 9.02869 58.3734 9.73304 58.8921 10.2528C59.4108 10.7726 60.1145 11.0654 60.8489 11.0669H70.6349C70.2708 11.0669 69.9103 10.9952 69.5739 10.8559C69.2375 10.7165 68.9319 10.5123 68.6744 10.2548C68.417 9.99738 68.2128 9.69174 68.0734 9.35536C67.9341 9.01897 67.8624 8.65844 67.8624 8.29434Z" fill="#3D73DB"/>
<path d="M82.6369 6.4458C81.9016 6.4458 81.1964 6.7379 80.6764 7.25786C80.1565 7.77781 79.8644 8.48303 79.8644 9.21836V11.0667H173.302C174.038 11.0667 174.743 10.7746 175.263 10.2547C175.783 9.73471 176.075 9.0295 176.075 8.29417V6.4458H82.6369Z" fill="#333B72"/>
<path d="M173.309 0.169434H153.55C154.285 0.169434 154.99 0.461544 155.51 0.981499C156.03 1.50146 156.322 2.20666 156.322 2.94199V8.29434C156.322 9.02967 156.03 9.73488 155.51 10.2548C154.99 10.7748 154.285 11.0669 153.55 11.0669H173.309C174.044 11.0669 174.749 10.7748 175.269 10.2548C175.789 9.73488 176.081 9.02967 176.081 8.29434V2.94199C176.081 2.20666 175.789 1.50146 175.269 0.981499C174.749 0.461544 174.044 0.169434 173.309 0.169434Z" fill="#7DA9FF"/>
<path d="M43.4645 72.4887C43.4645 72.985 43.2674 73.4609 42.9165 73.8118C42.5656 74.1627 42.0897 74.3598 41.5935 74.3598H36.332C35.8357 74.3598 35.3598 74.1627 35.0089 73.8118C34.6581 73.4609 34.4609 72.985 34.4609 72.4887C34.4609 71.9925 34.6581 71.5166 35.0089 71.1657C35.3598 70.8148 35.8357 70.6177 36.332 70.6177H41.5935C42.0897 70.6177 42.5656 70.8148 42.9165 71.1657C43.2674 71.5166 43.4645 71.9925 43.4645 72.4887Z" fill="#EF5A29"/>
<path d="M182.21 65.2034C182.228 65.5872 182.095 65.9628 181.838 66.2484C181.581 66.534 181.221 66.7066 180.838 66.7286H176.982C176.599 66.7066 176.239 66.534 175.982 66.2484C175.725 65.9628 175.592 65.5872 175.61 65.2034C175.592 64.8196 175.725 64.4441 175.982 64.1584C176.239 63.8728 176.599 63.7002 176.982 63.6782H180.866C181.25 63.7002 181.609 63.8728 181.866 64.1584C182.123 64.4441 182.257 64.8196 182.238 65.2034H182.21Z" fill="#F9AE40"/>
<path d="M192.28 71.6488C192.28 72.0834 192.107 72.5002 191.8 72.8075C191.493 73.1148 191.076 73.2874 190.641 73.2874H186.026C185.592 73.2874 185.175 73.1148 184.868 72.8075C184.56 72.5002 184.388 72.0834 184.388 71.6488C184.388 71.2143 184.56 70.7975 184.868 70.4902C185.175 70.1829 185.592 70.0103 186.026 70.0103H190.641C191.076 70.0103 191.493 70.1829 191.8 70.4902C192.107 70.7975 192.28 71.2143 192.28 71.6488Z" fill="#EF5A29"/>
<path d="M28.5106 39.988L32.8877 48.5949L37.3781 39.7612C35.6895 40.2098 33.9488 40.4329 32.2016 40.4246C30.9583 40.4258 29.7193 40.2793 28.5106 39.988Z" fill="#F9AE40"/>
<path d="M17.8143 31.9038L14.9794 41.4122L24.5783 38.4468C21.8365 36.8334 19.5179 34.5906 17.8143 31.9038Z" fill="#EF5A29"/>
<path d="M42.4492 37.4955L50.557 40.7954L48.4819 31.0659C46.9841 33.6385 44.9212 35.8371 42.4492 37.4955Z" fill="#56A9AB"/>
<path d="M57.524 40.7501L63.4999 33.1184C60.5426 33.0255 57.6202 32.451 54.8478 31.4175L57.524 40.7501Z" fill="#EF5A29"/>
<path d="M75.9751 27.147C74.7445 28.8582 73.1536 30.2788 71.3146 31.3086C70.5598 31.723 69.7684 32.0665 68.9503 32.3349L77.1091 36.6383L75.9751 27.147Z" fill="#F9AE40"/>
<path d="M79.8462 11.0622C79.6661 13.4263 79.304 15.773 78.7632 18.0815C77.5726 23.0086 75.5712 26.66 72.776 28.979C72.1644 29.4901 71.5056 29.9419 70.8085 30.3284C64.2883 33.9231 55.897 30.867 51.8772 28.979H48.3789C47.1259 31.6665 42.6354 39.3208 32.1974 39.3208C23.517 39.3208 18.9471 32.1598 17.3483 28.979H16.1689C17.6091 32.035 22.4624 40.4264 32.1974 40.4264C43.7921 40.4264 48.4696 31.4454 49.5242 29.0187C52.0416 30.4305 62.8879 35.9302 71.2961 31.2866C72.4302 30.6584 73.4704 29.874 74.3862 28.9563C76.9187 26.4427 78.7424 22.8102 79.8575 18.0588C80.3824 15.7484 80.7349 13.4022 80.9121 11.0396L79.8462 11.0622Z" fill="white"/>
<path d="M80.5112 14.5532C80.3297 15.7893 80.1143 16.9686 79.8535 18.0799C79.5181 19.5291 79.0785 20.9521 78.5381 22.3379L86.2093 21.1586L80.5112 14.5532Z" fill="#56A9AB"/>
<g style="mix-blend-mode:multiply">
<path d="M37.3762 39.7612C35.7862 40.1806 34.1501 40.3996 32.5059 40.4133C33.1557 40.9873 33.677 41.6922 34.0356 42.4816C34.3941 43.2711 34.5819 44.1274 34.5867 44.9945C34.5867 45.1022 34.5867 45.2043 34.5867 45.312L37.3762 39.7612Z" fill="#CFD1D2"/>
</g>
<g style="mix-blend-mode:multiply">
<path d="M20.8034 35.5659C20.5878 37.1154 19.8964 38.5597 18.8247 39.6992C18.5406 39.994 18.2314 40.2634 17.9005 40.5044L24.5738 38.4462C23.1936 37.6594 21.9255 36.6907 20.8034 35.5659Z" fill="#CFD1D2"/>
</g>
<g style="mix-blend-mode:multiply">
<path d="M45.6198 35.5881C46.5595 35.557 47.4866 35.8112 48.279 36.3173C49.0715 36.8233 49.6921 37.5574 50.0592 38.4231L48.483 31.0522C47.4822 32.7576 46.2388 34.3084 44.792 35.6562C45.0658 35.6127 45.3425 35.59 45.6198 35.5881Z" fill="#CFD1D2"/>
</g>
<g style="mix-blend-mode:multiply">
<path d="M63.5022 33.1172C61.7827 33.0803 60.0721 32.8598 58.3994 32.4595C59.0922 33.0854 59.6101 33.8808 59.9024 34.7676C60.1946 35.6543 60.2511 36.6018 60.0663 37.517L63.5022 33.1172Z" fill="#CFD1D2"/>
</g>
<g style="mix-blend-mode:multiply">
<path d="M76.656 33.0209L75.9756 27.147C75.0554 28.4131 73.9419 29.5267 72.6758 30.4468C73.5121 30.4671 74.3264 30.7183 75.0289 31.1726C75.7313 31.6269 76.2944 32.2666 76.656 33.0209Z" fill="#CFD1D2"/>
</g>
<g style="mix-blend-mode:multiply">
<path d="M82.0821 18.7036C83.0313 18.6861 83.9638 18.9548 84.7582 19.4747L80.5115 14.5532C80.3301 15.7893 80.1147 16.9686 79.8539 18.0799C79.7518 18.5278 79.6327 18.97 79.5137 19.3953C80.2869 18.9257 81.1777 18.6858 82.0821 18.7036Z" fill="#CFD1D2"/>
</g>
<path d="M15.7666 28.9888C15.7666 29.3692 15.9177 29.7341 16.1867 30.0031C16.4558 30.2721 16.8206 30.4232 17.2011 30.4232C17.5815 30.4232 17.9464 30.2721 18.2154 30.0031C18.4844 29.7341 18.6355 29.3692 18.6355 28.9888H15.7666Z" fill="white"/>
<path d="M78.7461 11.062C78.7461 11.4447 78.8981 11.8117 79.1687 12.0823C79.4393 12.353 79.8064 12.505 80.189 12.505C80.5717 12.505 80.9388 12.353 81.2094 12.0823C81.48 11.8117 81.632 11.4447 81.632 11.062H78.7461Z" fill="white"/>
<path d="M205.632 39.989L201.278 48.5958L196.742 39.7622C198.431 40.2107 200.172 40.4338 201.919 40.4256C203.17 40.4287 204.416 40.2821 205.632 39.989Z" fill="#F9AE40"/>
<path d="M216.324 31.9038L219.159 41.4122L209.555 38.4468C212.299 36.8344 214.62 34.5915 216.324 31.9038Z" fill="#EF5A29"/>
<path d="M191.69 37.4955L183.582 40.7954L185.657 31.0659C187.155 33.6386 189.218 35.8372 191.69 37.4955Z" fill="#56A9AB"/>
<path d="M176.62 40.7491L170.661 33.1175C173.618 33.0246 176.541 32.45 179.313 31.4165L176.62 40.7491Z" fill="#EF5A29"/>
<path d="M158.19 27.147C159.422 28.8588 161.015 30.2794 162.856 31.3086C163.61 31.7235 164.402 32.0671 165.22 32.3349L157.056 36.6383L158.19 27.147Z" fill="#F9AE40"/>
<path d="M154.293 11.0622C154.466 13.4257 154.82 15.7724 155.353 18.0815C156.544 23.0086 158.545 26.66 161.341 28.979C161.952 29.4902 162.611 29.9421 163.308 30.3284C169.828 33.9231 178.22 30.867 182.239 28.979H185.738C186.991 31.6665 191.481 39.3208 201.919 39.3208C210.6 39.3208 215.169 32.1598 216.768 28.979H217.953C216.513 32.035 211.66 40.4264 201.925 40.4264C190.33 40.4264 185.653 31.4454 184.598 29.0187C182.075 30.4305 171.234 35.9302 162.832 31.2866C161.698 30.6585 160.657 29.874 159.742 28.9563C157.209 26.4427 155.385 22.8102 154.27 18.0588C153.746 15.7483 153.394 13.4021 153.216 11.0396L154.293 11.0622Z" fill="white"/>
<path d="M153.651 14.5542C153.833 15.7902 154.048 16.9696 154.309 18.0808C154.645 19.5299 155.084 20.953 155.624 22.3389L147.953 21.1596L153.651 14.5542Z" fill="#56A9AB"/>
<g style="mix-blend-mode:multiply">
<path d="M196.742 39.7622C198.33 40.1809 199.965 40.4 201.607 40.4142C200.961 40.9906 200.445 41.6964 200.09 42.4857C199.735 43.275 199.551 44.1302 199.549 44.9955C199.549 45.1032 199.549 45.2053 199.549 45.313L196.742 39.7622Z" fill="#CFD1D2"/>
</g>
<g style="mix-blend-mode:multiply">
<path d="M213.337 35.5659C213.553 37.1152 214.244 38.5592 215.316 39.6992C215.599 39.9942 215.909 40.2636 216.24 40.5044L209.566 38.4462C210.947 37.6597 212.215 36.6909 213.337 35.5659Z" fill="#CFD1D2"/>
</g>
<g style="mix-blend-mode:multiply">
<path d="M188.52 35.5881C187.58 35.557 186.653 35.8112 185.86 36.3173C185.068 36.8233 184.447 37.5574 184.08 38.4231L185.656 31.0522C186.662 32.7587 187.911 34.3096 189.364 35.6562C189.085 35.6119 188.802 35.5892 188.52 35.5881Z" fill="#CFD1D2"/>
</g>
<g style="mix-blend-mode:multiply">
<path d="M170.661 33.1172C172.381 33.0802 174.091 32.8597 175.764 32.4595C175.071 33.0854 174.553 33.8808 174.261 34.7676C173.969 35.6543 173.912 36.6018 174.097 37.517L170.661 33.1172Z" fill="#CFD1D2"/>
</g>
<g style="mix-blend-mode:multiply">
<path d="M157.482 33.0209L158.185 27.147C159.106 28.413 160.219 29.5266 161.485 30.4468C160.645 30.463 159.826 30.7122 159.119 31.1667C158.412 31.6213 157.846 32.2632 157.482 33.0209Z" fill="#CFD1D2"/>
</g>
<g style="mix-blend-mode:multiply">
<path d="M152.057 18.7055C151.108 18.6884 150.175 18.9571 149.381 19.4766L153.628 14.5552C153.809 15.7912 154.024 16.9705 154.285 18.0818C154.393 18.5297 154.506 18.972 154.625 19.3972C153.852 18.928 152.961 18.6881 152.057 18.7055Z" fill="#CFD1D2"/>
</g>
<path d="M218.372 28.9888C218.372 29.3692 218.221 29.7341 217.952 30.0031C217.683 30.2721 217.318 30.4232 216.937 30.4232C216.557 30.4232 216.192 30.2721 215.923 30.0031C215.654 29.7341 215.503 29.3692 215.503 28.9888H218.372Z" fill="white"/>
<path d="M155.392 11.061C155.392 11.4437 155.24 11.8108 154.969 12.0814C154.699 12.352 154.332 12.504 153.949 12.504C153.566 12.504 153.199 12.352 152.928 12.0814C152.658 11.8108 152.506 11.4437 152.506 11.061H155.392Z" fill="white"/>
<path d="M60.0604 12.645L59.329 18.5417L53.4268 19.205L59.3233 19.9308L59.9867 25.8388L60.7124 19.9365L66.6146 19.2787L60.7181 18.553L60.0604 12.645Z" fill="white"/>
<path d="M174.039 4.14014L173.313 10.0368L167.405 10.7002L173.302 11.4259L173.965 17.3339L174.691 11.4316L180.593 10.7739L174.697 10.0481L174.039 4.14014Z" fill="white"/>
<path d="M219.846 61.7505L219.188 55.8481L218.463 61.7448L212.555 62.4025L218.457 63.1339L219.115 69.0362L219.84 63.1396L225.748 62.4762L219.846 61.7505Z" fill="white"/>
<path d="M18.37 56.1274L17.6386 62.0241L11.7363 62.6818L17.6329 63.4076L18.2963 69.3155L19.022 63.4189L24.9242 62.7555L19.0277 62.0298L18.37 56.1274Z" fill="white"/>
</svg>
