<svg width="49" height="50" viewBox="0 0 49 50" fill="none" xmlns="http://www.w3.org/2000/svg">
<g clip-path="url(#clip0_65_2469)">
<path d="M22.5238 31.0761C22.2235 29.6387 23.2669 28.1633 24.7353 28.1633C26.2037 28.1633 27.2471 29.6387 26.9468 31.0761C26.665 32.4246 26.4811 33.9969 26.7539 35.2285C27.5187 38.6814 30.7911 42.2936 30.7911 42.2936H18.6794C18.6794 42.2936 21.9519 38.6814 22.7167 35.2285C22.9895 33.9969 22.8055 32.4246 22.5238 31.0761Z" fill="#95B7D1"/>
<path fill-rule="evenodd" clip-rule="evenodd" d="M31.7231 42.6979C31.5613 43.0628 31.1996 43.298 30.8004 43.298H18.6888C18.2896 43.298 17.9279 43.0628 17.7661 42.6979C17.6043 42.333 17.6727 41.9072 17.9406 41.6113L18.6888 42.2887H30.8004C30.8004 42.2887 30.4569 41.9095 29.9665 41.2794C28.9432 39.9647 27.2802 37.5578 26.7632 35.2236C26.4904 33.992 26.6744 32.4197 26.9561 31.0712C27.2564 29.6339 26.213 28.1584 24.7446 28.1584C23.2762 28.1584 22.2328 29.6339 22.5331 31.0712C22.8148 32.4197 22.9988 33.992 22.726 35.2236C22.209 37.5578 20.5461 39.9647 19.5228 41.2794C19.0323 41.9095 18.6888 42.2887 18.6888 42.2887M17.9406 41.6113L17.9463 41.6049L17.9698 41.5785C17.9912 41.5543 18.0239 41.5171 18.0665 41.4677C18.1516 41.369 18.276 41.222 18.4285 41.0342C18.734 40.6579 19.1497 40.1207 19.5878 39.4808C20.4789 38.1792 21.4004 36.5411 21.7406 35.0053C21.9646 33.9938 21.8211 32.5987 21.5451 31.2776C21.1335 29.3074 22.5431 27.1491 24.7446 27.1491C26.9461 27.1491 28.3557 29.3074 27.9441 31.2776C27.6681 32.5987 27.5246 33.9938 27.7486 35.0053C28.0888 36.5411 29.0104 38.1792 29.9015 39.4808C30.3395 40.1207 30.7553 40.6579 31.0608 41.0342C31.2133 41.222 31.3376 41.369 31.4228 41.4677C31.4653 41.5171 31.498 41.5543 31.5194 41.5785L31.5429 41.6049L31.5485 41.6111C31.8163 41.9069 31.8849 42.333 31.7231 42.6979" fill="#044473"/>
<path fill-rule="evenodd" clip-rule="evenodd" d="M28.7759 42.2926H30.7946C30.7946 42.2926 27.5221 38.6804 26.7573 35.2275C26.4845 33.9959 26.6685 32.4236 26.9502 31.0751C27.2505 29.6378 26.2071 28.1624 24.7387 28.1624C24.4068 28.1624 24.0965 28.2378 23.8186 28.3711C24.5585 28.7223 24.9316 29.5476 24.9316 31.0751C24.9316 32.9972 24.9706 35.7622 25.2434 36.9938C26.0081 40.4467 28.7759 42.2926 28.7759 42.2926Z" fill="#6D94B3"/>
<path fill-rule="evenodd" clip-rule="evenodd" d="M23.0987 37.009C23.3691 37.0766 23.5335 37.3506 23.4659 37.621C23.1964 38.699 22.6632 39.7611 22.1346 40.5541C21.98 40.786 21.6666 40.8487 21.4347 40.6941C21.2028 40.5395 21.1402 40.2262 21.2948 39.9943C21.7754 39.2733 22.2516 38.3168 22.4867 37.3762C22.5543 37.1058 22.8283 36.9414 23.0987 37.009Z" fill="#B8D4E9"/>
<path fill-rule="evenodd" clip-rule="evenodd" d="M39.3781 20.0849C42.4439 20.0849 44.9293 17.5996 44.9293 14.5338C44.9293 11.4679 42.4439 8.98257 39.3781 8.98257C36.3123 8.98257 33.8269 11.4679 33.8269 14.5338C33.8269 17.5996 36.3123 20.0849 39.3781 20.0849ZM39.3781 17.5617C41.0504 17.5617 42.406 16.206 42.406 14.5338C42.406 12.8615 41.0504 11.5058 39.3781 11.5058C37.7058 11.5058 36.3502 12.8615 36.3502 14.5338C36.3502 16.206 37.7058 17.5617 39.3781 17.5617Z" fill="#99BCD6"/>
<path fill-rule="evenodd" clip-rule="evenodd" d="M45.9325 14.5387C45.9325 18.162 42.9953 21.0992 39.372 21.0992C35.7488 21.0992 32.8115 18.162 32.8115 14.5387C32.8115 10.9154 35.7488 7.97821 39.372 7.97821C42.9953 7.97821 45.9325 10.9154 45.9325 14.5387ZM39.372 16.5573C40.4869 16.5573 41.3906 15.6535 41.3906 14.5387C41.3906 13.4239 40.4869 12.5201 39.372 12.5201C38.2572 12.5201 37.3534 13.4239 37.3534 14.5387C37.3534 15.6535 38.2572 16.5573 39.372 16.5573ZM44.9232 14.5387C44.9232 17.6045 42.4378 20.0899 39.372 20.0899C36.3062 20.0899 33.8208 17.6045 33.8208 14.5387C33.8208 11.4729 36.3062 8.98752 39.372 8.98752C42.4378 8.98752 44.9232 11.4729 44.9232 14.5387ZM42.3999 14.5387C42.3999 16.211 41.0443 17.5666 39.372 17.5666C37.6997 17.5666 36.3441 16.211 36.3441 14.5387C36.3441 12.8664 37.6997 11.5108 39.372 11.5108C41.0443 11.5108 42.3999 12.8664 42.3999 14.5387Z" fill="#044473"/>
<path fill-rule="evenodd" clip-rule="evenodd" d="M44.4183 13.5245C44.4183 16.5903 41.9329 19.0757 38.8671 19.0757C36.8942 19.0757 35.1618 18.0465 34.1772 16.4958C34.9699 18.5934 36.9966 20.085 39.3717 20.085C42.4376 20.085 44.9229 17.5996 44.9229 14.5338C44.9229 13.4408 44.607 12.4215 44.0616 11.5624C44.2921 12.1724 44.4183 12.8337 44.4183 13.5245ZM36.4574 15.3583C36.3834 15.0961 36.3438 14.8196 36.3438 14.5338C36.3438 12.8615 37.6995 11.5059 39.3717 11.5059C40.3547 11.5059 41.2282 11.9742 41.7814 12.7C41.4224 11.4284 40.2535 10.4966 38.8671 10.4966C37.1948 10.4966 35.8392 11.8522 35.8392 13.5245C35.8392 14.2138 36.0695 14.8493 36.4574 15.3583Z" fill="#7A9DB9"/>
<path fill-rule="evenodd" clip-rule="evenodd" d="M10.1078 20.0849C13.1737 20.0849 15.659 17.5996 15.659 14.5338C15.659 11.4679 13.1737 8.98257 10.1078 8.98257C7.04199 8.98257 4.55664 11.4679 4.55664 14.5338C4.55664 17.5996 7.04199 20.0849 10.1078 20.0849ZM10.1078 17.5617C11.7801 17.5617 13.1357 16.206 13.1357 14.5338C13.1357 12.8615 11.7801 11.5058 10.1078 11.5058C8.43555 11.5058 7.07991 12.8615 7.07991 14.5338C7.07991 16.206 8.43555 17.5617 10.1078 17.5617Z" fill="#99BCD6"/>
<path fill-rule="evenodd" clip-rule="evenodd" d="M16.6666 14.5387C16.6666 18.162 13.7294 21.0992 10.1061 21.0992C6.48289 21.0992 3.54565 18.162 3.54565 14.5387C3.54565 10.9154 6.48289 7.97821 10.1061 7.97821C13.7294 7.97821 16.6666 10.9154 16.6666 14.5387ZM10.1061 16.5573C11.221 16.5573 12.1248 15.6535 12.1248 14.5387C12.1248 13.4239 11.221 12.5201 10.1061 12.5201C8.9913 12.5201 8.08753 13.4239 8.08753 14.5387C8.08753 15.6535 8.9913 16.5573 10.1061 16.5573ZM15.6573 14.5387C15.6573 17.6045 13.172 20.0899 10.1061 20.0899C7.04031 20.0899 4.55496 17.6045 4.55496 14.5387C4.55496 11.4729 7.04031 8.98752 10.1061 8.98752C13.172 8.98752 15.6573 11.4729 15.6573 14.5387ZM13.1341 14.5387C13.1341 16.211 11.7784 17.5666 10.1061 17.5666C8.43387 17.5666 7.07823 16.211 7.07823 14.5387C7.07823 12.8664 8.43387 11.5108 10.1061 11.5108C11.7784 11.5108 13.1341 12.8664 13.1341 14.5387Z" fill="#044473"/>
<path fill-rule="evenodd" clip-rule="evenodd" d="M14.2774 18.1989C13.2997 19.0589 12.017 19.5805 10.6125 19.5805C7.54664 19.5805 5.06129 17.0952 5.06129 14.0294C5.06129 12.6249 5.58289 11.3422 6.44294 10.3645C5.28644 11.3818 4.55664 12.8727 4.55664 14.534C4.55664 17.5998 7.04199 20.0852 10.1078 20.0852C11.7692 20.0852 13.26 19.3554 14.2774 18.1989ZM8.23392 12.1555C8.74941 11.7488 9.40028 11.5061 10.1078 11.5061C11.7801 11.5061 13.1357 12.8617 13.1357 14.534C13.1357 15.2416 12.8931 15.8924 12.4864 16.4079C13.1892 15.8534 13.6404 14.9941 13.6404 14.0294C13.6404 12.3571 12.2848 11.0014 10.6125 11.0014C9.64776 11.0014 8.78841 11.4526 8.23392 12.1555Z" fill="#7A9DB9"/>
<path d="M10.6089 12.0154C10.6089 9.78574 12.4164 7.97821 14.6461 7.97821H34.8322C37.0619 7.97821 38.8695 9.78574 38.8695 12.0154V18.0713C38.8695 25.8752 32.5431 32.2016 24.7392 32.2016C16.9352 32.2016 10.6089 25.8752 10.6089 18.0713V12.0154Z" fill="#BCD2E3"/>
<path fill-rule="evenodd" clip-rule="evenodd" d="M14.654 6.96396H34.8401C37.6272 6.96396 39.8866 9.22337 39.8866 12.0105V18.0663C39.8866 26.4277 33.1084 33.2059 24.747 33.2059C16.3857 33.2059 9.60742 26.4277 9.60742 18.0663V12.0105C9.60742 9.22337 11.8668 6.96396 14.654 6.96396ZM14.654 7.97326C12.4243 7.97326 10.6167 9.78079 10.6167 12.0105V18.0663C10.6167 25.8703 16.9431 32.1966 24.747 32.1966C32.551 32.1966 38.8773 25.8703 38.8773 18.0663V12.0105C38.8773 9.78079 37.0698 7.97326 34.8401 7.97326H14.654Z" fill="#044473"/>
<path fill-rule="evenodd" clip-rule="evenodd" d="M21.21 31.7564C22.339 32.047 23.5227 32.2016 24.7425 32.2016C32.5465 32.2016 38.8728 25.8752 38.8728 18.0713V7.97821H31.8077V18.0713C31.8077 24.6554 27.3045 30.1878 21.21 31.7564Z" fill="#9EC0DB"/>
<path d="M10.6089 7.97821V18.0713C10.6089 22.8886 13.0195 27.1429 16.7003 29.6936C18.4511 30.9069 21.7753 26.746 21.7206 24.6166C21.7142 24.3696 21.7113 24.1221 21.7113 23.8748V7.97821H10.6089Z" fill="#D4E1EB"/>
<path fill-rule="evenodd" clip-rule="evenodd" d="M17.439 30.1722C19.5696 31.4603 22.0678 32.2016 24.7392 32.2016C32.5431 32.2016 38.8695 25.8752 38.8695 18.0713V7.97821H36.8507V17.062C36.8507 24.8659 30.5244 31.1923 22.7204 31.1923C20.8532 31.1923 19.0706 30.8301 17.439 30.1722Z" fill="#7A9DB9"/>
<path d="M38.8695 7.97821H10.6089V9.99682H38.8695V7.97821Z" fill="#46637A"/>
<path fill-rule="evenodd" clip-rule="evenodd" d="M12.6236 9.4902C13.181 9.4902 13.6329 9.94209 13.6329 10.4995C13.6329 13.9307 13.635 16.691 13.9389 18.9101C14.2417 21.1205 14.8256 22.6289 15.8605 23.6638C16.2546 24.058 16.2546 24.697 15.8604 25.0912C15.4663 25.4853 14.8272 25.4853 14.4331 25.0912C12.9448 23.6028 12.267 21.5786 11.939 19.1841C11.6142 16.8132 11.6142 13.9179 11.6143 10.5633L11.6143 10.4995C11.6143 9.94209 12.0661 9.4902 12.6236 9.4902Z" fill="#DEF0FF"/>
<path fill-rule="evenodd" clip-rule="evenodd" d="M12.6251 11.0012C12.9038 11.0012 13.1298 11.2272 13.1298 11.5059C13.1298 12.1693 13.1242 12.5639 13.1196 12.8844C13.1127 13.3723 13.1082 13.6887 13.1296 14.5208C13.1368 14.7995 12.9167 15.0311 12.6381 15.0383C12.3594 15.0454 12.1278 14.8254 12.1206 14.5467C12.0989 13.699 12.1036 13.3557 12.1106 12.8492C12.1151 12.5258 12.1205 12.136 12.1205 11.5059C12.1205 11.2272 12.3464 11.0012 12.6251 11.0012Z" fill="white"/>
<path d="M14.6418 43.299C14.6418 42.7416 15.0937 42.2897 15.6512 42.2897H33.8187C34.3761 42.2897 34.828 42.7416 34.828 43.299C34.828 43.8564 34.3761 44.3083 33.8187 44.3083H15.6512C15.0937 44.3083 14.6418 43.8564 14.6418 43.299Z" fill="#D0E0EC"/>
<path fill-rule="evenodd" clip-rule="evenodd" d="M15.6629 41.2834H33.8304C34.9453 41.2834 35.849 42.1871 35.849 43.302C35.849 44.4168 34.9453 45.3206 33.8304 45.3206H15.6629C14.5481 45.3206 13.6443 44.4168 13.6443 43.302C13.6443 42.1871 14.5481 41.2834 15.6629 41.2834ZM15.6629 42.2927C15.1055 42.2927 14.6536 42.7445 14.6536 43.302C14.6536 43.8594 15.1055 44.3113 15.6629 44.3113H33.8304C34.3878 44.3113 34.8397 43.8594 34.8397 43.302C34.8397 42.7445 34.3878 42.2927 33.8304 42.2927H15.6629Z" fill="#044473"/>
<path d="M6.57129 6.96695C6.57129 6.40952 7.02317 5.95764 7.5806 5.95764H41.897C42.4544 5.95764 42.9063 6.40952 42.9063 6.96695C42.9063 7.52437 42.4544 7.97625 41.897 7.97625H7.5806C7.02317 7.97625 6.57129 7.52437 6.57129 6.96695Z" fill="#D0E0EC"/>
<path fill-rule="evenodd" clip-rule="evenodd" d="M7.58478 4.94733H41.9012C43.016 4.94733 43.9198 5.85109 43.9198 6.96594C43.9198 8.08079 43.016 8.98455 41.9012 8.98455H7.58478C6.46993 8.98455 5.56616 8.08079 5.56616 6.96594C5.56616 5.85109 6.46993 4.94733 7.58478 4.94733ZM7.58478 5.95663C7.02735 5.95663 6.57547 6.40852 6.57547 6.96594C6.57547 7.52336 7.02735 7.97525 7.58478 7.97525H41.9012C42.4586 7.97525 42.9105 7.52336 42.9105 6.96594C42.9105 6.40852 42.4586 5.95663 41.9012 5.95663H7.58478Z" fill="#044473"/>
<path fill-rule="evenodd" clip-rule="evenodd" d="M7.57886 6.71065C7.57886 6.43193 7.8048 6.20599 8.08351 6.20599H33.8208C34.0995 6.20599 34.3255 6.43193 34.3255 6.71065C34.3255 6.98936 34.0995 7.2153 33.8208 7.2153H8.08351C7.8048 7.2153 7.57886 6.98936 7.57886 6.71065Z" fill="#DEF0FF"/>
<path fill-rule="evenodd" clip-rule="evenodd" d="M15.1482 42.7944C15.1482 42.5156 15.3741 42.2897 15.6528 42.2897H30.2878C30.5665 42.2897 30.7924 42.5156 30.7924 42.7944C30.7924 43.0731 30.5665 43.299 30.2878 43.299H15.6528C15.3741 43.299 15.1482 43.0731 15.1482 42.7944Z" fill="#DEF0FF"/>
<path fill-rule="evenodd" clip-rule="evenodd" d="M10.6089 6.71165C10.6089 6.43294 10.8348 6.207 11.1135 6.207H14.1415C14.4202 6.207 14.6461 6.43294 14.6461 6.71165C14.6461 6.99037 14.4202 7.21631 14.1415 7.21631H11.1135C10.8348 7.21631 10.6089 6.99037 10.6089 6.71165Z" fill="white"/>
<path d="M29.7879 28.4118C29.7879 28.8298 29.449 29.1687 29.0309 29.1687C28.6128 29.1687 28.2739 28.8298 28.2739 28.4118C28.2739 27.9937 28.6128 27.6548 29.0309 27.6548C29.449 27.6548 29.7879 27.9937 29.7879 28.4118Z" fill="#84ADCE"/>
<path d="M32.3035 26.6464C32.3035 26.9252 32.0776 27.1511 31.7988 27.1511C31.5201 27.1511 31.2942 26.9252 31.2942 26.6464C31.2942 26.3677 31.5201 26.1418 31.7988 26.1418C32.0776 26.1418 32.3035 26.3677 32.3035 26.6464Z" fill="#84ADCE"/>
<path d="M28.2654 30.178C28.2654 30.4567 28.0395 30.6827 27.7608 30.6827C27.482 30.6827 27.2561 30.4567 27.2561 30.178C27.2561 29.8993 27.482 29.6734 27.7608 29.6734C28.0395 29.6734 28.2654 29.8993 28.2654 30.178Z" fill="#84ADCE"/>
<path d="M26.7593 28.6651C26.7593 28.9438 26.5334 29.1697 26.2547 29.1697C25.9759 29.1697 25.75 28.9438 25.75 28.6651C25.75 28.3863 25.9759 28.1604 26.2547 28.1604C26.5334 28.1604 26.7593 28.3863 26.7593 28.6651Z" fill="#84ADCE"/>
<path d="M24.7388 30.178C24.7388 30.4567 24.5129 30.6827 24.2341 30.6827C23.9554 30.6827 23.7295 30.4567 23.7295 30.178C23.7295 29.8993 23.9554 29.6734 24.2341 29.6734C24.5129 29.6734 24.7388 29.8993 24.7388 30.178Z" fill="#84ADCE"/>
<path d="M36.8457 23.1168C36.8457 23.3955 36.6198 23.6215 36.3411 23.6215C36.0624 23.6215 35.8364 23.3955 35.8364 23.1168C35.8364 22.8381 36.0624 22.6122 36.3411 22.6122C36.6198 22.6122 36.8457 22.8381 36.8457 23.1168Z" fill="#84ADCE"/>
<path d="M32.3035 24.6278C32.3035 24.9065 32.0776 25.1325 31.7988 25.1325C31.5201 25.1325 31.2942 24.9065 31.2942 24.6278C31.2942 24.3491 31.5201 24.1232 31.7988 24.1232C32.0776 24.1232 32.3035 24.3491 32.3035 24.6278Z" fill="#84ADCE"/>
<path d="M37.354 20.5926C37.354 20.8713 37.1281 21.0972 36.8494 21.0972C36.5707 21.0972 36.3447 20.8713 36.3447 20.5926C36.3447 20.3139 36.5707 20.0879 36.8494 20.0879C37.1281 20.0879 37.354 20.3139 37.354 20.5926Z" fill="#84ADCE"/>
<path d="M29.7893 25.6401C29.7893 25.9188 29.5634 26.1447 29.2847 26.1447C29.006 26.1447 28.78 25.9188 28.78 25.6401C28.78 25.3614 29.006 25.1354 29.2847 25.1354C29.5634 25.1354 29.7893 25.3614 29.7893 25.6401Z" fill="#84ADCE"/>
<path d="M31.8006 28.6651C31.8006 28.9438 31.5746 29.1697 31.2959 29.1697C31.0172 29.1697 30.7913 28.9438 30.7913 28.6651C30.7913 28.3863 31.0172 28.1604 31.2959 28.1604C31.5746 28.1604 31.8006 28.3863 31.8006 28.6651Z" fill="#84ADCE"/>
<path d="M34.8377 26.6464C34.8377 26.9252 34.6117 27.1511 34.333 27.1511C34.0543 27.1511 33.8284 26.9252 33.8284 26.6464C33.8284 26.3677 34.0543 26.1418 34.333 26.1418C34.6117 26.1418 34.8377 26.3677 34.8377 26.6464Z" fill="#84ADCE"/>
<path d="M33.8264 24.6278C33.8264 24.9065 33.6005 25.1325 33.3218 25.1325C33.0431 25.1325 32.8171 24.9065 32.8171 24.6278C32.8171 24.3491 33.0431 24.1232 33.3218 24.1232C33.6005 24.1232 33.8264 24.3491 33.8264 24.6278Z" fill="#84ADCE"/>
<path d="M35.8391 24.3755C35.8391 24.5149 35.7262 24.6278 35.5868 24.6278C35.4474 24.6278 35.3345 24.5149 35.3345 24.3755C35.3345 24.2361 35.4474 24.1232 35.5868 24.1232C35.7262 24.1232 35.8391 24.2361 35.8391 24.3755Z" fill="#84ADCE"/>
<path d="M35.3323 22.3569C35.3323 22.4962 35.2193 22.6092 35.08 22.6092C34.9406 22.6092 34.8276 22.4962 34.8276 22.3569C34.8276 22.2175 34.9406 22.1046 35.08 22.1046C35.2193 22.1046 35.3323 22.2175 35.3323 22.3569Z" fill="#84ADCE"/>
<path d="M33.8225 22.8655C33.8225 23.0048 33.7096 23.1178 33.5702 23.1178C33.4308 23.1178 33.3179 23.0048 33.3179 22.8655C33.3179 22.7261 33.4308 22.6132 33.5702 22.6132C33.7096 22.6132 33.8225 22.7261 33.8225 22.8655Z" fill="#84ADCE"/>
<path d="M35.3323 20.8459C35.3323 20.9852 35.2193 21.0982 35.08 21.0982C34.9406 21.0982 34.8276 20.9852 34.8276 20.8459C34.8276 20.7065 34.9406 20.5936 35.08 20.5936C35.2193 20.5936 35.3323 20.7065 35.3323 20.8459Z" fill="#84ADCE"/>
<path d="M32.3035 22.8652C32.3035 23.0046 32.1905 23.1176 32.0512 23.1176C31.9118 23.1176 31.7988 23.0046 31.7988 22.8652C31.7988 22.7259 31.9118 22.6129 32.0512 22.6129C32.1905 22.6129 32.3035 22.7259 32.3035 22.8652Z" fill="#84ADCE"/>
<path d="M24.2341 28.413C24.2341 28.5523 24.1212 28.6653 23.9818 28.6653C23.8425 28.6653 23.7295 28.5523 23.7295 28.413C23.7295 28.2736 23.8425 28.1606 23.9818 28.1606C24.1212 28.1606 24.2341 28.2736 24.2341 28.413Z" fill="#84ADCE"/>
<path d="M34.8298 24.8831C34.8298 25.0225 34.7169 25.1355 34.5775 25.1355C34.4382 25.1355 34.3252 25.0225 34.3252 24.8831C34.3252 24.7438 34.4382 24.6308 34.5775 24.6308C34.7169 24.6308 34.8298 24.7438 34.8298 24.8831Z" fill="#84ADCE"/>
<path d="M33.3218 27.9071C33.3218 28.0464 33.2088 28.1594 33.0695 28.1594C32.9301 28.1594 32.8171 28.0464 32.8171 27.9071C32.8171 27.7677 32.9301 27.6548 33.0695 27.6548C33.2088 27.6548 33.3218 27.7677 33.3218 27.9071Z" fill="#84ADCE"/>
<path d="M30.7888 26.9027C30.7888 27.0421 30.6759 27.155 30.5365 27.155C30.3972 27.155 30.2842 27.0421 30.2842 26.9027C30.2842 26.7634 30.3972 26.6504 30.5365 26.6504C30.6759 26.6504 30.7888 26.7634 30.7888 26.9027Z" fill="#84ADCE"/>
<path d="M28.2695 26.9016C28.2695 27.0409 28.1566 27.1539 28.0172 27.1539C27.8779 27.1539 27.7649 27.0409 27.7649 26.9016C27.7649 26.7622 27.8779 26.6493 28.0172 26.6493C28.1566 26.6493 28.2695 26.7622 28.2695 26.9016Z" fill="#84ADCE"/>
<path d="M26.2547 30.4304C26.2547 30.5697 26.1417 30.6827 26.0023 30.6827C25.863 30.6827 25.75 30.5697 25.75 30.4304C25.75 30.291 25.863 30.178 26.0023 30.178C26.1417 30.178 26.2547 30.291 26.2547 30.4304Z" fill="#84ADCE"/>
<path fill-rule="evenodd" clip-rule="evenodd" d="M8.79495 10.0206C8.91958 10.2699 8.81853 10.5731 8.56924 10.6977C8.10796 10.9283 7.48655 11.3258 6.98092 12C6.48051 12.6672 6.07254 13.6327 6.07254 15.0405C6.07254 15.3192 5.8466 15.5452 5.56789 15.5452C5.28917 15.5452 5.06323 15.3192 5.06323 15.0405C5.06323 13.4204 5.5384 12.2411 6.17348 11.3944C6.80334 10.5546 7.56978 10.069 8.11789 9.79493C8.36718 9.67029 8.67031 9.77135 8.79495 10.0206Z" fill="#D4E1EB"/>
<path d="M19.6907 17.8674L22.8448 17.2282L23.791 15.6301L24.7372 14.0321L26.6297 17.2282L29.7837 17.8674L27.2605 20.4243L27.8913 23.6205L24.7372 22.0224L21.5831 23.6205L22.2139 20.4243L19.6907 17.8674Z" fill="#DEF0FF"/>
<path fill-rule="evenodd" clip-rule="evenodd" d="M22.8429 17.2243L24.7353 14.0281L26.6278 17.2243L29.7818 17.8635L27.2586 20.4204L27.8894 23.6165L24.7353 22.0185L21.5812 23.6165L22.212 20.4204L19.6888 17.8635L22.8429 17.2243ZM21.1184 20.7491L18.9704 18.5724C18.7101 18.3087 18.6153 17.9235 18.7234 17.5691C18.8315 17.2146 19.1251 16.9479 19.4883 16.8743L22.2029 16.3242L23.8668 13.5139C24.0485 13.207 24.3787 13.0188 24.7353 13.0188C25.0919 13.0188 25.4221 13.207 25.6038 13.5139L27.2678 16.3242L29.9823 16.8743C30.3455 16.9479 30.6391 17.2146 30.7472 17.5691C30.8553 17.9235 30.7605 18.3087 30.5002 18.5724L28.3522 20.7491L28.8796 23.4211C28.9543 23.7998 28.8065 24.188 28.4989 24.421C28.1912 24.6541 27.7775 24.6913 27.4332 24.5169L24.7353 23.1499L22.0374 24.5169C21.6931 24.6913 21.2794 24.6541 20.9717 24.421C20.6641 24.188 20.5163 23.7998 20.591 23.4211L21.1184 20.7491Z" fill="#95B7D1"/>
<path fill-rule="evenodd" clip-rule="evenodd" d="M24.9606 15.6004C25.2099 15.7251 25.3109 16.0282 25.1863 16.2775L24.177 18.2961C24.1004 18.4492 23.9515 18.5531 23.7813 18.572L21.5104 18.8243C21.2334 18.8551 20.9839 18.6555 20.9531 18.3785C20.9223 18.1015 21.1219 17.8519 21.3989 17.8212L23.397 17.5992L24.2835 15.8261C24.4082 15.5768 24.7113 15.4758 24.9606 15.6004Z" fill="white"/>
<g filter="url(#filter0_d_65_2469)">
<mask id="path-53-outside-1_65_2469" maskUnits="userSpaceOnUse" x="22.2307" y="1.90085" width="11" height="13" fill="black">
<rect fill="white" x="22.2307" y="1.90085" width="11" height="13"/>
<path d="M27.273 5.42268C26.8087 5.42268 26.3848 5.50342 26.0013 5.66491C25.6278 5.8264 25.2645 6.0434 24.9112 6.31591L23.9574 4.45374C24.4116 4.11058 24.9516 3.84311 25.5773 3.65134C26.2132 3.44948 26.8642 3.34855 27.5304 3.34855C28.0552 3.34855 28.5498 3.40911 29.014 3.53023C29.4783 3.65134 29.882 3.83806 30.2252 4.09039C30.5785 4.33262 30.856 4.64551 31.0579 5.02905C31.2698 5.40249 31.3758 5.84658 31.3758 6.36133C31.3758 6.85589 31.2799 7.33026 31.0882 7.78445C30.9065 8.23864 30.634 8.69283 30.2706 9.14702C29.9174 9.6012 29.4733 10.0554 28.9383 10.5096C28.4135 10.9638 27.813 11.4381 27.1367 11.9327H31.4818V13.9008H23.9271V12.0084L25.8196 10.6156C26.4353 10.1513 26.9904 9.69709 27.4849 9.25299C27.9795 8.8089 28.3782 8.37994 28.681 7.96613C28.9838 7.54222 29.1352 7.14859 29.1352 6.78524C29.1352 6.5531 29.0847 6.35124 28.9838 6.17965C28.8828 6.00807 28.7466 5.86677 28.575 5.75575C28.4034 5.64472 28.2066 5.56398 27.9845 5.51351C27.7625 5.45295 27.5253 5.42268 27.273 5.42268Z"/>
</mask>
<path d="M27.273 5.42268C26.8087 5.42268 26.3848 5.50342 26.0013 5.66491C25.6278 5.8264 25.2645 6.0434 24.9112 6.31591L23.9574 4.45374C24.4116 4.11058 24.9516 3.84311 25.5773 3.65134C26.2132 3.44948 26.8642 3.34855 27.5304 3.34855C28.0552 3.34855 28.5498 3.40911 29.014 3.53023C29.4783 3.65134 29.882 3.83806 30.2252 4.09039C30.5785 4.33262 30.856 4.64551 31.0579 5.02905C31.2698 5.40249 31.3758 5.84658 31.3758 6.36133C31.3758 6.85589 31.2799 7.33026 31.0882 7.78445C30.9065 8.23864 30.634 8.69283 30.2706 9.14702C29.9174 9.6012 29.4733 10.0554 28.9383 10.5096C28.4135 10.9638 27.813 11.4381 27.1367 11.9327H31.4818V13.9008H23.9271V12.0084L25.8196 10.6156C26.4353 10.1513 26.9904 9.69709 27.4849 9.25299C27.9795 8.8089 28.3782 8.37994 28.681 7.96613C28.9838 7.54222 29.1352 7.14859 29.1352 6.78524C29.1352 6.5531 29.0847 6.35124 28.9838 6.17965C28.8828 6.00807 28.7466 5.86677 28.575 5.75575C28.4034 5.64472 28.2066 5.56398 27.9845 5.51351C27.7625 5.45295 27.5253 5.42268 27.273 5.42268Z" fill="white"/>
<path d="M26.0013 5.66491L25.6918 4.93001L25.6848 4.93305L26.0013 5.66491ZM24.9112 6.31591L24.2015 6.6794L24.6388 7.5331L25.3982 6.94724L24.9112 6.31591ZM23.9574 4.45374L23.4767 3.81756L22.9425 4.22124L23.2477 4.81724L23.9574 4.45374ZM25.5773 3.65134L25.811 4.41374L25.8186 4.41132L25.5773 3.65134ZM29.014 3.53023L29.2153 2.75869L29.2153 2.75869L29.014 3.53023ZM30.2252 4.09039L29.7529 4.73278L29.7634 4.74056L29.7743 4.74799L30.2252 4.09039ZM31.0579 5.02905L30.3523 5.40041L30.3582 5.41161L30.3644 5.42262L31.0579 5.02905ZM31.0882 7.78445L30.3536 7.4743L30.3507 7.48129L30.3478 7.48832L31.0882 7.78445ZM30.2706 9.14702L29.6479 8.64887L29.6412 8.65749L30.2706 9.14702ZM28.9383 10.5096L28.4222 9.90174L28.4166 9.90665L28.9383 10.5096ZM27.1367 11.9327L26.666 11.2891L24.6958 12.7301H27.1367V11.9327ZM31.4818 11.9327H32.2791V11.1353H31.4818V11.9327ZM31.4818 13.9008V14.6982H32.2791V13.9008H31.4818ZM23.9271 13.9008H23.1298V14.6982H23.9271V13.9008ZM23.9271 12.0084L23.4545 11.3662L23.1298 11.6052V12.0084H23.9271ZM25.8196 10.6156L26.2923 11.2578L26.2997 11.2522L25.8196 10.6156ZM27.4849 9.25299L28.0177 9.84626L27.4849 9.25299ZM28.681 7.96613L29.3245 8.437L29.3298 8.42958L28.681 7.96613ZM28.9838 6.17965L29.671 5.77538L29.671 5.77538L28.9838 6.17965ZM28.575 5.75575L29.0082 5.08631L29.0082 5.08631L28.575 5.75575ZM27.9845 5.51351L27.7747 6.28277L27.7912 6.28726L27.8078 6.29104L27.9845 5.51351ZM27.273 4.62532C26.7147 4.62532 26.1841 4.72279 25.6918 4.93004L26.3107 6.39978C26.5855 6.28405 26.9027 6.22003 27.273 6.22003V4.62532ZM25.6848 4.93305C25.245 5.12323 24.8249 5.37546 24.4242 5.68458L25.3982 6.94724C25.704 6.71133 26.0106 6.52957 26.3177 6.39676L25.6848 4.93305ZM25.6209 5.95242L24.6671 4.09025L23.2477 4.81724L24.2015 6.6794L25.6209 5.95242ZM24.4381 5.08992C24.8077 4.81066 25.2612 4.58219 25.811 4.4137L25.3437 2.88898C24.642 3.10403 24.0155 3.4105 23.4767 3.81756L24.4381 5.08992ZM25.8186 4.41132C26.3766 4.23419 26.9462 4.1459 27.5304 4.1459V2.5512C26.7822 2.5512 26.0499 2.66477 25.3361 2.89137L25.8186 4.41132ZM27.5304 4.1459C27.9936 4.1459 28.42 4.1993 28.8128 4.30176L29.2153 2.75869C28.6795 2.61891 28.1168 2.5512 27.5304 2.5512V4.1459ZM28.8128 4.30176C29.1916 4.40059 29.5007 4.54737 29.7529 4.73278L30.6975 3.448C30.2634 3.12876 29.765 2.9021 29.2153 2.75869L28.8128 4.30176ZM29.7743 4.74799C30.0193 4.91603 30.21 5.13015 30.3523 5.40041L31.7635 4.65768C31.502 4.16087 31.1376 3.74922 30.6761 3.43279L29.7743 4.74799ZM30.3644 5.42262C30.4959 5.65429 30.5785 5.95714 30.5785 6.36133H32.1732C32.1732 5.73603 32.0438 5.15069 31.7513 4.63547L30.3644 5.42262ZM30.5785 6.36133C30.5785 6.7497 30.5038 7.11858 30.3536 7.4743L31.8227 8.0946C32.0561 7.54195 32.1732 6.96209 32.1732 6.36133H30.5785ZM30.3478 7.48832C30.2001 7.85755 29.9714 8.2447 29.648 8.64891L30.8933 9.64512C31.2966 9.14095 31.6128 8.61973 31.8285 8.08058L30.3478 7.48832ZM29.6412 8.65749C29.328 9.06027 28.9242 9.47559 28.4223 9.90176L29.4544 11.1174C30.0223 10.6352 30.5068 10.1421 30.9 9.63654L29.6412 8.65749ZM28.4166 9.90665C27.9111 10.344 27.3282 10.8049 26.666 11.2891L27.6074 12.5763C28.2978 12.0714 28.9159 11.5835 29.4601 11.1125L28.4166 9.90665ZM27.1367 12.7301H31.4818V11.1353H27.1367V12.7301ZM30.6844 11.9327V13.9008H32.2791V11.9327H30.6844ZM31.4818 13.1035H23.9271V14.6982H31.4818V13.1035ZM24.7245 13.9008V12.0084H23.1298V13.9008H24.7245ZM24.3998 12.6506L26.2922 11.2577L25.3469 9.97338L23.4545 11.3662L24.3998 12.6506ZM26.2997 11.2522C26.9307 10.7763 27.5038 10.3077 28.0177 9.84626L26.9522 8.65972C26.477 9.08645 25.9398 9.52623 25.3395 9.97893L26.2997 11.2522ZM28.0177 9.84626C28.5419 9.37551 28.9812 8.90615 29.3245 8.43697L28.0375 7.49528C27.7752 7.85373 27.4171 8.24229 26.9522 8.65972L28.0177 9.84626ZM29.3298 8.42958C29.6889 7.92685 29.9325 7.37276 29.9325 6.78524H28.3378C28.3378 6.92442 28.2786 7.15759 28.0321 7.50268L29.3298 8.42958ZM29.9325 6.78524C29.9325 6.43483 29.8553 6.08857 29.671 5.77538L28.2965 6.58393C28.3141 6.6139 28.3378 6.67137 28.3378 6.78524H29.9325ZM29.671 5.77538C29.5055 5.49393 29.281 5.26289 29.0082 5.08631L28.1418 6.42518C28.2121 6.47065 28.2602 6.52221 28.2965 6.58393L29.671 5.77538ZM29.0082 5.08631C28.7496 4.91904 28.4641 4.80482 28.1613 4.73599L27.8078 6.29104C27.9491 6.32314 28.0572 6.37041 28.1418 6.42518L29.0082 5.08631ZM28.1943 4.74426C27.8977 4.66335 27.5894 4.62532 27.273 4.62532V6.22003C27.4612 6.22003 27.6273 6.24256 27.7747 6.28277L28.1943 4.74426Z" fill="#3B3B3B" mask="url(#path-53-outside-1_65_2469)"/>
</g>
<g filter="url(#filter1_d_65_2469)">
<mask id="path-55-outside-2_65_2469" maskUnits="userSpaceOnUse" x="31.8206" y="3.93921" width="12" height="9" fill="black">
<rect fill="white" x="31.8206" y="3.93921" width="12" height="9"/>
<path d="M33.4746 7.46596C33.6522 7.43367 33.8352 7.40406 34.0236 7.37715C34.2121 7.34485 34.3951 7.32062 34.5727 7.30447C34.7557 7.28294 34.928 7.26679 35.0895 7.25603C35.251 7.23988 35.3936 7.2318 35.5174 7.2318C35.8081 7.2318 36.0799 7.25872 36.3329 7.31255C36.5913 7.36638 36.8147 7.46327 37.0031 7.60323C37.1915 7.74319 37.3396 7.93428 37.4472 8.17652C37.5603 8.41875 37.6168 8.72558 37.6168 9.097V11.9392H36.4864V9.41998C36.4864 9.00549 36.4002 8.72289 36.228 8.57216C36.0557 8.41606 35.8027 8.338 35.469 8.338C35.3452 8.338 35.2106 8.34608 35.0653 8.36223C34.9199 8.37838 34.7665 8.39991 34.605 8.42682V11.9392H33.4746V7.46596ZM40.0315 8.66098C39.7678 8.8763 39.6359 9.20466 39.6359 9.64607C39.6359 10.0875 39.7678 10.4131 40.0315 10.6231C40.2953 10.8276 40.6506 10.9299 41.0974 10.9299C41.3019 10.9299 41.5361 10.9003 41.7998 10.8411V8.4349C41.6599 8.39722 41.5334 8.37299 41.4204 8.36223C41.3073 8.34608 41.1996 8.338 41.0974 8.338C40.6506 8.338 40.2953 8.44566 40.0315 8.66098ZM41.7998 5.39083H42.9303V11.8019C42.3651 11.958 41.7568 12.0361 41.1054 12.0361C40.6856 12.0361 40.3115 11.9769 39.9831 11.8585C39.6547 11.7347 39.3748 11.5651 39.1434 11.3498C38.9173 11.1345 38.745 10.8815 38.6266 10.5908C38.5082 10.3001 38.449 9.98519 38.449 9.64607C38.449 9.30694 38.5082 8.99203 38.6266 8.70135C38.7504 8.40529 38.9253 8.1496 39.1514 7.93428C39.3775 7.71358 39.6467 7.54133 39.9589 7.41752C40.2765 7.29371 40.6291 7.2318 41.0166 7.2318C41.1189 7.2318 41.2346 7.23719 41.3638 7.24795C41.4984 7.25872 41.6437 7.27487 41.7998 7.2964V5.39083Z"/>
</mask>
<path d="M33.4746 7.46596C33.6522 7.43367 33.8352 7.40406 34.0236 7.37715C34.2121 7.34485 34.3951 7.32062 34.5727 7.30447C34.7557 7.28294 34.928 7.26679 35.0895 7.25603C35.251 7.23988 35.3936 7.2318 35.5174 7.2318C35.8081 7.2318 36.0799 7.25872 36.3329 7.31255C36.5913 7.36638 36.8147 7.46327 37.0031 7.60323C37.1915 7.74319 37.3396 7.93428 37.4472 8.17652C37.5603 8.41875 37.6168 8.72558 37.6168 9.097V11.9392H36.4864V9.41998C36.4864 9.00549 36.4002 8.72289 36.228 8.57216C36.0557 8.41606 35.8027 8.338 35.469 8.338C35.3452 8.338 35.2106 8.34608 35.0653 8.36223C34.9199 8.37838 34.7665 8.39991 34.605 8.42682V11.9392H33.4746V7.46596ZM40.0315 8.66098C39.7678 8.8763 39.6359 9.20466 39.6359 9.64607C39.6359 10.0875 39.7678 10.4131 40.0315 10.6231C40.2953 10.8276 40.6506 10.9299 41.0974 10.9299C41.3019 10.9299 41.5361 10.9003 41.7998 10.8411V8.4349C41.6599 8.39722 41.5334 8.37299 41.4204 8.36223C41.3073 8.34608 41.1996 8.338 41.0974 8.338C40.6506 8.338 40.2953 8.44566 40.0315 8.66098ZM41.7998 5.39083H42.9303V11.8019C42.3651 11.958 41.7568 12.0361 41.1054 12.0361C40.6856 12.0361 40.3115 11.9769 39.9831 11.8585C39.6547 11.7347 39.3748 11.5651 39.1434 11.3498C38.9173 11.1345 38.745 10.8815 38.6266 10.5908C38.5082 10.3001 38.449 9.98519 38.449 9.64607C38.449 9.30694 38.5082 8.99203 38.6266 8.70135C38.7504 8.40529 38.9253 8.1496 39.1514 7.93428C39.3775 7.71358 39.6467 7.54133 39.9589 7.41752C40.2765 7.29371 40.6291 7.2318 41.0166 7.2318C41.1189 7.2318 41.2346 7.23719 41.3638 7.24795C41.4984 7.25872 41.6437 7.27487 41.7998 7.2964V5.39083Z" fill="white"/>
<path d="M33.4746 7.46596L33.332 6.68147L32.6772 6.80051V7.46596H33.4746ZM34.0236 7.37715L34.1364 8.16648L34.1474 8.16491L34.1584 8.16303L34.0236 7.37715ZM34.5727 7.30447L34.6449 8.09855L34.6554 8.0976L34.6659 8.09637L34.5727 7.30447ZM35.0895 7.25603L35.1425 8.05161L35.1557 8.05074L35.1688 8.04942L35.0895 7.25603ZM36.3329 7.31255L36.167 8.09245L36.1703 8.09314L36.3329 7.31255ZM37.0031 7.60323L36.5276 8.2433L36.5276 8.2433L37.0031 7.60323ZM37.4472 8.17652L36.7186 8.50035L36.7216 8.50706L36.7247 8.5137L37.4472 8.17652ZM37.6168 11.9392V12.7366H38.4141V11.9392H37.6168ZM36.4864 11.9392H35.689V12.7366H36.4864V11.9392ZM36.228 8.57216L35.6925 9.16308L35.7029 9.17223L36.228 8.57216ZM35.0653 8.36223L35.1533 9.1547H35.1533L35.0653 8.36223ZM34.605 8.42682L34.4739 7.64032L33.8077 7.75136V8.42682H34.605ZM34.605 11.9392V12.7366H35.4024V11.9392H34.605ZM33.4746 11.9392H32.6772V12.7366H33.4746V11.9392ZM33.6172 8.25045C33.7844 8.22006 33.9575 8.19205 34.1364 8.16648L33.9109 6.58781C33.713 6.61607 33.52 6.64728 33.332 6.68147L33.6172 8.25045ZM34.1584 8.16303C34.3275 8.13404 34.4896 8.11267 34.6449 8.09855L34.5005 6.5104C34.3005 6.52858 34.0966 6.55566 33.8889 6.59126L34.1584 8.16303ZM34.6659 8.09637C34.8373 8.07619 34.9961 8.06137 35.1425 8.05161L35.0364 6.46044C34.8599 6.47221 34.6741 6.48969 34.4795 6.51258L34.6659 8.09637ZM35.1688 8.04942C35.3115 8.03515 35.4268 8.02916 35.5174 8.02916V6.43445C35.3605 6.43445 35.1904 6.44461 35.0101 6.46263L35.1688 8.04942ZM35.5174 8.02916C35.7591 8.02916 35.9748 8.05155 36.167 8.09244L36.4989 6.53265C36.1851 6.46589 35.8571 6.43445 35.5174 6.43445V8.02916ZM36.1703 8.09314C36.3296 8.12633 36.443 8.18046 36.5276 8.2433L37.4786 6.96316C37.1864 6.74609 36.853 6.60643 36.4956 6.53196L36.1703 8.09314ZM36.5276 8.2433C36.5922 8.29125 36.6593 8.36704 36.7186 8.50035L38.1758 7.85268C38.0198 7.50152 37.7909 7.19512 37.4786 6.96316L36.5276 8.2433ZM36.7247 8.5137C36.7732 8.6176 36.8194 8.79953 36.8194 9.097H38.4141C38.4141 8.65163 38.3474 8.2199 38.1698 7.83933L36.7247 8.5137ZM36.8194 9.097V11.9392H38.4141V9.097H36.8194ZM37.6168 11.1419H36.4864V12.7366H37.6168V11.1419ZM37.2837 11.9392V9.41998H35.689V11.9392H37.2837ZM37.2837 9.41998C37.2837 8.94886 37.196 8.35968 36.753 7.97209L35.7029 9.17223C35.6489 9.12493 35.6469 9.08989 35.659 9.12961C35.672 9.17203 35.689 9.2624 35.689 9.41998H37.2837ZM36.7634 7.98134C36.3916 7.64436 35.9152 7.54065 35.469 7.54065V9.13536C35.6902 9.13536 35.7199 9.18776 35.6925 9.16299L36.7634 7.98134ZM35.469 7.54065C35.3111 7.54065 35.1467 7.55092 34.9772 7.56975L35.1533 9.1547C35.2745 9.14124 35.3793 9.13536 35.469 9.13536V7.54065ZM34.9772 7.56975C34.8159 7.58768 34.648 7.6113 34.4739 7.64032L34.7361 9.21333C34.885 9.18852 35.0239 9.16908 35.1533 9.1547L34.9772 7.56975ZM33.8077 8.42682V11.9392H35.4024V8.42682H33.8077ZM34.605 11.1419H33.4746V12.7366H34.605V11.1419ZM34.2719 11.9392V7.46596H32.6772V11.9392H34.2719ZM40.0315 10.6231L39.535 11.247L39.5429 11.2532L40.0315 10.6231ZM41.7998 10.8411L41.9745 11.6191L42.5972 11.4793V10.8411H41.7998ZM41.7998 8.4349H42.5972V7.82382L42.0071 7.66496L41.7998 8.4349ZM41.4204 8.36223L41.3076 9.15157L41.3261 9.15421L41.3448 9.15599L41.4204 8.36223ZM41.7998 5.39083V4.59348H41.0025V5.39083H41.7998ZM42.9303 5.39083H43.7276V4.59348H42.9303V5.39083ZM42.9303 11.8019L43.1425 12.5705L43.7276 12.4089V11.8019H42.9303ZM39.9831 11.8585L39.7018 12.6046L39.7126 12.6085L39.9831 11.8585ZM39.1434 11.3498L38.5934 11.9272L38.6003 11.9336L39.1434 11.3498ZM38.6266 8.70135L37.8909 8.39372L37.8882 8.40052L38.6266 8.70135ZM39.1514 7.93428L39.7014 8.51172L39.7084 8.50485L39.1514 7.93428ZM39.9589 7.41752L39.6693 6.67461L39.6649 6.67632L39.9589 7.41752ZM41.3638 7.24795L41.2976 8.04256L41.3002 8.04277L41.3638 7.24795ZM41.7998 7.2964L41.6909 8.08627L42.5972 8.21128V7.2964H41.7998ZM39.5273 8.0433C39.0259 8.45261 38.8385 9.04178 38.8385 9.64607H40.4332C40.4332 9.36755 40.5096 9.29999 40.5358 9.27866L39.5273 8.0433ZM38.8385 9.64607C38.8385 10.2492 39.0256 10.8415 39.535 11.2469L40.5281 9.99921C40.5099 9.98475 40.4332 9.92571 40.4332 9.64607H38.8385ZM39.5429 11.2532C39.9873 11.5978 40.5333 11.7273 41.0974 11.7273V10.1326C40.7679 10.1326 40.6034 10.0575 40.5202 9.99299L39.5429 11.2532ZM41.0974 11.7273C41.376 11.7273 41.6705 11.6873 41.9745 11.6191L41.6252 10.0631C41.4016 10.1133 41.2279 10.1326 41.0974 10.1326V11.7273ZM42.5972 10.8411V8.4349H41.0025V10.8411H42.5972ZM42.0071 7.66496C41.8352 7.61867 41.6637 7.58444 41.4959 7.56847L41.3448 9.15599C41.4031 9.16155 41.4846 9.17576 41.5926 9.20483L42.0071 7.66496ZM41.5331 7.57289C41.387 7.55201 41.2414 7.54065 41.0974 7.54065V9.13536C41.1579 9.13536 41.2277 9.14015 41.3076 9.15157L41.5331 7.57289ZM41.0974 7.54065C40.5247 7.54065 39.9726 7.6798 39.5273 8.0433L40.5358 9.27866C40.618 9.21153 40.7764 9.13536 41.0974 9.13536V7.54065ZM41.7998 6.18818H42.9303V4.59348H41.7998V6.18818ZM42.1329 5.39083V11.8019H43.7276V5.39083H42.1329ZM42.718 11.0334C42.2291 11.1684 41.6929 11.2387 41.1054 11.2387V12.8335C41.8207 12.8335 42.501 12.7477 43.1425 12.5705L42.718 11.0334ZM41.1054 11.2387C40.7596 11.2387 40.4796 11.1899 40.2536 11.1084L39.7126 12.6085C40.1433 12.7639 40.6115 12.8335 41.1054 12.8335V11.2387ZM40.2644 11.1124C40.0223 11.0211 39.8341 10.9033 39.6864 10.766L38.6003 11.9336C38.9156 12.2269 39.2871 12.4482 39.7018 12.6045L40.2644 11.1124ZM39.6933 10.7724C39.5493 10.6353 39.4411 10.4767 39.365 10.2899L37.8882 10.8916C38.0489 11.2862 38.2852 11.6336 38.5935 11.9272L39.6933 10.7724ZM39.365 10.2899C39.2885 10.1022 39.2463 9.89041 39.2463 9.64607H37.6516C37.6516 10.08 37.7278 10.498 37.8882 10.8916L39.365 10.2899ZM39.2463 9.64607C39.2463 9.40172 39.2885 9.1899 39.365 9.00219L37.8882 8.40052C37.7278 8.79417 37.6516 9.21215 37.6516 9.64607H39.2463ZM39.3622 9.00898C39.4447 8.81181 39.5574 8.64875 39.7013 8.51167L38.6015 7.35689C38.2933 7.65045 38.0561 7.99877 37.891 8.39373L39.3622 9.00898ZM39.7084 8.50485C39.8543 8.36244 40.0324 8.24611 40.2528 8.15872L39.6649 6.67632C39.2609 6.83655 38.9007 7.06472 38.5944 7.36372L39.7084 8.50485ZM40.2485 8.16042C40.462 8.07718 40.7147 8.02916 41.0166 8.02916V6.43445C40.5434 6.43445 40.0909 6.51024 39.6693 6.67462L40.2485 8.16042ZM41.0166 8.02916C41.0919 8.02916 41.1849 8.03316 41.2976 8.04255L41.43 6.45336C41.2843 6.44121 41.1459 6.43445 41.0166 6.43445V8.02916ZM41.3002 8.04277C41.4174 8.05214 41.5474 8.06649 41.6909 8.08627L41.9088 6.50653C41.74 6.48325 41.5794 6.4653 41.4274 6.45314L41.3002 8.04277ZM42.5972 7.2964V5.39083H41.0025V7.2964H42.5972Z" fill="#3B3B3B" mask="url(#path-55-outside-2_65_2469)"/>
</g>
</g>
<defs>
<filter id="filter0_d_65_2469" x="22.9424" y="2.55121" width="9.33667" height="13.7417" filterUnits="userSpaceOnUse" color-interpolation-filters="sRGB">
<feFlood flood-opacity="0" result="BackgroundImageFix"/>
<feColorMatrix in="SourceAlpha" type="matrix" values="0 0 0 0 0 0 0 0 0 0 0 0 0 0 0 0 0 0 127 0" result="hardAlpha"/>
<feOffset dy="1.5947"/>
<feComposite in2="hardAlpha" operator="out"/>
<feColorMatrix type="matrix" values="0 0 0 0 0.233024 0 0 0 0 0.233024 0 0 0 0 0.233024 0 0 0 1 0"/>
<feBlend mode="normal" in2="BackgroundImageFix" result="effect1_dropShadow_65_2469"/>
<feBlend mode="normal" in="SourceGraphic" in2="effect1_dropShadow_65_2469" result="shape"/>
</filter>
<filter id="filter1_d_65_2469" x="32.6772" y="4.59348" width="11.0503" height="9.83469" filterUnits="userSpaceOnUse" color-interpolation-filters="sRGB">
<feFlood flood-opacity="0" result="BackgroundImageFix"/>
<feColorMatrix in="SourceAlpha" type="matrix" values="0 0 0 0 0 0 0 0 0 0 0 0 0 0 0 0 0 0 127 0" result="hardAlpha"/>
<feOffset dy="1.5947"/>
<feComposite in2="hardAlpha" operator="out"/>
<feColorMatrix type="matrix" values="0 0 0 0 0.233024 0 0 0 0 0.233024 0 0 0 0 0.233024 0 0 0 1 0"/>
<feBlend mode="normal" in2="BackgroundImageFix" result="effect1_dropShadow_65_2469"/>
<feBlend mode="normal" in="SourceGraphic" in2="effect1_dropShadow_65_2469" result="shape"/>
</filter>
<clipPath id="clip0_65_2469">
<rect width="48.4467" height="48.4467" fill="white" transform="translate(0.524902 0.914093)"/>
</clipPath>
</defs>
</svg>
