<svg width="67" height="45" viewBox="0 0 67 45" fill="none" xmlns="http://www.w3.org/2000/svg">
<path d="M46.0258 25.8838C46.5589 25.7677 47.0813 25.6094 47.6091 25.4774C47.6328 25.6621 47.5326 25.9049 47.4824 26.0817C47.1948 27.0739 46.6064 28.6756 45.981 29.4936C45.9493 29.5358 45.9229 29.5622 45.8807 29.5913C45.9995 29.71 47.4587 32.581 47.4587 32.7156C47.4587 32.7182 47.4587 32.7208 47.4587 32.7261C47.4033 32.9267 46.7146 33.8001 46.5193 33.9241C46.5008 33.9373 46.4876 33.94 46.4639 33.9505C46.4612 33.9426 46.4612 33.9347 46.4586 33.9268C46.4032 33.7737 45.5588 33.0322 45.3873 32.9187C45.4902 32.8396 45.6115 32.7261 45.6406 32.5968C45.6432 32.3831 44.3977 29.9633 44.1919 29.549C44.3792 29.2825 44.5824 29.016 44.7223 28.7205C44.7592 28.702 44.7909 28.6782 44.8199 28.6492C45.1498 28.3009 46.0364 26.3192 46.0258 25.8838Z" fill="#147984"/>
<path d="M20.0119 16.2415C20.4948 16.3154 20.9724 16.4183 21.4553 16.4975C21.0067 17.5503 20.6795 18.619 20.4288 19.7352L18.5896 20.2445C18.2439 20.3395 17.8666 20.4108 17.5367 20.5506C17.4101 20.6034 17.2623 20.672 17.1963 20.8013C17.0987 20.9887 17.1251 21.2393 17.1304 21.4478L17.1356 22.0574C16.6 22.5719 16.1039 23.1525 15.5181 23.609L15.5207 19.6323C16.7345 19.3711 17.9563 19.036 19.149 18.6903C19.3839 17.8459 19.6662 17.0463 20.0119 16.2415Z" fill="#147984"/>
<path d="M15.5183 23.6038C16.1041 23.1473 16.6002 22.5668 17.1358 22.0522C17.1437 22.3768 17.054 22.9811 17.2968 23.2186C17.6768 23.5854 19.8564 23.9548 20.4897 24.1078C20.6903 25.9603 21.5795 28.1742 22.7168 29.6519C22.1389 30.6309 21.5769 31.631 20.9568 32.5836C21.5716 33.1641 22.1838 33.7499 22.7828 34.3463C23.3053 33.9346 23.8515 33.5546 24.3951 33.1694C24.7671 32.9081 25.1339 32.6311 25.5192 32.3909C27.1922 33.6919 29.1792 34.3621 31.248 34.6972C31.5461 35.8662 31.8391 37.0378 32.1715 38.1962C33.0054 38.1962 33.8392 38.183 34.6704 38.1962C35.0399 37.051 35.3117 35.8266 35.565 34.6471C37.4702 34.4202 39.5047 33.7156 41.0721 32.602C41.6605 32.953 42.2595 33.2802 42.8559 33.6153C43.2834 33.8555 43.7082 34.1114 44.1515 34.3225C44.2914 34.1668 45.0936 33.3726 45.1015 33.2406C45.2202 33.1667 45.3232 33.0401 45.3838 32.9134C45.558 33.0269 46.4024 33.7684 46.4552 33.9214C46.4578 33.9293 46.4578 33.9373 46.4605 33.9452C46.4367 34.1853 44.3811 35.9401 44.0671 36.2092C43.1251 35.605 42.1302 35.0746 41.1803 34.4835C40.6631 34.6999 40.1644 34.969 39.6445 35.1828C38.6787 35.5838 37.6786 35.8688 36.6627 36.109C36.42 37.3281 36.135 38.5393 35.8737 39.7531C34.2324 39.7056 32.5726 39.732 30.9287 39.7478C30.6015 38.5182 30.3297 37.2727 29.9945 36.0456C28.4166 35.7791 26.8861 35.2065 25.506 34.3964C24.5349 35.0323 23.548 35.6472 22.5875 36.3016C21.4027 35.0957 20.1915 33.8845 18.9513 32.7366C19.611 31.7524 20.1836 30.7074 20.8248 29.7126C20.0042 28.4354 19.4685 26.8997 19.1017 25.4325C18.4077 25.2927 17.7164 25.0816 17.0303 24.9021C16.5342 24.7728 15.9906 24.6752 15.5156 24.4878L15.5183 23.6038Z" fill="#0B4F66"/>
<path d="M17.1302 21.4427C18.753 21.6406 20.3838 21.8754 21.9987 22.1209C22.2441 25.3956 23.5424 28.2824 26.0545 30.4409C28.4188 32.4727 31.5009 33.3171 34.5804 33.0744C37.2561 32.8633 39.5967 31.7524 41.4596 29.8208C42.3911 30.6731 43.2989 31.5571 44.2251 32.42C44.4678 32.6469 44.8505 33.0717 45.1038 33.238C45.0959 33.3673 44.2963 34.1642 44.1538 34.3199C43.7105 34.1088 43.2857 33.8528 42.8582 33.6127C42.2618 33.2776 41.6628 32.9504 41.0744 32.5994C39.5043 33.713 37.4725 34.4202 35.5673 34.6445C35.3139 35.8213 35.0421 37.0484 34.6727 38.1936C33.8415 38.1804 33.005 38.191 32.1738 38.1936C31.8413 37.0352 31.5484 35.8636 31.2502 34.6946C29.1814 34.3595 27.1944 33.6892 25.5215 32.3883C25.1362 32.6284 24.7668 32.9055 24.3973 33.1667C23.8538 33.5494 23.3075 33.9293 22.7851 34.3436C22.1834 33.7473 21.5739 33.1615 20.959 32.5809C21.5791 31.6283 22.1412 30.6282 22.7191 29.6493C21.5818 28.1716 20.6925 25.9576 20.492 24.1052C19.8587 23.9522 17.679 23.5827 17.2991 23.2159C17.0536 22.9811 17.146 22.3742 17.1381 22.0496L17.1302 21.4427Z" fill="#912B35"/>
<path d="M30.8965 4.40674L35.8521 4.40938C36.1319 5.59946 36.4643 6.78427 36.7863 7.9638C38.2138 8.29365 39.7338 8.87681 40.9687 9.66581C41.9609 8.97709 43.0745 8.46253 44.0746 7.78172C44.4783 8.21976 47.4944 11.1356 47.5261 11.2491C47.505 11.4048 45.9534 14.3523 45.8082 14.4763C45.803 14.4816 45.795 14.4842 45.7898 14.4895C46.2542 14.9513 47.497 17.9621 47.4759 18.5585C47.4759 18.5848 47.468 18.6033 47.4575 18.6271C48.1594 18.7353 48.8639 18.9464 49.5553 19.1126C50.1173 19.2472 50.7401 19.3527 51.2758 19.5586C51.3022 19.6087 51.3153 19.6509 51.3206 19.709C51.376 20.6906 51.3233 21.7012 51.3233 22.6855C51.3233 23.1473 51.3787 24.0867 51.3127 24.5062V24.4561L51.289 24.5432L51.2573 24.5617C51.2547 24.5142 51.2547 24.5062 51.2203 24.4719C51.0752 24.3347 50.8694 24.216 50.7031 24.0946C50.3364 23.8254 49.9854 23.5589 49.6582 23.2423C49.6846 23.208 49.7031 23.1816 49.711 23.1367C49.7479 22.9071 49.7637 21.601 49.6556 21.4479C49.1964 21.4717 48.6819 21.3872 48.2201 21.3529C46.9693 21.2658 45.7053 21.1365 44.4519 21.1101C44.473 21.0679 44.4836 21.0231 44.4836 20.9756C44.4783 20.5903 44.3833 20.1734 44.3015 19.7987C43.8766 17.8196 42.9267 15.9091 41.5334 14.4341C39.3037 12.0829 36.5884 10.9351 33.3585 10.8401C30.5139 10.7899 27.6535 11.9325 25.5082 13.7744C24.8828 13.1305 24.2204 12.5262 23.5687 11.9114C23.0013 11.3757 22.4419 10.8269 21.8456 10.3202C21.5843 10.5709 21.1489 10.9007 21.0671 11.2596C20.608 11.666 20.2042 12.1357 19.7556 12.5526C19.5155 12.1357 19.2807 11.7109 19.0273 11.2992C19.6026 10.7688 20.1435 10.1988 20.6977 9.6447C21.3415 9.00084 21.996 8.36489 22.6266 7.71048C23.6135 8.41767 24.7113 9.00347 25.7483 9.63942C27.1495 8.9032 28.4293 8.37809 29.965 7.98227C30.2711 6.8001 30.6379 5.60738 30.8965 4.40674Z" fill="#147984"/>
<path d="M32.0894 5.8609L33.3587 5.86354V10.8403C30.5141 10.7901 27.6536 11.9327 25.5083 13.7746C24.8829 13.1307 24.2206 12.5264 23.5688 11.9116C23.0015 11.3759 22.4421 10.8271 21.8457 10.3204C22.0726 10.1093 22.3207 9.69503 22.6215 9.60531C22.7402 9.57101 22.8959 9.6317 23.0041 9.6792C23.3102 9.81378 23.6058 10.0196 23.8934 10.1911C24.5452 10.5817 25.1943 10.988 25.8645 11.3469C27.5666 10.2676 29.1102 9.70559 31.0735 9.29658C31.4033 8.15135 31.7147 6.99293 32.0894 5.8609Z" fill="#F0D432"/>
<path d="M33.3589 5.8634H34.644C34.9817 7.01127 35.3617 8.15385 35.6678 9.30964C37.3883 9.59198 39.5969 10.4074 40.9797 11.4813C41.956 10.8322 42.9561 10.1488 43.9826 9.58671C44.2253 9.82683 45.6397 11.17 45.6819 11.323C45.6556 11.5526 44.2306 14.0251 43.9826 14.4552C44.9642 15.925 45.6925 17.4793 46.1147 19.1971C46.1596 19.3845 46.2941 19.8093 46.2387 19.994C46.2334 20.0072 46.2282 20.0204 46.2255 20.0336C46.9749 20.1497 47.7191 20.3318 48.4606 20.4901C48.8485 20.5719 49.3076 20.6247 49.677 20.7593C49.7351 20.9281 49.7641 21.258 49.6797 21.4189C49.6718 21.4374 49.6665 21.4427 49.6559 21.4585C49.1968 21.4823 48.6822 21.3978 48.2204 21.3635C46.9697 21.2765 45.7057 21.1472 44.4523 21.1208C44.4734 21.0785 44.4839 21.0337 44.4839 20.9862C44.4787 20.6009 44.3837 20.184 44.3019 19.8093C43.877 17.8302 42.9271 15.9198 41.5338 14.4447C39.304 12.083 36.5887 10.9351 33.3589 10.8401V5.8634Z" fill="#FCE88E"/>
<path d="M21.0671 11.2623C21.1515 10.9035 21.5842 10.5736 21.8455 10.3229C22.4392 10.8296 22.9986 11.3784 23.5686 11.9141C24.223 12.5289 24.8853 13.1332 25.5081 13.7771C27.6561 11.9326 30.5138 10.79 33.3584 10.8401C36.5883 10.9325 39.3036 12.0804 41.5333 14.4394C42.9266 15.9145 43.8766 17.825 44.3014 19.804C44.3832 20.1787 44.4782 20.5957 44.4835 20.9809C44.4835 21.0284 44.4729 21.0733 44.4518 21.1155C45.7052 21.1419 46.9692 21.2685 48.22 21.3583C48.6818 21.3899 49.1963 21.477 49.6555 21.4533C49.761 21.6089 49.7478 22.9151 49.7109 23.1421C49.703 23.1869 49.6845 23.2133 49.6581 23.2476C49.9853 23.5643 50.3363 23.8308 50.7031 24.0999C50.8667 24.2187 51.0725 24.3374 51.2203 24.4773C51.2546 24.509 51.2572 24.5195 51.2572 24.567C51.0778 24.6726 48.0801 25.3666 47.6104 25.4774C47.0827 25.612 46.5602 25.7676 46.0272 25.8838C46.0377 26.3191 45.1511 28.3009 44.8186 28.6439C44.7896 28.6729 44.7579 28.6967 44.721 28.7152C44.5811 29.0081 44.3779 29.2772 44.1906 29.5437C44.3964 29.958 45.6419 32.3778 45.6393 32.5915C45.6102 32.7208 45.4889 32.8369 45.3859 32.9134C45.3253 33.0401 45.2223 33.1641 45.1036 33.2406C44.8503 33.0718 44.4677 32.6469 44.2249 32.4226C43.2987 31.5624 42.3909 30.6784 41.4595 29.8234C39.5991 31.7524 37.2559 32.8659 34.5802 33.077C31.5007 33.3198 28.4187 32.4754 26.0543 30.4435C23.5422 28.2824 22.2439 25.3982 21.9985 22.1209C20.3836 21.8755 18.7529 21.6406 17.13 21.4427C17.1247 21.2369 17.0957 20.9862 17.196 20.7962C17.2619 20.6695 17.4097 20.6009 17.5364 20.5455C17.8662 20.4083 18.2462 20.3344 18.5892 20.2394L20.4285 19.7301C20.6765 18.6139 21.0037 17.5452 21.455 16.4924C20.9721 16.4106 20.4944 16.3103 20.0115 16.2364C20.2675 15.6585 20.5446 15.0965 20.8955 14.5687C20.5024 13.9037 20.1356 13.2229 19.7582 12.5501C20.2042 12.1384 20.6079 11.6687 21.0671 11.2623Z" fill="#CC6939"/>
<path d="M46.2646 24.0446C46.5628 24.0182 46.8741 23.9206 47.1644 23.8467C47.9455 23.6514 48.8664 23.3506 49.6554 23.2477C49.9826 23.5643 50.3336 23.8308 50.7003 24.1C50.864 24.2187 51.0698 24.3375 51.2175 24.4773C51.2518 24.509 51.2545 24.5196 51.2545 24.5671C51.0751 24.6726 48.0774 25.3666 47.6077 25.4774C47.08 25.612 46.5575 25.7677 46.0245 25.8838C46.035 26.3192 45.1484 28.3009 44.8159 28.644C44.7869 28.673 44.7552 28.6967 44.7183 28.7152C45.1378 28.0634 45.4492 27.2586 45.6999 26.525C45.8239 26.1635 46.4229 24.3639 46.2646 24.0446Z" fill="#0B4F66"/>
<path d="M21.0673 11.2624C21.1201 11.711 22.4289 13.7323 22.7403 14.2864C22.2495 14.9989 21.8273 15.7193 21.4526 16.4977C20.9697 16.4159 20.4921 16.3156 20.0092 16.2417C20.2651 15.6639 20.5422 15.1018 20.8932 14.574C20.5 13.9091 20.1332 13.2283 19.7559 12.5554C20.2045 12.1385 20.6082 11.6688 21.0673 11.2624Z" fill="#0B4F66"/>
<path d="M32.6974 12.7321C32.7053 12.7321 32.7132 12.7294 32.7212 12.7294C33.1328 12.6872 33.5761 12.7057 33.9878 12.7294C36.0038 12.8561 37.8984 13.6002 39.4553 14.8879C41.3156 16.4263 42.54 18.7036 42.7643 21.1128C42.9992 23.6091 42.2999 26.042 40.6902 27.9815C39.0278 29.987 36.6688 31.0953 34.1039 31.3354C31.4862 31.4436 29.2222 30.8024 27.2009 29.0792C25.2693 27.4326 24.1214 25.1554 23.9235 22.6248C23.7388 20.2578 24.5252 17.8539 26.0688 16.0516C27.7656 14.0726 30.1141 12.9353 32.6974 12.7321Z" fill="#16375A"/>
<path d="M26.5422 28.2164C25.1991 26.6807 24.352 24.9074 24.1409 22.865C23.8929 20.4743 24.6318 18.1258 26.1438 16.2654C27.6743 14.3866 29.9937 13.1886 32.395 12.9432C35.1209 12.6635 37.4562 13.4947 39.554 15.2073L39.4062 15.3419C37.7517 13.7428 35.3161 13.0646 33.0653 13.1016C31.4794 13.1253 29.8565 13.6425 28.5055 14.4658C28.0595 14.7376 27.6452 15.0569 27.2283 15.3683L29.2153 17.2339C28.9963 17.4239 28.7904 17.6218 28.5873 17.8276C27.946 17.2075 27.3286 16.5399 26.7322 15.8776C25.0381 17.7907 24.1489 20.0389 24.3098 22.617C24.4286 24.5327 25.3257 26.7203 26.6794 28.0951L26.5422 28.2164Z" fill="#15938B"/>
<path d="M27.2295 15.3657C27.6464 15.0543 28.0607 14.735 28.5067 14.4632C29.8577 13.6373 31.4805 13.1227 33.0664 13.099C35.3173 13.0647 37.7529 13.7402 39.4074 15.3393C38.7556 15.9304 38.0986 16.5716 37.4996 17.2181C36.1855 16.1309 34.5151 15.5688 32.8026 15.7272C31.4964 15.8486 30.2192 16.3842 29.2165 17.2313L27.2295 15.3657Z" fill="#1CC0AA"/>
<path d="M26.7331 15.8723C27.3295 16.5346 27.947 17.2022 28.5882 17.8223C27.4271 19.2631 26.8308 20.8806 27.0313 22.7462C27.1791 24.0999 27.7411 25.137 28.5697 26.1951C28.1369 26.6173 27.7147 27.0448 27.2925 27.4749C27.0946 27.6755 26.8967 27.9182 26.6777 28.095C25.324 26.7202 24.4268 24.5327 24.3081 22.6169C24.1498 20.0389 25.039 17.7906 26.7331 15.8723Z" fill="#1CC0AA"/>
<path d="M39.5546 15.2047C39.771 15.4053 39.9927 15.6032 40.1879 15.8275C41.8583 17.6878 42.7449 20.0627 42.6103 22.5669C42.4942 24.7386 41.6419 26.6807 40.1695 28.2719L40.0402 28.1822C39.42 27.5278 38.7841 26.8813 38.135 26.2532C39.0665 25.3613 39.6364 23.6461 39.6945 22.3822C39.771 20.7435 39.1641 18.9702 38.0532 17.7564C37.8711 17.5743 37.6864 17.3923 37.499 17.2181C38.0954 16.5716 38.7524 15.9304 39.4069 15.3393L39.5546 15.2047Z" fill="#1CC0AA"/>
<path d="M39.5548 15.2047C39.7712 15.4052 39.9929 15.6031 40.1881 15.8274L39.9797 15.83C39.7158 16.0543 39.4809 16.3314 39.2355 16.5821C38.8476 16.9779 38.4492 17.3684 38.0507 17.7563C37.8686 17.5743 37.6839 17.3922 37.4966 17.218C38.0929 16.5715 38.75 15.9303 39.4044 15.3392L39.5548 15.2047Z" fill="#147984"/>
<path d="M40.1878 15.8275C41.8581 17.6878 42.7447 20.0627 42.6101 22.5669C42.494 24.7386 41.6417 26.6807 40.1693 28.2719L40.04 28.1822C40.0505 28.1716 40.0637 28.1584 40.0743 28.1479C41.5916 26.5065 42.5679 24.0894 42.4756 21.8412C42.4017 20.0205 41.837 18.4108 40.8237 16.9041C40.573 16.532 40.3118 16.1336 39.9819 15.8275H40.1878Z" fill="#15938B"/>
<path d="M28.5697 26.1952C28.7333 26.3905 28.926 26.5831 29.1212 26.7441C30.3984 27.8734 32.0556 28.5015 33.7681 28.3933C35.0664 28.3115 36.7024 27.7573 37.6075 26.781C37.7896 26.6121 37.9638 26.4353 38.1326 26.2559C38.7818 26.8813 39.4177 27.5278 40.0378 28.1848L40.1671 28.2745C39.9903 28.4513 39.8162 28.644 39.6262 28.8076C37.874 30.2906 35.7921 31.1561 33.4805 31.1666C30.7837 31.1798 28.4457 30.0979 26.5405 28.2191L26.6777 28.1004C26.8941 27.9236 27.0947 27.6835 27.2926 27.4803C27.7148 27.0449 28.137 26.6174 28.5697 26.1952Z" fill="#1CC0AA"/>
<path d="M38.135 26.2558C38.7841 26.8812 39.4201 27.5277 40.0402 28.1847L40.1695 28.2745C39.9927 28.4513 39.8185 28.6439 39.6285 28.8075L39.5414 28.7072C38.8712 28.1056 38.2537 27.4169 37.6099 26.7836C37.7919 26.612 37.9635 26.4379 38.135 26.2558Z" fill="#147984"/>
<path d="M28.5686 26.1952C28.7322 26.3905 28.9248 26.5831 29.1201 26.7441C28.5158 27.3061 27.8376 28.1215 27.2096 28.5991C29.0013 30.2404 31.4237 31.0743 33.8382 30.974C35.2341 30.9159 36.7224 30.499 37.9309 29.7997C38.493 29.4752 39.0155 29.0846 39.5406 28.7047L39.6276 28.8049C37.8755 30.2879 35.7935 31.1534 33.482 31.164C30.7851 31.1772 28.4472 30.0953 26.542 28.2165L26.6792 28.0977C26.8956 27.9209 27.0961 27.6808 27.294 27.4776C27.7136 27.0449 28.1358 26.6174 28.5686 26.1952Z" fill="url(#paint0_linear_61_2429)"/>
<path d="M29.216 17.2312C30.2187 16.3841 31.4959 15.8485 32.8021 15.7271C34.5146 15.5687 36.1823 16.1282 37.4991 17.218C37.6891 17.3921 37.8712 17.5742 38.0532 17.7563C39.1642 18.9728 39.7711 20.746 39.6946 22.382C39.6365 23.646 39.0665 25.3612 38.135 26.2531C37.9635 26.4352 37.792 26.6094 37.6099 26.7782C36.7048 27.7546 35.0688 28.3087 33.7705 28.3905C32.0553 28.4987 30.4008 27.8707 29.1236 26.7413C28.9284 26.5803 28.7331 26.3851 28.5721 26.1924C27.7436 25.1369 27.1815 24.0972 27.0337 22.7436C26.8305 20.8779 27.4295 19.2604 28.5906 17.8196C28.7912 17.6191 28.997 17.4212 29.216 17.2312Z" fill="#13AFA2"/>
<path d="M33.1376 17.0809C33.1481 17.0809 33.1613 17.0783 33.1719 17.0783C34.3013 16.9938 35.6761 17.4978 36.5257 18.2288C37.5549 19.1154 38.1723 20.3055 38.2726 21.6644C38.3702 22.9838 37.9322 24.2979 37.064 25.2954C36.1484 26.3483 34.9135 26.8734 33.5413 26.9736C33.5255 26.9763 33.5123 26.9763 33.4964 26.9763C32.3143 27.0581 31.0054 26.5119 30.1267 25.744C29.1134 24.86 28.5012 23.6752 28.4168 22.3294C28.3324 20.9836 28.81 19.6959 29.6992 18.6932C30.5674 17.7142 31.8367 17.1627 33.1376 17.0809Z" fill="#0B4F66"/>
<path d="M32.9212 17.949C32.937 17.9463 32.9555 17.9437 32.9713 17.9411C34.011 17.8381 35.1246 18.1495 35.9373 18.8092C36.8028 19.5085 37.3359 20.5139 37.4493 21.6169C37.5601 22.6935 37.2435 23.8018 36.5601 24.6382C35.9083 25.4352 34.8976 26.013 33.8711 26.1133C33.8527 26.116 33.8342 26.1186 33.8131 26.1212C32.7444 26.2505 31.6387 25.9365 30.7943 25.2716C29.9315 24.5934 29.3826 23.6144 29.2533 22.5272C29.124 21.4401 29.4354 20.3423 30.1135 19.4847C30.8234 18.6007 31.8024 18.0809 32.9212 17.949Z" fill="#16375A"/>
<path d="M32.95 18.4003C32.9579 18.4003 32.9632 18.3977 32.9711 18.3977C33.8894 18.2868 34.8948 18.5876 35.6284 19.1418C36.3751 19.7065 36.8765 20.5826 37.0058 21.5088C37.143 22.493 36.9029 23.4826 36.2986 24.2768C35.6679 25.1054 34.7628 25.5566 33.7495 25.6912C32.7838 25.7545 31.8839 25.5487 31.1029 24.955C30.335 24.3718 29.8283 23.4799 29.699 22.5273C29.5671 21.5668 29.8415 20.5588 30.43 19.7883C31.0527 18.9755 31.9525 18.5296 32.95 18.4003Z" fill="#FBA830"/>
<defs>
<linearGradient id="paint0_linear_61_2429" x1="33.5078" y1="31.1967" x2="32.6325" y2="25.6378" gradientUnits="userSpaceOnUse">
<stop stop-color="#1B9A87"/>
<stop offset="1" stop-color="#02848D"/>
</linearGradient>
</defs>
</svg>
