<svg width="62" height="67" viewBox="0 0 62 67" fill="none" xmlns="http://www.w3.org/2000/svg">
<path d="M42.7065 31.0196C43.1994 30.8981 43.6825 30.7325 44.1705 30.5944C44.1925 30.7877 44.0998 31.0417 44.0534 31.2267C43.7875 32.2649 43.2433 33.9409 42.6651 34.7968C42.6358 34.841 42.6114 34.8686 42.5723 34.899C42.6821 35.0232 44.0315 38.0273 44.0315 38.1681C44.0315 38.1709 44.0315 38.1736 44.0315 38.1792C43.9802 38.389 43.3434 39.3029 43.1628 39.4327C43.1457 39.4465 43.1335 39.4493 43.1116 39.4603C43.1091 39.452 43.1091 39.4437 43.1067 39.4355C43.0555 39.2753 42.2747 38.4994 42.1161 38.3807C42.2112 38.2979 42.3235 38.1792 42.3503 38.0439C42.3527 37.8202 41.2011 35.2883 41.0107 34.8548C41.184 34.5759 41.3719 34.2971 41.5012 33.9878C41.5353 33.9685 41.5646 33.9436 41.5915 33.9133C41.8965 33.5488 42.7163 31.4752 42.7065 31.0196Z" fill="#147984"/>
<path d="M18.6529 20.931C19.0994 21.0083 19.541 21.116 19.9875 21.1989C19.5728 22.3005 19.2702 23.4188 19.0384 24.5867L17.3377 25.1196C17.0181 25.219 16.6692 25.2936 16.3642 25.4399C16.247 25.4951 16.1104 25.5669 16.0494 25.7022C15.9591 25.8982 15.9835 26.1606 15.9884 26.3787L15.9933 27.0165C15.498 27.5549 15.0392 28.1623 14.4976 28.64L14.5 24.479C15.6224 24.2057 16.7521 23.855 17.855 23.4933C18.0722 22.6098 18.3332 21.7732 18.6529 20.931Z" fill="#147984"/>
<path d="M14.4976 28.6343C15.0392 28.1567 15.498 27.5492 15.9933 27.0108C16.0006 27.3504 15.9176 27.9827 16.1421 28.2312C16.4935 28.615 18.5089 29.0016 19.0945 29.1617C19.2799 31.1 20.1022 33.4166 21.1539 34.9628C20.6195 35.9871 20.0998 37.0336 19.5264 38.0303C20.0949 38.6378 20.661 39.2508 21.2149 39.8748C21.698 39.444 22.2031 39.0464 22.7057 38.6433C23.0497 38.37 23.3889 38.08 23.7451 37.8288C25.2921 39.19 27.1294 39.8913 29.0424 40.242C29.3181 41.4652 29.5889 42.6911 29.8964 43.9032C30.6674 43.9032 31.4384 43.8894 32.207 43.9032C32.5486 42.7049 32.8 41.4237 33.0342 40.1895C34.7959 39.9521 36.6771 39.2149 38.1265 38.0497C38.6706 38.4169 39.2245 38.7593 39.7759 39.1099C40.1712 39.3612 40.564 39.629 40.974 39.8499C41.1033 39.687 41.845 38.8559 41.8524 38.7179C41.9622 38.6405 42.0573 38.508 42.1134 38.3755C42.2745 38.4942 43.0553 39.2701 43.1041 39.4302C43.1065 39.4385 43.1065 39.4468 43.109 39.4551C43.087 39.7063 41.1862 41.5425 40.8959 41.8241C40.0248 41.1918 39.1049 40.6368 38.2265 40.0183C37.7483 40.2447 37.2871 40.5264 36.8064 40.75C35.9134 41.1697 34.9886 41.4679 34.0492 41.7192C33.8248 42.9948 33.5612 44.2621 33.3197 45.5322C31.802 45.4825 30.2673 45.5102 28.7471 45.5267C28.4446 44.2401 28.1933 42.9368 27.8834 41.6529C26.4243 41.374 25.0091 40.7749 23.7329 39.9272C22.835 40.5926 21.9225 41.236 21.0343 41.9207C19.9387 40.6589 18.8188 39.3916 17.672 38.1905C18.282 37.1606 18.8115 36.0672 19.4044 35.0263C18.6456 33.6899 18.1502 32.0829 17.8111 30.5478C17.1694 30.4014 16.5301 30.1805 15.8957 29.9928C15.437 29.8575 14.9343 29.7553 14.4951 29.5593L14.4976 28.6343Z" fill="#0B4F66"/>
<path d="M15.9884 26.3731C17.489 26.5802 18.9969 26.8259 20.4902 27.0827C20.7171 30.5092 21.9176 33.5299 24.2404 35.7885C26.4267 37.9145 29.2766 38.7981 32.1241 38.544C34.5982 38.3231 36.7625 37.1607 38.4851 35.1396C39.3465 36.0314 40.1858 36.9564 41.0423 37.8593C41.2667 38.0967 41.6205 38.5413 41.8548 38.7152C41.8475 38.8505 41.1081 39.6844 40.9764 39.8473C40.5665 39.6264 40.1736 39.3586 39.7783 39.1073C39.2269 38.7566 38.673 38.4143 38.1289 38.047C36.6771 39.2122 34.7983 39.9522 33.0366 40.1869C32.8024 41.4183 32.5511 42.7022 32.2095 43.9006C31.4409 43.8868 30.6674 43.8978 29.8988 43.9006C29.5913 42.6884 29.3205 41.4625 29.0448 40.2393C27.1318 39.8887 25.2945 39.1874 23.7476 37.8261C23.3913 38.0774 23.0497 38.3673 22.7081 38.6407C22.2055 39.041 21.7004 39.4386 21.2173 39.8721C20.661 39.2481 20.0973 38.6351 19.5288 38.0277C20.1022 37.031 20.6219 35.9845 21.1563 34.9601C20.1046 33.4139 19.2824 31.0973 19.0969 29.1591C18.5113 28.9989 16.4959 28.6124 16.1445 28.2286C15.9176 27.9828 16.003 27.3478 15.9957 27.0082L15.9884 26.3731Z" fill="#912B35"/>
<path d="M28.7178 8.54767L33.3001 8.55043C33.5587 9.79569 33.8662 11.0354 34.1639 12.2696C35.4839 12.6148 36.8893 13.225 38.0313 14.0505C38.9487 13.3299 39.9784 12.7915 40.9031 12.0791C41.2765 12.5375 44.0654 15.5885 44.0947 15.7072C44.0751 15.8701 42.6404 18.9542 42.5062 19.084C42.5013 19.0895 42.494 19.0923 42.4891 19.0978C42.9186 19.581 44.0678 22.7314 44.0483 23.3554C44.0483 23.3831 44.041 23.4024 44.0312 23.4272C44.6803 23.5404 45.3317 23.7613 45.971 23.9353C46.4907 24.0761 47.0666 24.1865 47.5619 24.4019C47.5863 24.4544 47.5985 24.4985 47.6034 24.5593C47.6546 25.5864 47.6058 26.6439 47.6058 27.6738C47.6058 28.157 47.6571 29.1399 47.5961 29.579V29.5265L47.5741 29.6176L47.5448 29.6369C47.5424 29.5872 47.5424 29.579 47.5107 29.5431C47.3765 29.3995 47.1861 29.2752 47.0324 29.1482C46.6933 28.8666 46.3687 28.5877 46.0662 28.2564C46.0906 28.2205 46.1077 28.1929 46.115 28.1459C46.1491 27.9057 46.1638 26.539 46.0637 26.3788C45.6392 26.4037 45.1634 26.3153 44.7364 26.2794C43.5798 26.1883 42.4111 26.053 41.2521 26.0254C41.2716 25.9812 41.2813 25.9343 41.2813 25.8846C41.2765 25.4815 41.1886 25.0452 41.113 24.6532C40.7201 22.5823 39.8417 20.5833 38.5534 19.0398C36.4916 16.5797 33.9809 15.3786 30.9943 15.2792C28.364 15.2268 25.719 16.4223 23.7353 18.3496C23.157 17.6759 22.5446 17.0436 21.9419 16.4002C21.4173 15.8397 20.9 15.2654 20.3486 14.7353C20.107 14.9976 19.7044 15.3427 19.6288 15.7182C19.2042 16.1435 18.8309 16.6349 18.4161 17.0712C18.1941 16.6349 17.9769 16.1904 17.7427 15.7597C18.2746 15.2047 18.7748 14.6083 19.2872 14.0285C19.8826 13.3547 20.4877 12.6893 21.0708 12.0046C21.9834 12.7445 22.9984 13.3575 23.9574 14.0229C25.253 13.2526 26.4364 12.7031 27.8565 12.289C28.1395 11.052 28.4787 9.80397 28.7178 8.54767Z" fill="#147984"/>
<path d="M29.8207 10.069L30.9943 10.0717V15.2792C28.364 15.2267 25.7191 16.4223 23.7353 18.3495C23.1571 17.6758 22.5446 17.0435 21.942 16.4002C21.4174 15.8397 20.9001 15.2654 20.3486 14.7352C20.5585 14.5143 20.7878 14.0808 21.066 13.987C21.1758 13.9511 21.3198 14.0146 21.4198 14.0643C21.7028 14.2051 21.9761 14.4205 22.2421 14.5999C22.8447 15.0086 23.445 15.4338 24.0647 15.8093C25.6385 14.68 27.0659 14.0919 28.8813 13.6639C29.1863 12.4656 29.4742 11.2535 29.8207 10.069Z" fill="#F0D432"/>
<path d="M30.9946 10.0717H32.1829C32.4952 11.2727 32.8466 12.4683 33.1296 13.6777C34.7205 13.9731 36.7628 14.8263 38.0413 15.95C38.9441 15.2708 39.8689 14.5557 40.8181 13.9676C41.0425 14.2188 42.3504 15.6242 42.3894 15.7844C42.365 16.0246 41.0474 18.6117 40.8181 19.0618C41.7257 20.5997 42.3992 22.226 42.7896 24.0235C42.8311 24.2195 42.9555 24.6641 42.9043 24.8573C42.8994 24.8711 42.8945 24.885 42.8921 24.8988C43.585 25.0202 44.2731 25.2108 44.9587 25.3764C45.3174 25.462 45.742 25.5172 46.0836 25.6581C46.1372 25.8348 46.1641 26.1799 46.086 26.3483C46.0787 26.3677 46.0738 26.3732 46.064 26.3897C45.6395 26.4146 45.1637 26.3262 44.7367 26.2904C43.5801 26.1992 42.4114 26.0639 41.2524 26.0363C41.2719 25.9922 41.2817 25.9452 41.2817 25.8955C41.2768 25.4924 41.1889 25.0561 41.1133 24.6641C40.7205 22.5932 39.8421 20.5942 38.5537 19.0507C36.4919 16.5796 33.9812 15.3785 30.9946 15.2791V10.0717Z" fill="#FCE88E"/>
<path d="M19.6293 15.7206C19.7073 15.3451 20.1075 15 20.3491 14.7377C20.8981 15.2678 21.4153 15.8421 21.9424 16.4026C22.5475 17.0459 23.1599 17.6782 23.7358 18.3519C25.7219 16.4219 28.3644 15.2264 30.9948 15.2788C33.9813 15.3755 36.4921 16.5766 38.5539 19.045C39.8422 20.5884 40.7206 22.5875 41.1134 24.6583C41.1891 25.0504 41.2769 25.4866 41.2818 25.8897C41.2818 25.9394 41.272 25.9864 41.2525 26.0306C42.4115 26.0582 43.5803 26.1907 44.7368 26.2846C45.1638 26.3177 45.6396 26.4088 46.0642 26.384C46.1618 26.5469 46.1496 27.9136 46.1154 28.1511C46.1081 28.198 46.091 28.2256 46.0666 28.2615C46.3692 28.5929 46.6937 28.8717 47.0328 29.1534C47.1841 29.2776 47.3744 29.4019 47.5111 29.5482C47.5428 29.5813 47.5452 29.5924 47.5452 29.6421C47.3793 29.7525 44.6075 30.4787 44.1732 30.5947C43.6852 30.7355 43.2021 30.8984 42.7092 31.0199C42.7189 31.4754 41.8991 33.549 41.5917 33.908C41.5648 33.9383 41.5355 33.9632 41.5014 33.9825C41.3721 34.289 41.1842 34.5706 41.0109 34.8495C41.2013 35.283 42.3529 37.8149 42.3505 38.0386C42.3237 38.1739 42.2114 38.2954 42.1163 38.3754C42.0601 38.508 41.965 38.6377 41.8552 38.7178C41.6209 38.5411 41.2671 38.0966 41.0427 37.8619C40.1862 36.9617 39.3469 36.0368 38.4855 35.1422C36.7653 37.1605 34.5986 38.3257 32.1245 38.5466C29.277 38.8006 26.4271 37.9171 24.2409 35.791C21.918 33.5297 20.7175 30.5118 20.4906 27.0825C18.9973 26.8258 17.4894 26.58 15.9888 26.3729C15.9839 26.1576 15.9571 25.8953 16.0498 25.6965C16.1108 25.5639 16.2474 25.4921 16.3645 25.4342C16.6695 25.2906 17.0209 25.2133 17.3381 25.1139L19.0388 24.581C19.2681 23.413 19.5707 22.2948 19.9879 21.1931C19.5414 21.1075 19.0998 21.0026 18.6533 20.9253C18.8899 20.3206 19.1461 19.7325 19.4707 19.1803C19.1071 18.4845 18.7679 17.7721 18.419 17.068C18.8314 16.6373 19.2047 16.1458 19.6293 15.7206Z" fill="#CC6939"/>
<path d="M42.9284 29.0957C43.2041 29.0681 43.492 28.9659 43.7604 28.8886C44.4826 28.6843 45.3342 28.3695 46.0638 28.2618C46.3663 28.5932 46.6908 28.872 47.03 29.1537C47.1813 29.2779 47.3716 29.4022 47.5082 29.5485C47.54 29.5816 47.5424 29.5927 47.5424 29.6424C47.3765 29.7528 44.6046 30.479 44.1703 30.595C43.6823 30.7358 43.1992 30.8987 42.7063 31.0202C42.7161 31.4758 41.8963 33.5493 41.5888 33.9083C41.562 33.9387 41.5327 33.9635 41.4985 33.9828C41.8865 33.3008 42.1744 32.4587 42.4062 31.6911C42.5209 31.3129 43.0748 29.4298 42.9284 29.0957Z" fill="#0B4F66"/>
<path d="M19.6287 15.7208C19.6775 16.1902 20.8877 18.3052 21.1757 18.885C20.7218 19.6305 20.3314 20.3843 19.9849 21.1988C19.5384 21.1132 19.0968 21.0083 18.6503 20.931C18.8869 20.3263 19.1431 19.7382 19.4677 19.1859C19.1041 18.4901 18.7649 17.7778 18.416 17.0737C18.8308 16.6374 19.2041 16.146 19.6287 15.7208Z" fill="#0B4F66"/>
<path d="M30.3817 17.2586C30.389 17.2586 30.3963 17.2559 30.4036 17.2559C30.7843 17.2117 31.1942 17.231 31.5748 17.2559C33.439 17.3884 35.1909 18.167 36.6305 19.5144C38.3507 21.1242 39.4828 23.507 39.6902 26.0279C39.9074 28.6399 39.2608 31.1856 37.7724 33.215C36.2352 35.3134 34.0539 36.4731 31.6822 36.7244C29.2617 36.8376 27.1682 36.1666 25.2992 34.3636C23.5131 32.6407 22.4517 30.2579 22.2687 27.61C22.0979 25.1333 22.825 22.6179 24.2524 20.7321C25.8213 18.6613 27.9929 17.4712 30.3817 17.2586Z" fill="#16375A"/>
<path d="M24.6918 33.4613C23.4498 31.8543 22.6666 29.9988 22.4714 27.8617C22.242 25.3602 22.9252 22.9028 24.3233 20.9562C25.7385 18.9903 27.8833 17.7368 30.1037 17.48C32.6242 17.1873 34.7836 18.0571 36.7234 19.849L36.5867 19.9899C35.0569 18.3166 32.8047 17.607 30.7234 17.6457C29.257 17.6705 27.7564 18.2117 26.5071 19.0732C26.0948 19.3576 25.7117 19.6917 25.3262 20.0175L27.1635 21.9696C26.961 22.1684 26.7706 22.3754 26.5828 22.5908C25.9898 21.9419 25.4189 21.2434 24.8674 20.5504C23.301 22.5522 22.4787 24.9046 22.6275 27.6022C22.7373 29.6068 23.5669 31.8957 24.8186 33.3342L24.6918 33.4613Z" fill="#15938B"/>
<path d="M25.3262 20.0143C25.7117 19.6884 26.0948 19.3544 26.5071 19.07C27.7564 18.2057 29.257 17.6673 30.7234 17.6425C32.8048 17.6066 35.0569 18.3134 36.5868 19.9866C35.9841 20.6051 35.3765 21.2761 34.8226 21.9525C33.6075 20.815 32.063 20.2269 30.4794 20.3925C29.2716 20.5195 28.0907 21.08 27.1635 21.9664L25.3262 20.0143Z" fill="#1CC0AA"/>
<path d="M24.8674 20.5447C25.4189 21.2378 25.9898 21.9363 26.5828 22.5852C25.5092 24.0928 24.9577 25.7853 25.1432 27.7374C25.2798 29.1538 25.7995 30.239 26.5657 31.3462C26.1655 31.7879 25.7751 32.2352 25.3847 32.6853C25.2017 32.8951 25.0187 33.1492 24.8162 33.3342C23.5645 31.8956 22.7349 29.6067 22.6251 27.6021C22.4787 24.9045 23.301 22.5521 24.8674 20.5447Z" fill="#1CC0AA"/>
<path d="M36.7235 19.8464C36.9236 20.0563 37.1286 20.2634 37.3091 20.4981C38.8536 22.4446 39.6735 24.9296 39.549 27.5499C39.4417 29.8223 38.6536 31.8545 37.292 33.5194L37.1725 33.4255C36.5991 32.7408 36.011 32.0643 35.4108 31.4072C36.2721 30.4739 36.7992 28.6792 36.8528 27.3566C36.9236 25.642 36.3624 23.7865 35.3352 22.5164C35.1668 22.3259 34.996 22.1354 34.8228 21.9532C35.3742 21.2767 35.9818 20.6057 36.5869 19.9873L36.7235 19.8464Z" fill="#1CC0AA"/>
<path d="M36.7235 19.8464C36.9236 20.0563 37.1285 20.2634 37.3091 20.4981L37.1163 20.5008C36.8723 20.7355 36.6552 21.0254 36.4283 21.2877C36.0696 21.7019 35.7012 22.1105 35.3327 22.5164C35.1644 22.3259 34.9936 22.1354 34.8203 21.9532C35.3718 21.2767 35.9793 20.6057 36.5844 19.9873L36.7235 19.8464Z" fill="#147984"/>
<path d="M37.3095 20.4976C38.854 22.4441 39.6738 24.9291 39.5494 27.5494C39.442 29.8218 38.6539 31.854 37.2924 33.5189L37.1728 33.425C37.1826 33.414 37.1948 33.4002 37.2045 33.3891C38.6075 31.6717 39.5103 29.1426 39.4249 26.7901C39.3566 24.8849 38.8345 23.2007 37.8975 21.6241C37.6657 21.2348 37.4241 20.8178 37.1191 20.4976H37.3095Z" fill="#15938B"/>
<path d="M26.5658 31.3458C26.7171 31.5501 26.8952 31.7516 27.0758 31.9201C28.2567 33.1018 29.789 33.759 31.3726 33.6458C32.5731 33.5602 34.0859 32.9803 34.9228 31.9587C35.0912 31.782 35.2522 31.597 35.4084 31.4093C36.0086 32.0636 36.5966 32.7401 37.17 33.4276L37.2896 33.5215C37.1261 33.7065 36.9651 33.9081 36.7894 34.0793C35.1692 35.631 33.2441 36.5366 31.1066 36.5477C28.613 36.5615 26.4511 35.4294 24.6895 33.4635L24.8163 33.3393C25.0164 33.1543 25.2019 32.903 25.3849 32.6904C25.7753 32.2348 26.1657 31.7875 26.5658 31.3458Z" fill="#1CC0AA"/>
<path d="M35.4113 31.4095C36.0116 32.0639 36.5996 32.7404 37.173 33.4279L37.2926 33.5218C37.1291 33.7068 36.9681 33.9083 36.7924 34.0795L36.7119 33.9746C36.0921 33.3451 35.5211 32.6244 34.9258 31.9618C35.0941 31.7823 35.2527 31.6001 35.4113 31.4095Z" fill="#147984"/>
<path d="M26.5658 31.3458C26.7171 31.5501 26.8952 31.7516 27.0758 31.9201C26.517 32.5082 25.8899 33.3614 25.3092 33.8611C26.966 35.5785 29.2059 36.451 31.4385 36.3461C32.7292 36.2854 34.1054 35.8491 35.2229 35.1174C35.7426 34.7778 36.2258 34.3692 36.7113 33.9716L36.7918 34.0765C35.1717 35.6282 33.2465 36.5339 31.1091 36.5449C28.6154 36.5587 26.4536 35.4267 24.6919 33.4608L24.8188 33.3365C25.0189 33.1515 25.2043 32.9003 25.3873 32.6877C25.7753 32.2348 26.1657 31.7875 26.5658 31.3458Z" fill="url(#paint0_linear_632_775)"/>
<path d="M27.1639 21.9666C28.0911 21.0802 29.2721 20.5197 30.4799 20.3927C32.0634 20.2271 33.6055 20.8124 34.823 21.9527C34.9987 22.135 35.1671 22.3255 35.3354 22.516C36.3627 23.7889 36.9239 25.6443 36.8531 27.3562C36.7994 28.6788 36.2724 30.4735 35.4111 31.4068C35.2525 31.5973 35.0939 31.7795 34.9255 31.9562C34.0886 32.9778 32.5758 33.5576 31.3753 33.6432C29.7893 33.7564 28.2595 33.0993 27.0785 31.9176C26.8979 31.7491 26.7174 31.5448 26.5685 31.3432C25.8024 30.2388 25.2827 29.1509 25.146 27.7345C24.9581 25.7824 25.512 24.0898 26.5856 22.5823C26.7711 22.3724 26.9614 22.1654 27.1639 21.9666Z" fill="#13AFA2"/>
<path d="M30.7895 21.8091C30.7993 21.8091 30.8115 21.8063 30.8213 21.8063C31.8656 21.718 33.1368 22.2454 33.9225 23.0102C34.8741 23.9379 35.445 25.1832 35.5378 26.6051C35.628 27.9857 35.223 29.3607 34.4202 30.4044C33.5736 31.5061 32.4317 32.0555 31.1629 32.1605C31.1482 32.1632 31.136 32.1632 31.1214 32.1632C30.0283 32.2488 28.818 31.6773 28.0055 30.8738C27.0685 29.9488 26.5025 28.7091 26.4244 27.3009C26.3463 25.8928 26.7879 24.5454 27.6102 23.4961C28.413 22.4718 29.5866 21.8947 30.7895 21.8091Z" fill="#0B4F66"/>
<path d="M30.5895 22.7176C30.6042 22.7148 30.6212 22.712 30.6359 22.7093C31.5972 22.6016 32.6269 22.9274 33.3784 23.6177C34.1787 24.3494 34.6716 25.4014 34.7765 26.5555C34.879 27.682 34.5862 28.8417 33.9543 29.717C33.3516 30.5508 32.4171 31.1555 31.4679 31.2604C31.4508 31.2632 31.4338 31.2659 31.4142 31.2687C30.426 31.404 29.4037 31.0754 28.6229 30.3796C27.825 29.67 27.3175 28.6456 27.1979 27.5081C27.0784 26.3705 27.3663 25.2219 27.9934 24.3245C28.6497 23.3996 29.555 22.8556 30.5895 22.7176Z" fill="#16375A"/>
<path d="M30.6162 23.1891C30.6236 23.1891 30.6284 23.1864 30.6358 23.1864C31.4849 23.0704 32.4145 23.3852 33.0928 23.965C33.7834 24.5559 34.247 25.4726 34.3665 26.4417C34.4934 27.4716 34.2713 28.507 33.7126 29.3381C33.1294 30.2051 32.2925 30.6772 31.3556 30.818C30.4625 30.8843 29.6305 30.669 28.9082 30.0477C28.1982 29.4375 27.7297 28.5042 27.6102 27.5075C27.4882 26.5025 27.7419 25.4477 28.286 24.6415C28.8619 23.7911 29.6939 23.3244 30.6162 23.1891Z" fill="#FBA830"/>
<g filter="url(#filter0_dd_632_775)">
<mask id="path-25-outside-1_632_775" maskUnits="userSpaceOnUse" x="8" y="48.9999" width="46" height="16" fill="black">
<rect fill="white" x="8" y="48.9999" width="46" height="16"/>
<path d="M12.2829 60.9999C11.9229 60.9999 11.5949 60.9839 11.2989 60.9519C11.0109 60.9119 10.7429 60.8519 10.4949 60.7719C10.2469 60.6919 10.0189 60.5919 9.81091 60.4719C9.61091 60.3439 9.41891 60.1919 9.23491 60.0159C8.93891 59.7359 8.73091 59.3759 8.61091 58.9359C8.49091 58.4879 8.43091 58.0199 8.43091 57.5319V55.2639H10.1109V57.3279C10.1109 57.6879 10.1469 57.9959 10.2189 58.2519C10.2989 58.4999 10.4309 58.7039 10.6149 58.8639C10.8229 59.0399 11.0829 59.1599 11.3949 59.2239C11.7069 59.2879 12.0429 59.3199 12.4029 59.3199H15.7629V54.2439H17.4429V60.9999H12.2829ZM12.3549 53.6439C12.1709 53.7879 11.9509 53.8599 11.6949 53.8599C11.4389 53.8599 11.2189 53.7879 11.0349 53.6439C10.8509 53.4919 10.7589 53.2759 10.7589 52.9959C10.7589 52.7399 10.8469 52.5359 11.0229 52.3839C11.2069 52.2239 11.4309 52.1439 11.6949 52.1439C11.9589 52.1439 12.1789 52.2239 12.3549 52.3839C12.5389 52.5359 12.6309 52.7399 12.6309 52.9959C12.6309 53.2759 12.5389 53.4919 12.3549 53.6439ZM14.9589 53.6439C14.7749 53.7879 14.5549 53.8599 14.2989 53.8599C14.0429 53.8599 13.8229 53.7879 13.6389 53.6439C13.4549 53.4919 13.3629 53.2759 13.3629 52.9959C13.3629 52.7399 13.4509 52.5359 13.6269 52.3839C13.8109 52.2239 14.0349 52.1439 14.2989 52.1439C14.5709 52.1439 14.7949 52.2239 14.9709 52.3839C15.1469 52.5359 15.2349 52.7399 15.2349 52.9959C15.2349 53.2759 15.1429 53.4919 14.9589 53.6439ZM18.1183 59.3199H22.3063V57.4839C22.3063 57.2439 22.2783 57.0359 22.2223 56.8599C22.1743 56.6759 22.0943 56.5159 21.9823 56.3799C21.8783 56.2439 21.7343 56.1359 21.5503 56.0559C21.3743 55.9679 21.1783 55.9239 20.9623 55.9239H20.2423V54.2439H20.7943C21.3383 54.2439 21.8143 54.3159 22.2223 54.4599C22.6303 54.5959 22.9863 54.8239 23.2903 55.1439C23.5463 55.4159 23.7263 55.7639 23.8303 56.1879C23.9343 56.6039 23.9863 57.0599 23.9863 57.5559V60.9999H18.1183V59.3199ZM25.6806 51.2679H27.3606V60.9999H25.6806V51.2679ZM28.1973 59.3199H32.3853V57.4839C32.3853 57.2439 32.3573 57.0359 32.3013 56.8599C32.2533 56.6759 32.1733 56.5159 32.0613 56.3799C31.9573 56.2439 31.8133 56.1359 31.6293 56.0559C31.4533 55.9679 31.2573 55.9239 31.0413 55.9239H30.3213V54.2439H30.8733C31.4173 54.2439 31.8933 54.3159 32.3013 54.4599C32.7093 54.5959 33.0653 54.8239 33.3693 55.1439C33.6253 55.4159 33.8053 55.7639 33.9093 56.1879C34.0133 56.6039 34.0653 57.0599 34.0653 57.5559V59.3199H35.3613V60.9999H28.1973V59.3199ZM34.6567 59.3199H35.9647C35.8287 59.0399 35.7087 58.7319 35.6047 58.3959C35.5087 58.0599 35.4607 57.6999 35.4607 57.3159C35.4607 56.7399 35.5727 56.2359 35.7967 55.8039C36.0207 55.3719 36.3087 55.0119 36.6607 54.7239C36.9407 54.4919 37.2647 54.3159 37.6327 54.1959C38.0087 54.0759 38.4127 54.0159 38.8447 54.0159C39.2927 54.0159 39.7167 54.0759 40.1167 54.1959C40.5247 54.3079 40.9327 54.4679 41.3407 54.6759L40.7767 56.1999C40.5207 56.0559 40.2367 55.9359 39.9247 55.8399C39.6207 55.7359 39.3287 55.6839 39.0487 55.6839C38.4967 55.6839 38.0607 55.8199 37.7407 56.0919C37.5247 56.2759 37.3727 56.4839 37.2847 56.7159C37.1967 56.9399 37.1527 57.1839 37.1527 57.4479C37.1527 57.8319 37.2087 58.1799 37.3207 58.4919C37.4327 58.7959 37.5887 59.0719 37.7887 59.3199H41.5927V60.9999H34.6567V59.3199ZM44.7513 63.9639C44.2793 63.9639 43.9073 63.8519 43.6353 63.6279C43.3713 63.4039 43.2393 63.0199 43.2393 62.4759V61.9239H45.7353V62.8239H44.1993C44.1993 63.0159 44.2473 63.1639 44.3433 63.2679C44.4393 63.3719 44.6073 63.4239 44.8473 63.4239H45.3513V63.9639H44.7513ZM42.2313 59.3199H45.6513C45.9233 59.3199 46.1753 59.2879 46.4073 59.2239C46.6393 59.1519 46.8393 59.0479 47.0073 58.9119C47.1673 58.7759 47.2913 58.6079 47.3793 58.4079C47.4673 58.2079 47.5113 57.9599 47.5113 57.6639V50.3799H49.9713V52.0599H49.1913V57.6039C49.1913 58.0999 49.1153 58.5759 48.9633 59.0319C48.8193 59.4879 48.5953 59.8559 48.2913 60.1359C47.9473 60.4479 47.5233 60.6719 47.0193 60.8079C46.5233 60.9359 45.9513 60.9999 45.3033 60.9999H42.4353L42.2313 59.3199ZM43.9353 52.3959H45.6153V58.7199H43.9353V52.3959ZM51.6044 51.2679H53.2844V60.9999H51.6044V51.2679Z"/>
</mask>
<path d="M12.2829 60.9999C11.9229 60.9999 11.5949 60.9839 11.2989 60.9519C11.0109 60.9119 10.7429 60.8519 10.4949 60.7719C10.2469 60.6919 10.0189 60.5919 9.81091 60.4719C9.61091 60.3439 9.41891 60.1919 9.23491 60.0159C8.93891 59.7359 8.73091 59.3759 8.61091 58.9359C8.49091 58.4879 8.43091 58.0199 8.43091 57.5319V55.2639H10.1109V57.3279C10.1109 57.6879 10.1469 57.9959 10.2189 58.2519C10.2989 58.4999 10.4309 58.7039 10.6149 58.8639C10.8229 59.0399 11.0829 59.1599 11.3949 59.2239C11.7069 59.2879 12.0429 59.3199 12.4029 59.3199H15.7629V54.2439H17.4429V60.9999H12.2829ZM12.3549 53.6439C12.1709 53.7879 11.9509 53.8599 11.6949 53.8599C11.4389 53.8599 11.2189 53.7879 11.0349 53.6439C10.8509 53.4919 10.7589 53.2759 10.7589 52.9959C10.7589 52.7399 10.8469 52.5359 11.0229 52.3839C11.2069 52.2239 11.4309 52.1439 11.6949 52.1439C11.9589 52.1439 12.1789 52.2239 12.3549 52.3839C12.5389 52.5359 12.6309 52.7399 12.6309 52.9959C12.6309 53.2759 12.5389 53.4919 12.3549 53.6439ZM14.9589 53.6439C14.7749 53.7879 14.5549 53.8599 14.2989 53.8599C14.0429 53.8599 13.8229 53.7879 13.6389 53.6439C13.4549 53.4919 13.3629 53.2759 13.3629 52.9959C13.3629 52.7399 13.4509 52.5359 13.6269 52.3839C13.8109 52.2239 14.0349 52.1439 14.2989 52.1439C14.5709 52.1439 14.7949 52.2239 14.9709 52.3839C15.1469 52.5359 15.2349 52.7399 15.2349 52.9959C15.2349 53.2759 15.1429 53.4919 14.9589 53.6439ZM18.1183 59.3199H22.3063V57.4839C22.3063 57.2439 22.2783 57.0359 22.2223 56.8599C22.1743 56.6759 22.0943 56.5159 21.9823 56.3799C21.8783 56.2439 21.7343 56.1359 21.5503 56.0559C21.3743 55.9679 21.1783 55.9239 20.9623 55.9239H20.2423V54.2439H20.7943C21.3383 54.2439 21.8143 54.3159 22.2223 54.4599C22.6303 54.5959 22.9863 54.8239 23.2903 55.1439C23.5463 55.4159 23.7263 55.7639 23.8303 56.1879C23.9343 56.6039 23.9863 57.0599 23.9863 57.5559V60.9999H18.1183V59.3199ZM25.6806 51.2679H27.3606V60.9999H25.6806V51.2679ZM28.1973 59.3199H32.3853V57.4839C32.3853 57.2439 32.3573 57.0359 32.3013 56.8599C32.2533 56.6759 32.1733 56.5159 32.0613 56.3799C31.9573 56.2439 31.8133 56.1359 31.6293 56.0559C31.4533 55.9679 31.2573 55.9239 31.0413 55.9239H30.3213V54.2439H30.8733C31.4173 54.2439 31.8933 54.3159 32.3013 54.4599C32.7093 54.5959 33.0653 54.8239 33.3693 55.1439C33.6253 55.4159 33.8053 55.7639 33.9093 56.1879C34.0133 56.6039 34.0653 57.0599 34.0653 57.5559V59.3199H35.3613V60.9999H28.1973V59.3199ZM34.6567 59.3199H35.9647C35.8287 59.0399 35.7087 58.7319 35.6047 58.3959C35.5087 58.0599 35.4607 57.6999 35.4607 57.3159C35.4607 56.7399 35.5727 56.2359 35.7967 55.8039C36.0207 55.3719 36.3087 55.0119 36.6607 54.7239C36.9407 54.4919 37.2647 54.3159 37.6327 54.1959C38.0087 54.0759 38.4127 54.0159 38.8447 54.0159C39.2927 54.0159 39.7167 54.0759 40.1167 54.1959C40.5247 54.3079 40.9327 54.4679 41.3407 54.6759L40.7767 56.1999C40.5207 56.0559 40.2367 55.9359 39.9247 55.8399C39.6207 55.7359 39.3287 55.6839 39.0487 55.6839C38.4967 55.6839 38.0607 55.8199 37.7407 56.0919C37.5247 56.2759 37.3727 56.4839 37.2847 56.7159C37.1967 56.9399 37.1527 57.1839 37.1527 57.4479C37.1527 57.8319 37.2087 58.1799 37.3207 58.4919C37.4327 58.7959 37.5887 59.0719 37.7887 59.3199H41.5927V60.9999H34.6567V59.3199ZM44.7513 63.9639C44.2793 63.9639 43.9073 63.8519 43.6353 63.6279C43.3713 63.4039 43.2393 63.0199 43.2393 62.4759V61.9239H45.7353V62.8239H44.1993C44.1993 63.0159 44.2473 63.1639 44.3433 63.2679C44.4393 63.3719 44.6073 63.4239 44.8473 63.4239H45.3513V63.9639H44.7513ZM42.2313 59.3199H45.6513C45.9233 59.3199 46.1753 59.2879 46.4073 59.2239C46.6393 59.1519 46.8393 59.0479 47.0073 58.9119C47.1673 58.7759 47.2913 58.6079 47.3793 58.4079C47.4673 58.2079 47.5113 57.9599 47.5113 57.6639V50.3799H49.9713V52.0599H49.1913V57.6039C49.1913 58.0999 49.1153 58.5759 48.9633 59.0319C48.8193 59.4879 48.5953 59.8559 48.2913 60.1359C47.9473 60.4479 47.5233 60.6719 47.0193 60.8079C46.5233 60.9359 45.9513 60.9999 45.3033 60.9999H42.4353L42.2313 59.3199ZM43.9353 52.3959H45.6153V58.7199H43.9353V52.3959ZM51.6044 51.2679H53.2844V60.9999H51.6044V51.2679Z" fill="white"/>
<path d="M11.2989 60.9519L11.2439 61.3483L11.2559 61.3496L11.2989 60.9519ZM10.4949 60.7719L10.6177 60.3913L10.4949 60.7719ZM9.81091 60.4719L9.59529 60.8088L9.60304 60.8138L9.61102 60.8184L9.81091 60.4719ZM9.23491 60.0159L9.5114 59.7269L9.50979 59.7254L9.23491 60.0159ZM8.61091 58.9359L8.22452 59.0394L8.225 59.0412L8.61091 58.9359ZM8.43091 55.2639V54.8639H8.03091V55.2639H8.43091ZM10.1109 55.2639H10.5109V54.8639H10.1109V55.2639ZM10.2189 58.2519L9.83385 58.3602L9.8359 58.3675L9.83822 58.3747L10.2189 58.2519ZM10.6149 58.8639L10.3524 59.1658L10.3565 59.1693L10.6149 58.8639ZM15.7629 59.3199V59.7199H16.1629V59.3199H15.7629ZM15.7629 54.2439V53.8439H15.3629V54.2439H15.7629ZM17.4429 54.2439H17.8429V53.8439H17.4429V54.2439ZM17.4429 60.9999V61.3999H17.8429V60.9999H17.4429ZM12.3549 53.6439L12.6015 53.9591L12.6097 53.9523L12.3549 53.6439ZM11.0349 53.6439L10.7801 53.9524L10.7884 53.9589L11.0349 53.6439ZM11.0229 52.3839L11.2844 52.6867L11.2854 52.6858L11.0229 52.3839ZM12.3549 52.3839L12.0858 52.6799L12.0928 52.6863L12.1002 52.6923L12.3549 52.3839ZM14.9589 53.6439L15.2055 53.9591L15.2137 53.9523L14.9589 53.6439ZM13.6389 53.6439L13.3841 53.9524L13.3924 53.9589L13.6389 53.6439ZM13.6269 52.3839L13.8884 52.6867L13.8894 52.6858L13.6269 52.3839ZM14.9709 52.3839L14.7018 52.68L14.7095 52.6867L14.9709 52.3839ZM12.2829 60.5999C11.9344 60.5999 11.621 60.5844 11.3419 60.5543L11.2559 61.3496C11.5688 61.3834 11.9114 61.3999 12.2829 61.3999V60.5999ZM11.3539 60.5557C11.0863 60.5186 10.8412 60.4634 10.6177 60.3913L10.3721 61.1526C10.6446 61.2405 10.9355 61.3053 11.2439 61.3481L11.3539 60.5557ZM10.6177 60.3913C10.3943 60.3192 10.1924 60.2302 10.0108 60.1255L9.61102 60.8184C9.84541 60.9536 10.0995 61.0647 10.3721 61.1526L10.6177 60.3913ZM10.0265 60.135C9.84982 60.0219 9.67804 59.8863 9.5114 59.7269L8.95842 60.305C9.15978 60.4976 9.37199 60.6659 9.59529 60.8088L10.0265 60.135ZM9.50979 59.7254C9.27327 59.5016 9.09987 59.2086 8.99681 58.8307L8.225 59.0412C8.36194 59.5433 8.60454 59.9703 8.96003 60.3065L9.50979 59.7254ZM8.99729 58.8324C8.88679 58.4199 8.83091 57.9868 8.83091 57.5319H8.03091C8.03091 58.0531 8.09503 58.556 8.22453 59.0394L8.99729 58.8324ZM8.83091 57.5319V55.2639H8.03091V57.5319H8.83091ZM8.43091 55.6639H10.1109V54.8639H8.43091V55.6639ZM9.71091 55.2639V57.3279H10.5109V55.2639H9.71091ZM9.71091 57.3279C9.71091 57.7126 9.74914 58.0591 9.83385 58.3602L10.604 58.1436C10.5447 57.9328 10.5109 57.6633 10.5109 57.3279H9.71091ZM9.83822 58.3747C9.93899 58.6871 10.1097 58.9547 10.3524 59.1658L10.8774 58.5621C10.7521 58.4532 10.6588 58.3128 10.5996 58.1291L9.83822 58.3747ZM10.3565 59.1693C10.6237 59.3954 10.948 59.5406 11.3145 59.6158L11.4753 58.8321C11.2178 58.7793 11.0221 58.6845 10.8733 58.5586L10.3565 59.1693ZM11.3145 59.6158C11.6561 59.6859 12.0193 59.7199 12.4029 59.7199V58.9199C12.0665 58.9199 11.7577 58.89 11.4753 58.8321L11.3145 59.6158ZM12.4029 59.7199H15.7629V58.9199H12.4029V59.7199ZM16.1629 59.3199V54.2439H15.3629V59.3199H16.1629ZM15.7629 54.6439H17.4429V53.8439H15.7629V54.6439ZM17.0429 54.2439V60.9999H17.8429V54.2439H17.0429ZM17.4429 60.5999H12.2829V61.3999H17.4429V60.5999ZM12.1084 53.3289C12.0016 53.4125 11.8706 53.4599 11.6949 53.4599V54.2599C12.0312 54.2599 12.3402 54.1634 12.6014 53.9589L12.1084 53.3289ZM11.6949 53.4599C11.5192 53.4599 11.3882 53.4125 11.2814 53.3289L10.7884 53.9589C11.0496 54.1634 11.3586 54.2599 11.6949 54.2599V53.4599ZM11.2897 53.3356C11.214 53.2731 11.1589 53.1796 11.1589 52.9959H10.3589C10.3589 53.3723 10.4878 53.7108 10.7802 53.9523L11.2897 53.3356ZM11.1589 52.9959C11.1589 52.843 11.2058 52.7545 11.2844 52.6867L10.7615 52.0812C10.488 52.3174 10.3589 52.6369 10.3589 52.9959H11.1589ZM11.2854 52.6858C11.3903 52.5945 11.5187 52.5439 11.6949 52.5439V51.7439C11.3431 51.7439 11.0235 51.8534 10.7604 52.0821L11.2854 52.6858ZM11.6949 52.5439C11.8712 52.5439 11.9918 52.5944 12.0858 52.6799L12.624 52.088C12.366 51.8535 12.0466 51.7439 11.6949 51.7439V52.5439ZM12.1002 52.6923C12.1848 52.7622 12.2309 52.8493 12.2309 52.9959H13.0309C13.0309 52.6305 12.893 52.3096 12.6097 52.0756L12.1002 52.6923ZM12.2309 52.9959C12.2309 53.1796 12.1758 53.2731 12.1002 53.3356L12.6097 53.9523C12.902 53.7108 13.0309 53.3723 13.0309 52.9959H12.2309ZM14.7124 53.3289C14.6056 53.4125 14.4746 53.4599 14.2989 53.4599V54.2599C14.6352 54.2599 14.9442 54.1634 15.2054 53.9589L14.7124 53.3289ZM14.2989 53.4599C14.1232 53.4599 13.9922 53.4125 13.8854 53.3289L13.3924 53.9589C13.6536 54.1634 13.9626 54.2599 14.2989 54.2599V53.4599ZM13.8937 53.3356C13.818 53.2731 13.7629 53.1796 13.7629 52.9959H12.9629C12.9629 53.3723 13.0918 53.7108 13.3842 53.9523L13.8937 53.3356ZM13.7629 52.9959C13.7629 52.843 13.8098 52.7545 13.8884 52.6867L13.3655 52.0812C13.092 52.3174 12.9629 52.6369 12.9629 52.9959H13.7629ZM13.8894 52.6858C13.9943 52.5945 14.1227 52.5439 14.2989 52.5439V51.7439C13.9471 51.7439 13.6275 51.8534 13.3644 52.0821L13.8894 52.6858ZM14.2989 52.5439C14.4867 52.5439 14.6101 52.5965 14.7018 52.6799L15.24 52.088C14.9798 51.8514 14.6551 51.7439 14.2989 51.7439V52.5439ZM14.7095 52.6867C14.788 52.7545 14.8349 52.843 14.8349 52.9959H15.6349C15.6349 52.6369 15.5058 52.3174 15.2324 52.0812L14.7095 52.6867ZM14.8349 52.9959C14.8349 53.1796 14.7798 53.2731 14.7042 53.3356L15.2137 53.9523C15.506 53.7108 15.6349 53.3723 15.6349 52.9959H14.8349ZM18.1183 59.3199V58.9199H17.7183V59.3199H18.1183ZM22.3063 59.3199V59.7199H22.7063V59.3199H22.3063ZM22.2223 56.8599L21.8352 56.9609L21.8379 56.9711L21.8411 56.9812L22.2223 56.8599ZM21.9823 56.3799L21.6645 56.6229L21.6689 56.6287L21.6735 56.6342L21.9823 56.3799ZM21.5503 56.0559L21.3714 56.4137L21.381 56.4185L21.3908 56.4228L21.5503 56.0559ZM20.2423 55.9239H19.8423V56.3239H20.2423V55.9239ZM20.2423 54.2439V53.8439H19.8423V54.2439H20.2423ZM22.2223 54.4599L22.0891 54.8372L22.0958 54.8394L22.2223 54.4599ZM23.2903 55.1439L23.5816 54.8698L23.5803 54.8684L23.2903 55.1439ZM23.8303 56.1879L23.4418 56.2832L23.4422 56.285L23.8303 56.1879ZM23.9863 60.9999V61.3999H24.3863V60.9999H23.9863ZM18.1183 60.9999H17.7183V61.3999H18.1183V60.9999ZM18.1183 59.7199H22.3063V58.9199H18.1183V59.7199ZM22.7063 59.3199V57.4839H21.9063V59.3199H22.7063ZM22.7063 57.4839C22.7063 57.2144 22.675 56.9636 22.6035 56.7387L21.8411 56.9812C21.8815 57.1083 21.9063 57.2735 21.9063 57.4839H22.7063ZM22.6093 56.759C22.5479 56.5233 22.4428 56.3099 22.2911 56.1257L21.6735 56.6342C21.7457 56.7219 21.8007 56.8286 21.8352 56.9609L22.6093 56.759ZM22.3 56.137C22.1481 55.9382 21.9454 55.7916 21.7098 55.6891L21.3908 56.4228C21.5231 56.4803 21.6085 56.5496 21.6645 56.6229L22.3 56.137ZM21.7292 55.6982C21.4924 55.5798 21.2342 55.5239 20.9623 55.5239V56.3239C21.1224 56.3239 21.2562 56.3561 21.3714 56.4137L21.7292 55.6982ZM20.9623 55.5239H20.2423V56.3239H20.9623V55.5239ZM20.6423 55.9239V54.2439H19.8423V55.9239H20.6423ZM20.2423 54.6439H20.7943V53.8439H20.2423V54.6439ZM20.7943 54.6439C21.3041 54.6439 21.7333 54.7115 22.0892 54.8371L22.3554 54.0827C21.8953 53.9203 21.3725 53.8439 20.7943 53.8439V54.6439ZM22.0958 54.8394C22.4399 54.9541 22.7402 55.1457 23.0003 55.4194L23.5803 54.8684C23.2324 54.5022 22.8207 54.2378 22.3488 54.0805L22.0958 54.8394ZM22.999 55.4181C23.2003 55.6319 23.3514 55.9148 23.4418 56.2832L24.2188 56.0926C24.1011 55.613 23.8923 55.1999 23.5816 54.8698L22.999 55.4181ZM23.4422 56.285C23.5372 56.6647 23.5863 57.0877 23.5863 57.5559H24.3863C24.3863 57.0322 24.3314 56.5431 24.2183 56.0909L23.4422 56.285ZM23.5863 57.5559V60.9999H24.3863V57.5559H23.5863ZM23.9863 60.5999H18.1183V61.3999H23.9863V60.5999ZM18.5183 60.9999V59.3199H17.7183V60.9999H18.5183ZM25.6806 51.2679V50.8679H25.2806V51.2679H25.6806ZM27.3606 51.2679H27.7606V50.8679H27.3606V51.2679ZM27.3606 60.9999V61.3999H27.7606V60.9999H27.3606ZM25.6806 60.9999H25.2806V61.3999H25.6806V60.9999ZM25.6806 51.6679H27.3606V50.8679H25.6806V51.6679ZM26.9606 51.2679V60.9999H27.7606V51.2679H26.9606ZM27.3606 60.5999H25.6806V61.3999H27.3606V60.5999ZM26.0806 60.9999V51.2679H25.2806V60.9999H26.0806ZM28.1973 59.3199V58.9199H27.7973V59.3199H28.1973ZM32.3853 59.3199V59.7199H32.7853V59.3199H32.3853ZM32.3013 56.8599L31.9143 56.9609L31.917 56.9711L31.9202 56.9812L32.3013 56.8599ZM32.0613 56.3799L31.7436 56.6229L31.748 56.6287L31.7526 56.6342L32.0613 56.3799ZM31.6293 56.0559L31.4505 56.4137L31.46 56.4185L31.4699 56.4228L31.6293 56.0559ZM30.3213 55.9239H29.9213V56.3239H30.3213V55.9239ZM30.3213 54.2439V53.8439H29.9213V54.2439H30.3213ZM32.3013 54.4599L32.1682 54.8372L32.1749 54.8394L32.3013 54.4599ZM33.3693 55.1439L33.6606 54.8698L33.6593 54.8684L33.3693 55.1439ZM33.9093 56.1879L33.5209 56.2832L33.5213 56.285L33.9093 56.1879ZM34.0653 59.3199H33.6653V59.7199H34.0653V59.3199ZM35.3613 59.3199H35.7613V58.9199H35.3613V59.3199ZM35.3613 60.9999V61.3999H35.7613V60.9999H35.3613ZM28.1973 60.9999H27.7973V61.3999H28.1973V60.9999ZM28.1973 59.7199H32.3853V58.9199H28.1973V59.7199ZM32.7853 59.3199V57.4839H31.9853V59.3199H32.7853ZM32.7853 57.4839C32.7853 57.2144 32.7541 56.9636 32.6825 56.7387L31.9202 56.9812C31.9606 57.1083 31.9853 57.2735 31.9853 57.4839H32.7853ZM32.6884 56.759C32.6269 56.5233 32.5219 56.3099 32.3701 56.1257L31.7526 56.6342C31.8248 56.7219 31.8798 56.8286 31.9143 56.9609L32.6884 56.759ZM32.3791 56.137C32.2271 55.9382 32.0245 55.7916 31.7888 55.6891L31.4699 56.4228C31.6022 56.4803 31.6876 56.5496 31.7436 56.6229L32.3791 56.137ZM31.8082 55.6982C31.5714 55.5798 31.3133 55.5239 31.0413 55.5239V56.3239C31.2014 56.3239 31.3353 56.3561 31.4505 56.4137L31.8082 55.6982ZM31.0413 55.5239H30.3213V56.3239H31.0413V55.5239ZM30.7213 55.9239V54.2439H29.9213V55.9239H30.7213ZM30.3213 54.6439H30.8733V53.8439H30.3213V54.6439ZM30.8733 54.6439C31.3832 54.6439 31.8124 54.7115 32.1682 54.8371L32.4345 54.0827C31.9743 53.9203 31.4515 53.8439 30.8733 53.8439V54.6439ZM32.1749 54.8394C32.519 54.9541 32.8193 55.1457 33.0793 55.4194L33.6593 54.8684C33.3114 54.5022 32.8997 54.2378 32.4278 54.0805L32.1749 54.8394ZM33.0781 55.4181C33.2793 55.6319 33.4305 55.9148 33.5209 56.2832L34.2978 56.0926C34.1802 55.613 33.9713 55.1999 33.6606 54.8698L33.0781 55.4181ZM33.5213 56.285C33.6162 56.6647 33.6653 57.0877 33.6653 57.5559H34.4653C34.4653 57.0322 34.4105 56.5431 34.2974 56.0909L33.5213 56.285ZM33.6653 57.5559V59.3199H34.4653V57.5559H33.6653ZM34.0653 59.7199H35.3613V58.9199H34.0653V59.7199ZM34.9613 59.3199V60.9999H35.7613V59.3199H34.9613ZM35.3613 60.5999H28.1973V61.3999H35.3613V60.5999ZM28.5973 60.9999V59.3199H27.7973V60.9999H28.5973ZM34.6567 59.3199V58.9199H34.2567V59.3199H34.6567ZM35.9647 59.3199V59.7199H36.6037L36.3245 59.1452L35.9647 59.3199ZM35.6047 58.3959L35.22 58.5059L35.2226 58.5142L35.6047 58.3959ZM35.7967 55.8039L35.4416 55.6198V55.6198L35.7967 55.8039ZM36.6607 54.7239L36.914 55.0335L36.9159 55.0319L36.6607 54.7239ZM37.6327 54.1959L37.5111 53.8149L37.5087 53.8156L37.6327 54.1959ZM40.1167 54.1959L40.0017 54.5792L40.0108 54.5817L40.1167 54.1959ZM41.3407 54.6759L41.7159 54.8148L41.8393 54.4811L41.5224 54.3196L41.3407 54.6759ZM40.7767 56.1999L40.5806 56.5486L40.9892 56.7784L41.1519 56.3388L40.7767 56.1999ZM39.9247 55.8399L39.7952 56.2186L39.8071 56.2223L39.9247 55.8399ZM37.7407 56.0919L37.4817 55.7872L37.4813 55.7874L37.7407 56.0919ZM37.2847 56.7159L37.657 56.8622L37.6587 56.8578L37.2847 56.7159ZM37.3207 58.4919L36.9442 58.6271L36.9454 58.6302L37.3207 58.4919ZM37.7887 59.3199L37.4774 59.571L37.5974 59.7199H37.7887V59.3199ZM41.5927 59.3199H41.9927V58.9199H41.5927V59.3199ZM41.5927 60.9999V61.3999H41.9927V60.9999H41.5927ZM34.6567 60.9999H34.2567V61.3999H34.6567V60.9999ZM34.6567 59.7199H35.9647V58.9199H34.6567V59.7199ZM36.3245 59.1452C36.1984 58.8856 36.0856 58.5967 35.9868 58.2777L35.2226 58.5142C35.3318 58.8671 35.459 59.1943 35.6049 59.4947L36.3245 59.1452ZM35.9893 58.2861C35.9045 57.9891 35.8607 57.6664 35.8607 57.3159H35.0607C35.0607 57.7335 35.1129 58.1308 35.2201 58.5058L35.9893 58.2861ZM35.8607 57.3159C35.8607 56.7923 35.9623 56.3536 36.1518 55.9881L35.4416 55.6198C35.1832 56.1183 35.0607 56.6876 35.0607 57.3159H35.8607ZM36.1518 55.9881C36.3526 55.6009 36.607 55.2847 36.914 55.0335L36.4074 54.4144C36.0104 54.7392 35.6889 55.1429 35.4416 55.6198L36.1518 55.9881ZM36.9159 55.0319C37.1547 54.8341 37.4335 54.6816 37.7567 54.5762L37.5087 53.8156C37.0959 53.9502 36.7268 54.1498 36.4055 54.4159L36.9159 55.0319ZM37.7543 54.577C38.0875 54.4707 38.4501 54.4159 38.8447 54.4159V53.6159C38.3753 53.6159 37.93 53.6812 37.5111 53.8149L37.7543 54.577ZM38.8447 54.4159C39.2566 54.4159 39.6417 54.471 40.0018 54.5791L40.2317 53.8128C39.7918 53.6808 39.3288 53.6159 38.8447 53.6159V54.4159ZM40.0108 54.5817C40.3906 54.6859 40.7733 54.8356 41.159 55.0323L41.5224 54.3196C41.0922 54.1002 40.6588 53.93 40.2226 53.8102L40.0108 54.5817ZM40.9656 54.5371L40.4016 56.0611L41.1519 56.3388L41.7159 54.8148L40.9656 54.5371ZM40.9728 55.8513C40.6894 55.6919 40.3787 55.5611 40.0424 55.4576L39.8071 56.2223C40.0948 56.3108 40.3521 56.42 40.5806 56.5486L40.9728 55.8513ZM40.0542 55.4615C39.7146 55.3453 39.3787 55.2839 39.0487 55.2839V56.0839C39.2787 56.0839 39.5269 56.1266 39.7952 56.2184L40.0542 55.4615ZM39.0487 55.2839C38.4321 55.2839 37.8941 55.4366 37.4817 55.7872L37.9998 56.3967C38.2273 56.2033 38.5614 56.0839 39.0487 56.0839V55.2839ZM37.4813 55.7874C37.2215 56.0088 37.0259 56.2705 36.9107 56.5741L37.6587 56.8578C37.7196 56.6974 37.8279 56.5431 38.0001 56.3964L37.4813 55.7874ZM36.9124 56.5697C36.8044 56.8446 36.7527 57.1387 36.7527 57.4479H37.5527C37.5527 57.2291 37.589 57.0353 37.657 56.8622L36.9124 56.5697ZM36.7527 57.4479C36.7527 57.8708 36.8144 58.2655 36.9442 58.6271L37.6972 58.3568C37.603 58.0944 37.5527 57.793 37.5527 57.4479H36.7527ZM36.9454 58.6302C37.0722 58.9744 37.2496 59.2886 37.4774 59.571L38.1001 59.0688C37.9279 58.8553 37.7933 58.6175 37.6961 58.3537L36.9454 58.6302ZM37.7887 59.7199H41.5927V58.9199H37.7887V59.7199ZM41.1927 59.3199V60.9999H41.9927V59.3199H41.1927ZM41.5927 60.5999H34.6567V61.3999H41.5927V60.5999ZM35.0567 60.9999V59.3199H34.2567V60.9999H35.0567ZM43.6353 63.6279L43.3764 63.933L43.381 63.9367L43.6353 63.6279ZM43.2393 61.9239V61.5239H42.8393V61.9239H43.2393ZM45.7353 61.9239H46.1353V61.5239H45.7353V61.9239ZM45.7353 62.8239V63.2239H46.1353V62.8239H45.7353ZM44.1992 62.8239V62.4239H43.7993V62.8239H44.1992ZM44.3433 63.2679L44.0493 63.5393L44.3433 63.2679ZM45.3512 63.4239H45.7513V63.0239H45.3512V63.4239ZM45.3512 63.9639V64.3639H45.7513V63.9639H45.3512ZM42.2313 59.3199V58.9199H41.7797L41.8342 59.3682L42.2313 59.3199ZM46.4072 59.2239L46.5137 59.6097L46.5258 59.606L46.4072 59.2239ZM47.0073 58.9119L47.259 59.2229L47.2663 59.2167L47.0073 58.9119ZM47.3792 58.4079L47.7454 58.569L47.3792 58.4079ZM47.5112 50.3799V49.9799H47.1113V50.3799H47.5112ZM49.9713 50.3799H50.3713V49.9799H49.9713V50.3799ZM49.9713 52.0599V52.4599H50.3713V52.0599H49.9713ZM49.1912 52.0599V51.6599H48.7913V52.0599H49.1912ZM48.9633 59.0319L48.5837 58.9054L48.5818 58.9115L48.9633 59.0319ZM48.2913 60.1359L48.56 60.4322L48.5622 60.4302L48.2913 60.1359ZM47.0193 60.8079L47.1192 61.1953L47.1235 61.1941L47.0193 60.8079ZM42.4352 60.9999L42.0382 61.0482L42.0809 61.3999H42.4352V60.9999ZM43.9352 52.3959V51.9959H43.5353V52.3959H43.9352ZM45.6152 52.3959H46.0153V51.9959H45.6152V52.3959ZM45.6152 58.7199V59.1199H46.0153V58.7199H45.6152ZM43.9352 58.7199H43.5353V59.1199H43.9352V58.7199ZM44.7513 63.5639C44.3404 63.5639 44.0688 63.4668 43.8895 63.3192L43.381 63.9367C43.7457 64.2371 44.2181 64.3639 44.7513 64.3639V63.5639ZM43.894 63.3229C43.7604 63.2095 43.6393 62.9693 43.6393 62.4759H42.8393C42.8393 63.0706 42.9821 63.5983 43.3765 63.9329L43.894 63.3229ZM43.6393 62.4759V61.9239H42.8393V62.4759H43.6393ZM43.2393 62.3239H45.7353V61.5239H43.2393V62.3239ZM45.3353 61.9239V62.8239H46.1353V61.9239H45.3353ZM45.7353 62.4239H44.1992V63.2239H45.7353V62.4239ZM43.7993 62.8239C43.7993 63.0801 43.8639 63.3384 44.0493 63.5393L44.6372 62.9966C44.6306 62.9895 44.5993 62.9518 44.5993 62.8239H43.7993ZM44.0493 63.5393C44.2597 63.7671 44.5694 63.8239 44.8473 63.8239V63.0239C44.7538 63.0239 44.6941 63.0135 44.6595 63.0028C44.6266 62.9926 44.6271 62.9857 44.6372 62.9966L44.0493 63.5393ZM44.8473 63.8239H45.3512V63.0239H44.8473V63.8239ZM44.9513 63.4239V63.9639H45.7513V63.4239H44.9513ZM45.3512 63.5639H44.7513V64.3639H45.3512V63.5639ZM42.2313 59.7199H45.6513V58.9199H42.2313V59.7199ZM45.6513 59.7199C45.9546 59.7199 46.2428 59.6842 46.5136 59.6095L46.3009 58.8383C46.1077 58.8916 45.8919 58.9199 45.6513 58.9199V59.7199ZM46.5258 59.606C46.8003 59.5208 47.0469 59.3945 47.2589 59.2228L46.7556 58.601C46.6316 58.7014 46.4782 58.7831 46.2887 58.8419L46.5258 59.606ZM47.2663 59.2167C47.4743 59.0399 47.634 58.8221 47.7454 58.569L47.0131 58.2468C46.9485 58.3938 46.8602 58.5119 46.7482 58.6072L47.2663 59.2167ZM47.7454 58.569C47.8621 58.3037 47.9113 57.9969 47.9113 57.6639H47.1113C47.1113 57.923 47.0724 58.1122 47.0131 58.2468L47.7454 58.569ZM47.9113 57.6639V50.3799H47.1113V57.6639H47.9113ZM47.5112 50.7799H49.9713V49.9799H47.5112V50.7799ZM49.5713 50.3799V52.0599H50.3713V50.3799H49.5713ZM49.9713 51.6599H49.1912V52.4599H49.9713V51.6599ZM48.7913 52.0599V57.6039H49.5913V52.0599H48.7913ZM48.7913 57.6039C48.7913 58.0583 48.7218 58.4915 48.5838 58.9054L49.3427 59.1584C49.5088 58.6603 49.5913 58.1415 49.5913 57.6039H48.7913ZM48.5818 58.9115C48.4555 59.3115 48.2653 59.616 48.0203 59.8417L48.5622 60.4302C48.9252 60.0959 49.183 59.6644 49.3447 59.1524L48.5818 58.9115ZM48.0225 59.8397C47.731 60.104 47.3655 60.3002 46.915 60.4218L47.1235 61.1941C47.681 61.0437 48.1635 60.7918 48.56 60.4322L48.0225 59.8397ZM46.9193 60.4206C46.4632 60.5383 45.926 60.5999 45.3032 60.5999V61.3999C45.9765 61.3999 46.5833 61.3336 47.1192 61.1952L46.9193 60.4206ZM45.3032 60.5999H42.4352V61.3999H45.3032V60.5999ZM42.8323 60.9517L42.6283 59.2717L41.8342 59.3682L42.0382 61.0482L42.8323 60.9517ZM43.9352 52.7959H45.6152V51.9959H43.9352V52.7959ZM45.2153 52.3959V58.7199H46.0153V52.3959H45.2153ZM45.6152 58.3199H43.9352V59.1199H45.6152V58.3199ZM44.3353 58.7199V52.3959H43.5353V58.7199H44.3353ZM51.6044 51.2679V50.8679H51.2044V51.2679H51.6044ZM53.2844 51.2679H53.6844V50.8679H53.2844V51.2679ZM53.2844 60.9999V61.3999H53.6844V60.9999H53.2844ZM51.6044 60.9999H51.2044V61.3999H51.6044V60.9999ZM51.6044 51.6679H53.2844V50.8679H51.6044V51.6679ZM52.8844 51.2679V60.9999H53.6844V51.2679H52.8844ZM53.2844 60.5999H51.6044V61.3999H53.2844V60.5999ZM52.0044 60.9999V51.2679H51.2044V60.9999H52.0044Z" fill="#3B3B3B" mask="url(#path-25-outside-1_632_775)"/>
</g>
<defs>
<filter id="filter0_dd_632_775" x="7.03076" y="49.6799" width="47.6538" height="16.384" filterUnits="userSpaceOnUse" color-interpolation-filters="sRGB">
<feFlood flood-opacity="0" result="BackgroundImageFix"/>
<feColorMatrix in="SourceAlpha" type="matrix" values="0 0 0 0 0 0 0 0 0 0 0 0 0 0 0 0 0 0 127 0" result="hardAlpha"/>
<feOffset dy="0.5"/>
<feComposite in2="hardAlpha" operator="out"/>
<feColorMatrix type="matrix" values="0 0 0 0 0 0 0 0 0 0 0 0 0 0 0 0 0 0 1 0"/>
<feBlend mode="normal" in2="BackgroundImageFix" result="effect1_dropShadow_632_775"/>
<feColorMatrix in="SourceAlpha" type="matrix" values="0 0 0 0 0 0 0 0 0 0 0 0 0 0 0 0 0 0 127 0" result="hardAlpha"/>
<feOffset dy="0.7"/>
<feGaussianBlur stdDeviation="0.5"/>
<feComposite in2="hardAlpha" operator="out"/>
<feColorMatrix type="matrix" values="0 0 0 0 0 0 0 0 0 0 0 0 0 0 0 0 0 0 0.8 0"/>
<feBlend mode="normal" in2="effect1_dropShadow_632_775" result="effect2_dropShadow_632_775"/>
<feBlend mode="normal" in="SourceGraphic" in2="effect2_dropShadow_632_775" result="shape"/>
</filter>
<linearGradient id="paint0_linear_632_775" x1="31.1329" y1="36.5792" x2="30.1035" y2="30.8017" gradientUnits="userSpaceOnUse">
<stop stop-color="#1B9A87"/>
<stop offset="1" stop-color="#02848D"/>
</linearGradient>
</defs>
</svg>
