<svg width="18" height="19" viewBox="0 0 18 19" fill="none" xmlns="http://www.w3.org/2000/svg">
<g clip-path="url(#clip0_594_7243)">
<g opacity="0.99">
<path d="M2.04669 14.5283V16.2075C2.04669 16.5149 2.26972 16.7642 2.54481 16.7642H14.5495C14.8246 16.7642 15.0476 16.5149 15.0476 16.2075V14.5283H2.04669Z" fill="url(#paint0_linear_594_7243)"/>
<path d="M16.8193 4.55981C16.6395 4.43085 16.406 4.44447 16.2391 4.59365L12.6126 7.8357C12.4367 7.99297 12.3771 8.26256 12.4673 8.49324C12.5227 8.63492 12.5508 8.78558 12.5508 8.941C12.5508 9.55872 12.1011 10.0612 11.5484 10.0612C10.9956 10.0612 10.5459 9.55872 10.5459 8.941C10.5459 8.57758 10.7051 8.23514 10.9719 8.02492C11.1731 7.86635 11.2405 7.56721 11.1304 7.32107L8.99269 2.54355C8.90831 2.35496 8.73583 2.23584 8.54714 2.23584C8.35846 2.23584 8.18597 2.35496 8.10159 2.54355L5.96393 7.3211C5.85381 7.56721 5.92115 7.86635 6.1224 8.02495C6.38915 8.23518 6.54842 8.57762 6.54842 8.94103C6.54842 9.55875 6.09872 10.0613 5.54594 10.0613C4.99316 10.0613 4.54345 9.55875 4.54345 8.94103C4.54345 8.78562 4.57155 8.63496 4.62697 8.49327C4.71717 8.2626 4.65759 7.993 4.48169 7.83573L0.855241 4.59365C0.688371 4.44443 0.454918 4.43089 0.275031 4.55981C0.095176 4.6888 0.00896801 4.9316 0.0608057 5.16331L1.90684 13.415L15.1875 13.415L17.0335 5.16331C17.0854 4.9316 16.9992 4.6888 16.8193 4.55981Z" fill="url(#paint1_linear_594_7243)"/>
</g>
</g>
<defs>
<linearGradient id="paint0_linear_594_7243" x1="10.805" y1="16.1849" x2="5.93768" y2="11.368" gradientUnits="userSpaceOnUse">
<stop stop-color="#B9B1B1"/>
<stop offset="1" stop-color="#979797"/>
</linearGradient>
<linearGradient id="paint1_linear_594_7243" x1="11.5" y1="10.5186" x2="-0.308413" y2="7.46206" gradientUnits="userSpaceOnUse">
<stop stop-color="#B9B1B1"/>
<stop offset="1" stop-color="#979797"/>
</linearGradient>
<clipPath id="clip0_594_7243">
<rect width="17.0026" height="19" fill="white" transform="translate(0.0458984)"/>
</clipPath>
</defs>
</svg>
