<svg width="410" height="220" viewBox="0 0 410 220" fill="none" xmlns="http://www.w3.org/2000/svg">
<path d="M0.903901 167.271L173.439 179.004L179.684 178.987L409.208 193.616L404.39 145.6L253.776 157.441L394.162 116.658L349.519 62.6512L241.24 140.703L318.308 30.5402L225.61 1.34774L209.238 140.79L179.686 1.34836L99.8068 20.7501L179.592 146.206L63.8 49.6986L30.3494 90.1937L173.38 157.658L10.1639 129.128L0.903901 167.271Z" fill="url(#paint0_radial_59_3076)"/>
<g filter="url(#filter0_d_59_3076)">
<path d="M48.8597 135.541H106.076C109.599 135.541 112.455 138.396 112.455 141.919V208.381C112.455 211.904 109.599 214.76 106.076 214.76H48.8597C43.1132 214.76 40.2968 207.757 44.443 203.779L69.4793 179.753C72.0955 177.242 72.0955 173.058 69.4793 170.548L44.443 146.522C40.2968 142.543 43.1132 135.541 48.8597 135.541Z" fill="#8E4A85"/>
<path d="M48.8597 132.311H106.076C109.599 132.311 112.455 135.167 112.455 138.69V205.152C112.455 208.675 109.599 211.531 106.076 211.531H48.8597C43.1132 211.531 40.2968 204.528 44.443 200.549L69.4793 176.523C72.0955 174.013 72.0955 169.829 69.4793 167.318L44.443 143.292C40.2968 139.314 43.1132 132.311 48.8597 132.311Z" fill="url(#paint1_linear_59_3076)"/>
<path d="M361.449 135.537H304.233C300.71 135.537 297.854 138.393 297.854 141.916V208.377C297.854 211.9 300.71 214.756 304.233 214.756H361.449C367.196 214.756 370.012 207.754 365.866 203.775L340.83 179.749C338.213 177.238 338.213 173.055 340.83 170.544L365.866 146.518C370.012 142.539 367.196 135.537 361.449 135.537Z" fill="#8E4A85"/>
<path d="M361.45 132.309H304.233C300.71 132.309 297.854 135.165 297.854 138.688V205.15C297.854 208.673 300.71 211.528 304.233 211.528H361.45C367.196 211.528 370.012 204.526 365.866 200.547L340.83 176.521C338.214 174.011 338.214 169.827 340.83 167.316L365.866 143.29C370.012 139.312 367.196 132.309 361.45 132.309Z" fill="url(#paint2_linear_59_3076)"/>
<path d="M112.459 205.872V190.513V185.663H92.5952V186.471L112.459 205.872Z" fill="#B20D78"/>
<path d="M297.851 205.87V190.511V185.661L317.715 183.236C317.715 183.236 318.543 180.811 318.543 183.236L297.851 205.87Z" fill="#B20D78"/>
<rect x="85.9751" y="108.053" width="236.709" height="82.4527" rx="19.1364" fill="#A35699"/>
<rect x="85.9751" y="104.826" width="236.709" height="82.4527" rx="19.1364" fill="url(#paint3_linear_59_3076)"/>
</g>
<mask id="path-10-outside-1_59_3076" maskUnits="userSpaceOnUse" x="165.023" y="30.9268" width="80" height="80" fill="black">
<rect fill="white" x="165.023" y="30.9268" width="80" height="80"/>
<path fill-rule="evenodd" clip-rule="evenodd" d="M210.689 38.4287C208.33 33.7594 201.662 33.7594 199.303 38.4287L193.047 50.8095C192.106 52.671 190.315 53.9551 188.25 54.2482L174.513 56.1977C170.324 56.7922 168.147 61.0139 169.355 64.5688C168.627 66.7635 169.061 69.342 171.011 71.1981L180.757 80.4767C181.559 81.2399 182.135 82.1848 182.452 83.211L180.314 95.3856C180.126 96.4583 180.208 97.4799 180.498 98.4045L180.314 99.4505C179.403 104.641 184.823 108.636 189.511 106.228L202.082 99.7731C203.911 98.8339 206.081 98.8339 207.91 99.7731L220.481 106.228C225.17 108.636 230.589 104.641 229.678 99.4505L229.494 98.4045C229.784 97.4799 229.866 96.4583 229.678 95.3856L227.54 83.211C227.857 82.1848 228.433 81.2399 229.235 80.4767L238.981 71.1981C240.931 69.342 241.365 66.7635 240.637 64.5688C241.845 61.0139 239.668 56.7922 235.479 56.1977L221.742 54.2482C219.677 53.9551 217.886 52.671 216.945 50.8095L210.689 38.4287Z"/>
</mask>
<path fill-rule="evenodd" clip-rule="evenodd" d="M210.689 38.4287C208.33 33.7594 201.662 33.7594 199.303 38.4287L193.047 50.8095C192.106 52.671 190.315 53.9551 188.25 54.2482L174.513 56.1977C170.324 56.7922 168.147 61.0139 169.355 64.5688C168.627 66.7635 169.061 69.342 171.011 71.1981L180.757 80.4767C181.559 81.2399 182.135 82.1848 182.452 83.211L180.314 95.3856C180.126 96.4583 180.208 97.4799 180.498 98.4045L180.314 99.4505C179.403 104.641 184.823 108.636 189.511 106.228L202.082 99.7731C203.911 98.8339 206.081 98.8339 207.91 99.7731L220.481 106.228C225.17 108.636 230.589 104.641 229.678 99.4505L229.494 98.4045C229.784 97.4799 229.866 96.4583 229.678 95.3856L227.54 83.211C227.857 82.1848 228.433 81.2399 229.235 80.4767L238.981 71.1981C240.931 69.342 241.365 66.7635 240.637 64.5688C241.845 61.0139 239.668 56.7922 235.479 56.1977L221.742 54.2482C219.677 53.9551 217.886 52.671 216.945 50.8095L210.689 38.4287Z" fill="url(#paint4_linear_59_3076)"/>
<path d="M199.303 38.4287L202.149 39.8671L199.303 38.4287ZM210.689 38.4287L213.536 36.9903V36.9903L210.689 38.4287ZM193.047 50.8095L190.2 49.371V49.371L193.047 50.8095ZM188.25 54.2482L188.698 57.4059L188.25 54.2482ZM174.513 56.1977L174.065 53.0399H174.065L174.513 56.1977ZM169.355 64.5688L172.383 65.5726L172.72 64.5562L172.375 63.5423L169.355 64.5688ZM171.011 71.1981L173.21 68.8881H173.21L171.011 71.1981ZM180.757 80.4767L178.558 82.7866L180.757 80.4767ZM182.452 83.211L185.594 83.7626L185.727 83.0039L185.499 82.2681L182.452 83.211ZM180.314 95.3856L177.173 94.8339H177.173L180.314 95.3856ZM180.498 98.4045L183.639 98.9561L183.774 98.191L183.541 97.4498L180.498 98.4045ZM180.314 99.4505L177.173 98.8988V98.8988L180.314 99.4505ZM189.511 106.228L188.054 103.391H188.054L189.511 106.228ZM202.082 99.7731L203.539 102.61L203.539 102.61L202.082 99.7731ZM207.91 99.7731L209.367 96.9358V96.9358L207.91 99.7731ZM220.481 106.228L221.938 103.391H221.938L220.481 106.228ZM229.678 99.4505L232.819 98.8988V98.8988L229.678 99.4505ZM229.494 98.4045L226.451 97.4498L226.218 98.191L226.353 98.9561L229.494 98.4045ZM229.678 95.3856L226.536 95.9372L226.536 95.9372L229.678 95.3856ZM227.54 83.211L224.493 82.2681L224.265 83.0039L224.398 83.7626L227.54 83.211ZM229.235 80.4767L227.036 78.1667V78.1667L229.235 80.4767ZM238.981 71.1981L241.18 73.508L238.981 71.1981ZM240.637 64.5688L237.617 63.5423L237.273 64.5562L237.61 65.5726L240.637 64.5688ZM235.479 56.1977L235.927 53.0399L235.479 56.1977ZM221.742 54.2482L221.294 57.4059L221.742 54.2482ZM216.945 50.8095L214.099 52.2479L216.945 50.8095ZM202.149 39.8671C203.329 37.5325 206.663 37.5325 207.843 39.8671L213.536 36.9903C209.997 29.9864 199.995 29.9864 196.456 36.9903L202.149 39.8671ZM195.893 52.2479L202.149 39.8671L196.456 36.9903L190.2 49.371L195.893 52.2479ZM188.698 57.4059C191.795 56.9663 194.482 55.0402 195.893 52.2479L190.2 49.371C189.73 50.3018 188.834 50.9439 187.802 51.0904L188.698 57.4059ZM174.961 59.3555L188.698 57.4059L187.802 51.0904L174.065 53.0399L174.961 59.3555ZM172.375 63.5423C171.759 61.7294 172.906 59.6472 174.961 59.3555L174.065 53.0399C167.743 53.9371 164.535 60.2984 166.335 65.5954L172.375 63.5423ZM173.21 68.8881C172.233 67.9574 172.008 66.7012 172.383 65.5726L166.328 63.565C165.247 66.8258 165.89 70.7265 168.812 73.508L173.21 68.8881ZM182.956 78.1667L173.21 68.8881L168.812 73.508L178.558 82.7866L182.956 78.1667ZM185.499 82.2681C185.023 80.7294 184.159 79.3115 182.956 78.1667L178.558 82.7866C178.959 83.1683 179.247 83.6403 179.406 84.1538L185.499 82.2681ZM183.456 95.9372L185.594 83.7626L179.311 82.6593L177.173 94.8339L183.456 95.9372ZM183.541 97.4498C183.403 97.0098 183.356 96.5047 183.456 95.9372L177.173 94.8339C176.896 96.4119 177.013 97.95 177.455 99.3592L183.541 97.4498ZM183.456 100.002L183.639 98.9561L177.357 97.8528L177.173 98.8988L183.456 100.002ZM188.054 103.391C185.71 104.595 183 102.598 183.456 100.002L177.173 98.8988C175.806 106.685 183.935 112.676 190.968 109.065L188.054 103.391ZM200.626 96.9358L188.054 103.391L190.968 109.065L203.539 102.61L200.626 96.9358ZM209.367 96.9358C206.623 95.5271 203.369 95.5271 200.626 96.9358L203.539 102.61C204.454 102.141 205.538 102.141 206.453 102.61L209.367 96.9358ZM221.938 103.391L209.367 96.9358L206.453 102.61L219.024 109.065L221.938 103.391ZM226.536 100.002C226.992 102.598 224.282 104.595 221.938 103.391L219.024 109.065C226.057 112.676 234.186 106.685 232.819 98.8988L226.536 100.002ZM226.353 98.9561L226.536 100.002L232.819 98.8988L232.635 97.8528L226.353 98.9561ZM226.536 95.9372C226.636 96.5047 226.589 97.0098 226.451 97.4498L232.537 99.3592C232.979 97.95 233.096 96.4119 232.819 94.8339L226.536 95.9372ZM224.398 83.7626L226.536 95.9372L232.819 94.8339L230.681 82.6593L224.398 83.7626ZM227.036 78.1667C225.833 79.3115 224.969 80.7294 224.493 82.2681L230.587 84.1538C230.746 83.6403 231.033 83.1683 231.434 82.7866L227.036 78.1667ZM236.782 68.8881L227.036 78.1667L231.434 82.7866L241.18 73.508L236.782 68.8881ZM237.61 65.5726C237.984 66.7012 237.76 67.9574 236.782 68.8881L241.18 73.508C244.102 70.7265 244.746 66.8258 243.664 63.565L237.61 65.5726ZM235.031 59.3555C237.087 59.6472 238.234 61.7294 237.617 63.5423L243.657 65.5954C245.457 60.2983 242.249 53.9371 235.927 53.0399L235.031 59.3555ZM221.294 57.4059L235.031 59.3555L235.927 53.0399L222.191 51.0904L221.294 57.4059ZM214.099 52.2479C215.51 55.0402 218.197 56.9663 221.294 57.4059L222.191 51.0904C221.158 50.9439 220.262 50.3018 219.792 49.371L214.099 52.2479ZM207.843 39.8671L214.099 52.2479L219.792 49.371L213.536 36.9903L207.843 39.8671Z" fill="white" mask="url(#path-10-outside-1_59_3076)"/>
<g filter="url(#filter1_d_59_3076)">
<path d="M199.591 38.4822C201.951 33.8129 208.618 33.8129 210.978 38.4822L217.234 50.863C218.175 52.7245 219.966 54.0086 222.031 54.3017L235.768 56.2512C241.047 57.0004 243.131 63.5104 239.27 67.1867L229.524 76.4653C227.977 77.9375 227.27 80.0856 227.639 82.1885L229.966 95.4391C230.878 100.63 225.458 104.624 220.77 102.217L208.198 95.7617C206.369 94.8226 204.2 94.8226 202.371 95.7617L189.799 102.217C185.111 104.624 179.692 100.63 180.603 95.4391L182.93 82.1885C183.299 80.0856 182.592 77.9375 181.046 76.4653L171.3 67.1867C167.438 63.5104 169.523 57.0004 174.802 56.2512L188.538 54.3017C190.603 54.0086 192.395 52.7245 193.335 50.863L199.591 38.4822Z" fill="url(#paint5_linear_59_3076)"/>
</g>
<mask id="path-13-outside-2_59_3076" maskUnits="userSpaceOnUse" x="106.186" y="58.4193" width="65" height="66" fill="black">
<rect fill="white" x="106.186" y="58.4193" width="65" height="66"/>
<path fill-rule="evenodd" clip-rule="evenodd" d="M144.597 65.9213C142.238 61.252 135.57 61.252 133.211 65.9213L129.197 73.8656C128.256 75.7271 126.465 77.0112 124.4 77.3043L115.676 78.5424C111.618 79.1183 109.447 83.0985 110.414 86.5788C109.839 88.695 110.325 91.105 112.174 92.8653L118.292 98.6907C119.161 99.5173 119.764 100.557 120.062 101.682L118.706 109.401C118.535 110.376 118.587 111.308 118.816 112.164L118.706 112.788C117.795 117.979 123.214 121.973 127.902 119.566L135.99 115.413C137.819 114.474 139.989 114.474 141.818 115.413L149.906 119.566C154.594 121.973 160.014 117.979 159.102 112.788L158.993 112.164C159.221 111.308 159.273 110.376 159.102 109.401L157.747 101.682C158.044 100.557 158.648 99.5173 159.516 98.6907L165.635 92.8653C167.484 91.105 167.969 88.695 167.394 86.5788C168.361 83.0985 166.191 79.1183 162.133 78.5424L153.409 77.3043C151.344 77.0112 149.552 75.7271 148.612 73.8656L144.597 65.9213Z"/>
</mask>
<path fill-rule="evenodd" clip-rule="evenodd" d="M144.597 65.9213C142.238 61.252 135.57 61.252 133.211 65.9213L129.197 73.8656C128.256 75.7271 126.465 77.0112 124.4 77.3043L115.676 78.5424C111.618 79.1183 109.447 83.0985 110.414 86.5788C109.839 88.695 110.325 91.105 112.174 92.8653L118.292 98.6907C119.161 99.5173 119.764 100.557 120.062 101.682L118.706 109.401C118.535 110.376 118.587 111.308 118.816 112.164L118.706 112.788C117.795 117.979 123.214 121.973 127.902 119.566L135.99 115.413C137.819 114.474 139.989 114.474 141.818 115.413L149.906 119.566C154.594 121.973 160.014 117.979 159.102 112.788L158.993 112.164C159.221 111.308 159.273 110.376 159.102 109.401L157.747 101.682C158.044 100.557 158.648 99.5173 159.516 98.6907L165.635 92.8653C167.484 91.105 167.969 88.695 167.394 86.5788C168.361 83.0985 166.191 79.1183 162.133 78.5424L153.409 77.3043C151.344 77.0112 149.552 75.7271 148.612 73.8656L144.597 65.9213Z" fill="url(#paint6_linear_59_3076)"/>
<path d="M133.211 65.9213L136.058 67.3597L133.211 65.9213ZM144.597 65.9213L147.444 64.4829V64.4829L144.597 65.9213ZM129.197 73.8656L126.35 72.4272L129.197 73.8656ZM124.4 77.3043L124.848 80.462L124.4 77.3043ZM115.676 78.5424L116.124 81.7002H116.124L115.676 78.5424ZM110.414 86.5788L113.492 87.4158L113.722 86.5696L113.487 85.7247L110.414 86.5788ZM112.174 92.8653L114.373 90.5554H114.373L112.174 92.8653ZM118.292 98.6907L116.093 101.001L116.093 101.001L118.292 98.6907ZM120.062 101.682L123.203 102.234L123.324 101.545L123.145 100.868L120.062 101.682ZM118.706 109.401L121.847 109.953L118.706 109.401ZM118.816 112.164L121.957 112.716L122.079 112.022L121.897 111.341L118.816 112.164ZM118.706 112.788L115.565 112.237V112.237L118.706 112.788ZM127.902 119.566L126.446 116.729L127.902 119.566ZM135.99 115.413L134.534 112.576L134.534 112.576L135.99 115.413ZM141.818 115.413L143.275 112.576L143.275 112.576L141.818 115.413ZM149.906 119.566L148.449 122.403H148.449L149.906 119.566ZM159.102 112.788L155.961 113.34L155.961 113.34L159.102 112.788ZM158.993 112.164L155.911 111.341L155.729 112.022L155.851 112.716L158.993 112.164ZM159.102 109.401L162.244 108.849L159.102 109.401ZM157.747 101.682L154.663 100.868L154.484 101.545L154.605 102.234L157.747 101.682ZM159.516 98.6907L161.715 101.001L161.715 101.001L159.516 98.6907ZM165.635 92.8653L167.834 95.1753L165.635 92.8653ZM167.394 86.5788L164.321 85.7247L164.086 86.5696L164.316 87.4158L167.394 86.5788ZM162.133 78.5424L161.685 81.7002H161.685L162.133 78.5424ZM153.409 77.3043L152.961 80.462L153.409 77.3043ZM148.612 73.8656L145.765 75.304L148.612 73.8656ZM136.058 67.3597C137.237 65.0251 140.571 65.0251 141.751 67.3597L147.444 64.4829C143.905 57.4789 133.903 57.4789 130.364 64.4828L136.058 67.3597ZM132.043 75.304L136.058 67.3597L130.364 64.4828L126.35 72.4272L132.043 75.304ZM124.848 80.462C127.945 80.0224 130.632 78.0963 132.043 75.304L126.35 72.4272C125.88 73.3579 124.984 74 123.951 74.1465L124.848 80.462ZM116.124 81.7002L124.848 80.462L123.951 74.1465L115.227 75.3846L116.124 81.7002ZM113.487 85.7247C112.991 83.9398 114.133 81.9826 116.124 81.7002L115.227 75.3846C109.102 76.254 105.903 82.2572 107.342 87.4328L113.487 85.7247ZM114.373 90.5554C113.442 89.6689 113.198 88.4965 113.492 87.4158L107.337 85.7417C106.48 88.8935 107.208 92.5412 109.974 95.1753L114.373 90.5554ZM120.492 96.3807L114.373 90.5554L109.974 95.1753L116.093 101.001L120.492 96.3807ZM123.145 100.868C122.7 99.1809 121.794 97.6207 120.492 96.3807L116.093 101.001C116.527 101.414 116.829 101.933 116.978 102.497L123.145 100.868ZM121.847 109.953L123.203 102.234L116.92 101.131L115.565 108.849L121.847 109.953ZM121.897 111.341C121.788 110.933 121.757 110.47 121.847 109.953L115.565 108.849C115.313 110.282 115.386 111.684 115.734 112.988L121.897 111.341ZM121.847 113.34L121.957 112.716L115.674 111.613L115.565 112.237L121.847 113.34ZM126.446 116.729C124.101 117.933 121.392 115.935 121.847 113.34L115.565 112.237C114.197 120.023 122.327 126.014 129.359 122.403L126.446 116.729ZM134.534 112.576L126.446 116.729L129.359 122.403L137.447 118.25L134.534 112.576ZM143.275 112.576C140.531 111.167 137.277 111.167 134.534 112.576L137.447 118.25C138.362 117.781 139.447 117.781 140.361 118.25L143.275 112.576ZM151.363 116.729L143.275 112.576L140.361 118.25L148.449 122.403L151.363 116.729ZM155.961 113.34C156.417 115.935 153.707 117.933 151.363 116.729L148.449 122.403C155.482 126.014 163.611 120.023 162.244 112.237L155.961 113.34ZM155.851 112.716L155.961 113.34L162.244 112.237L162.134 111.613L155.851 112.716ZM155.961 109.953C156.052 110.47 156.02 110.933 155.911 111.341L162.074 112.988C162.422 111.684 162.495 110.282 162.244 108.849L155.961 109.953ZM154.605 102.234L155.961 109.953L162.244 108.849L160.888 101.131L154.605 102.234ZM157.317 96.3807C156.014 97.6207 155.109 99.1809 154.663 100.868L160.831 102.497C160.979 101.933 161.281 101.414 161.715 101.001L157.317 96.3807ZM163.436 90.5554L157.317 96.3807L161.715 101.001L167.834 95.1753L163.436 90.5554ZM164.316 87.4158C164.61 88.4965 164.367 89.6689 163.436 90.5554L167.834 95.1753C170.601 92.5412 171.329 88.8935 170.471 85.7417L164.316 87.4158ZM161.685 81.7002C163.675 81.9826 164.817 83.9398 164.321 85.7247L170.467 87.4328C171.905 82.2572 168.706 76.254 162.581 75.3846L161.685 81.7002ZM152.961 80.462L161.685 81.7002L162.581 75.3846L153.857 74.1465L152.961 80.462ZM145.765 75.304C147.176 78.0963 149.863 80.0224 152.961 80.462L153.857 74.1465C152.824 74 151.929 73.3579 151.458 72.4272L145.765 75.304ZM141.751 67.3597L145.765 75.304L151.458 72.4272L147.444 64.4829L141.751 67.3597Z" fill="white" mask="url(#path-13-outside-2_59_3076)"/>
<g filter="url(#filter2_d_59_3076)">
<path d="M133.446 65.9668C135.805 61.2976 142.473 61.2976 144.832 65.9668L148.847 73.9112C149.787 75.7727 151.579 77.0568 153.644 77.3498L162.368 78.588C167.647 79.3371 169.731 85.8472 165.87 89.5234L159.751 95.3488C158.205 96.821 157.497 98.9691 157.867 101.072L159.337 109.446C160.249 114.637 154.829 118.632 150.141 116.224L142.053 112.071C140.224 111.132 138.054 111.132 136.226 112.071L128.138 116.224C123.449 118.632 118.03 114.637 118.941 109.446L120.412 101.072C120.781 98.9691 120.074 96.821 118.527 95.3488L112.409 89.5234C108.547 85.8472 110.632 79.3371 115.911 78.588L124.635 77.3498C126.7 77.0568 128.491 75.7727 129.432 73.9112L133.446 65.9668Z" fill="url(#paint7_linear_59_3076)"/>
</g>
<mask id="path-16-outside-3_59_3076" maskUnits="userSpaceOnUse" x="236.957" y="58.4193" width="65" height="66" fill="black">
<rect fill="white" x="236.957" y="58.4193" width="65" height="66"/>
<path fill-rule="evenodd" clip-rule="evenodd" d="M275.369 65.9213C273.009 61.252 266.342 61.252 263.982 65.9213L259.968 73.8656C259.027 75.7271 257.236 77.0112 255.171 77.3043L246.447 78.5424C242.389 79.1183 240.218 83.0985 241.186 86.5788C240.61 88.695 241.096 91.1051 242.945 92.8654L249.064 98.6907C249.932 99.5174 250.536 100.557 250.833 101.682L249.477 109.401C249.306 110.376 249.358 111.308 249.587 112.164L249.477 112.788C248.566 117.979 253.985 121.974 258.674 119.566L266.762 115.413C268.591 114.474 270.76 114.474 272.589 115.413L280.677 119.566C285.365 121.974 290.785 117.979 289.873 112.788L289.764 112.164C289.993 111.308 290.045 110.376 289.873 109.401L288.518 101.682C288.815 100.557 289.419 99.5174 290.287 98.6907L296.406 92.8654C298.255 91.1051 298.741 88.695 298.165 86.5788C299.132 83.0985 296.962 79.1183 292.904 78.5424L284.18 77.3043C282.115 77.0112 280.324 75.7271 279.383 73.8656L275.369 65.9213Z"/>
</mask>
<path fill-rule="evenodd" clip-rule="evenodd" d="M275.369 65.9213C273.009 61.252 266.342 61.252 263.982 65.9213L259.968 73.8656C259.027 75.7271 257.236 77.0112 255.171 77.3043L246.447 78.5424C242.389 79.1183 240.218 83.0985 241.186 86.5788C240.61 88.695 241.096 91.1051 242.945 92.8654L249.064 98.6907C249.932 99.5174 250.536 100.557 250.833 101.682L249.477 109.401C249.306 110.376 249.358 111.308 249.587 112.164L249.477 112.788C248.566 117.979 253.985 121.974 258.674 119.566L266.762 115.413C268.591 114.474 270.76 114.474 272.589 115.413L280.677 119.566C285.365 121.974 290.785 117.979 289.873 112.788L289.764 112.164C289.993 111.308 290.045 110.376 289.873 109.401L288.518 101.682C288.815 100.557 289.419 99.5174 290.287 98.6907L296.406 92.8654C298.255 91.1051 298.741 88.695 298.165 86.5788C299.132 83.0985 296.962 79.1183 292.904 78.5424L284.18 77.3043C282.115 77.0112 280.324 75.7271 279.383 73.8656L275.369 65.9213Z" fill="url(#paint8_linear_59_3076)"/>
<path d="M263.982 65.9213L266.829 67.3597L263.982 65.9213ZM275.369 65.9213L278.215 64.4829V64.4829L275.369 65.9213ZM259.968 73.8656L257.121 72.4272L259.968 73.8656ZM255.171 77.3043L255.619 80.462H255.619L255.171 77.3043ZM246.447 78.5424L245.999 75.3846L245.999 75.3846L246.447 78.5424ZM241.186 86.5788L244.263 87.4159L244.493 86.5697L244.259 85.7248L241.186 86.5788ZM242.945 92.8654L245.144 90.5554H245.144L242.945 92.8654ZM249.064 98.6907L246.864 101.001L246.864 101.001L249.064 98.6907ZM250.833 101.682L253.974 102.234L254.095 101.545L253.916 100.868L250.833 101.682ZM249.477 109.401L252.619 109.953V109.953L249.477 109.401ZM249.587 112.164L252.728 112.716L252.85 112.022L252.668 111.341L249.587 112.164ZM249.477 112.788L252.619 113.34L252.619 113.34L249.477 112.788ZM258.674 119.566L260.131 122.403L258.674 119.566ZM266.762 115.413L265.305 112.576H265.305L266.762 115.413ZM272.589 115.413L274.046 112.576L272.589 115.413ZM280.677 119.566L279.22 122.403V122.403L280.677 119.566ZM289.873 112.788L293.015 112.237L293.015 112.237L289.873 112.788ZM289.764 112.164L286.683 111.341L286.501 112.022L286.623 112.716L289.764 112.164ZM289.873 109.401L293.015 108.849V108.849L289.873 109.401ZM288.518 101.682L285.434 100.868L285.256 101.545L285.377 102.234L288.518 101.682ZM290.287 98.6907L292.486 101.001L290.287 98.6907ZM296.406 92.8654L294.207 90.5554L294.207 90.5554L296.406 92.8654ZM298.165 86.5788L295.092 85.7247L294.857 86.5697L295.088 87.4159L298.165 86.5788ZM292.904 78.5424L292.456 81.7002L292.904 78.5424ZM284.18 77.3043L284.628 74.1465V74.1465L284.18 77.3043ZM279.383 73.8656L282.23 72.4272L279.383 73.8656ZM266.829 67.3597C268.009 65.0251 271.342 65.0251 272.522 67.3597L278.215 64.4829C274.676 57.4789 264.675 57.4789 261.136 64.4828L266.829 67.3597ZM262.814 75.304L266.829 67.3597L261.136 64.4828L257.121 72.4272L262.814 75.304ZM255.619 80.462C258.717 80.0224 261.403 78.0963 262.814 75.304L257.121 72.4272C256.651 73.3579 255.755 74 254.723 74.1465L255.619 80.462ZM246.895 81.7002L255.619 80.462L254.723 74.1465L245.999 75.3846L246.895 81.7002ZM244.259 85.7248C243.763 83.9398 244.905 81.9826 246.895 81.7002L245.999 75.3846C239.873 76.254 236.674 82.2572 238.113 87.4328L244.259 85.7248ZM245.144 90.5554C244.213 89.6689 243.969 88.4965 244.263 87.4159L238.108 85.7417C237.251 88.8935 237.979 92.5412 240.746 95.1754L245.144 90.5554ZM251.263 96.3807L245.144 90.5554L240.746 95.1754L246.864 101.001L251.263 96.3807ZM253.916 100.868C253.471 99.1809 252.565 97.6208 251.263 96.3807L246.864 101.001C247.299 101.414 247.6 101.933 247.749 102.497L253.916 100.868ZM252.619 109.953L253.974 102.234L247.691 101.131L246.336 108.849L252.619 109.953ZM252.668 111.341C252.559 110.933 252.528 110.47 252.619 109.953L246.336 108.849C246.084 110.282 246.157 111.684 246.506 112.988L252.668 111.341ZM252.619 113.34L252.728 112.716L246.446 111.613L246.336 112.237L252.619 113.34ZM257.217 116.729C254.873 117.933 252.163 115.935 252.619 113.34L246.336 112.237C244.969 120.023 253.098 126.014 260.131 122.403L257.217 116.729ZM265.305 112.576L257.217 116.729L260.131 122.403L268.219 118.25L265.305 112.576ZM274.046 112.576C271.303 111.167 268.048 111.167 265.305 112.576L268.219 118.25C269.133 117.781 270.218 117.781 271.132 118.25L274.046 112.576ZM282.134 116.729L274.046 112.576L271.132 118.25L279.22 122.403L282.134 116.729ZM286.732 113.34C287.188 115.935 284.478 117.933 282.134 116.729L279.22 122.403C286.253 126.014 294.382 120.023 293.015 112.237L286.732 113.34ZM286.623 112.716L286.732 113.34L293.015 112.237L292.905 111.613L286.623 112.716ZM286.732 109.953C286.823 110.47 286.792 110.933 286.683 111.341L292.845 112.988C293.194 111.684 293.266 110.282 293.015 108.849L286.732 109.953ZM285.377 102.234L286.732 109.953L293.015 108.849L291.659 101.131L285.377 102.234ZM288.088 96.3807C286.786 97.6208 285.88 99.1809 285.434 100.868L291.602 102.497C291.751 101.933 292.052 101.414 292.486 101.001L288.088 96.3807ZM294.207 90.5554L288.088 96.3807L292.486 101.001L298.605 95.1754L294.207 90.5554ZM295.088 87.4159C295.381 88.4965 295.138 89.6689 294.207 90.5554L298.605 95.1754C301.372 92.5412 302.1 88.8935 301.243 85.7417L295.088 87.4159ZM292.456 81.7002C294.446 81.9826 295.588 83.9398 295.092 85.7247L301.238 87.4328C302.676 82.2572 299.478 76.254 293.352 75.3846L292.456 81.7002ZM283.732 80.462L292.456 81.7002L293.352 75.3846L284.628 74.1465L283.732 80.462ZM276.536 75.304C277.947 78.0963 280.634 80.0224 283.732 80.462L284.628 74.1465C283.596 74 282.7 73.3579 282.23 72.4272L276.536 75.304ZM272.522 67.3597L276.536 75.304L282.23 72.4272L278.215 64.4829L272.522 67.3597Z" fill="white" mask="url(#path-16-outside-3_59_3076)"/>
<g filter="url(#filter3_d_59_3076)">
<path d="M264.219 65.9658C266.579 61.2965 273.246 61.2965 275.606 65.9658L279.62 73.9101C280.561 75.7717 282.352 77.0557 284.417 77.3488L293.141 78.5869C298.42 79.3361 300.505 85.8461 296.643 89.5224L290.524 95.3477C288.978 96.8199 288.271 98.9681 288.64 101.071L290.111 109.445C291.022 114.636 285.602 118.631 280.914 116.223L272.826 112.07C270.997 111.131 268.828 111.131 266.999 112.07L258.911 116.223C254.222 118.631 248.803 114.636 249.714 109.445L251.185 101.071C251.554 98.9681 250.847 96.8199 249.301 95.3477L243.182 89.5224C239.32 85.8461 241.405 79.3361 246.684 78.5869L255.408 77.3488C257.473 77.0557 259.264 75.7717 260.205 73.9101L264.219 65.9658Z" fill="url(#paint9_linear_59_3076)"/>
</g>
<g filter="url(#filter4_d_59_3076)">
<mask id="path-19-outside-4_59_3076" maskUnits="userSpaceOnUse" x="165" y="125.549" width="75" height="36" fill="black">
<rect fill="white" x="165" y="125.549" width="75" height="36"/>
<path d="M169.361 159.21C168.957 159.21 168.564 159.18 168.18 159.119C167.797 159.079 167.474 159.018 167.211 158.937L166.908 154.698C167.312 154.799 167.665 154.87 167.968 154.91C168.271 154.951 168.584 154.971 168.907 154.971C169.755 154.971 170.34 154.739 170.663 154.274C171.006 153.81 171.178 153.053 171.178 152.004V135.501H175.417V148.309H178.687V152.549H175.387C175.265 154.89 174.73 156.586 173.782 157.635C172.833 158.685 171.359 159.21 169.361 159.21ZM174.932 132.352C174.448 132.736 173.873 132.928 173.206 132.928C172.54 132.928 171.955 132.736 171.45 132.352C170.966 131.969 170.724 131.404 170.724 130.657C170.724 129.991 170.956 129.456 171.42 129.052C171.904 128.628 172.5 128.416 173.206 128.416C173.913 128.416 174.498 128.628 174.963 129.052C175.447 129.456 175.689 129.991 175.689 130.657C175.689 131.404 175.437 131.969 174.932 132.352ZM180.577 130.96C180.577 129.587 180.91 128.618 181.576 128.053C182.262 127.488 183.201 127.205 184.392 127.205H186.209V128.567H184.634C184.029 128.567 183.605 128.699 183.363 128.961C183.12 129.224 182.999 129.597 182.999 130.081V130.899H187.178V133.17H180.577V130.96ZM178.094 148.309H181.849V135.501H186.088V152.549H178.094V148.309ZM191.847 127.992H196.086V148.309H199.962V152.549H191.847V127.992ZM199.354 148.309H203.412C202.968 147.724 202.614 147.078 202.352 146.372C202.09 145.665 201.958 144.878 201.958 144.01C201.958 142.678 202.201 141.487 202.685 140.437C203.19 139.387 203.886 138.499 204.774 137.772C205.663 137.025 206.732 136.46 207.984 136.077C209.236 135.693 210.618 135.501 212.132 135.501H217.128V148.309H219.944V152.549H199.354V148.309ZM206.198 144.01C206.198 144.938 206.399 145.766 206.803 146.493C207.227 147.219 207.792 147.825 208.499 148.309H212.889V139.74H211.103C210.497 139.74 209.892 139.831 209.286 140.013C208.701 140.195 208.176 140.467 207.711 140.831C207.267 141.194 206.904 141.648 206.621 142.193C206.339 142.718 206.198 143.324 206.198 144.01ZM212.556 132.352C212.072 132.736 211.496 132.928 210.83 132.928C210.164 132.928 209.579 132.736 209.074 132.352C208.59 131.969 208.347 131.404 208.347 130.657C208.347 129.991 208.579 129.456 209.044 129.052C209.528 128.628 210.124 128.416 210.83 128.416C211.537 128.416 212.122 128.628 212.586 129.052C213.071 129.456 213.313 129.991 213.313 130.657C213.313 131.404 213.061 131.969 212.556 132.352ZM219.343 148.309H222.311V127.992H228.518V132.231H226.55V152.549H219.343V148.309ZM233.659 127.992H237.898V152.549H233.659V127.992Z"/>
</mask>
<path d="M169.361 159.21C168.957 159.21 168.564 159.18 168.18 159.119C167.797 159.079 167.474 159.018 167.211 158.937L166.908 154.698C167.312 154.799 167.665 154.87 167.968 154.91C168.271 154.951 168.584 154.971 168.907 154.971C169.755 154.971 170.34 154.739 170.663 154.274C171.006 153.81 171.178 153.053 171.178 152.004V135.501H175.417V148.309H178.687V152.549H175.387C175.265 154.89 174.73 156.586 173.782 157.635C172.833 158.685 171.359 159.21 169.361 159.21ZM174.932 132.352C174.448 132.736 173.873 132.928 173.206 132.928C172.54 132.928 171.955 132.736 171.45 132.352C170.966 131.969 170.724 131.404 170.724 130.657C170.724 129.991 170.956 129.456 171.42 129.052C171.904 128.628 172.5 128.416 173.206 128.416C173.913 128.416 174.498 128.628 174.963 129.052C175.447 129.456 175.689 129.991 175.689 130.657C175.689 131.404 175.437 131.969 174.932 132.352ZM180.577 130.96C180.577 129.587 180.91 128.618 181.576 128.053C182.262 127.488 183.201 127.205 184.392 127.205H186.209V128.567H184.634C184.029 128.567 183.605 128.699 183.363 128.961C183.12 129.224 182.999 129.597 182.999 130.081V130.899H187.178V133.17H180.577V130.96ZM178.094 148.309H181.849V135.501H186.088V152.549H178.094V148.309ZM191.847 127.992H196.086V148.309H199.962V152.549H191.847V127.992ZM199.354 148.309H203.412C202.968 147.724 202.614 147.078 202.352 146.372C202.09 145.665 201.958 144.878 201.958 144.01C201.958 142.678 202.201 141.487 202.685 140.437C203.19 139.387 203.886 138.499 204.774 137.772C205.663 137.025 206.732 136.46 207.984 136.077C209.236 135.693 210.618 135.501 212.132 135.501H217.128V148.309H219.944V152.549H199.354V148.309ZM206.198 144.01C206.198 144.938 206.399 145.766 206.803 146.493C207.227 147.219 207.792 147.825 208.499 148.309H212.889V139.74H211.103C210.497 139.74 209.892 139.831 209.286 140.013C208.701 140.195 208.176 140.467 207.711 140.831C207.267 141.194 206.904 141.648 206.621 142.193C206.339 142.718 206.198 143.324 206.198 144.01ZM212.556 132.352C212.072 132.736 211.496 132.928 210.83 132.928C210.164 132.928 209.579 132.736 209.074 132.352C208.59 131.969 208.347 131.404 208.347 130.657C208.347 129.991 208.579 129.456 209.044 129.052C209.528 128.628 210.124 128.416 210.83 128.416C211.537 128.416 212.122 128.628 212.586 129.052C213.071 129.456 213.313 129.991 213.313 130.657C213.313 131.404 213.061 131.969 212.556 132.352ZM219.343 148.309H222.311V127.992H228.518V132.231H226.55V152.549H219.343V148.309ZM233.659 127.992H237.898V152.549H233.659V127.992Z" fill="white"/>
<path d="M168.18 159.119L168.429 157.544L168.388 157.538L168.347 157.533L168.18 159.119ZM167.211 158.937L165.621 159.051L165.698 160.14L166.742 160.462L167.211 158.937ZM166.908 154.698L167.295 153.151L165.161 152.618L165.318 154.812L166.908 154.698ZM167.968 154.91L168.179 153.33H168.179L167.968 154.91ZM170.663 154.274L169.381 153.327L169.367 153.345L169.354 153.364L170.663 154.274ZM171.178 135.501V133.907H169.583V135.501H171.178ZM175.417 135.501H177.012V133.907H175.417V135.501ZM175.417 148.309H173.822V149.904H175.417V148.309ZM178.687 148.309H180.282V146.715H178.687V148.309ZM178.687 152.549V154.143H180.282V152.549H178.687ZM175.387 152.549V150.954H173.872L173.794 152.466L175.387 152.549ZM173.782 157.635L172.599 156.566L173.782 157.635ZM174.932 132.352L173.967 131.083L173.955 131.092L173.943 131.102L174.932 132.352ZM171.45 132.352L170.46 133.603L170.473 133.612L170.485 133.622L171.45 132.352ZM171.42 129.052L172.466 130.255L172.47 130.252L171.42 129.052ZM174.963 129.052L173.887 130.23L173.914 130.254L173.942 130.277L174.963 129.052ZM169.361 157.615C169.037 157.615 168.727 157.591 168.429 157.544L167.931 160.694C168.4 160.768 168.877 160.805 169.361 160.805V157.615ZM168.347 157.533C168.028 157.5 167.814 157.454 167.68 157.413L166.742 160.462C167.134 160.582 167.565 160.658 168.013 160.705L168.347 157.533ZM168.802 158.824L168.499 154.585L165.318 154.812L165.621 159.051L168.802 158.824ZM166.522 156.245C166.964 156.356 167.379 156.441 167.757 156.491L168.179 153.33C167.952 153.299 167.66 153.243 167.295 153.151L166.522 156.245ZM167.757 156.491C168.134 156.541 168.517 156.566 168.907 156.566V153.376C168.65 153.376 168.408 153.36 168.179 153.33L167.757 156.491ZM168.907 156.566C170.003 156.566 171.223 156.262 171.972 155.185L169.354 153.364C169.368 153.343 169.386 153.325 169.401 153.314C169.416 153.303 169.417 153.305 169.394 153.314C169.341 153.335 169.195 153.376 168.907 153.376V156.566ZM171.945 155.222C172.6 154.337 172.772 153.15 172.772 152.004H169.583C169.583 152.956 169.413 153.283 169.381 153.327L171.945 155.222ZM172.772 152.004V135.501H169.583V152.004H172.772ZM171.178 137.096H175.417V133.907H171.178V137.096ZM173.822 135.501V148.309H177.012V135.501H173.822ZM175.417 149.904H178.687V146.715H175.417V149.904ZM177.092 148.309V152.549H180.282V148.309H177.092ZM178.687 150.954H175.387V154.143H178.687V150.954ZM173.794 152.466C173.68 154.663 173.185 155.917 172.599 156.566L174.965 158.705C176.276 157.254 176.851 155.117 176.979 152.631L173.794 152.466ZM172.599 156.566C172.06 157.162 171.1 157.615 169.361 157.615V160.805C171.619 160.805 173.606 160.208 174.965 158.705L172.599 156.566ZM173.943 131.102C173.762 131.245 173.543 131.333 173.206 131.333V134.522C174.202 134.522 175.133 134.227 175.922 133.603L173.943 131.102ZM173.206 131.333C172.87 131.333 172.628 131.244 172.415 131.083L170.485 133.622C171.282 134.228 172.211 134.522 173.206 134.522V131.333ZM172.44 131.102C172.418 131.085 172.318 131.029 172.318 130.657H169.129C169.129 131.778 169.513 132.853 170.46 133.603L172.44 131.102ZM172.318 130.657C172.318 130.409 172.382 130.329 172.466 130.255L170.374 127.849C169.53 128.582 169.129 129.572 169.129 130.657H172.318ZM172.47 130.252C172.635 130.108 172.846 130.011 173.206 130.011V126.821C172.154 126.821 171.174 127.148 170.37 127.852L172.47 130.252ZM173.206 130.011C173.568 130.011 173.754 130.108 173.887 130.23L176.038 127.874C175.243 127.148 174.258 126.821 173.206 126.821V130.011ZM173.942 130.277C174.04 130.359 174.095 130.433 174.095 130.657H177.284C177.284 129.548 176.854 128.553 175.984 127.827L173.942 130.277ZM174.095 130.657C174.095 131.005 174.002 131.057 173.967 131.083L175.897 133.622C176.872 132.881 177.284 131.802 177.284 130.657H174.095ZM181.576 128.053L180.562 126.822L180.553 126.829L180.544 126.837L181.576 128.053ZM186.209 127.205H187.803V125.61H186.209V127.205ZM186.209 128.567V130.162H187.803V128.567H186.209ZM183.363 128.961L184.534 130.043L184.534 130.043L183.363 128.961ZM182.999 130.899H181.404V132.494H182.999V130.899ZM187.178 130.899H188.772V129.304H187.178V130.899ZM187.178 133.17V134.765H188.772V133.17H187.178ZM180.577 133.17H178.982V134.765H180.577V133.17ZM178.094 148.309V146.715H176.499V148.309H178.094ZM181.849 148.309V149.904H183.443V148.309H181.849ZM181.849 135.501V133.907H180.254V135.501H181.849ZM186.088 135.501H187.682V133.907H186.088V135.501ZM186.088 152.549V154.143H187.682V152.549H186.088ZM178.094 152.549H176.499V154.143H178.094V152.549ZM182.172 130.96C182.172 129.789 182.461 129.393 182.608 129.269L180.544 126.837C179.359 127.843 178.982 129.385 178.982 130.96H182.172ZM182.59 129.284C182.907 129.023 183.445 128.8 184.392 128.8V125.61C182.957 125.61 181.618 125.952 180.562 126.822L182.59 129.284ZM184.392 128.8H186.209V125.61H184.392V128.8ZM184.614 127.205V128.567H187.803V127.205H184.614ZM186.209 126.973H184.634V130.162H186.209V126.973ZM184.634 126.973C183.878 126.973 182.889 127.123 182.191 127.879L184.534 130.043C184.424 130.162 184.326 130.192 184.334 130.189C184.338 130.188 184.364 130.181 184.416 130.174C184.468 130.167 184.539 130.162 184.634 130.162V126.973ZM182.191 127.879C181.592 128.528 181.404 129.341 181.404 130.081H184.594C184.594 129.969 184.608 129.926 184.607 129.93C184.606 129.933 184.601 129.948 184.588 129.97C184.575 129.992 184.557 130.018 184.534 130.043L182.191 127.879ZM181.404 130.081V130.899H184.594V130.081H181.404ZM182.999 132.494H187.178V129.304H182.999V132.494ZM185.583 130.899V133.17H188.772V130.899H185.583ZM187.178 131.575H180.577V134.765H187.178V131.575ZM182.172 133.17V130.96H178.982V133.17H182.172ZM178.094 149.904H181.849V146.715H178.094V149.904ZM183.443 148.309V135.501H180.254V148.309H183.443ZM181.849 137.096H186.088V133.907H181.849V137.096ZM184.493 135.501V152.549H187.682V135.501H184.493ZM186.088 150.954H178.094V154.143H186.088V150.954ZM179.689 152.549V148.309H176.499V152.549H179.689ZM191.847 127.992V126.397H190.253V127.992H191.847ZM196.086 127.992H197.681V126.397H196.086V127.992ZM196.086 148.309H194.492V149.904H196.086V148.309ZM199.962 148.309H201.557V146.715H199.962V148.309ZM199.962 152.549V154.143H201.557V152.549H199.962ZM191.847 152.549H190.253V154.143H191.847V152.549ZM191.847 129.587H196.086V126.397H191.847V129.587ZM194.492 127.992V148.309H197.681V127.992H194.492ZM196.086 149.904H199.962V146.715H196.086V149.904ZM198.367 148.309V152.549H201.557V148.309H198.367ZM199.962 150.954H191.847V154.143H199.962V150.954ZM193.442 152.549V127.992H190.253V152.549H193.442ZM199.354 148.309V146.715H197.76V148.309H199.354ZM203.412 148.309V149.904H206.623L204.682 147.346L203.412 148.309ZM202.352 146.372L203.847 145.816H203.847L202.352 146.372ZM202.685 140.437L201.248 139.746L201.242 139.757L201.237 139.769L202.685 140.437ZM204.774 137.772L205.784 139.007L205.793 139L205.801 138.993L204.774 137.772ZM207.984 136.077L208.451 137.601L207.984 136.077ZM217.128 135.501H218.723V133.907H217.128V135.501ZM217.128 148.309H215.534V149.904H217.128V148.309ZM219.944 148.309H221.539V146.715H219.944V148.309ZM219.944 152.549V154.143H221.539V152.549H219.944ZM199.354 152.549H197.76V154.143H199.354V152.549ZM206.803 146.493L205.409 147.267L205.417 147.282L205.426 147.296L206.803 146.493ZM208.499 148.309L207.597 149.625L208.004 149.904H208.499V148.309ZM212.889 148.309V149.904H214.484V148.309H212.889ZM212.889 139.74H214.484V138.146H212.889V139.74ZM209.286 140.013L208.828 138.486L208.821 138.488L208.813 138.49L209.286 140.013ZM207.711 140.831L206.729 139.575L206.715 139.585L206.702 139.596L207.711 140.831ZM206.621 142.193L208.026 142.949L208.031 142.938L208.037 142.927L206.621 142.193ZM212.556 132.352L211.591 131.083L211.579 131.092L211.566 131.102L212.556 132.352ZM209.074 132.352L208.084 133.603L208.097 133.612L208.109 133.622L209.074 132.352ZM209.044 129.052L210.09 130.255L210.094 130.252L209.044 129.052ZM212.586 129.052L211.511 130.23L211.538 130.254L211.566 130.277L212.586 129.052ZM199.354 149.904H203.412V146.715H199.354V149.904ZM204.682 147.346C204.335 146.888 204.056 146.38 203.847 145.816L200.857 146.927C201.173 147.776 201.6 148.56 202.141 149.273L204.682 147.346ZM203.847 145.816C203.66 145.312 203.553 144.717 203.553 144.01H200.364C200.364 145.039 200.52 146.018 200.857 146.927L203.847 145.816ZM203.553 144.01C203.553 142.873 203.759 141.916 204.133 141.105L201.237 139.769C200.642 141.057 200.364 142.482 200.364 144.01H203.553ZM204.122 141.128C204.528 140.285 205.079 139.583 205.784 139.007L203.765 136.538C202.693 137.415 201.852 138.489 201.248 139.746L204.122 141.128ZM205.801 138.993C206.505 138.401 207.378 137.93 208.451 137.601L207.517 134.552C206.086 134.99 204.82 135.65 203.748 136.552L205.801 138.993ZM208.451 137.601C209.53 137.271 210.752 137.096 212.132 137.096V133.907C210.484 133.907 208.941 134.115 207.517 134.552L208.451 137.601ZM212.132 137.096H217.128V133.907H212.132V137.096ZM215.534 135.501V148.309H218.723V135.501H215.534ZM217.128 149.904H219.944V146.715H217.128V149.904ZM218.35 148.309V152.549H221.539V148.309H218.35ZM219.944 150.954H199.354V154.143H219.944V150.954ZM200.949 152.549V148.309H197.76V152.549H200.949ZM204.603 144.01C204.603 145.177 204.859 146.277 205.409 147.267L208.197 145.718C207.94 145.255 207.792 144.7 207.792 144.01H204.603ZM205.426 147.296C205.971 148.23 206.7 149.009 207.597 149.625L209.401 146.994C208.885 146.641 208.483 146.209 208.181 145.689L205.426 147.296ZM208.499 149.904H212.889V146.715H208.499V149.904ZM214.484 148.309V139.74H211.295V148.309H214.484ZM212.889 138.146H211.103V141.335H212.889V138.146ZM211.103 138.146C210.335 138.146 209.575 138.261 208.828 138.486L209.744 141.54C210.208 141.401 210.659 141.335 211.103 141.335V138.146ZM208.813 138.49C208.051 138.727 207.351 139.087 206.729 139.575L208.694 142.086C209 141.847 209.351 141.663 209.759 141.536L208.813 138.49ZM206.702 139.596C206.078 140.106 205.581 140.735 205.206 141.459L208.037 142.927C208.227 142.561 208.457 142.281 208.721 142.065L206.702 139.596ZM205.217 141.437C204.792 142.227 204.603 143.1 204.603 144.01H207.792C207.792 143.547 207.886 143.209 208.026 142.949L205.217 141.437ZM211.566 131.102C211.386 131.245 211.167 131.333 210.83 131.333V134.522C211.826 134.522 212.757 134.227 213.546 133.603L211.566 131.102ZM210.83 131.333C210.494 131.333 210.251 131.244 210.039 131.083L208.109 133.622C208.906 134.228 209.835 134.522 210.83 134.522V131.333ZM210.064 131.102C210.042 131.085 209.942 131.029 209.942 130.657H206.753C206.753 131.778 207.137 132.853 208.084 133.603L210.064 131.102ZM209.942 130.657C209.942 130.409 210.005 130.329 210.09 130.255L207.997 127.849C207.153 128.582 206.753 129.572 206.753 130.657H209.942ZM210.094 130.252C210.258 130.108 210.469 130.011 210.83 130.011V126.821C209.778 126.821 208.798 127.148 207.994 127.852L210.094 130.252ZM210.83 130.011C211.192 130.011 211.378 130.108 211.511 130.23L213.662 127.874C212.867 127.148 211.882 126.821 210.83 126.821V130.011ZM211.566 130.277C211.664 130.359 211.718 130.433 211.718 130.657H214.908C214.908 129.548 214.478 128.553 213.607 127.827L211.566 130.277ZM211.718 130.657C211.718 131.005 211.626 131.057 211.591 131.083L213.521 133.622C214.496 132.881 214.908 131.802 214.908 130.657H211.718ZM219.343 148.309V146.715H217.749V148.309H219.343ZM222.311 148.309V149.904H223.905V148.309H222.311ZM222.311 127.992V126.397H220.716V127.992H222.311ZM228.518 127.992H230.113V126.397H228.518V127.992ZM228.518 132.231V133.826H230.113V132.231H228.518ZM226.55 132.231V130.637H224.955V132.231H226.55ZM226.55 152.549V154.143H228.145V152.549H226.55ZM219.343 152.549H217.749V154.143H219.343V152.549ZM219.343 149.904H222.311V146.715H219.343V149.904ZM223.905 148.309V127.992H220.716V148.309H223.905ZM222.311 129.587H228.518V126.397H222.311V129.587ZM226.923 127.992V132.231H230.113V127.992H226.923ZM228.518 130.637H226.55V133.826H228.518V130.637ZM224.955 132.231V152.549H228.145V132.231H224.955ZM226.55 150.954H219.343V154.143H226.55V150.954ZM220.938 152.549V148.309H217.749V152.549H220.938ZM233.659 127.992V126.397H232.064V127.992H233.659ZM237.898 127.992H239.492V126.397H237.898V127.992ZM237.898 152.549V154.143H239.492V152.549H237.898ZM233.659 152.549H232.064V154.143H233.659V152.549ZM233.659 129.587H237.898V126.397H233.659V129.587ZM236.303 127.992V152.549H239.492V127.992H236.303ZM237.898 150.954H233.659V154.143H237.898V150.954ZM235.253 152.549V127.992H232.064V152.549H235.253Z" fill="#B20D78" mask="url(#path-19-outside-4_59_3076)"/>
</g>
<defs>
<filter id="filter0_d_59_3076" x="42.468" y="104.826" width="325.373" height="114.718" filterUnits="userSpaceOnUse" color-interpolation-filters="sRGB">
<feFlood flood-opacity="0" result="BackgroundImageFix"/>
<feColorMatrix in="SourceAlpha" type="matrix" values="0 0 0 0 0 0 0 0 0 0 0 0 0 0 0 0 0 0 127 0" result="hardAlpha"/>
<feOffset dy="4.78411"/>
<feComposite in2="hardAlpha" operator="out"/>
<feColorMatrix type="matrix" values="0 0 0 0 0.827451 0 0 0 0 0.847059 0 0 0 0 1 0 0 0 1 0"/>
<feBlend mode="normal" in2="BackgroundImageFix" result="effect1_dropShadow_59_3076"/>
<feBlend mode="normal" in="SourceGraphic" in2="effect1_dropShadow_59_3076" result="shape"/>
</filter>
<filter id="filter1_d_59_3076" x="169.312" y="34.9803" width="71.9453" height="72.7389" filterUnits="userSpaceOnUse" color-interpolation-filters="sRGB">
<feFlood flood-opacity="0" result="BackgroundImageFix"/>
<feColorMatrix in="SourceAlpha" type="matrix" values="0 0 0 0 0 0 0 0 0 0 0 0 0 0 0 0 0 0 127 0" result="hardAlpha"/>
<feOffset dy="4.78411"/>
<feComposite in2="hardAlpha" operator="out"/>
<feColorMatrix type="matrix" values="0 0 0 0 1 0 0 0 0 0.392 0 0 0 0 0.2 0 0 0 1 0"/>
<feBlend mode="normal" in2="BackgroundImageFix" result="effect1_dropShadow_59_3076"/>
<feBlend mode="normal" in="SourceGraphic" in2="effect1_dropShadow_59_3076" result="shape"/>
</filter>
<filter id="filter2_d_59_3076" x="110.421" y="62.4649" width="57.4363" height="59.2617" filterUnits="userSpaceOnUse" color-interpolation-filters="sRGB">
<feFlood flood-opacity="0" result="BackgroundImageFix"/>
<feColorMatrix in="SourceAlpha" type="matrix" values="0 0 0 0 0 0 0 0 0 0 0 0 0 0 0 0 0 0 127 0" result="hardAlpha"/>
<feOffset dy="4.78411"/>
<feComposite in2="hardAlpha" operator="out"/>
<feColorMatrix type="matrix" values="0 0 0 0 1 0 0 0 0 0.392 0 0 0 0 0.2 0 0 0 1 0"/>
<feBlend mode="normal" in2="BackgroundImageFix" result="effect1_dropShadow_59_3076"/>
<feBlend mode="normal" in="SourceGraphic" in2="effect1_dropShadow_59_3076" result="shape"/>
</filter>
<filter id="filter3_d_59_3076" x="241.194" y="62.4639" width="57.4363" height="59.2617" filterUnits="userSpaceOnUse" color-interpolation-filters="sRGB">
<feFlood flood-opacity="0" result="BackgroundImageFix"/>
<feColorMatrix in="SourceAlpha" type="matrix" values="0 0 0 0 0 0 0 0 0 0 0 0 0 0 0 0 0 0 127 0" result="hardAlpha"/>
<feOffset dy="4.78411"/>
<feComposite in2="hardAlpha" operator="out"/>
<feColorMatrix type="matrix" values="0 0 0 0 1 0 0 0 0 0.392 0 0 0 0 0.2 0 0 0 1 0"/>
<feBlend mode="normal" in2="BackgroundImageFix" result="effect1_dropShadow_59_3076"/>
<feBlend mode="normal" in="SourceGraphic" in2="effect1_dropShadow_59_3076" result="shape"/>
</filter>
<filter id="filter4_d_59_3076" x="165.161" y="125.61" width="74.3315" height="38.3839" filterUnits="userSpaceOnUse" color-interpolation-filters="sRGB">
<feFlood flood-opacity="0" result="BackgroundImageFix"/>
<feColorMatrix in="SourceAlpha" type="matrix" values="0 0 0 0 0 0 0 0 0 0 0 0 0 0 0 0 0 0 127 0" result="hardAlpha"/>
<feOffset dy="3.18941"/>
<feComposite in2="hardAlpha" operator="out"/>
<feColorMatrix type="matrix" values="0 0 0 0 0.698039 0 0 0 0 0.0509804 0 0 0 0 0.470588 0 0 0 1 0"/>
<feBlend mode="normal" in2="BackgroundImageFix" result="effect1_dropShadow_59_3076"/>
<feBlend mode="normal" in="SourceGraphic" in2="effect1_dropShadow_59_3076" result="shape"/>
</filter>
<radialGradient id="paint0_radial_59_3076" cx="0" cy="0" r="1" gradientUnits="userSpaceOnUse" gradientTransform="translate(204.847 106.114) rotate(89.8397) scale(88.0519 204.114)">
<stop stop-color="#FFEE37" stop-opacity="0.56"/>
<stop offset="1" stop-color="#FFF8AC" stop-opacity="0"/>
</radialGradient>
<linearGradient id="paint1_linear_59_3076" x1="72.7274" y1="132.311" x2="72.7274" y2="211.531" gradientUnits="userSpaceOnUse">
<stop stop-color="#A0539C"/>
<stop offset="1" stop-color="#EE81B1"/>
</linearGradient>
<linearGradient id="paint2_linear_59_3076" x1="337.582" y1="132.309" x2="337.582" y2="211.528" gradientUnits="userSpaceOnUse">
<stop stop-color="#A0539C"/>
<stop offset="1" stop-color="#EE81B1"/>
</linearGradient>
<linearGradient id="paint3_linear_59_3076" x1="204.33" y1="104.826" x2="204.33" y2="187.278" gradientUnits="userSpaceOnUse">
<stop stop-color="#A0539C"/>
<stop offset="1" stop-color="#EE81B1"/>
</linearGradient>
<linearGradient id="paint4_linear_59_3076" x1="204.996" y1="28.2513" x2="204.996" y2="115.699" gradientUnits="userSpaceOnUse">
<stop offset="0.25" stop-color="#FFEE37"/>
<stop offset="1" stop-color="#F78A3B"/>
</linearGradient>
<linearGradient id="paint5_linear_59_3076" x1="205.285" y1="27.2154" x2="205.285" y2="116.616" gradientUnits="userSpaceOnUse">
<stop offset="0.25" stop-color="#FFEE37"/>
<stop offset="1" stop-color="#F78A3B"/>
</linearGradient>
<linearGradient id="paint6_linear_59_3076" x1="138.904" y1="57.0559" x2="138.904" y2="127.316" gradientUnits="userSpaceOnUse">
<stop offset="0.25" stop-color="#FFEE37"/>
<stop offset="1" stop-color="#F78A3B"/>
</linearGradient>
<linearGradient id="paint7_linear_59_3076" x1="139.139" y1="54.7" x2="139.139" y2="129.2" gradientUnits="userSpaceOnUse">
<stop offset="0.25" stop-color="#FFEE37"/>
<stop offset="1" stop-color="#F78A3B"/>
</linearGradient>
<linearGradient id="paint8_linear_59_3076" x1="269.675" y1="57.0559" x2="269.675" y2="127.316" gradientUnits="userSpaceOnUse">
<stop offset="0.25" stop-color="#FFEE37"/>
<stop offset="1" stop-color="#F78A3B"/>
</linearGradient>
<linearGradient id="paint9_linear_59_3076" x1="269.912" y1="54.699" x2="269.912" y2="129.199" gradientUnits="userSpaceOnUse">
<stop offset="0.25" stop-color="#FFEE37"/>
<stop offset="1" stop-color="#F78A3B"/>
</linearGradient>
</defs>
</svg>
